<svg width="1440" height="2089" viewBox="0 0 1440 2089" fill="none" xmlns="http://www.w3.org/2000/svg">
<g clip-path="url(#clip0_1_746)">
<rect width="1440" height="2089" fill="#E8E8E8"/>
<rect x="1091" width="350" height="185" fill="#21201C"/>
<rect x="844" width="50" height="185" fill="#21201C"/>
<rect x="461" width="209" height="30" fill="#21201C"/>
<rect x="60" width="342" height="30" fill="#21201C"/>
<rect x="219" y="612" width="389" height="38" fill="#21201C"/>
<rect x="1292" y="1077" width="38" height="38" fill="#21201C"/>
<rect x="1091" y="1649" width="83" height="32" fill="#21201C"/>
<rect x="1295" y="1528" width="83" height="34" transform="rotate(-90 1295 1528)" fill="#21201C"/>
<rect x="944" y="55" width="100" height="130" fill="#21201C"/>
<rect x="894" y="800" width="398" height="315" fill="#21201C"/>
<rect x="1060" y="1413" width="235" height="236" fill="#21201C"/>
<rect x="-1" y="650" width="562" height="482" fill="#21201C"/>
<rect x="-1" y="1459" width="713" height="630" fill="#21201C"/>
<rect x="811" y="947" width="75" height="185" fill="#21201C"/>
<rect x="561" y="947" width="75" height="351" fill="#21201C"/>
<rect x="797" y="2049" width="97" height="40" fill="#21201C"/>
<rect x="712" y="1783" width="85" height="306" fill="#21201C"/>
<rect x="960" y="2049" width="480" height="40" fill="#21201C"/>
<rect x="894" y="185" width="546" height="422" fill="#21201C"/>
<rect x="1044" y="91" width="47" height="94" fill="#21201C"/>
<line x1="127.25" y1="650" x2="127.25" y2="1459" stroke="#8D8B84" stroke-width="0.5" stroke-dasharray="8 8"/>
<line x1="1440" y1="1298.25" y2="1298.25" stroke="#8D8B84" stroke-width="0.5" stroke-dasharray="8 8"/>
<circle cx="448.5" cy="637.5" r="321.25" stroke="#8D8B84" stroke-width="0.5"/>
<mask id="path-24-inside-1_1_746" fill="white">
<path d="M894 1649C987.091 1649 1076.37 1612.02 1142.19 1546.19C1208.02 1480.37 1245 1391.09 1245 1298C1245 1204.91 1208.02 1115.63 1142.19 1049.81C1076.37 983.98 987.091 947 894 947L894 1298L894 1649Z"/>
</mask>
<path d="M894 1649C987.091 1649 1076.37 1612.02 1142.19 1546.19C1208.02 1480.37 1245 1391.09 1245 1298C1245 1204.91 1208.02 1115.63 1142.19 1049.81C1076.37 983.98 987.091 947 894 947L894 1298L894 1649Z" stroke="#8D8B84" mask="url(#path-24-inside-1_1_746)"/>
<mask id="path-25-inside-2_1_746" fill="white">
<path d="M1122 2093.5C1122 2019.11 1092.45 1947.76 1039.84 1895.16C987.24 1842.55 915.893 1813 841.5 1813C767.107 1813 695.761 1842.55 643.157 1895.16C590.553 1947.76 561 2019.11 561 2093.5L841.5 2093.5H1122Z"/>
</mask>
<path d="M1122 2093.5C1122 2019.11 1092.45 1947.76 1039.84 1895.16C987.24 1842.55 915.893 1813 841.5 1813C767.107 1813 695.761 1842.55 643.157 1895.16C590.553 1947.76 561 2019.11 561 2093.5L841.5 2093.5H1122Z" stroke="#8D8B84" mask="url(#path-25-inside-2_1_746)"/>
<rect x="-63.75" y="316.25" width="833.242" height="333.5" stroke="#8D8B84" stroke-width="0.5"/>
<rect x="491.25" y="947.25" width="973.5" height="701.5" stroke="#8D8B84" stroke-width="0.5"/>
<rect x="-21.75" y="1459.25" width="733.5" height="701.5" stroke="#8D8B84" stroke-width="0.5"/>
<line x1="561.25" y1="-1.09278e-08" x2="561.25" y2="2089" stroke="#8D8B84" stroke-width="0.5"/>
<line x1="894.25" y1="-1.09278e-08" x2="894.25" y2="2089" stroke="#8D8B84" stroke-width="0.5"/>
<line x1="1091.25" y1="-1.09278e-08" x2="1091.25" y2="1649" stroke="#8D8B84" stroke-width="0.5"/>
<line x1="1194.25" y1="-1.09278e-08" x2="1194.25" y2="947" stroke="#8D8B84" stroke-width="0.5"/>
<path d="M899.75 1312V1307.01H900.38V1307.86H900.43C900.577 1307.57 900.78 1307.34 901.04 1307.19C901.307 1307.04 901.613 1306.96 901.96 1306.96H902.66V1307.59H901.96C901.487 1307.59 901.11 1307.75 900.83 1308.07C900.55 1308.39 900.41 1308.81 900.41 1309.33V1312H899.75ZM907.997 1312.11C907.451 1312.11 906.977 1312.02 906.577 1311.85C906.184 1311.68 905.877 1311.44 905.657 1311.13C905.437 1310.82 905.311 1310.46 905.277 1310.05H906.027C906.074 1310.5 906.267 1310.84 906.607 1311.08C906.947 1311.31 907.411 1311.43 907.997 1311.43C908.391 1311.43 908.724 1311.37 908.997 1311.24C909.277 1311.11 909.487 1310.93 909.627 1310.7C909.774 1310.47 909.847 1310.22 909.847 1309.93C909.847 1309.63 909.774 1309.37 909.627 1309.15C909.481 1308.92 909.267 1308.75 908.987 1308.64C908.714 1308.53 908.387 1308.47 908.007 1308.47H906.767V1307.85L909.287 1305.73V1305.68H905.817V1305H910.137V1305.81L907.777 1307.81V1308.07L907.597 1307.86H908.127C908.614 1307.86 909.041 1307.94 909.407 1308.11C909.781 1308.28 910.067 1308.52 910.267 1308.83C910.474 1309.14 910.577 1309.51 910.577 1309.93C910.577 1310.32 910.477 1310.69 910.277 1311.02C910.077 1311.35 909.781 1311.62 909.387 1311.82C909.001 1312.01 908.537 1312.11 907.997 1312.11ZM914.015 1312.11C913.489 1312.11 913.029 1312.02 912.635 1311.84C912.242 1311.66 911.935 1311.41 911.715 1311.1C911.495 1310.79 911.369 1310.44 911.335 1310.05H912.085C912.125 1310.33 912.225 1310.57 912.385 1310.78C912.552 1310.99 912.772 1311.15 913.045 1311.26C913.325 1311.37 913.649 1311.43 914.015 1311.43C914.402 1311.43 914.739 1311.36 915.025 1311.21C915.312 1311.06 915.532 1310.85 915.685 1310.58C915.839 1310.31 915.915 1310.01 915.915 1309.68C915.915 1309.37 915.839 1309.09 915.685 1308.84C915.539 1308.58 915.325 1308.38 915.045 1308.23C914.772 1308.08 914.452 1308.01 914.085 1308.01C913.732 1308.01 913.409 1308.07 913.115 1308.2C912.822 1308.32 912.595 1308.49 912.435 1308.72H911.755L912.295 1305H916.175V1305.68H912.835L912.505 1307.9H912.555C912.755 1307.73 912.992 1307.59 913.265 1307.5C913.545 1307.41 913.849 1307.36 914.175 1307.36C914.662 1307.36 915.092 1307.46 915.465 1307.67C915.839 1307.88 916.125 1308.16 916.325 1308.51C916.532 1308.86 916.635 1309.25 916.635 1309.68C916.635 1310.15 916.529 1310.57 916.315 1310.94C916.109 1311.31 915.809 1311.59 915.415 1311.8C915.022 1312.01 914.555 1312.11 914.015 1312.11ZM920.648 1312.11C920.075 1312.11 919.548 1311.96 919.068 1311.67C918.588 1311.38 918.205 1310.96 917.918 1310.41C917.638 1309.86 917.498 1309.23 917.498 1308.5C917.498 1307.77 917.638 1307.14 917.918 1306.59C918.205 1306.04 918.588 1305.62 919.068 1305.33C919.548 1305.04 920.075 1304.89 920.648 1304.89C921.221 1304.89 921.745 1305.04 922.218 1305.33C922.698 1305.62 923.078 1306.04 923.358 1306.59C923.645 1307.14 923.788 1307.77 923.788 1308.5C923.788 1309.23 923.645 1309.86 923.358 1310.41C923.078 1310.96 922.698 1311.38 922.218 1311.67C921.745 1311.96 921.221 1312.11 920.648 1312.11ZM920.648 1311.43C921.088 1311.43 921.491 1311.32 921.858 1311.1C922.225 1310.88 922.518 1310.55 922.738 1310.11C922.958 1309.66 923.068 1309.13 923.068 1308.5C923.068 1307.87 922.958 1307.34 922.738 1306.9C922.518 1306.45 922.225 1306.12 921.858 1305.9C921.491 1305.68 921.088 1305.57 920.648 1305.57C920.201 1305.57 919.795 1305.68 919.428 1305.9C919.061 1306.12 918.768 1306.45 918.548 1306.9C918.335 1307.34 918.228 1307.87 918.228 1308.5C918.228 1309.13 918.335 1309.66 918.548 1310.11C918.768 1310.55 919.061 1310.88 919.428 1311.1C919.795 1311.32 920.201 1311.43 920.648 1311.43Z" fill="#8D8B84"/>
<path d="M498.19 1453.1C497.85 1453.1 497.547 1453.04 497.28 1452.91C497.02 1452.78 496.817 1452.59 496.67 1452.36C496.523 1452.13 496.45 1451.87 496.45 1451.58C496.45 1451.3 496.52 1451.05 496.66 1450.83C496.807 1450.6 497.02 1450.43 497.3 1450.3C497.58 1450.17 497.923 1450.11 498.33 1450.11H500.43V1450.66H498.36C497.947 1450.66 497.637 1450.74 497.43 1450.91C497.23 1451.08 497.13 1451.29 497.13 1451.56C497.13 1451.84 497.233 1452.07 497.44 1452.24C497.647 1452.41 497.947 1452.49 498.34 1452.49C498.687 1452.49 498.997 1452.42 499.27 1452.27C499.543 1452.12 499.757 1451.91 499.91 1451.64C500.063 1451.37 500.14 1451.07 500.14 1450.73V1449.77C500.14 1449.37 500.013 1449.06 499.76 1448.84C499.513 1448.62 499.18 1448.51 498.76 1448.51C498.353 1448.51 498.033 1448.6 497.8 1448.79C497.567 1448.98 497.417 1449.21 497.35 1449.5H496.67C496.71 1449.21 496.817 1448.95 496.99 1448.71C497.163 1448.47 497.4 1448.28 497.7 1448.13C498.007 1447.98 498.36 1447.91 498.76 1447.91C499.18 1447.91 499.54 1447.99 499.84 1448.14C500.147 1448.29 500.38 1448.51 500.54 1448.8C500.707 1449.08 500.79 1449.4 500.79 1449.77V1453H500.16V1452.09H500.11C499.963 1452.37 499.723 1452.61 499.39 1452.81C499.057 1453 498.657 1453.1 498.19 1453.1ZM504.782 1453L507.982 1446.75V1446.7H504.022V1446H508.762V1446.78L505.612 1453H504.782ZM510.967 1453V1446.55L511.227 1446.66L509.467 1448.04V1447.23L511.017 1446H511.667V1453H510.967ZM513.18 1453V1452.12L516.07 1449.89C516.384 1449.64 516.63 1449.41 516.81 1449.22C516.997 1449.02 517.13 1448.82 517.21 1448.63C517.297 1448.43 517.34 1448.22 517.34 1447.99C517.34 1447.56 517.197 1447.21 516.91 1446.96C516.63 1446.7 516.257 1446.57 515.79 1446.57C515.257 1446.57 514.84 1446.71 514.54 1447C514.247 1447.29 514.08 1447.66 514.04 1448.11H513.32C513.334 1447.71 513.43 1447.34 513.61 1447.01C513.797 1446.68 514.07 1446.41 514.43 1446.2C514.797 1445.99 515.25 1445.89 515.79 1445.89C516.25 1445.89 516.65 1445.98 516.99 1446.16C517.33 1446.33 517.594 1446.58 517.78 1446.89C517.967 1447.2 518.06 1447.56 518.06 1447.96C518.06 1448.27 518.007 1448.56 517.9 1448.81C517.8 1449.06 517.637 1449.32 517.41 1449.58C517.184 1449.83 516.87 1450.11 516.47 1450.41L514.09 1452.27V1452.32H518.23V1453H513.18Z" fill="#8D8B84"/>
<path d="M132.8 1453V1446H133.46V1448.85H133.51C133.677 1448.56 133.91 1448.34 134.21 1448.17C134.517 1448 134.867 1447.91 135.26 1447.91C135.66 1447.91 136.003 1447.99 136.29 1448.16C136.583 1448.32 136.807 1448.56 136.96 1448.88C137.113 1449.2 137.19 1449.58 137.19 1450.03V1453H136.53V1450.14C136.53 1449.62 136.41 1449.22 136.17 1448.94C135.93 1448.65 135.58 1448.51 135.12 1448.51C134.807 1448.51 134.523 1448.58 134.27 1448.73C134.017 1448.88 133.817 1449.08 133.67 1449.35C133.53 1449.61 133.46 1449.91 133.46 1450.26V1453H132.8ZM143.538 1453.11C143.004 1453.11 142.538 1453.03 142.138 1452.87C141.744 1452.71 141.438 1452.48 141.218 1452.18C140.998 1451.87 140.888 1451.51 140.888 1451.1C140.888 1450.67 141.011 1450.31 141.258 1450C141.504 1449.69 141.848 1449.47 142.288 1449.35V1449.3C141.888 1449.16 141.588 1448.96 141.388 1448.7C141.194 1448.43 141.097 1448.12 141.097 1447.76C141.097 1447.39 141.191 1447.07 141.378 1446.79C141.571 1446.5 141.851 1446.28 142.218 1446.13C142.584 1445.97 143.024 1445.89 143.538 1445.89C144.051 1445.89 144.491 1445.97 144.858 1446.13C145.224 1446.28 145.504 1446.5 145.698 1446.79C145.891 1447.07 145.988 1447.39 145.988 1447.76C145.988 1448.12 145.888 1448.43 145.688 1448.7C145.494 1448.96 145.194 1449.16 144.788 1449.3V1449.35C145.228 1449.47 145.571 1449.69 145.818 1450C146.064 1450.31 146.188 1450.67 146.188 1451.1C146.188 1451.51 146.078 1451.87 145.858 1452.18C145.644 1452.48 145.338 1452.71 144.938 1452.87C144.538 1453.03 144.071 1453.11 143.538 1453.11ZM143.538 1452.43C144.151 1452.43 144.624 1452.31 144.958 1452.08C145.298 1451.85 145.468 1451.5 145.468 1451.05C145.468 1450.6 145.298 1450.26 144.958 1450.03C144.624 1449.8 144.151 1449.68 143.538 1449.68C142.924 1449.68 142.451 1449.8 142.118 1450.03C141.784 1450.26 141.618 1450.6 141.618 1451.05C141.618 1451.5 141.784 1451.85 142.118 1452.08C142.451 1452.31 142.924 1452.43 143.538 1452.43ZM143.538 1449.01C144.104 1449.01 144.531 1448.9 144.818 1448.69C145.111 1448.48 145.258 1448.18 145.258 1447.79C145.258 1447.4 145.114 1447.1 144.828 1446.89C144.541 1446.68 144.111 1446.57 143.538 1446.57C142.964 1446.57 142.534 1446.68 142.248 1446.89C141.961 1447.1 141.818 1447.4 141.818 1447.79C141.818 1448.18 141.964 1448.48 142.258 1448.69C142.551 1448.9 142.978 1449.01 143.538 1449.01ZM148.471 1453V1446.55L148.731 1446.66L146.971 1448.04V1447.23L148.521 1446H149.171V1453H148.471ZM153.804 1453.11C153.231 1453.11 152.704 1452.96 152.224 1452.67C151.744 1452.38 151.361 1451.96 151.074 1451.41C150.794 1450.86 150.654 1450.23 150.654 1449.5C150.654 1448.77 150.794 1448.14 151.074 1447.59C151.361 1447.04 151.744 1446.62 152.224 1446.33C152.704 1446.04 153.231 1445.89 153.804 1445.89C154.378 1445.89 154.901 1446.04 155.374 1446.33C155.854 1446.62 156.234 1447.04 156.514 1447.59C156.801 1448.14 156.944 1448.77 156.944 1449.5C156.944 1450.23 156.801 1450.86 156.514 1451.41C156.234 1451.96 155.854 1452.38 155.374 1452.67C154.901 1452.96 154.378 1453.11 153.804 1453.11ZM153.804 1452.43C154.244 1452.43 154.648 1452.32 155.014 1452.1C155.381 1451.88 155.674 1451.55 155.894 1451.11C156.114 1450.66 156.224 1450.13 156.224 1449.5C156.224 1448.87 156.114 1448.34 155.894 1447.9C155.674 1447.45 155.381 1447.12 155.014 1446.9C154.648 1446.68 154.244 1446.57 153.804 1446.57C153.358 1446.57 152.951 1446.68 152.584 1446.9C152.218 1447.12 151.924 1447.45 151.704 1447.9C151.491 1448.34 151.384 1448.87 151.384 1449.5C151.384 1450.13 151.491 1450.66 151.704 1451.11C151.924 1451.55 152.218 1451.88 152.584 1452.1C152.951 1452.32 153.358 1452.43 153.804 1452.43Z" fill="#8D8B84"/>
<path d="M718.76 1777L717.3 1772.01H717.98L719.19 1776.28H719.24L720.42 1772.01H721.25L722.43 1776.28H722.48L723.7 1772.01H724.37L722.9 1777H722.04L720.85 1772.73H720.8L719.62 1777H718.76ZM730.12 1777.11C729.586 1777.11 729.12 1777.03 728.72 1776.87C728.326 1776.71 728.02 1776.48 727.8 1776.18C727.58 1775.87 727.47 1775.51 727.47 1775.1C727.47 1774.67 727.593 1774.31 727.84 1774C728.086 1773.69 728.43 1773.47 728.87 1773.35V1773.3C728.47 1773.16 728.17 1772.96 727.97 1772.7C727.776 1772.43 727.68 1772.12 727.68 1771.76C727.68 1771.39 727.773 1771.07 727.96 1770.79C728.153 1770.5 728.433 1770.28 728.8 1770.13C729.166 1769.97 729.606 1769.89 730.12 1769.89C730.633 1769.89 731.073 1769.97 731.44 1770.13C731.806 1770.28 732.086 1770.5 732.28 1770.79C732.473 1771.07 732.57 1771.39 732.57 1771.76C732.57 1772.12 732.47 1772.43 732.27 1772.7C732.076 1772.96 731.776 1773.16 731.37 1773.3V1773.35C731.81 1773.47 732.153 1773.69 732.4 1774C732.646 1774.31 732.77 1774.67 732.77 1775.1C732.77 1775.51 732.66 1775.87 732.44 1776.18C732.226 1776.48 731.92 1776.71 731.52 1776.87C731.12 1777.03 730.653 1777.11 730.12 1777.11ZM730.12 1776.43C730.733 1776.43 731.206 1776.31 731.54 1776.08C731.88 1775.85 732.05 1775.5 732.05 1775.05C732.05 1774.6 731.88 1774.26 731.54 1774.03C731.206 1773.8 730.733 1773.68 730.12 1773.68C729.506 1773.68 729.033 1773.8 728.7 1774.03C728.366 1774.26 728.2 1774.6 728.2 1775.05C728.2 1775.5 728.366 1775.85 728.7 1776.08C729.033 1776.31 729.506 1776.43 730.12 1776.43ZM730.12 1773.01C730.686 1773.01 731.113 1772.9 731.4 1772.69C731.693 1772.48 731.84 1772.18 731.84 1771.79C731.84 1771.4 731.696 1771.1 731.41 1770.89C731.123 1770.68 730.693 1770.57 730.12 1770.57C729.546 1770.57 729.116 1770.68 728.83 1770.89C728.543 1771.1 728.4 1771.4 728.4 1771.79C728.4 1772.18 728.546 1772.48 728.84 1772.69C729.133 1772.9 729.56 1773.01 730.12 1773.01ZM736.283 1777.11C735.756 1777.11 735.296 1777.02 734.903 1776.84C734.51 1776.66 734.203 1776.41 733.983 1776.1C733.763 1775.79 733.636 1775.44 733.603 1775.05H734.353C734.393 1775.33 734.493 1775.57 734.653 1775.78C734.82 1775.99 735.04 1776.15 735.313 1776.26C735.593 1776.37 735.916 1776.43 736.283 1776.43C736.67 1776.43 737.006 1776.36 737.293 1776.21C737.58 1776.06 737.8 1775.85 737.953 1775.58C738.106 1775.31 738.183 1775.01 738.183 1774.68C738.183 1774.37 738.106 1774.09 737.953 1773.84C737.806 1773.58 737.593 1773.38 737.313 1773.23C737.04 1773.08 736.72 1773.01 736.353 1773.01C736 1773.01 735.676 1773.07 735.383 1773.2C735.09 1773.32 734.863 1773.49 734.703 1773.72H734.023L734.563 1770H738.443V1770.68H735.103L734.773 1772.9H734.823C735.023 1772.73 735.26 1772.59 735.533 1772.5C735.813 1772.41 736.116 1772.36 736.443 1772.36C736.93 1772.36 737.36 1772.46 737.733 1772.67C738.106 1772.88 738.393 1773.16 738.593 1773.51C738.8 1773.86 738.903 1774.25 738.903 1774.68C738.903 1775.15 738.796 1775.57 738.583 1775.94C738.376 1776.31 738.076 1776.59 737.683 1776.8C737.29 1777.01 736.823 1777.11 736.283 1777.11Z" fill="#8D8B84"/>
<path d="M717.8 2083V2076H718.46V2078.85H718.51C718.677 2078.56 718.91 2078.34 719.21 2078.17C719.517 2078 719.867 2077.91 720.26 2077.91C720.66 2077.91 721.003 2077.99 721.29 2078.16C721.583 2078.32 721.807 2078.56 721.96 2078.88C722.113 2079.2 722.19 2079.58 722.19 2080.03V2083H721.53V2080.14C721.53 2079.62 721.41 2079.22 721.17 2078.94C720.93 2078.65 720.58 2078.51 720.12 2078.51C719.807 2078.51 719.523 2078.58 719.27 2078.73C719.017 2078.88 718.817 2079.08 718.67 2079.35C718.53 2079.61 718.46 2079.91 718.46 2080.26V2083H717.8ZM728.292 2083.11C727.746 2083.11 727.272 2083.02 726.872 2082.85C726.479 2082.68 726.172 2082.44 725.952 2082.13C725.732 2081.82 725.606 2081.46 725.572 2081.05H726.322C726.369 2081.5 726.562 2081.84 726.902 2082.08C727.242 2082.31 727.706 2082.43 728.292 2082.43C728.686 2082.43 729.019 2082.37 729.292 2082.24C729.572 2082.11 729.782 2081.93 729.922 2081.7C730.069 2081.47 730.142 2081.22 730.142 2080.93C730.142 2080.63 730.069 2080.37 729.922 2080.15C729.776 2079.92 729.562 2079.75 729.282 2079.64C729.009 2079.53 728.682 2079.47 728.302 2079.47H727.062V2078.85L729.582 2076.73V2076.68H726.112V2076H730.432V2076.81L728.072 2078.81V2079.07L727.892 2078.86H728.422C728.909 2078.86 729.336 2078.94 729.702 2079.11C730.076 2079.28 730.362 2079.52 730.562 2079.83C730.769 2080.14 730.872 2080.51 730.872 2080.93C730.872 2081.32 730.772 2081.69 730.572 2082.02C730.372 2082.35 730.076 2082.62 729.682 2082.82C729.296 2083.01 728.832 2083.11 728.292 2083.11ZM734.898 2083.11C734.325 2083.11 733.798 2082.96 733.318 2082.67C732.838 2082.38 732.455 2081.96 732.168 2081.41C731.888 2080.86 731.748 2080.23 731.748 2079.5C731.748 2078.77 731.888 2078.14 732.168 2077.59C732.455 2077.04 732.838 2076.62 733.318 2076.33C733.798 2076.04 734.325 2075.89 734.898 2075.89C735.471 2075.89 735.995 2076.04 736.468 2076.33C736.948 2076.62 737.328 2077.04 737.608 2077.59C737.895 2078.14 738.038 2078.77 738.038 2079.5C738.038 2080.23 737.895 2080.86 737.608 2081.41C737.328 2081.96 736.948 2082.38 736.468 2082.67C735.995 2082.96 735.471 2083.11 734.898 2083.11ZM734.898 2082.43C735.338 2082.43 735.741 2082.32 736.108 2082.1C736.475 2081.88 736.768 2081.55 736.988 2081.11C737.208 2080.66 737.318 2080.13 737.318 2079.5C737.318 2078.87 737.208 2078.34 736.988 2077.9C736.768 2077.45 736.475 2077.12 736.108 2076.9C735.741 2076.68 735.338 2076.57 734.898 2076.57C734.451 2076.57 734.045 2076.68 733.678 2076.9C733.311 2077.12 733.018 2077.45 732.798 2077.9C732.585 2078.34 732.478 2078.87 732.478 2079.5C732.478 2080.13 732.585 2080.66 732.798 2081.11C733.018 2081.55 733.311 2081.88 733.678 2082.1C734.045 2082.32 734.451 2082.43 734.898 2082.43ZM741.693 2083.11C741.153 2083.11 740.68 2083 740.273 2082.79C739.866 2082.57 739.55 2082.28 739.323 2081.91C739.103 2081.54 738.993 2081.12 738.993 2080.67C738.993 2080.36 739.056 2080.05 739.183 2079.73C739.31 2079.41 739.5 2079.09 739.753 2078.76L741.873 2076H742.733L740.633 2078.68L740.413 2078.5C740.593 2078.42 740.79 2078.36 741.003 2078.31C741.223 2078.26 741.453 2078.24 741.693 2078.24C742.233 2078.24 742.706 2078.35 743.113 2078.56C743.526 2078.77 743.843 2079.07 744.063 2079.44C744.283 2079.81 744.393 2080.22 744.393 2080.67C744.393 2081.12 744.283 2081.54 744.063 2081.91C743.843 2082.28 743.526 2082.57 743.113 2082.79C742.706 2083 742.233 2083.11 741.693 2083.11ZM741.693 2082.46C742.1 2082.46 742.45 2082.38 742.743 2082.23C743.043 2082.07 743.273 2081.86 743.433 2081.59C743.593 2081.32 743.673 2081.01 743.673 2080.67C743.673 2080.33 743.593 2080.03 743.433 2079.76C743.273 2079.49 743.043 2079.27 742.743 2079.12C742.45 2078.97 742.1 2078.89 741.693 2078.89C741.286 2078.89 740.933 2078.97 740.633 2079.12C740.34 2079.27 740.113 2079.49 739.953 2079.76C739.8 2080.03 739.723 2080.33 739.723 2080.67C739.723 2081.01 739.8 2081.32 739.953 2081.59C740.113 2081.86 740.34 2082.07 740.633 2082.23C740.933 2082.38 741.286 2082.46 741.693 2082.46Z" fill="#8D8B84"/>
<path d="M529.202 2083V2076H529.862V2078.85H529.912C530.079 2078.56 530.312 2078.34 530.612 2078.17C530.919 2078 531.269 2077.91 531.662 2077.91C532.062 2077.91 532.406 2077.99 532.692 2078.16C532.986 2078.32 533.209 2078.56 533.362 2078.88C533.516 2079.2 533.592 2079.58 533.592 2080.03V2083H532.932V2080.14C532.932 2079.62 532.812 2079.22 532.572 2078.94C532.332 2078.65 531.982 2078.51 531.522 2078.51C531.209 2078.51 530.926 2078.58 530.672 2078.73C530.419 2078.88 530.219 2079.08 530.072 2079.35C529.932 2079.61 529.862 2079.91 529.862 2080.26V2083H529.202ZM539.795 2083.11C539.255 2083.11 538.781 2083 538.375 2082.79C537.968 2082.57 537.651 2082.28 537.425 2081.91C537.205 2081.54 537.095 2081.12 537.095 2080.67C537.095 2080.36 537.158 2080.05 537.285 2079.73C537.411 2079.41 537.601 2079.09 537.855 2078.76L539.975 2076H540.835L538.735 2078.68L538.515 2078.5C538.695 2078.42 538.891 2078.36 539.105 2078.31C539.325 2078.26 539.555 2078.24 539.795 2078.24C540.335 2078.24 540.808 2078.35 541.215 2078.56C541.628 2078.77 541.945 2079.07 542.165 2079.44C542.385 2079.81 542.495 2080.22 542.495 2080.67C542.495 2081.12 542.385 2081.54 542.165 2081.91C541.945 2082.28 541.628 2082.57 541.215 2082.79C540.808 2083 540.335 2083.11 539.795 2083.11ZM539.795 2082.46C540.201 2082.46 540.551 2082.38 540.845 2082.23C541.145 2082.07 541.375 2081.86 541.535 2081.59C541.695 2081.32 541.775 2081.01 541.775 2080.67C541.775 2080.33 541.695 2080.03 541.535 2079.76C541.375 2079.49 541.145 2079.27 540.845 2079.12C540.551 2078.97 540.201 2078.89 539.795 2078.89C539.388 2078.89 539.035 2078.97 538.735 2079.12C538.441 2079.27 538.215 2079.49 538.055 2079.76C537.901 2080.03 537.825 2080.33 537.825 2080.67C537.825 2081.01 537.901 2081.32 538.055 2081.59C538.215 2081.86 538.441 2082.07 538.735 2082.23C539.035 2082.38 539.388 2082.46 539.795 2082.46ZM545.749 2083.11C545.203 2083.11 544.729 2083.02 544.329 2082.85C543.936 2082.68 543.629 2082.44 543.409 2082.13C543.189 2081.82 543.063 2081.46 543.029 2081.05H543.779C543.826 2081.5 544.019 2081.84 544.359 2082.08C544.699 2082.31 545.163 2082.43 545.749 2082.43C546.143 2082.43 546.476 2082.37 546.749 2082.24C547.029 2082.11 547.239 2081.93 547.379 2081.7C547.526 2081.47 547.599 2081.22 547.599 2080.93C547.599 2080.63 547.526 2080.37 547.379 2080.15C547.233 2079.92 547.019 2079.75 546.739 2079.64C546.466 2079.53 546.139 2079.47 545.759 2079.47H544.519V2078.85L547.039 2076.73V2076.68H543.569V2076H547.889V2076.81L545.529 2078.81V2079.07L545.349 2078.86H545.879C546.366 2078.86 546.793 2078.94 547.159 2079.11C547.533 2079.28 547.819 2079.52 548.019 2079.83C548.226 2080.14 548.329 2080.51 548.329 2080.93C548.329 2081.32 548.229 2081.69 548.029 2082.02C547.829 2082.35 547.533 2082.62 547.139 2082.82C546.753 2083.01 546.289 2083.11 545.749 2083.11ZM552.355 2083.11C551.782 2083.11 551.255 2082.96 550.775 2082.67C550.295 2082.38 549.912 2081.96 549.625 2081.41C549.345 2080.86 549.205 2080.23 549.205 2079.5C549.205 2078.77 549.345 2078.14 549.625 2077.59C549.912 2077.04 550.295 2076.62 550.775 2076.33C551.255 2076.04 551.782 2075.89 552.355 2075.89C552.928 2075.89 553.452 2076.04 553.925 2076.33C554.405 2076.62 554.785 2077.04 555.065 2077.59C555.352 2078.14 555.495 2078.77 555.495 2079.5C555.495 2080.23 555.352 2080.86 555.065 2081.41C554.785 2081.96 554.405 2082.38 553.925 2082.67C553.452 2082.96 552.928 2083.11 552.355 2083.11ZM552.355 2082.43C552.795 2082.43 553.198 2082.32 553.565 2082.1C553.932 2081.88 554.225 2081.55 554.445 2081.11C554.665 2080.66 554.775 2080.13 554.775 2079.5C554.775 2078.87 554.665 2078.34 554.445 2077.9C554.225 2077.45 553.932 2077.12 553.565 2076.9C553.198 2076.68 552.795 2076.57 552.355 2076.57C551.908 2076.57 551.502 2076.68 551.135 2076.9C550.768 2077.12 550.475 2077.45 550.255 2077.9C550.042 2078.34 549.935 2078.87 549.935 2079.5C549.935 2080.13 550.042 2080.66 550.255 2081.11C550.475 2081.55 550.768 2081.88 551.135 2082.1C551.502 2082.32 551.908 2082.43 552.355 2082.43Z" fill="#8D8B84"/>
<path d="M569.96 179.1C569.48 179.1 569.047 178.987 568.66 178.76C568.28 178.533 567.98 178.223 567.76 177.83C567.54 177.437 567.43 176.993 567.43 176.5C567.43 176.013 567.54 175.573 567.76 175.18C567.98 174.78 568.28 174.47 568.66 174.25C569.047 174.023 569.48 173.91 569.96 173.91C570.333 173.91 570.68 173.983 571 174.13C571.327 174.277 571.603 174.487 571.83 174.76C572.063 175.033 572.223 175.347 572.31 175.7H571.64C571.513 175.333 571.297 175.043 570.99 174.83C570.69 174.617 570.347 174.51 569.96 174.51C569.6 174.51 569.277 174.597 568.99 174.77C568.71 174.937 568.49 175.17 568.33 175.47C568.177 175.77 568.1 176.113 568.1 176.5C568.1 176.887 568.177 177.233 568.33 177.54C568.49 177.84 568.71 178.073 568.99 178.24C569.277 178.407 569.6 178.49 569.96 178.49C570.347 178.49 570.69 178.383 570.99 178.17C571.297 177.957 571.513 177.667 571.64 177.3H572.31C572.223 177.66 572.063 177.977 571.83 178.25C571.603 178.517 571.327 178.727 571 178.88C570.68 179.027 570.333 179.1 569.96 179.1ZM575.792 179L578.992 172.75V172.7H575.032V172H579.772V172.78L576.622 179H575.792Z" fill="#8D8B84"/>
<path d="M738.625 330L737.165 325.01H737.845L739.055 329.28H739.105L740.285 325.01H741.115L742.295 329.28H742.345L743.565 325.01H744.235L742.765 330H741.905L740.715 325.73H740.665L739.485 330H738.625ZM749.985 330.11C749.451 330.11 748.985 330.03 748.585 329.87C748.191 329.71 747.885 329.48 747.665 329.18C747.445 328.873 747.335 328.513 747.335 328.1C747.335 327.673 747.458 327.307 747.705 327C747.951 326.687 748.295 326.47 748.735 326.35V326.3C748.335 326.16 748.035 325.96 747.835 325.7C747.641 325.433 747.545 325.12 747.545 324.76C747.545 324.393 747.638 324.07 747.825 323.79C748.018 323.503 748.298 323.283 748.665 323.13C749.031 322.97 749.471 322.89 749.985 322.89C750.498 322.89 750.938 322.97 751.305 323.13C751.671 323.283 751.951 323.503 752.145 323.79C752.338 324.07 752.435 324.393 752.435 324.76C752.435 325.12 752.335 325.433 752.135 325.7C751.941 325.96 751.641 326.16 751.235 326.3V326.35C751.675 326.47 752.018 326.687 752.265 327C752.511 327.307 752.635 327.673 752.635 328.1C752.635 328.513 752.525 328.873 752.305 329.18C752.091 329.48 751.785 329.71 751.385 329.87C750.985 330.03 750.518 330.11 749.985 330.11ZM749.985 329.43C750.598 329.43 751.071 329.313 751.405 329.08C751.745 328.847 751.915 328.503 751.915 328.05C751.915 327.603 751.745 327.263 751.405 327.03C751.071 326.797 750.598 326.68 749.985 326.68C749.371 326.68 748.898 326.797 748.565 327.03C748.231 327.263 748.065 327.603 748.065 328.05C748.065 328.503 748.231 328.847 748.565 329.08C748.898 329.313 749.371 329.43 749.985 329.43ZM749.985 326.01C750.551 326.01 750.978 325.903 751.265 325.69C751.558 325.477 751.705 325.177 751.705 324.79C751.705 324.403 751.561 324.103 751.275 323.89C750.988 323.677 750.558 323.57 749.985 323.57C749.411 323.57 748.981 323.677 748.695 323.89C748.408 324.103 748.265 324.403 748.265 324.79C748.265 325.177 748.411 325.477 748.705 325.69C748.998 325.903 749.425 326.01 749.985 326.01ZM756.038 330.11C755.492 330.11 755.018 330.023 754.618 329.85C754.225 329.677 753.918 329.437 753.698 329.13C753.478 328.817 753.352 328.457 753.318 328.05H754.068C754.115 328.497 754.308 328.84 754.648 329.08C754.988 329.313 755.452 329.43 756.038 329.43C756.432 329.43 756.765 329.367 757.038 329.24C757.318 329.107 757.528 328.927 757.668 328.7C757.815 328.473 757.888 328.217 757.888 327.93C757.888 327.63 757.815 327.37 757.668 327.15C757.522 326.923 757.308 326.753 757.028 326.64C756.755 326.527 756.428 326.47 756.048 326.47H754.808V325.85L757.328 323.73V323.68H753.858V323H758.178V323.81L755.818 325.81V326.07L755.638 325.86H756.168C756.655 325.86 757.082 325.943 757.448 326.11C757.822 326.277 758.108 326.517 758.308 326.83C758.515 327.143 758.618 327.51 758.618 327.93C758.618 328.323 758.518 328.687 758.318 329.02C758.118 329.353 757.822 329.62 757.428 329.82C757.042 330.013 756.578 330.11 756.038 330.11ZM761.946 330.11C761.4 330.11 760.926 330.023 760.526 329.85C760.133 329.677 759.826 329.437 759.606 329.13C759.386 328.817 759.26 328.457 759.226 328.05H759.976C760.023 328.497 760.216 328.84 760.556 329.08C760.896 329.313 761.36 329.43 761.946 329.43C762.34 329.43 762.673 329.367 762.946 329.24C763.226 329.107 763.436 328.927 763.576 328.7C763.723 328.473 763.796 328.217 763.796 327.93C763.796 327.63 763.723 327.37 763.576 327.15C763.43 326.923 763.216 326.753 762.936 326.64C762.663 326.527 762.336 326.47 761.956 326.47H760.716V325.85L763.236 323.73V323.68H759.766V323H764.086V323.81L761.726 325.81V326.07L761.546 325.86H762.076C762.563 325.86 762.99 325.943 763.356 326.11C763.73 326.277 764.016 326.517 764.216 326.83C764.423 327.143 764.526 327.51 764.526 327.93C764.526 328.323 764.426 328.687 764.226 329.02C764.026 329.353 763.73 329.62 763.336 329.82C762.95 330.013 762.486 330.11 761.946 330.11Z" fill="#8D8B84"/>
<path d="M1097.96 179V172H1098.66V178.32H1102.42V179H1097.96ZM1106.65 179V172.55L1106.91 172.66L1105.15 174.04V173.23L1106.7 172H1107.35V179H1106.65ZM1111.99 179.11C1111.41 179.11 1110.89 178.963 1110.41 178.67C1109.93 178.377 1109.54 177.957 1109.26 177.41C1108.98 176.863 1108.84 176.227 1108.84 175.5C1108.84 174.773 1108.98 174.137 1109.26 173.59C1109.54 173.043 1109.93 172.623 1110.41 172.33C1110.89 172.037 1111.41 171.89 1111.99 171.89C1112.56 171.89 1113.08 172.037 1113.56 172.33C1114.04 172.623 1114.42 173.043 1114.7 173.59C1114.98 174.137 1115.13 174.773 1115.13 175.5C1115.13 176.227 1114.98 176.863 1114.7 177.41C1114.42 177.957 1114.04 178.377 1113.56 178.67C1113.08 178.963 1112.56 179.11 1111.99 179.11ZM1111.99 178.43C1112.43 178.43 1112.83 178.32 1113.2 178.1C1113.56 177.88 1113.86 177.55 1114.08 177.11C1114.3 176.663 1114.41 176.127 1114.41 175.5C1114.41 174.873 1114.3 174.34 1114.08 173.9C1113.86 173.453 1113.56 173.12 1113.2 172.9C1112.83 172.68 1112.43 172.57 1111.99 172.57C1111.54 172.57 1111.13 172.68 1110.77 172.9C1110.4 173.12 1110.11 173.453 1109.89 173.9C1109.67 174.34 1109.57 174.873 1109.57 175.5C1109.57 176.127 1109.67 176.663 1109.89 177.11C1110.11 177.55 1110.4 177.88 1110.77 178.1C1111.13 178.32 1111.54 178.43 1111.99 178.43ZM1116.07 179V178.12L1118.96 175.89C1119.27 175.637 1119.52 175.413 1119.7 175.22C1119.88 175.02 1120.02 174.823 1120.1 174.63C1120.18 174.43 1120.23 174.217 1120.23 173.99C1120.23 173.557 1120.08 173.213 1119.8 172.96C1119.52 172.7 1119.14 172.57 1118.68 172.57C1118.14 172.57 1117.73 172.713 1117.43 173C1117.13 173.287 1116.97 173.657 1116.93 174.11H1116.21C1116.22 173.71 1116.32 173.343 1116.5 173.01C1116.68 172.677 1116.96 172.407 1117.32 172.2C1117.68 171.993 1118.14 171.89 1118.68 171.89C1119.14 171.89 1119.54 171.98 1119.88 172.16C1120.22 172.333 1120.48 172.577 1120.67 172.89C1120.85 173.203 1120.95 173.56 1120.95 173.96C1120.95 174.273 1120.89 174.557 1120.79 174.81C1120.69 175.063 1120.52 175.32 1120.3 175.58C1120.07 175.833 1119.76 176.11 1119.36 176.41L1116.98 178.27V178.32H1121.12V179H1116.07Z" fill="#8D8B84"/>
<path d="M566.96 644V637H569.17C569.857 637 570.47 637.15 571.01 637.45C571.557 637.743 571.98 638.157 572.28 638.69C572.587 639.223 572.74 639.827 572.74 640.5C572.74 641.173 572.587 641.777 572.28 642.31C571.98 642.843 571.557 643.26 571.01 643.56C570.47 643.853 569.857 644 569.17 644H566.96ZM569.17 643.32C569.73 643.32 570.223 643.203 570.65 642.97C571.083 642.737 571.42 642.407 571.66 641.98C571.9 641.547 572.02 641.053 572.02 640.5C572.02 639.947 571.9 639.457 571.66 639.03C571.42 638.597 571.083 638.263 570.65 638.03C570.223 637.797 569.73 637.68 569.17 637.68H567.66V643.32H569.17ZM578.379 644.11C577.839 644.11 577.365 644.003 576.959 643.79C576.552 643.57 576.235 643.277 576.009 642.91C575.789 642.537 575.679 642.123 575.679 641.67C575.679 641.363 575.742 641.05 575.869 640.73C575.995 640.41 576.185 640.087 576.439 639.76L578.559 637H579.419L577.319 639.68L577.099 639.5C577.279 639.42 577.475 639.357 577.689 639.31C577.909 639.263 578.139 639.24 578.379 639.24C578.919 639.24 579.392 639.347 579.799 639.56C580.212 639.773 580.529 640.067 580.749 640.44C580.969 640.807 581.079 641.217 581.079 641.67C581.079 642.123 580.969 642.537 580.749 642.91C580.529 643.277 580.212 643.57 579.799 643.79C579.392 644.003 578.919 644.11 578.379 644.11ZM578.379 643.46C578.785 643.46 579.135 643.383 579.429 643.23C579.729 643.07 579.959 642.857 580.119 642.59C580.279 642.317 580.359 642.01 580.359 641.67C580.359 641.33 580.279 641.027 580.119 640.76C579.959 640.487 579.729 640.273 579.429 640.12C579.135 639.967 578.785 639.89 578.379 639.89C577.972 639.89 577.619 639.967 577.319 640.12C577.025 640.273 576.799 640.487 576.639 640.76C576.485 641.027 576.409 641.33 576.409 641.67C576.409 642.01 576.485 642.317 576.639 642.59C576.799 642.857 577.025 643.07 577.319 643.23C577.619 643.383 577.972 643.46 578.379 643.46ZM581.859 642.44V641.71L584.329 637H585.109L582.639 641.71V641.76H587.509V642.44H581.859ZM585.809 644V639.41H586.509V644H585.809ZM587.985 644V643.12L590.875 640.89C591.188 640.637 591.435 640.413 591.615 640.22C591.802 640.02 591.935 639.823 592.015 639.63C592.102 639.43 592.145 639.217 592.145 638.99C592.145 638.557 592.002 638.213 591.715 637.96C591.435 637.7 591.062 637.57 590.595 637.57C590.062 637.57 589.645 637.713 589.345 638C589.052 638.287 588.885 638.657 588.845 639.11H588.125C588.138 638.71 588.235 638.343 588.415 638.01C588.602 637.677 588.875 637.407 589.235 637.2C589.602 636.993 590.055 636.89 590.595 636.89C591.055 636.89 591.455 636.98 591.795 637.16C592.135 637.333 592.398 637.577 592.585 637.89C592.772 638.203 592.865 638.56 592.865 638.96C592.865 639.273 592.812 639.557 592.705 639.81C592.605 640.063 592.442 640.32 592.215 640.58C591.988 640.833 591.675 641.11 591.275 641.41L588.895 643.27V643.32H593.035V644H587.985Z" fill="#8D8B84"/>
<path d="M1199.8 941V934H1200.46V936.85H1200.51C1200.68 936.563 1200.91 936.337 1201.21 936.17C1201.52 935.997 1201.87 935.91 1202.26 935.91C1202.66 935.91 1203 935.993 1203.29 936.16C1203.58 936.32 1203.81 936.56 1203.96 936.88C1204.11 937.2 1204.19 937.583 1204.19 938.03V941H1203.53V938.14C1203.53 937.62 1203.41 937.22 1203.17 936.94C1202.93 936.653 1202.58 936.51 1202.12 936.51C1201.81 936.51 1201.52 936.583 1201.27 936.73C1201.02 936.877 1200.82 937.083 1200.67 937.35C1200.53 937.61 1200.46 937.913 1200.46 938.26V941H1199.8ZM1209.31 941L1211.4 938.32L1211.63 938.5C1211.45 938.58 1211.24 938.643 1211.02 938.69C1210.81 938.737 1210.58 938.76 1210.34 938.76C1209.8 938.76 1209.33 938.653 1208.92 938.44C1208.52 938.227 1208.2 937.937 1207.97 937.57C1207.75 937.197 1207.64 936.783 1207.64 936.33C1207.64 935.877 1207.75 935.467 1207.97 935.1C1208.2 934.727 1208.52 934.433 1208.92 934.22C1209.33 934 1209.8 933.89 1210.34 933.89C1210.88 933.89 1211.36 934 1211.76 934.22C1212.18 934.433 1212.49 934.727 1212.71 935.1C1212.93 935.467 1213.04 935.877 1213.04 936.33C1213.04 936.637 1212.98 936.95 1212.85 937.27C1212.73 937.59 1212.54 937.913 1212.29 938.24L1210.17 941H1209.31ZM1210.34 938.11C1210.75 938.11 1211.1 938.033 1211.39 937.88C1211.69 937.727 1211.92 937.517 1212.08 937.25C1212.24 936.977 1212.32 936.67 1212.32 936.33C1212.32 935.99 1212.24 935.687 1212.08 935.42C1211.92 935.147 1211.69 934.933 1211.39 934.78C1211.1 934.62 1210.75 934.54 1210.34 934.54C1209.94 934.54 1209.58 934.62 1209.28 934.78C1208.99 934.933 1208.76 935.147 1208.6 935.42C1208.45 935.687 1208.37 935.99 1208.37 936.33C1208.37 936.67 1208.45 936.977 1208.6 937.25C1208.76 937.517 1208.99 937.727 1209.28 937.88C1209.58 938.033 1209.94 938.11 1210.34 938.11ZM1213.68 939.44V938.71L1216.15 934H1216.93L1214.46 938.71V938.76H1219.33V939.44H1213.68ZM1217.63 941V936.41H1218.33V941H1217.63ZM1220.12 941L1223.32 934.75V934.7H1219.36V934H1224.1V934.78L1220.95 941H1220.12Z" fill="#8D8B84"/>
<path d="M1101.66 1292V1285H1102.36V1292H1101.66ZM1096.96 1292V1285H1097.66V1292H1096.96ZM1097.29 1288.79V1288.11H1102V1288.79H1097.29ZM1107.61 1292V1285.55L1107.87 1285.66L1106.11 1287.04V1286.23L1107.66 1285H1108.31V1292H1107.61ZM1112.44 1292.11C1111.9 1292.11 1111.43 1292 1111.02 1291.79C1110.61 1291.57 1110.3 1291.28 1110.07 1290.91C1109.85 1290.54 1109.74 1290.12 1109.74 1289.67C1109.74 1289.36 1109.8 1289.05 1109.93 1288.73C1110.06 1288.41 1110.25 1288.09 1110.5 1287.76L1112.62 1285H1113.48L1111.38 1287.68L1111.16 1287.5C1111.34 1287.42 1111.54 1287.36 1111.75 1287.31C1111.97 1287.26 1112.2 1287.24 1112.44 1287.24C1112.98 1287.24 1113.45 1287.35 1113.86 1287.56C1114.27 1287.77 1114.59 1288.07 1114.81 1288.44C1115.03 1288.81 1115.14 1289.22 1115.14 1289.67C1115.14 1290.12 1115.03 1290.54 1114.81 1290.91C1114.59 1291.28 1114.27 1291.57 1113.86 1291.79C1113.45 1292 1112.98 1292.11 1112.44 1292.11ZM1112.44 1291.46C1112.85 1291.46 1113.2 1291.38 1113.49 1291.23C1113.79 1291.07 1114.02 1290.86 1114.18 1290.59C1114.34 1290.32 1114.42 1290.01 1114.42 1289.67C1114.42 1289.33 1114.34 1289.03 1114.18 1288.76C1114.02 1288.49 1113.79 1288.27 1113.49 1288.12C1113.2 1287.97 1112.85 1287.89 1112.44 1287.89C1112.03 1287.89 1111.68 1287.97 1111.38 1288.12C1111.09 1288.27 1110.86 1288.49 1110.7 1288.76C1110.55 1289.03 1110.47 1289.33 1110.47 1289.67C1110.47 1290.01 1110.55 1290.32 1110.7 1290.59C1110.86 1290.86 1111.09 1291.07 1111.38 1291.23C1111.68 1291.38 1112.03 1291.46 1112.44 1291.46ZM1118.51 1292.11C1117.98 1292.11 1117.52 1292.02 1117.13 1291.84C1116.73 1291.66 1116.43 1291.41 1116.21 1291.1C1115.99 1290.79 1115.86 1290.44 1115.83 1290.05H1116.58C1116.62 1290.33 1116.72 1290.57 1116.88 1290.78C1117.04 1290.99 1117.26 1291.15 1117.54 1291.26C1117.82 1291.37 1118.14 1291.43 1118.51 1291.43C1118.89 1291.43 1119.23 1291.36 1119.52 1291.21C1119.8 1291.06 1120.02 1290.85 1120.18 1290.58C1120.33 1290.31 1120.41 1290.01 1120.41 1289.68C1120.41 1289.37 1120.33 1289.09 1120.18 1288.84C1120.03 1288.58 1119.82 1288.38 1119.54 1288.23C1119.26 1288.08 1118.94 1288.01 1118.58 1288.01C1118.22 1288.01 1117.9 1288.07 1117.61 1288.2C1117.31 1288.32 1117.09 1288.49 1116.93 1288.72H1116.25L1116.79 1285H1120.67V1285.68H1117.33L1117 1287.9H1117.05C1117.25 1287.73 1117.48 1287.59 1117.76 1287.5C1118.04 1287.41 1118.34 1287.36 1118.67 1287.36C1119.15 1287.36 1119.58 1287.46 1119.96 1287.67C1120.33 1287.88 1120.62 1288.16 1120.82 1288.51C1121.02 1288.86 1121.13 1289.25 1121.13 1289.68C1121.13 1290.15 1121.02 1290.57 1120.81 1290.94C1120.6 1291.31 1120.3 1291.59 1119.91 1291.8C1119.51 1292.01 1119.05 1292.11 1118.51 1292.11ZM1125.14 1292.11C1124.56 1292.11 1124.04 1291.96 1123.56 1291.67C1123.08 1291.38 1122.69 1290.96 1122.41 1290.41C1122.13 1289.86 1121.99 1289.23 1121.99 1288.5C1121.99 1287.77 1122.13 1287.14 1122.41 1286.59C1122.69 1286.04 1123.08 1285.62 1123.56 1285.33C1124.04 1285.04 1124.56 1284.89 1125.14 1284.89C1125.71 1284.89 1126.23 1285.04 1126.71 1285.33C1127.19 1285.62 1127.57 1286.04 1127.85 1286.59C1128.13 1287.14 1128.28 1287.77 1128.28 1288.5C1128.28 1289.23 1128.13 1289.86 1127.85 1290.41C1127.57 1290.96 1127.19 1291.38 1126.71 1291.67C1126.23 1291.96 1125.71 1292.11 1125.14 1292.11ZM1125.14 1291.43C1125.58 1291.43 1125.98 1291.32 1126.35 1291.1C1126.71 1290.88 1127.01 1290.55 1127.23 1290.11C1127.45 1289.66 1127.56 1289.13 1127.56 1288.5C1127.56 1287.87 1127.45 1287.34 1127.23 1286.9C1127.01 1286.45 1126.71 1286.12 1126.35 1285.9C1125.98 1285.68 1125.58 1285.57 1125.14 1285.57C1124.69 1285.57 1124.28 1285.68 1123.92 1285.9C1123.55 1286.12 1123.26 1286.45 1123.04 1286.9C1122.82 1287.34 1122.72 1287.87 1122.72 1288.5C1122.72 1289.13 1122.82 1289.66 1123.04 1290.11C1123.26 1290.55 1123.55 1290.88 1123.92 1291.1C1124.28 1291.32 1124.69 1291.43 1125.14 1291.43Z" fill="#8D8B84"/>
<path d="M132.75 644V639.01H133.38V639.86H133.43C133.577 639.567 133.78 639.343 134.04 639.19C134.307 639.037 134.613 638.96 134.96 638.96H135.66V639.59H134.96C134.487 639.59 134.11 639.75 133.83 640.07C133.55 640.39 133.41 640.81 133.41 641.33V644H132.75ZM140.997 644.11C140.451 644.11 139.977 644.023 139.577 643.85C139.184 643.677 138.877 643.437 138.657 643.13C138.437 642.817 138.311 642.457 138.277 642.05H139.027C139.074 642.497 139.267 642.84 139.607 643.08C139.947 643.313 140.411 643.43 140.997 643.43C141.391 643.43 141.724 643.367 141.997 643.24C142.277 643.107 142.487 642.927 142.627 642.7C142.774 642.473 142.847 642.217 142.847 641.93C142.847 641.63 142.774 641.37 142.627 641.15C142.481 640.923 142.267 640.753 141.987 640.64C141.714 640.527 141.387 640.47 141.007 640.47H139.767V639.85L142.287 637.73V637.68H138.817V637H143.137V637.81L140.777 639.81V640.07L140.597 639.86H141.127C141.614 639.86 142.041 639.943 142.407 640.11C142.781 640.277 143.067 640.517 143.267 640.83C143.474 641.143 143.577 641.51 143.577 641.93C143.577 642.323 143.477 642.687 143.277 643.02C143.077 643.353 142.781 643.62 142.387 643.82C142.001 644.013 141.537 644.11 140.997 644.11ZM144.385 644V643.12L147.275 640.89C147.589 640.637 147.835 640.413 148.015 640.22C148.202 640.02 148.335 639.823 148.415 639.63C148.502 639.43 148.545 639.217 148.545 638.99C148.545 638.557 148.402 638.213 148.115 637.96C147.835 637.7 147.462 637.57 146.995 637.57C146.462 637.57 146.045 637.713 145.745 638C145.452 638.287 145.285 638.657 145.245 639.11H144.525C144.539 638.71 144.635 638.343 144.815 638.01C145.002 637.677 145.275 637.407 145.635 637.2C146.002 636.993 146.455 636.89 146.995 636.89C147.455 636.89 147.855 636.98 148.195 637.16C148.535 637.333 148.799 637.577 148.985 637.89C149.172 638.203 149.265 638.56 149.265 638.96C149.265 639.273 149.212 639.557 149.105 639.81C149.005 640.063 148.842 640.32 148.615 640.58C148.389 640.833 148.075 641.11 147.675 641.41L145.295 643.27V643.32H149.435V644H144.385ZM151.772 644V637.55L152.032 637.66L150.272 639.04V638.23L151.822 637H152.472V644H151.772Z" fill="#8D8B84"/>
</g>
<defs>
<clipPath id="clip0_1_746">
<rect width="1440" height="2089" fill="white"/>
</clipPath>
</defs>
</svg>
