<svg width="1440" height="2089" viewBox="0 0 1440 2089" fill="none" xmlns="http://www.w3.org/2000/svg">
<g clip-path="url(#clip0_1_816)">
<rect width="1440" height="2089" fill="#E8E8E8"/>
<rect x="1023" y="752" width="417" height="513" fill="#21201C"/>
<rect y="1265" width="533" height="824" fill="#21201C"/>
<rect x="533" y="1736" width="187" height="353" fill="#21201C"/>
<rect x="533" y="1469" width="67" height="267" fill="#21201C"/>
<rect x="718" y="1663" width="47" height="383" fill="#21201C"/>
<rect x="1023" y="2046" width="417" height="43" fill="#21201C"/>
<rect x="808" y="815" width="215" height="503" fill="#21201C"/>
<rect x="533" width="285" height="30" fill="#21201C"/>
<rect x="168" width="293" height="30" fill="#21201C"/>
<rect width="69" height="30" fill="#21201C"/>
<rect x="1023" width="417" height="185" fill="#21201C"/>
<rect x="1103" y="185" width="337" height="291" fill="#21201C"/>
<mask id="path-13-inside-1_1_816" fill="white">
<path d="M533 2099.5C533 2028.82 504.922 1961.03 454.944 1911.06C404.966 1861.08 337.18 1833 266.5 1833C195.82 1833 128.035 1861.08 78.0561 1911.06C28.0776 1961.03 1.06724e-05 2028.82 0 2099.5L266.5 2099.5H533Z"/>
</mask>
<path d="M533 2099.5C533 2028.82 504.922 1961.03 454.944 1911.06C404.966 1861.08 337.18 1833 266.5 1833C195.82 1833 128.035 1861.08 78.0561 1911.06C28.0776 1961.03 1.06724e-05 2028.82 0 2099.5L266.5 2099.5H533Z" stroke="#8D8B84" mask="url(#path-13-inside-1_1_816)"/>
<circle cx="1023" cy="1056" r="679.75" stroke="#8D8B84" stroke-width="0.5"/>
<rect x="712.25" y="376.25" width="576.5" height="438.5" stroke="#8D8B84" stroke-width="0.5"/>
<rect x="-22.75" y="975.25" width="808.5" height="289.5" stroke="#8D8B84" stroke-width="0.5"/>
<rect x="90.25" y="1590.25" width="1389.5" height="145.5" stroke="#8D8B84" stroke-width="0.5"/>
<line x1="1023.25" y1="-1.09278e-08" x2="1023.25" y2="2089" stroke="#8D8B84" stroke-width="0.5"/>
<line x1="533.25" y1="-1.09278e-08" x2="533.25" y2="2089" stroke="#8D8B84" stroke-width="0.5"/>
<line x1="1209.25" y1="-1.09278e-08" x2="1209.25" y2="185" stroke="#8D8B84" stroke-width="0.5"/>
<line x1="1103.25" y1="-1.09278e-08" x2="1103.25" y2="815" stroke="#8D8B84" stroke-width="0.5" stroke-dasharray="8 8"/>
<line x1="720.25" y1="1736" x2="720.25" y2="2089" stroke="#8D8B84" stroke-width="0.5" stroke-dasharray="8 8"/>
<line x1="461.25" y1="-1.09278e-08" x2="461.25" y2="1590" stroke="#8D8B84" stroke-width="0.5" stroke-dasharray="8 8"/>
<path d="M541.96 179.1C541.48 179.1 541.047 178.987 540.66 178.76C540.28 178.533 539.98 178.223 539.76 177.83C539.54 177.437 539.43 176.993 539.43 176.5C539.43 176.013 539.54 175.573 539.76 175.18C539.98 174.78 540.28 174.47 540.66 174.25C541.047 174.023 541.48 173.91 541.96 173.91C542.333 173.91 542.68 173.983 543 174.13C543.327 174.277 543.603 174.487 543.83 174.76C544.063 175.033 544.223 175.347 544.31 175.7H543.64C543.513 175.333 543.297 175.043 542.99 174.83C542.69 174.617 542.347 174.51 541.96 174.51C541.6 174.51 541.277 174.597 540.99 174.77C540.71 174.937 540.49 175.17 540.33 175.47C540.177 175.77 540.1 176.113 540.1 176.5C540.1 176.887 540.177 177.233 540.33 177.54C540.49 177.84 540.71 178.073 540.99 178.24C541.277 178.407 541.6 178.49 541.96 178.49C542.347 178.49 542.69 178.383 542.99 178.17C543.297 177.957 543.513 177.667 543.64 177.3H544.31C544.223 177.66 544.063 177.977 543.83 178.25C543.603 178.517 543.327 178.727 543 178.88C542.68 179.027 542.333 179.1 541.96 179.1ZM547.792 179L550.992 172.75V172.7H547.032V172H551.772V172.78L548.622 179H547.792Z" fill="#8D8B84"/>
<path d="M1108.8 179V172H1109.46V174.85H1109.51C1109.68 174.563 1109.91 174.337 1110.21 174.17C1110.52 173.997 1110.87 173.91 1111.26 173.91C1111.66 173.91 1112 173.993 1112.29 174.16C1112.58 174.32 1112.81 174.56 1112.96 174.88C1113.11 175.2 1113.19 175.583 1113.19 176.03V179H1112.53V176.14C1112.53 175.62 1112.41 175.22 1112.17 174.94C1111.93 174.653 1111.58 174.51 1111.12 174.51C1110.81 174.51 1110.52 174.583 1110.27 174.73C1110.02 174.877 1109.82 175.083 1109.67 175.35C1109.53 175.61 1109.46 175.913 1109.46 176.26V179H1108.8ZM1118.17 179V172.55L1118.43 172.66L1116.67 174.04V173.23L1118.22 172H1118.87V179H1118.17ZM1122.91 179.11C1122.36 179.11 1121.89 179.023 1121.49 178.85C1121.09 178.677 1120.79 178.437 1120.57 178.13C1120.35 177.817 1120.22 177.457 1120.19 177.05H1120.94C1120.98 177.497 1121.18 177.84 1121.52 178.08C1121.86 178.313 1122.32 178.43 1122.91 178.43C1123.3 178.43 1123.63 178.367 1123.91 178.24C1124.19 178.107 1124.4 177.927 1124.54 177.7C1124.68 177.473 1124.76 177.217 1124.76 176.93C1124.76 176.63 1124.68 176.37 1124.54 176.15C1124.39 175.923 1124.18 175.753 1123.9 175.64C1123.62 175.527 1123.3 175.47 1122.92 175.47H1121.68V174.85L1124.2 172.73V172.68H1120.73V172H1125.05V172.81L1122.69 174.81V175.07L1122.51 174.86H1123.04C1123.52 174.86 1123.95 174.943 1124.32 175.11C1124.69 175.277 1124.98 175.517 1125.18 175.83C1125.38 176.143 1125.49 176.51 1125.49 176.93C1125.49 177.323 1125.39 177.687 1125.19 178.02C1124.99 178.353 1124.69 178.62 1124.3 178.82C1123.91 179.013 1123.45 179.11 1122.91 179.11ZM1129.51 179.11C1128.94 179.11 1128.41 178.963 1127.93 178.67C1127.45 178.377 1127.07 177.957 1126.78 177.41C1126.5 176.863 1126.36 176.227 1126.36 175.5C1126.36 174.773 1126.5 174.137 1126.78 173.59C1127.07 173.043 1127.45 172.623 1127.93 172.33C1128.41 172.037 1128.94 171.89 1129.51 171.89C1130.08 171.89 1130.61 172.037 1131.08 172.33C1131.56 172.623 1131.94 173.043 1132.22 173.59C1132.51 174.137 1132.65 174.773 1132.65 175.5C1132.65 176.227 1132.51 176.863 1132.22 177.41C1131.94 177.957 1131.56 178.377 1131.08 178.67C1130.61 178.963 1130.08 179.11 1129.51 179.11ZM1129.51 178.43C1129.95 178.43 1130.35 178.32 1130.72 178.1C1131.09 177.88 1131.38 177.55 1131.6 177.11C1131.82 176.663 1131.93 176.127 1131.93 175.5C1131.93 174.873 1131.82 174.34 1131.6 173.9C1131.38 173.453 1131.09 173.12 1130.72 172.9C1130.35 172.68 1129.95 172.57 1129.51 172.57C1129.06 172.57 1128.66 172.68 1128.29 172.9C1127.92 173.12 1127.63 173.453 1127.41 173.9C1127.2 174.34 1127.09 174.873 1127.09 175.5C1127.09 176.127 1127.2 176.663 1127.41 177.11C1127.63 177.55 1127.92 177.88 1128.29 178.1C1128.66 178.32 1129.06 178.43 1129.51 178.43Z" fill="#8D8B84"/>
<path d="M1029.76 370L1028.3 365.01H1028.98L1030.19 369.28H1030.24L1031.42 365.01H1032.25L1033.43 369.28H1033.48L1034.7 365.01H1035.37L1033.9 370H1033.04L1031.85 365.73H1031.8L1030.62 370H1029.76ZM1041.12 370.11C1040.59 370.11 1040.12 370.03 1039.72 369.87C1039.33 369.71 1039.02 369.48 1038.8 369.18C1038.58 368.873 1038.47 368.513 1038.47 368.1C1038.47 367.673 1038.59 367.307 1038.84 367C1039.09 366.687 1039.43 366.47 1039.87 366.35V366.3C1039.47 366.16 1039.17 365.96 1038.97 365.7C1038.78 365.433 1038.68 365.12 1038.68 364.76C1038.68 364.393 1038.77 364.07 1038.96 363.79C1039.15 363.503 1039.43 363.283 1039.8 363.13C1040.17 362.97 1040.61 362.89 1041.12 362.89C1041.63 362.89 1042.07 362.97 1042.44 363.13C1042.81 363.283 1043.09 363.503 1043.28 363.79C1043.47 364.07 1043.57 364.393 1043.57 364.76C1043.57 365.12 1043.47 365.433 1043.27 365.7C1043.08 365.96 1042.78 366.16 1042.37 366.3V366.35C1042.81 366.47 1043.15 366.687 1043.4 367C1043.65 367.307 1043.77 367.673 1043.77 368.1C1043.77 368.513 1043.66 368.873 1043.44 369.18C1043.23 369.48 1042.92 369.71 1042.52 369.87C1042.12 370.03 1041.65 370.11 1041.12 370.11ZM1041.12 369.43C1041.73 369.43 1042.21 369.313 1042.54 369.08C1042.88 368.847 1043.05 368.503 1043.05 368.05C1043.05 367.603 1042.88 367.263 1042.54 367.03C1042.21 366.797 1041.73 366.68 1041.12 366.68C1040.51 366.68 1040.03 366.797 1039.7 367.03C1039.37 367.263 1039.2 367.603 1039.2 368.05C1039.2 368.503 1039.37 368.847 1039.7 369.08C1040.03 369.313 1040.51 369.43 1041.12 369.43ZM1041.12 366.01C1041.69 366.01 1042.11 365.903 1042.4 365.69C1042.69 365.477 1042.84 365.177 1042.84 364.79C1042.84 364.403 1042.7 364.103 1042.41 363.89C1042.12 363.677 1041.69 363.57 1041.12 363.57C1040.55 363.57 1040.12 363.677 1039.83 363.89C1039.54 364.103 1039.4 364.403 1039.4 364.79C1039.4 365.177 1039.55 365.477 1039.84 365.69C1040.13 365.903 1040.56 366.01 1041.12 366.01ZM1047.87 370.11C1047.3 370.11 1046.77 369.963 1046.29 369.67C1045.81 369.377 1045.43 368.957 1045.14 368.41C1044.86 367.863 1044.72 367.227 1044.72 366.5C1044.72 365.773 1044.86 365.137 1045.14 364.59C1045.43 364.043 1045.81 363.623 1046.29 363.33C1046.77 363.037 1047.3 362.89 1047.87 362.89C1048.44 362.89 1048.97 363.037 1049.44 363.33C1049.92 363.623 1050.3 364.043 1050.58 364.59C1050.87 365.137 1051.01 365.773 1051.01 366.5C1051.01 367.227 1050.87 367.863 1050.58 368.41C1050.3 368.957 1049.92 369.377 1049.44 369.67C1048.97 369.963 1048.44 370.11 1047.87 370.11ZM1047.87 369.43C1048.31 369.43 1048.71 369.32 1049.08 369.1C1049.45 368.88 1049.74 368.55 1049.96 368.11C1050.18 367.663 1050.29 367.127 1050.29 366.5C1050.29 365.873 1050.18 365.34 1049.96 364.9C1049.74 364.453 1049.45 364.12 1049.08 363.9C1048.71 363.68 1048.31 363.57 1047.87 363.57C1047.42 363.57 1047.02 363.68 1046.65 363.9C1046.28 364.12 1045.99 364.453 1045.77 364.9C1045.56 365.34 1045.45 365.873 1045.45 366.5C1045.45 367.127 1045.56 367.663 1045.77 368.11C1045.99 368.55 1046.28 368.88 1046.65 369.1C1047.02 369.32 1047.42 369.43 1047.87 369.43Z" fill="#8D8B84"/>
<path d="M1108.75 809V804.01H1109.38V804.86H1109.43C1109.58 804.567 1109.78 804.343 1110.04 804.19C1110.31 804.037 1110.61 803.96 1110.96 803.96H1111.66V804.59H1110.96C1110.49 804.59 1110.11 804.75 1109.83 805.07C1109.55 805.39 1109.41 805.81 1109.41 806.33V809H1108.75ZM1117.1 809.11C1116.56 809.11 1116.08 809.003 1115.68 808.79C1115.27 808.57 1114.95 808.277 1114.73 807.91C1114.51 807.537 1114.4 807.123 1114.4 806.67C1114.4 806.363 1114.46 806.05 1114.59 805.73C1114.71 805.41 1114.9 805.087 1115.16 804.76L1117.28 802H1118.14L1116.04 804.68L1115.82 804.5C1116 804.42 1116.19 804.357 1116.41 804.31C1116.63 804.263 1116.86 804.24 1117.1 804.24C1117.64 804.24 1118.11 804.347 1118.52 804.56C1118.93 804.773 1119.25 805.067 1119.47 805.44C1119.69 805.807 1119.8 806.217 1119.8 806.67C1119.8 807.123 1119.69 807.537 1119.47 807.91C1119.25 808.277 1118.93 808.57 1118.52 808.79C1118.11 809.003 1117.64 809.11 1117.1 809.11ZM1117.1 808.46C1117.5 808.46 1117.85 808.383 1118.15 808.23C1118.45 808.07 1118.68 807.857 1118.84 807.59C1119 807.317 1119.08 807.01 1119.08 806.67C1119.08 806.33 1119 806.027 1118.84 805.76C1118.68 805.487 1118.45 805.273 1118.15 805.12C1117.85 804.967 1117.5 804.89 1117.1 804.89C1116.69 804.89 1116.34 804.967 1116.04 805.12C1115.74 805.273 1115.52 805.487 1115.36 805.76C1115.2 806.027 1115.13 806.33 1115.13 806.67C1115.13 807.01 1115.2 807.317 1115.36 807.59C1115.52 807.857 1115.74 808.07 1116.04 808.23C1116.34 808.383 1116.69 808.46 1117.1 808.46ZM1123.39 809.11C1122.86 809.11 1122.39 809.03 1121.99 808.87C1121.6 808.71 1121.29 808.48 1121.07 808.18C1120.85 807.873 1120.74 807.513 1120.74 807.1C1120.74 806.673 1120.87 806.307 1121.11 806C1121.36 805.687 1121.7 805.47 1122.14 805.35V805.3C1121.74 805.16 1121.44 804.96 1121.24 804.7C1121.05 804.433 1120.95 804.12 1120.95 803.76C1120.95 803.393 1121.05 803.07 1121.23 802.79C1121.43 802.503 1121.71 802.283 1122.07 802.13C1122.44 801.97 1122.88 801.89 1123.39 801.89C1123.91 801.89 1124.35 801.97 1124.71 802.13C1125.08 802.283 1125.36 802.503 1125.55 802.79C1125.75 803.07 1125.84 803.393 1125.84 803.76C1125.84 804.12 1125.74 804.433 1125.54 804.7C1125.35 804.96 1125.05 805.16 1124.64 805.3V805.35C1125.08 805.47 1125.43 805.687 1125.67 806C1125.92 806.307 1126.04 806.673 1126.04 807.1C1126.04 807.513 1125.93 807.873 1125.71 808.18C1125.5 808.48 1125.19 808.71 1124.79 808.87C1124.39 809.03 1123.93 809.11 1123.39 809.11ZM1123.39 808.43C1124.01 808.43 1124.48 808.313 1124.81 808.08C1125.15 807.847 1125.32 807.503 1125.32 807.05C1125.32 806.603 1125.15 806.263 1124.81 806.03C1124.48 805.797 1124.01 805.68 1123.39 805.68C1122.78 805.68 1122.31 805.797 1121.97 806.03C1121.64 806.263 1121.47 806.603 1121.47 807.05C1121.47 807.503 1121.64 807.847 1121.97 808.08C1122.31 808.313 1122.78 808.43 1123.39 808.43ZM1123.39 805.01C1123.96 805.01 1124.39 804.903 1124.67 804.69C1124.97 804.477 1125.11 804.177 1125.11 803.79C1125.11 803.403 1124.97 803.103 1124.68 802.89C1124.4 802.677 1123.97 802.57 1123.39 802.57C1122.82 802.57 1122.39 802.677 1122.1 802.89C1121.82 803.103 1121.67 803.403 1121.67 803.79C1121.67 804.177 1121.82 804.477 1122.11 804.69C1122.41 804.903 1122.83 805.01 1123.39 805.01ZM1130.15 809.11C1129.57 809.11 1129.05 808.963 1128.57 808.67C1128.09 808.377 1127.7 807.957 1127.42 807.41C1127.14 806.863 1127 806.227 1127 805.5C1127 804.773 1127.14 804.137 1127.42 803.59C1127.7 803.043 1128.09 802.623 1128.57 802.33C1129.05 802.037 1129.57 801.89 1130.15 801.89C1130.72 801.89 1131.24 802.037 1131.72 802.33C1132.2 802.623 1132.58 803.043 1132.86 803.59C1133.14 804.137 1133.29 804.773 1133.29 805.5C1133.29 806.227 1133.14 806.863 1132.86 807.41C1132.58 807.957 1132.2 808.377 1131.72 808.67C1131.24 808.963 1130.72 809.11 1130.15 809.11ZM1130.15 808.43C1130.59 808.43 1130.99 808.32 1131.36 808.1C1131.72 807.88 1132.02 807.55 1132.24 807.11C1132.46 806.663 1132.57 806.127 1132.57 805.5C1132.57 804.873 1132.46 804.34 1132.24 803.9C1132.02 803.453 1131.72 803.12 1131.36 802.9C1130.99 802.68 1130.59 802.57 1130.15 802.57C1129.7 802.57 1129.29 802.68 1128.93 802.9C1128.56 803.12 1128.27 803.453 1128.05 803.9C1127.83 804.34 1127.73 804.873 1127.73 805.5C1127.73 806.127 1127.83 806.663 1128.05 807.11C1128.27 807.55 1128.56 807.88 1128.93 808.1C1129.29 808.32 1129.7 808.43 1130.15 808.43Z" fill="#8D8B84"/>
<path d="M718.76 809L717.3 804.01H717.98L719.19 808.28H719.24L720.42 804.01H721.25L722.43 808.28H722.48L723.7 804.01H724.37L722.9 809H722.04L720.85 804.73H720.8L719.62 809H718.76ZM729.984 809.11C729.458 809.11 728.998 809.02 728.604 808.84C728.211 808.66 727.904 808.413 727.684 808.1C727.464 807.787 727.338 807.437 727.304 807.05H728.054C728.094 807.33 728.194 807.573 728.354 807.78C728.521 807.987 728.741 808.147 729.014 808.26C729.294 808.373 729.618 808.43 729.984 808.43C730.371 808.43 730.708 808.357 730.994 808.21C731.281 808.057 731.501 807.847 731.654 807.58C731.808 807.313 731.884 807.013 731.884 806.68C731.884 806.373 731.808 806.093 731.654 805.84C731.508 805.58 731.294 805.377 731.014 805.23C730.741 805.083 730.421 805.01 730.054 805.01C729.701 805.01 729.378 805.073 729.084 805.2C728.791 805.32 728.564 805.493 728.404 805.72H727.724L728.264 802H732.144V802.68H728.804L728.474 804.9H728.524C728.724 804.727 728.961 804.593 729.234 804.5C729.514 804.407 729.818 804.36 730.144 804.36C730.631 804.36 731.061 804.463 731.434 804.67C731.808 804.877 732.094 805.157 732.294 805.51C732.501 805.863 732.604 806.253 732.604 806.68C732.604 807.153 732.498 807.573 732.284 807.94C732.078 808.307 731.778 808.593 731.384 808.8C730.991 809.007 730.524 809.11 729.984 809.11ZM733.702 809L736.902 802.75V802.7H732.942V802H737.682V802.78L734.532 809H733.702ZM738.995 809L742.195 802.75V802.7H738.235V802H742.975V802.78L739.825 809H738.995Z" fill="#8D8B84"/>
<path d="M750.567 990V983H752.777C753.464 983 754.077 983.15 754.617 983.45C755.164 983.743 755.587 984.157 755.887 984.69C756.194 985.223 756.347 985.827 756.347 986.5C756.347 987.173 756.194 987.777 755.887 988.31C755.587 988.843 755.164 989.26 754.617 989.56C754.077 989.853 753.464 990 752.777 990H750.567ZM752.777 989.32C753.337 989.32 753.831 989.203 754.257 988.97C754.691 988.737 755.027 988.407 755.267 987.98C755.507 987.547 755.627 987.053 755.627 986.5C755.627 985.947 755.507 985.457 755.267 985.03C755.027 984.597 754.691 984.263 754.257 984.03C753.831 983.797 753.337 983.68 752.777 983.68H751.267V989.32H752.777ZM760.766 990V983.55L761.026 983.66L759.266 985.04V984.23L760.816 983H761.466V990H760.766ZM765.499 990.11C764.953 990.11 764.479 990.023 764.079 989.85C763.686 989.677 763.379 989.437 763.159 989.13C762.939 988.817 762.813 988.457 762.779 988.05H763.529C763.576 988.497 763.769 988.84 764.109 989.08C764.449 989.313 764.913 989.43 765.499 989.43C765.893 989.43 766.226 989.367 766.499 989.24C766.779 989.107 766.989 988.927 767.129 988.7C767.276 988.473 767.349 988.217 767.349 987.93C767.349 987.63 767.276 987.37 767.129 987.15C766.983 986.923 766.769 986.753 766.489 986.64C766.216 986.527 765.889 986.47 765.509 986.47H764.269V985.85L766.789 983.73V983.68H763.319V983H767.639V983.81L765.279 985.81V986.07L765.099 985.86H765.629C766.116 985.86 766.543 985.943 766.909 986.11C767.283 986.277 767.569 986.517 767.769 986.83C767.976 987.143 768.079 987.51 768.079 987.93C768.079 988.323 767.979 988.687 767.779 989.02C767.579 989.353 767.283 989.62 766.889 989.82C766.503 990.013 766.039 990.11 765.499 990.11ZM771.703 990.11C771.163 990.11 770.689 990.003 770.283 989.79C769.876 989.57 769.559 989.277 769.333 988.91C769.113 988.537 769.003 988.123 769.003 987.67C769.003 987.363 769.066 987.05 769.193 986.73C769.319 986.41 769.509 986.087 769.763 985.76L771.883 983H772.743L770.643 985.68L770.423 985.5C770.603 985.42 770.799 985.357 771.013 985.31C771.233 985.263 771.463 985.24 771.703 985.24C772.243 985.24 772.716 985.347 773.123 985.56C773.536 985.773 773.853 986.067 774.073 986.44C774.293 986.807 774.403 987.217 774.403 987.67C774.403 988.123 774.293 988.537 774.073 988.91C773.853 989.277 773.536 989.57 773.123 989.79C772.716 990.003 772.243 990.11 771.703 990.11ZM771.703 989.46C772.109 989.46 772.459 989.383 772.753 989.23C773.053 989.07 773.283 988.857 773.443 988.59C773.603 988.317 773.683 988.01 773.683 987.67C773.683 987.33 773.603 987.027 773.443 986.76C773.283 986.487 773.053 986.273 772.753 986.12C772.459 985.967 772.109 985.89 771.703 985.89C771.296 985.89 770.943 985.967 770.643 986.12C770.349 986.273 770.123 986.487 769.963 986.76C769.809 987.027 769.733 987.33 769.733 987.67C769.733 988.01 769.809 988.317 769.963 988.59C770.123 988.857 770.349 989.07 770.643 989.23C770.943 989.383 771.296 989.46 771.703 989.46ZM778.355 990.11C777.782 990.11 777.255 989.963 776.775 989.67C776.295 989.377 775.912 988.957 775.625 988.41C775.345 987.863 775.205 987.227 775.205 986.5C775.205 985.773 775.345 985.137 775.625 984.59C775.912 984.043 776.295 983.623 776.775 983.33C777.255 983.037 777.782 982.89 778.355 982.89C778.928 982.89 779.452 983.037 779.925 983.33C780.405 983.623 780.785 984.043 781.065 984.59C781.352 985.137 781.495 985.773 781.495 986.5C781.495 987.227 781.352 987.863 781.065 988.41C780.785 988.957 780.405 989.377 779.925 989.67C779.452 989.963 778.928 990.11 778.355 990.11ZM778.355 989.43C778.795 989.43 779.198 989.32 779.565 989.1C779.932 988.88 780.225 988.55 780.445 988.11C780.665 987.663 780.775 987.127 780.775 986.5C780.775 985.873 780.665 985.34 780.445 984.9C780.225 984.453 779.932 984.12 779.565 983.9C779.198 983.68 778.795 983.57 778.355 983.57C777.908 983.57 777.502 983.68 777.135 983.9C776.768 984.12 776.475 984.453 776.255 984.9C776.042 985.34 775.935 985.873 775.935 986.5C775.935 987.127 776.042 987.663 776.255 988.11C776.475 988.55 776.768 988.88 777.135 989.1C777.502 989.32 777.908 989.43 778.355 989.43Z" fill="#8D8B84"/>
<path d="M430.618 1583V1576H431.278V1578.85H431.328C431.495 1578.56 431.728 1578.34 432.028 1578.17C432.335 1578 432.685 1577.91 433.078 1577.91C433.478 1577.91 433.822 1577.99 434.108 1578.16C434.402 1578.32 434.625 1578.56 434.778 1578.88C434.932 1579.2 435.008 1579.58 435.008 1580.03V1583H434.348V1580.14C434.348 1579.62 434.228 1579.22 433.988 1578.94C433.748 1578.65 433.398 1578.51 432.938 1578.51C432.625 1578.51 432.342 1578.58 432.088 1578.73C431.835 1578.88 431.635 1579.08 431.488 1579.35C431.348 1579.61 431.278 1579.91 431.278 1580.26V1583H430.618ZM441.111 1583.11C440.564 1583.11 440.091 1583.02 439.691 1582.85C439.297 1582.68 438.991 1582.44 438.771 1582.13C438.551 1581.82 438.424 1581.46 438.391 1581.05H439.141C439.187 1581.5 439.381 1581.84 439.721 1582.08C440.061 1582.31 440.524 1582.43 441.111 1582.43C441.504 1582.43 441.837 1582.37 442.111 1582.24C442.391 1582.11 442.601 1581.93 442.741 1581.7C442.887 1581.47 442.961 1581.22 442.961 1580.93C442.961 1580.63 442.887 1580.37 442.741 1580.15C442.594 1579.92 442.381 1579.75 442.101 1579.64C441.827 1579.53 441.501 1579.47 441.121 1579.47H439.881V1578.85L442.401 1576.73V1576.68H438.931V1576H443.251V1576.81L440.891 1578.81V1579.07L440.711 1578.86H441.241C441.727 1578.86 442.154 1578.94 442.521 1579.11C442.894 1579.28 443.181 1579.52 443.381 1579.83C443.587 1580.14 443.691 1580.51 443.691 1580.93C443.691 1581.32 443.591 1581.69 443.391 1582.02C443.191 1582.35 442.894 1582.62 442.501 1582.82C442.114 1583.01 441.651 1583.11 441.111 1583.11ZM444.499 1583V1582.12L447.389 1579.89C447.702 1579.64 447.949 1579.41 448.129 1579.22C448.315 1579.02 448.449 1578.82 448.529 1578.63C448.615 1578.43 448.659 1578.22 448.659 1577.99C448.659 1577.56 448.515 1577.21 448.229 1576.96C447.949 1576.7 447.575 1576.57 447.109 1576.57C446.575 1576.57 446.159 1576.71 445.859 1577C445.565 1577.29 445.399 1577.66 445.359 1578.11H444.639C444.652 1577.71 444.749 1577.34 444.929 1577.01C445.115 1576.68 445.389 1576.41 445.749 1576.2C446.115 1575.99 446.569 1575.89 447.109 1575.89C447.569 1575.89 447.969 1575.98 448.309 1576.16C448.649 1576.33 448.912 1576.58 449.099 1576.89C449.285 1577.2 449.379 1577.56 449.379 1577.96C449.379 1578.27 449.325 1578.56 449.219 1578.81C449.119 1579.06 448.955 1579.32 448.729 1579.58C448.502 1579.83 448.189 1580.11 447.789 1580.41L445.409 1582.27V1582.32H449.549V1583H444.499ZM452.92 1583.11C452.393 1583.11 451.933 1583.02 451.54 1582.84C451.146 1582.66 450.84 1582.41 450.62 1582.1C450.4 1581.79 450.273 1581.44 450.24 1581.05H450.99C451.03 1581.33 451.13 1581.57 451.29 1581.78C451.456 1581.99 451.676 1582.15 451.95 1582.26C452.23 1582.37 452.553 1582.43 452.92 1582.43C453.306 1582.43 453.643 1582.36 453.93 1582.21C454.216 1582.06 454.436 1581.85 454.59 1581.58C454.743 1581.31 454.82 1581.01 454.82 1580.68C454.82 1580.37 454.743 1580.09 454.59 1579.84C454.443 1579.58 454.23 1579.38 453.95 1579.23C453.676 1579.08 453.356 1579.01 452.99 1579.01C452.636 1579.01 452.313 1579.07 452.02 1579.2C451.726 1579.32 451.5 1579.49 451.34 1579.72H450.66L451.2 1576H455.08V1576.68H451.74L451.41 1578.9H451.46C451.66 1578.73 451.896 1578.59 452.17 1578.5C452.45 1578.41 452.753 1578.36 453.08 1578.36C453.566 1578.36 453.996 1578.46 454.37 1578.67C454.743 1578.88 455.03 1579.16 455.23 1579.51C455.436 1579.86 455.54 1580.25 455.54 1580.68C455.54 1581.15 455.433 1581.57 455.22 1581.94C455.013 1582.31 454.713 1582.59 454.32 1582.8C453.926 1583.01 453.46 1583.11 452.92 1583.11Z" fill="#8D8B84"/>
<path d="M509.852 1583L508.392 1578.01H509.072L510.282 1582.28H510.332L511.512 1578.01H512.342L513.522 1582.28H513.572L514.792 1578.01H515.462L513.992 1583H513.132L511.942 1578.73H511.892L510.712 1583H509.852ZM518.856 1583L522.056 1576.75V1576.7H518.096V1576H522.836V1576.78L519.686 1583H518.856ZM523.544 1583V1582.12L526.434 1579.89C526.747 1579.64 526.994 1579.41 527.174 1579.22C527.36 1579.02 527.494 1578.82 527.574 1578.63C527.66 1578.43 527.704 1578.22 527.704 1577.99C527.704 1577.56 527.56 1577.21 527.274 1576.96C526.994 1576.7 526.62 1576.57 526.154 1576.57C525.62 1576.57 525.204 1576.71 524.904 1577C524.61 1577.29 524.444 1577.66 524.404 1578.11H523.684C523.697 1577.71 523.794 1577.34 523.974 1577.01C524.16 1576.68 524.434 1576.41 524.794 1576.2C525.16 1575.99 525.614 1575.89 526.154 1575.89C526.614 1575.89 527.014 1575.98 527.354 1576.16C527.694 1576.33 527.957 1576.58 528.144 1576.89C528.33 1577.2 528.424 1577.56 528.424 1577.96C528.424 1578.27 528.37 1578.56 528.264 1578.81C528.164 1579.06 528 1579.32 527.774 1579.58C527.547 1579.83 527.234 1580.11 526.834 1580.41L524.454 1582.27V1582.32H528.594V1583H523.544Z" fill="#8D8B84"/>
<path d="M1029.28 1583L1027.38 1576H1028.12L1029.77 1582.18H1029.82L1031.57 1576H1032.49L1034.24 1582.18H1034.29L1035.95 1576H1036.66L1034.76 1583H1033.8L1032.04 1576.82H1031.99L1030.24 1583H1029.28ZM1041.13 1583V1576.55L1041.39 1576.66L1039.63 1578.04V1577.23L1041.18 1576H1041.83V1583H1041.13ZM1045.86 1583.11C1045.31 1583.11 1044.84 1583.02 1044.44 1582.85C1044.05 1582.68 1043.74 1582.44 1043.52 1582.13C1043.3 1581.82 1043.17 1581.46 1043.14 1581.05H1043.89C1043.94 1581.5 1044.13 1581.84 1044.47 1582.08C1044.81 1582.31 1045.27 1582.43 1045.86 1582.43C1046.25 1582.43 1046.59 1582.37 1046.86 1582.24C1047.14 1582.11 1047.35 1581.93 1047.49 1581.7C1047.64 1581.47 1047.71 1581.22 1047.71 1580.93C1047.71 1580.63 1047.64 1580.37 1047.49 1580.15C1047.34 1579.92 1047.13 1579.75 1046.85 1579.64C1046.58 1579.53 1046.25 1579.47 1045.87 1579.47H1044.63V1578.85L1047.15 1576.73V1576.68H1043.68V1576H1048V1576.81L1045.64 1578.81V1579.07L1045.46 1578.86H1045.99C1046.48 1578.86 1046.9 1578.94 1047.27 1579.11C1047.64 1579.28 1047.93 1579.52 1048.13 1579.83C1048.34 1580.14 1048.44 1580.51 1048.44 1580.93C1048.44 1581.32 1048.34 1581.69 1048.14 1582.02C1047.94 1582.35 1047.64 1582.62 1047.25 1582.82C1046.86 1583.01 1046.4 1583.11 1045.86 1583.11ZM1050.89 1583L1052.98 1580.32L1053.21 1580.5C1053.02 1580.58 1052.82 1580.64 1052.6 1580.69C1052.38 1580.74 1052.16 1580.76 1051.92 1580.76C1051.38 1580.76 1050.9 1580.65 1050.5 1580.44C1050.09 1580.23 1049.77 1579.94 1049.55 1579.57C1049.33 1579.2 1049.22 1578.78 1049.22 1578.33C1049.22 1577.88 1049.33 1577.47 1049.55 1577.1C1049.77 1576.73 1050.09 1576.43 1050.5 1576.22C1050.9 1576 1051.38 1575.89 1051.92 1575.89C1052.46 1575.89 1052.93 1576 1053.34 1576.22C1053.75 1576.43 1054.07 1576.73 1054.29 1577.1C1054.51 1577.47 1054.62 1577.88 1054.62 1578.33C1054.62 1578.64 1054.55 1578.95 1054.43 1579.27C1054.3 1579.59 1054.11 1579.91 1053.87 1580.24L1051.75 1583H1050.89ZM1051.92 1580.11C1052.32 1580.11 1052.67 1580.03 1052.97 1579.88C1053.27 1579.73 1053.5 1579.52 1053.66 1579.25C1053.82 1578.98 1053.9 1578.67 1053.9 1578.33C1053.9 1577.99 1053.82 1577.69 1053.66 1577.42C1053.5 1577.15 1053.27 1576.93 1052.97 1576.78C1052.67 1576.62 1052.32 1576.54 1051.92 1576.54C1051.51 1576.54 1051.16 1576.62 1050.86 1576.78C1050.56 1576.93 1050.34 1577.15 1050.18 1577.42C1050.02 1577.69 1049.95 1577.99 1049.95 1578.33C1049.95 1578.67 1050.02 1578.98 1050.18 1579.25C1050.34 1579.52 1050.56 1579.73 1050.86 1579.88C1051.16 1580.03 1051.51 1580.11 1051.92 1580.11ZM1058.62 1583.11C1058.05 1583.11 1057.52 1582.96 1057.04 1582.67C1056.56 1582.38 1056.18 1581.96 1055.89 1581.41C1055.61 1580.86 1055.47 1580.23 1055.47 1579.5C1055.47 1578.77 1055.61 1578.14 1055.89 1577.59C1056.18 1577.04 1056.56 1576.62 1057.04 1576.33C1057.52 1576.04 1058.05 1575.89 1058.62 1575.89C1059.19 1575.89 1059.72 1576.04 1060.19 1576.33C1060.67 1576.62 1061.05 1577.04 1061.33 1577.59C1061.62 1578.14 1061.76 1578.77 1061.76 1579.5C1061.76 1580.23 1061.62 1580.86 1061.33 1581.41C1061.05 1581.96 1060.67 1582.38 1060.19 1582.67C1059.72 1582.96 1059.19 1583.11 1058.62 1583.11ZM1058.62 1582.43C1059.06 1582.43 1059.46 1582.32 1059.83 1582.1C1060.2 1581.88 1060.49 1581.55 1060.71 1581.11C1060.93 1580.66 1061.04 1580.13 1061.04 1579.5C1061.04 1578.87 1060.93 1578.34 1060.71 1577.9C1060.49 1577.45 1060.2 1577.12 1059.83 1576.9C1059.46 1576.68 1059.06 1576.57 1058.62 1576.57C1058.17 1576.57 1057.77 1576.68 1057.4 1576.9C1057.03 1577.12 1056.74 1577.45 1056.52 1577.9C1056.31 1578.34 1056.2 1578.87 1056.2 1579.5C1056.2 1580.13 1056.31 1580.66 1056.52 1581.11C1056.74 1581.55 1057.03 1581.88 1057.4 1582.1C1057.77 1582.32 1058.17 1582.43 1058.62 1582.43Z" fill="#8D8B84"/>
<path d="M1029.76 2040L1028.3 2035.01H1028.98L1030.19 2039.28H1030.24L1031.42 2035.01H1032.25L1033.43 2039.28H1033.48L1034.7 2035.01H1035.37L1033.9 2040H1033.04L1031.85 2035.73H1031.8L1030.62 2040H1029.76ZM1038.2 2038.44V2037.71L1040.67 2033H1041.45L1038.98 2037.71V2037.76H1043.85V2038.44H1038.2ZM1042.15 2040V2035.41H1042.85V2040H1042.15ZM1045.63 2040V2033.55L1045.89 2033.66L1044.13 2035.04V2034.23L1045.68 2033H1046.33V2040H1045.63ZM1048.26 2040L1051.46 2033.75V2033.7H1047.5V2033H1052.24V2033.78L1049.09 2040H1048.26Z" fill="#8D8B84"/>
<path d="M538.8 2083V2076H539.46V2078.85H539.51C539.677 2078.56 539.91 2078.34 540.21 2078.17C540.517 2078 540.867 2077.91 541.26 2077.91C541.66 2077.91 542.003 2077.99 542.29 2078.16C542.583 2078.32 542.807 2078.56 542.96 2078.88C543.113 2079.2 543.19 2079.58 543.19 2080.03V2083H542.53V2080.14C542.53 2079.62 542.41 2079.22 542.17 2078.94C541.93 2078.65 541.58 2078.51 541.12 2078.51C540.807 2078.51 540.523 2078.58 540.27 2078.73C540.017 2078.88 539.817 2079.08 539.67 2079.35C539.53 2079.61 539.46 2079.91 539.46 2080.26V2083H538.8ZM549.292 2083.11C548.746 2083.11 548.272 2083.02 547.872 2082.85C547.479 2082.68 547.172 2082.44 546.952 2082.13C546.732 2081.82 546.606 2081.46 546.572 2081.05H547.322C547.369 2081.5 547.562 2081.84 547.902 2082.08C548.242 2082.31 548.706 2082.43 549.292 2082.43C549.686 2082.43 550.019 2082.37 550.292 2082.24C550.572 2082.11 550.782 2081.93 550.922 2081.7C551.069 2081.47 551.142 2081.22 551.142 2080.93C551.142 2080.63 551.069 2080.37 550.922 2080.15C550.776 2079.92 550.562 2079.75 550.282 2079.64C550.009 2079.53 549.682 2079.47 549.302 2079.47H548.062V2078.85L550.582 2076.73V2076.68H547.112V2076H551.432V2076.81L549.072 2078.81V2079.07L548.892 2078.86H549.422C549.909 2078.86 550.336 2078.94 550.702 2079.11C551.076 2079.28 551.362 2079.52 551.562 2079.83C551.769 2080.14 551.872 2080.51 551.872 2080.93C551.872 2081.32 551.772 2081.69 551.572 2082.02C551.372 2082.35 551.076 2082.62 550.682 2082.82C550.296 2083.01 549.832 2083.11 549.292 2083.11ZM555.31 2083.11C554.784 2083.11 554.324 2083.02 553.93 2082.84C553.537 2082.66 553.23 2082.41 553.01 2082.1C552.79 2081.79 552.664 2081.44 552.63 2081.05H553.38C553.42 2081.33 553.52 2081.57 553.68 2081.78C553.847 2081.99 554.067 2082.15 554.34 2082.26C554.62 2082.37 554.944 2082.43 555.31 2082.43C555.697 2082.43 556.034 2082.36 556.32 2082.21C556.607 2082.06 556.827 2081.85 556.98 2081.58C557.134 2081.31 557.21 2081.01 557.21 2080.68C557.21 2080.37 557.134 2080.09 556.98 2079.84C556.834 2079.58 556.62 2079.38 556.34 2079.23C556.067 2079.08 555.747 2079.01 555.38 2079.01C555.027 2079.01 554.704 2079.07 554.41 2079.2C554.117 2079.32 553.89 2079.49 553.73 2079.72H553.05L553.59 2076H557.47V2076.68H554.13L553.8 2078.9H553.85C554.05 2078.73 554.287 2078.59 554.56 2078.5C554.84 2078.41 555.144 2078.36 555.47 2078.36C555.957 2078.36 556.387 2078.46 556.76 2078.67C557.134 2078.88 557.42 2079.16 557.62 2079.51C557.827 2079.86 557.93 2080.25 557.93 2080.68C557.93 2081.15 557.824 2081.57 557.61 2081.94C557.404 2082.31 557.104 2082.59 556.71 2082.8C556.317 2083.01 555.85 2083.11 555.31 2083.11ZM558.725 2083V2082.12L561.615 2079.89C561.929 2079.64 562.175 2079.41 562.355 2079.22C562.542 2079.02 562.675 2078.82 562.755 2078.63C562.842 2078.43 562.885 2078.22 562.885 2077.99C562.885 2077.56 562.742 2077.21 562.455 2076.96C562.175 2076.7 561.802 2076.57 561.335 2076.57C560.802 2076.57 560.385 2076.71 560.085 2077C559.792 2077.29 559.625 2077.66 559.585 2078.11H558.865C558.879 2077.71 558.975 2077.34 559.155 2077.01C559.342 2076.68 559.615 2076.41 559.975 2076.2C560.342 2075.99 560.795 2075.89 561.335 2075.89C561.795 2075.89 562.195 2075.98 562.535 2076.16C562.875 2076.33 563.139 2076.58 563.325 2076.89C563.512 2077.2 563.605 2077.56 563.605 2077.96C563.605 2078.27 563.552 2078.56 563.445 2078.81C563.345 2079.06 563.182 2079.32 562.955 2079.58C562.729 2079.83 562.415 2080.11 562.015 2080.41L559.635 2082.27V2082.32H563.775V2083H558.725Z" fill="#8D8B84"/>
<path d="M539.76 1259L538.3 1254.01H538.98L540.19 1258.28H540.24L541.42 1254.01H542.25L543.43 1258.28H543.48L544.7 1254.01H545.37L543.9 1259H543.04L541.85 1254.73H541.8L540.62 1259H539.76ZM548.354 1259V1258.12L551.244 1255.89C551.558 1255.64 551.804 1255.41 551.984 1255.22C552.171 1255.02 552.304 1254.82 552.384 1254.63C552.471 1254.43 552.514 1254.22 552.514 1253.99C552.514 1253.56 552.371 1253.21 552.084 1252.96C551.804 1252.7 551.431 1252.57 550.964 1252.57C550.431 1252.57 550.014 1252.71 549.714 1253C549.421 1253.29 549.254 1253.66 549.214 1254.11H548.494C548.508 1253.71 548.604 1253.34 548.784 1253.01C548.971 1252.68 549.244 1252.41 549.604 1252.2C549.971 1251.99 550.424 1251.89 550.964 1251.89C551.424 1251.89 551.824 1251.98 552.164 1252.16C552.504 1252.33 552.768 1252.58 552.954 1252.89C553.141 1253.2 553.234 1253.56 553.234 1253.96C553.234 1254.27 553.181 1254.56 553.074 1254.81C552.974 1255.06 552.811 1255.32 552.584 1255.58C552.358 1255.83 552.044 1256.11 551.644 1256.41L549.264 1258.27V1258.32H553.404V1259H548.354ZM556.775 1259.11C556.249 1259.11 555.789 1259.02 555.395 1258.84C555.002 1258.66 554.695 1258.41 554.475 1258.1C554.255 1257.79 554.129 1257.44 554.095 1257.05H554.845C554.885 1257.33 554.985 1257.57 555.145 1257.78C555.312 1257.99 555.532 1258.15 555.805 1258.26C556.085 1258.37 556.409 1258.43 556.775 1258.43C557.162 1258.43 557.499 1258.36 557.785 1258.21C558.072 1258.06 558.292 1257.85 558.445 1257.58C558.599 1257.31 558.675 1257.01 558.675 1256.68C558.675 1256.37 558.599 1256.09 558.445 1255.84C558.299 1255.58 558.085 1255.38 557.805 1255.23C557.532 1255.08 557.212 1255.01 556.845 1255.01C556.492 1255.01 556.169 1255.07 555.875 1255.2C555.582 1255.32 555.355 1255.49 555.195 1255.72H554.515L555.055 1252H558.935V1252.68H555.595L555.265 1254.9H555.315C555.515 1254.73 555.752 1254.59 556.025 1254.5C556.305 1254.41 556.609 1254.36 556.935 1254.36C557.422 1254.36 557.852 1254.46 558.225 1254.67C558.599 1254.88 558.885 1255.16 559.085 1255.51C559.292 1255.86 559.395 1256.25 559.395 1256.68C559.395 1257.15 559.289 1257.57 559.075 1257.94C558.869 1258.31 558.569 1258.59 558.175 1258.8C557.782 1259.01 557.315 1259.11 556.775 1259.11ZM560.19 1259V1258.12L563.08 1255.89C563.393 1255.64 563.64 1255.41 563.82 1255.22C564.007 1255.02 564.14 1254.82 564.22 1254.63C564.307 1254.43 564.35 1254.22 564.35 1253.99C564.35 1253.56 564.207 1253.21 563.92 1252.96C563.64 1252.7 563.267 1252.57 562.8 1252.57C562.267 1252.57 561.85 1252.71 561.55 1253C561.257 1253.29 561.09 1253.66 561.05 1254.11H560.33C560.343 1253.71 560.44 1253.34 560.62 1253.01C560.807 1252.68 561.08 1252.41 561.44 1252.2C561.807 1251.99 562.26 1251.89 562.8 1251.89C563.26 1251.89 563.66 1251.98 564 1252.16C564.34 1252.33 564.603 1252.58 564.79 1252.89C564.977 1253.2 565.07 1253.56 565.07 1253.96C565.07 1254.27 565.017 1254.56 564.91 1254.81C564.81 1255.06 564.647 1255.32 564.42 1255.58C564.193 1255.83 563.88 1256.11 563.48 1256.41L561.1 1258.27V1258.32H565.24V1259H560.19Z" fill="#8D8B84"/>
</g>
<defs>
<clipPath id="clip0_1_816">
<rect width="1440" height="2089" fill="white"/>
</clipPath>
</defs>
</svg>
