<svg width="1440" height="2090" viewBox="0 0 1440 2090" fill="none" xmlns="http://www.w3.org/2000/svg">
<g clip-path="url(#clip0_1_677)">
<rect width="1440" height="2090" fill="#E8E8E8"/>
<rect x="1086" y="2049" width="354" height="40" fill="#21201C"/>
<rect x="954" width="132" height="185" fill="#21201C"/>
<rect x="443" width="375" height="30" fill="#21201C"/>
<rect x="818" y="30" width="136" height="31" fill="#21201C"/>
<rect x="886" y="53" width="68" height="132" fill="#21201C"/>
<rect x="818" y="185" width="622" height="479" fill="#21201C"/>
<rect y="664" width="443" height="360" fill="#21201C"/>
<rect x="443" y="919" width="211" height="333" fill="#21201C"/>
<rect x="443" y="1576" width="327" height="120" fill="#21201C"/>
<rect x="671" y="1532" width="99" height="44" fill="#21201C"/>
<rect x="770" y="1790" width="74" height="300" fill="#21201C"/>
<rect x="443" y="1696" width="327" height="394" fill="#21201C"/>
<rect x="1156" y="1252" width="284" height="289" fill="#21201C"/>
<rect x="880" y="1228" width="276" height="182" fill="#21201C"/>
<rect x="818" y="1186" width="62" height="165" fill="#21201C"/>
<rect y="1024" width="507" height="74" fill="#21201C"/>
<rect y="631" width="128" height="33" fill="#21201C"/>
<rect y="1098" width="443" height="992" fill="#21201C"/>
<rect width="264" height="30" fill="#21201C"/>
<rect x="1138" width="302" height="185" fill="#21201C"/>
<line x1="770.25" y1="1252" x2="770.25" y2="2089" stroke="#8D8B84" stroke-width="0.5" stroke-dasharray="8 8"/>
<line x1="818.25" y1="-1.09278e-08" x2="818.25" y2="1024" stroke="#8D8B84" stroke-width="0.5" stroke-dasharray="8 8"/>
<line y1="663.75" x2="443" y2="663.75" stroke="#8D8B84" stroke-width="0.5" stroke-dasharray="8 8"/>
<line x1="156.75" y1="2089" x2="156.75" y2="1696" stroke="#8D8B84" stroke-width="0.5" stroke-dasharray="8 8"/>
<rect x="128.25" y="333.25" width="1357.5" height="690.5" stroke="#8D8B84" stroke-width="0.5"/>
<rect x="-50.75" y="1252.25" width="1357.5" height="443.5" stroke="#8D8B84" stroke-width="0.5"/>
<circle cx="607" cy="664" r="478.75" stroke="#8D8B84" stroke-width="0.5"/>
<circle cx="764.5" cy="1768.5" r="321.25" stroke="#8D8B84" stroke-width="0.5"/>
<line x1="443.25" y1="-1.09278e-08" x2="443.25" y2="2090" stroke="#8D8B84" stroke-width="0.5"/>
<line x1="954.25" y1="-1.09278e-08" x2="954.25" y2="185" stroke="#8D8B84" stroke-width="0.5"/>
<line x1="1086.25" y1="-1.09278e-08" x2="1086.25" y2="2090" stroke="#8D8B84" stroke-width="0.5"/>
<path d="M961.96 179.1C961.48 179.1 961.047 178.987 960.66 178.76C960.28 178.533 959.98 178.223 959.76 177.83C959.54 177.437 959.43 176.993 959.43 176.5C959.43 176.013 959.54 175.573 959.76 175.18C959.98 174.78 960.28 174.47 960.66 174.25C961.047 174.023 961.48 173.91 961.96 173.91C962.333 173.91 962.68 173.983 963 174.13C963.327 174.277 963.603 174.487 963.83 174.76C964.063 175.033 964.223 175.347 964.31 175.7H963.64C963.513 175.333 963.297 175.043 962.99 174.83C962.69 174.617 962.347 174.51 961.96 174.51C961.6 174.51 961.277 174.597 960.99 174.77C960.71 174.937 960.49 175.17 960.33 175.47C960.177 175.77 960.1 176.113 960.1 176.5C960.1 176.887 960.177 177.233 960.33 177.54C960.49 177.84 960.71 178.073 960.99 178.24C961.277 178.407 961.6 178.49 961.96 178.49C962.347 178.49 962.69 178.383 962.99 178.17C963.297 177.957 963.513 177.667 963.64 177.3H964.31C964.223 177.66 964.063 177.977 963.83 178.25C963.603 178.517 963.327 178.727 963 178.88C962.68 179.027 962.333 179.1 961.96 179.1ZM970.342 179.11C969.809 179.11 969.342 179.03 968.942 178.87C968.549 178.71 968.242 178.48 968.022 178.18C967.802 177.873 967.692 177.513 967.692 177.1C967.692 176.673 967.816 176.307 968.062 176C968.309 175.687 968.652 175.47 969.092 175.35V175.3C968.692 175.16 968.392 174.96 968.192 174.7C967.999 174.433 967.902 174.12 967.902 173.76C967.902 173.393 967.996 173.07 968.182 172.79C968.376 172.503 968.656 172.283 969.022 172.13C969.389 171.97 969.829 171.89 970.342 171.89C970.856 171.89 971.296 171.97 971.662 172.13C972.029 172.283 972.309 172.503 972.502 172.79C972.696 173.07 972.792 173.393 972.792 173.76C972.792 174.12 972.692 174.433 972.492 174.7C972.299 174.96 971.999 175.16 971.592 175.3V175.35C972.032 175.47 972.376 175.687 972.622 176C972.869 176.307 972.992 176.673 972.992 177.1C972.992 177.513 972.882 177.873 972.662 178.18C972.449 178.48 972.142 178.71 971.742 178.87C971.342 179.03 970.876 179.11 970.342 179.11ZM970.342 178.43C970.956 178.43 971.429 178.313 971.762 178.08C972.102 177.847 972.272 177.503 972.272 177.05C972.272 176.603 972.102 176.263 971.762 176.03C971.429 175.797 970.956 175.68 970.342 175.68C969.729 175.68 969.256 175.797 968.922 176.03C968.589 176.263 968.422 176.603 968.422 177.05C968.422 177.503 968.589 177.847 968.922 178.08C969.256 178.313 969.729 178.43 970.342 178.43ZM970.342 175.01C970.909 175.01 971.336 174.903 971.622 174.69C971.916 174.477 972.062 174.177 972.062 173.79C972.062 173.403 971.919 173.103 971.632 172.89C971.346 172.677 970.916 172.57 970.342 172.57C969.769 172.57 969.339 172.677 969.052 172.89C968.766 173.103 968.622 173.403 968.622 173.79C968.622 174.177 968.769 174.477 969.062 174.69C969.356 174.903 969.782 175.01 970.342 175.01Z" fill="#8D8B84"/>
<path d="M448.8 327V320H449.46V322.85H449.51C449.677 322.563 449.91 322.337 450.21 322.17C450.517 321.997 450.867 321.91 451.26 321.91C451.66 321.91 452.003 321.993 452.29 322.16C452.583 322.32 452.807 322.56 452.96 322.88C453.113 323.2 453.19 323.583 453.19 324.03V327H452.53V324.14C452.53 323.62 452.41 323.22 452.17 322.94C451.93 322.653 451.58 322.51 451.12 322.51C450.807 322.51 450.523 322.583 450.27 322.73C450.017 322.877 449.817 323.083 449.67 323.35C449.53 323.61 449.46 323.913 449.46 324.26V327H448.8ZM459.402 327.11C458.876 327.11 458.416 327.02 458.022 326.84C457.629 326.66 457.322 326.413 457.102 326.1C456.882 325.787 456.756 325.437 456.722 325.05H457.472C457.512 325.33 457.612 325.573 457.772 325.78C457.939 325.987 458.159 326.147 458.432 326.26C458.712 326.373 459.036 326.43 459.402 326.43C459.789 326.43 460.126 326.357 460.412 326.21C460.699 326.057 460.919 325.847 461.072 325.58C461.226 325.313 461.302 325.013 461.302 324.68C461.302 324.373 461.226 324.093 461.072 323.84C460.926 323.58 460.712 323.377 460.432 323.23C460.159 323.083 459.839 323.01 459.472 323.01C459.119 323.01 458.796 323.073 458.502 323.2C458.209 323.32 457.982 323.493 457.822 323.72H457.142L457.682 320H461.562V320.68H458.222L457.892 322.9H457.942C458.142 322.727 458.379 322.593 458.652 322.5C458.932 322.407 459.236 322.36 459.562 322.36C460.049 322.36 460.479 322.463 460.852 322.67C461.226 322.877 461.512 323.157 461.712 323.51C461.919 323.863 462.022 324.253 462.022 324.68C462.022 325.153 461.916 325.573 461.702 325.94C461.496 326.307 461.196 326.593 460.802 326.8C460.409 327.007 459.942 327.11 459.402 327.11ZM464.012 327V320.55L464.272 320.66L462.512 322.04V321.23L464.062 320H464.712V327H464.012ZM469.345 327.11C468.772 327.11 468.245 326.963 467.765 326.67C467.285 326.377 466.902 325.957 466.615 325.41C466.335 324.863 466.195 324.227 466.195 323.5C466.195 322.773 466.335 322.137 466.615 321.59C466.902 321.043 467.285 320.623 467.765 320.33C468.245 320.037 468.772 319.89 469.345 319.89C469.919 319.89 470.442 320.037 470.915 320.33C471.395 320.623 471.775 321.043 472.055 321.59C472.342 322.137 472.485 322.773 472.485 323.5C472.485 324.227 472.342 324.863 472.055 325.41C471.775 325.957 471.395 326.377 470.915 326.67C470.442 326.963 469.919 327.11 469.345 327.11ZM469.345 326.43C469.785 326.43 470.189 326.32 470.555 326.1C470.922 325.88 471.215 325.55 471.435 325.11C471.655 324.663 471.765 324.127 471.765 323.5C471.765 322.873 471.655 322.34 471.435 321.9C471.215 321.453 470.922 321.12 470.555 320.9C470.189 320.68 469.785 320.57 469.345 320.57C468.899 320.57 468.492 320.68 468.125 320.9C467.759 321.12 467.465 321.453 467.245 321.9C467.032 322.34 466.925 322.873 466.925 323.5C466.925 324.127 467.032 324.663 467.245 325.11C467.465 325.55 467.759 325.88 468.125 326.1C468.492 326.32 468.899 326.43 469.345 326.43Z" fill="#8D8B84"/>
<path d="M134.76 658L133.3 653.01H133.98L135.19 657.28H135.24L136.42 653.01H137.25L138.43 657.28H138.48L139.7 653.01H140.37L138.9 658H138.04L136.85 653.73H136.8L135.62 658H134.76ZM145.874 658.11C145.328 658.11 144.854 658.023 144.454 657.85C144.061 657.677 143.754 657.437 143.534 657.13C143.314 656.817 143.188 656.457 143.154 656.05H143.904C143.951 656.497 144.144 656.84 144.484 657.08C144.824 657.313 145.288 657.43 145.874 657.43C146.268 657.43 146.601 657.367 146.874 657.24C147.154 657.107 147.364 656.927 147.504 656.7C147.651 656.473 147.724 656.217 147.724 655.93C147.724 655.63 147.651 655.37 147.504 655.15C147.358 654.923 147.144 654.753 146.864 654.64C146.591 654.527 146.264 654.47 145.884 654.47H144.644V653.85L147.164 651.73V651.68H143.694V651H148.014V651.81L145.654 653.81V654.07L145.474 653.86H146.004C146.491 653.86 146.918 653.943 147.284 654.11C147.658 654.277 147.944 654.517 148.144 654.83C148.351 655.143 148.454 655.51 148.454 655.93C148.454 656.323 148.354 656.687 148.154 657.02C147.954 657.353 147.658 657.62 147.264 657.82C146.878 658.013 146.414 658.11 145.874 658.11ZM150.662 658V651.55L150.922 651.66L149.162 653.04V652.23L150.712 651H151.362V658H150.662ZM155.506 658.11C154.979 658.11 154.519 658.02 154.126 657.84C153.732 657.66 153.426 657.413 153.206 657.1C152.986 656.787 152.859 656.437 152.826 656.05H153.576C153.616 656.33 153.716 656.573 153.876 656.78C154.042 656.987 154.262 657.147 154.536 657.26C154.816 657.373 155.139 657.43 155.506 657.43C155.892 657.43 156.229 657.357 156.516 657.21C156.802 657.057 157.022 656.847 157.176 656.58C157.329 656.313 157.406 656.013 157.406 655.68C157.406 655.373 157.329 655.093 157.176 654.84C157.029 654.58 156.816 654.377 156.536 654.23C156.262 654.083 155.942 654.01 155.576 654.01C155.222 654.01 154.899 654.073 154.606 654.2C154.312 654.32 154.086 654.493 153.926 654.72H153.246L153.786 651H157.666V651.68H154.326L153.996 653.9H154.046C154.246 653.727 154.482 653.593 154.756 653.5C155.036 653.407 155.339 653.36 155.666 653.36C156.152 653.36 156.582 653.463 156.956 653.67C157.329 653.877 157.616 654.157 157.816 654.51C158.022 654.863 158.126 655.253 158.126 655.68C158.126 656.153 158.019 656.573 157.806 656.94C157.599 657.307 157.299 657.593 156.906 657.8C156.512 658.007 156.046 658.11 155.506 658.11Z" fill="#8D8B84"/>
<path d="M411.007 678V671H411.667V673.85H411.717C411.884 673.563 412.117 673.337 412.417 673.17C412.724 672.997 413.074 672.91 413.467 672.91C413.867 672.91 414.21 672.993 414.497 673.16C414.79 673.32 415.014 673.56 415.167 673.88C415.32 674.2 415.397 674.583 415.397 675.03V678H414.737V675.14C414.737 674.62 414.617 674.22 414.377 673.94C414.137 673.653 413.787 673.51 413.327 673.51C413.014 673.51 412.73 673.583 412.477 673.73C412.224 673.877 412.024 674.083 411.877 674.35C411.737 674.61 411.667 674.913 411.667 675.26V678H411.007ZM421.499 678.11C420.953 678.11 420.479 678.023 420.079 677.85C419.686 677.677 419.379 677.437 419.159 677.13C418.939 676.817 418.813 676.457 418.779 676.05H419.529C419.576 676.497 419.769 676.84 420.109 677.08C420.449 677.313 420.913 677.43 421.499 677.43C421.893 677.43 422.226 677.367 422.499 677.24C422.779 677.107 422.989 676.927 423.129 676.7C423.276 676.473 423.349 676.217 423.349 675.93C423.349 675.63 423.276 675.37 423.129 675.15C422.983 674.923 422.769 674.753 422.489 674.64C422.216 674.527 421.889 674.47 421.509 674.47H420.269V673.85L422.789 671.73V671.68H419.319V671H423.639V671.81L421.279 673.81V674.07L421.099 673.86H421.629C422.116 673.86 422.543 673.943 422.909 674.11C423.283 674.277 423.569 674.517 423.769 674.83C423.976 675.143 424.079 675.51 424.079 675.93C424.079 676.323 423.979 676.687 423.779 677.02C423.579 677.353 423.283 677.62 422.889 677.82C422.503 678.013 422.039 678.11 421.499 678.11ZM427.703 678.11C427.163 678.11 426.689 678.003 426.283 677.79C425.876 677.57 425.559 677.277 425.333 676.91C425.113 676.537 425.003 676.123 425.003 675.67C425.003 675.363 425.066 675.05 425.193 674.73C425.319 674.41 425.509 674.087 425.763 673.76L427.883 671H428.743L426.643 673.68L426.423 673.5C426.603 673.42 426.799 673.357 427.013 673.31C427.233 673.263 427.463 673.24 427.703 673.24C428.243 673.24 428.716 673.347 429.123 673.56C429.536 673.773 429.853 674.067 430.073 674.44C430.293 674.807 430.403 675.217 430.403 675.67C430.403 676.123 430.293 676.537 430.073 676.91C429.853 677.277 429.536 677.57 429.123 677.79C428.716 678.003 428.243 678.11 427.703 678.11ZM427.703 677.46C428.109 677.46 428.459 677.383 428.753 677.23C429.053 677.07 429.283 676.857 429.443 676.59C429.603 676.317 429.683 676.01 429.683 675.67C429.683 675.33 429.603 675.027 429.443 674.76C429.283 674.487 429.053 674.273 428.753 674.12C428.459 673.967 428.109 673.89 427.703 673.89C427.296 673.89 426.943 673.967 426.643 674.12C426.349 674.273 426.123 674.487 425.963 674.76C425.809 675.027 425.733 675.33 425.733 675.67C425.733 676.01 425.809 676.317 425.963 676.59C426.123 676.857 426.349 677.07 426.643 677.23C426.943 677.383 427.296 677.46 427.703 677.46ZM434.355 678.11C433.782 678.11 433.255 677.963 432.775 677.67C432.295 677.377 431.912 676.957 431.625 676.41C431.345 675.863 431.205 675.227 431.205 674.5C431.205 673.773 431.345 673.137 431.625 672.59C431.912 672.043 432.295 671.623 432.775 671.33C433.255 671.037 433.782 670.89 434.355 670.89C434.928 670.89 435.452 671.037 435.925 671.33C436.405 671.623 436.785 672.043 437.065 672.59C437.352 673.137 437.495 673.773 437.495 674.5C437.495 675.227 437.352 675.863 437.065 676.41C436.785 676.957 436.405 677.377 435.925 677.67C435.452 677.963 434.928 678.11 434.355 678.11ZM434.355 677.43C434.795 677.43 435.198 677.32 435.565 677.1C435.932 676.88 436.225 676.55 436.445 676.11C436.665 675.663 436.775 675.127 436.775 674.5C436.775 673.873 436.665 673.34 436.445 672.9C436.225 672.453 435.932 672.12 435.565 671.9C435.198 671.68 434.795 671.57 434.355 671.57C433.908 671.57 433.502 671.68 433.135 671.9C432.768 672.12 432.475 672.453 432.255 672.9C432.042 673.34 431.935 673.873 431.935 674.5C431.935 675.127 432.042 675.663 432.255 676.11C432.475 676.55 432.768 676.88 433.135 677.1C433.502 677.32 433.908 677.43 434.355 677.43Z" fill="#8D8B84"/>
<path d="M823.96 1018V1011H826.17C826.857 1011 827.47 1011.15 828.01 1011.45C828.557 1011.74 828.98 1012.16 829.28 1012.69C829.587 1013.22 829.74 1013.83 829.74 1014.5C829.74 1015.17 829.587 1015.78 829.28 1016.31C828.98 1016.84 828.557 1017.26 828.01 1017.56C827.47 1017.85 826.857 1018 826.17 1018H823.96ZM826.17 1017.32C826.73 1017.32 827.223 1017.2 827.65 1016.97C828.083 1016.74 828.42 1016.41 828.66 1015.98C828.9 1015.55 829.02 1015.05 829.02 1014.5C829.02 1013.95 828.9 1013.46 828.66 1013.03C828.42 1012.6 828.083 1012.26 827.65 1012.03C827.223 1011.8 826.73 1011.68 826.17 1011.68H824.66V1017.32H826.17ZM834.299 1018L836.389 1015.32L836.619 1015.5C836.432 1015.58 836.229 1015.64 836.009 1015.69C835.795 1015.74 835.569 1015.76 835.329 1015.76C834.789 1015.76 834.315 1015.65 833.909 1015.44C833.502 1015.23 833.185 1014.94 832.959 1014.57C832.739 1014.2 832.629 1013.78 832.629 1013.33C832.629 1012.88 832.739 1012.47 832.959 1012.1C833.185 1011.73 833.502 1011.43 833.909 1011.22C834.315 1011 834.789 1010.89 835.329 1010.89C835.869 1010.89 836.342 1011 836.749 1011.22C837.162 1011.43 837.479 1011.73 837.699 1012.1C837.919 1012.47 838.029 1012.88 838.029 1013.33C838.029 1013.64 837.965 1013.95 837.839 1014.27C837.712 1014.59 837.525 1014.91 837.279 1015.24L835.159 1018H834.299ZM835.329 1015.11C835.735 1015.11 836.085 1015.03 836.379 1014.88C836.679 1014.73 836.909 1014.52 837.069 1014.25C837.229 1013.98 837.309 1013.67 837.309 1013.33C837.309 1012.99 837.229 1012.69 837.069 1012.42C836.909 1012.15 836.679 1011.93 836.379 1011.78C836.085 1011.62 835.735 1011.54 835.329 1011.54C834.922 1011.54 834.569 1011.62 834.269 1011.78C833.975 1011.93 833.749 1012.15 833.589 1012.42C833.435 1012.69 833.359 1012.99 833.359 1013.33C833.359 1013.67 833.435 1013.98 833.589 1014.25C833.749 1014.52 833.975 1014.73 834.269 1014.88C834.569 1015.03 834.922 1015.11 835.329 1015.11ZM841.433 1018.11C840.893 1018.11 840.42 1018 840.013 1017.79C839.607 1017.57 839.29 1017.28 839.063 1016.91C838.843 1016.54 838.733 1016.12 838.733 1015.67C838.733 1015.36 838.797 1015.05 838.923 1014.73C839.05 1014.41 839.24 1014.09 839.493 1013.76L841.613 1011H842.473L840.373 1013.68L840.153 1013.5C840.333 1013.42 840.53 1013.36 840.743 1013.31C840.963 1013.26 841.193 1013.24 841.433 1013.24C841.973 1013.24 842.447 1013.35 842.853 1013.56C843.267 1013.77 843.583 1014.07 843.803 1014.44C844.023 1014.81 844.133 1015.22 844.133 1015.67C844.133 1016.12 844.023 1016.54 843.803 1016.91C843.583 1017.28 843.267 1017.57 842.853 1017.79C842.447 1018 841.973 1018.11 841.433 1018.11ZM841.433 1017.46C841.84 1017.46 842.19 1017.38 842.483 1017.23C842.783 1017.07 843.013 1016.86 843.173 1016.59C843.333 1016.32 843.413 1016.01 843.413 1015.67C843.413 1015.33 843.333 1015.03 843.173 1014.76C843.013 1014.49 842.783 1014.27 842.483 1014.12C842.19 1013.97 841.84 1013.89 841.433 1013.89C841.027 1013.89 840.673 1013.97 840.373 1014.12C840.08 1014.27 839.853 1014.49 839.693 1014.76C839.54 1015.03 839.463 1015.33 839.463 1015.67C839.463 1016.01 839.54 1016.32 839.693 1016.59C839.853 1016.86 840.08 1017.07 840.373 1017.23C840.673 1017.38 841.027 1017.46 841.433 1017.46ZM848.086 1018.11C847.512 1018.11 846.986 1017.96 846.506 1017.67C846.026 1017.38 845.642 1016.96 845.356 1016.41C845.076 1015.86 844.936 1015.23 844.936 1014.5C844.936 1013.77 845.076 1013.14 845.356 1012.59C845.642 1012.04 846.026 1011.62 846.506 1011.33C846.986 1011.04 847.512 1010.89 848.086 1010.89C848.659 1010.89 849.182 1011.04 849.656 1011.33C850.136 1011.62 850.516 1012.04 850.796 1012.59C851.082 1013.14 851.226 1013.77 851.226 1014.5C851.226 1015.23 851.082 1015.86 850.796 1016.41C850.516 1016.96 850.136 1017.38 849.656 1017.67C849.182 1017.96 848.659 1018.11 848.086 1018.11ZM848.086 1017.43C848.526 1017.43 848.929 1017.32 849.296 1017.1C849.662 1016.88 849.956 1016.55 850.176 1016.11C850.396 1015.66 850.506 1015.13 850.506 1014.5C850.506 1013.87 850.396 1013.34 850.176 1012.9C849.956 1012.45 849.662 1012.12 849.296 1011.9C848.929 1011.68 848.526 1011.57 848.086 1011.57C847.639 1011.57 847.232 1011.68 846.866 1011.9C846.499 1012.12 846.206 1012.45 845.986 1012.9C845.772 1013.34 845.666 1013.87 845.666 1014.5C845.666 1015.13 845.772 1015.66 845.986 1016.11C846.206 1016.55 846.499 1016.88 846.866 1017.1C847.232 1017.32 847.639 1017.43 848.086 1017.43Z" fill="#8D8B84"/>
<path d="M449.76 1266L448.3 1261.01H448.98L450.19 1265.28H450.24L451.42 1261.01H452.25L453.43 1265.28H453.48L454.7 1261.01H455.37L453.9 1266H453.04L451.85 1261.73H451.8L450.62 1266H449.76ZM458.354 1266V1265.12L461.244 1262.89C461.558 1262.64 461.804 1262.41 461.984 1262.22C462.171 1262.02 462.304 1261.82 462.384 1261.63C462.471 1261.43 462.514 1261.22 462.514 1260.99C462.514 1260.56 462.371 1260.21 462.084 1259.96C461.804 1259.7 461.431 1259.57 460.964 1259.57C460.431 1259.57 460.014 1259.71 459.714 1260C459.421 1260.29 459.254 1260.66 459.214 1261.11H458.494C458.508 1260.71 458.604 1260.34 458.784 1260.01C458.971 1259.68 459.244 1259.41 459.604 1259.2C459.971 1258.99 460.424 1258.89 460.964 1258.89C461.424 1258.89 461.824 1258.98 462.164 1259.16C462.504 1259.33 462.768 1259.58 462.954 1259.89C463.141 1260.2 463.234 1260.56 463.234 1260.96C463.234 1261.27 463.181 1261.56 463.074 1261.81C462.974 1262.06 462.811 1262.32 462.584 1262.58C462.358 1262.83 462.044 1263.11 461.644 1263.41L459.264 1265.27V1265.32H463.404V1266H458.354ZM465.741 1266V1259.55L466.001 1259.66L464.241 1261.04V1260.23L465.791 1259H466.441V1266H465.741ZM471.074 1266.11C470.5 1266.11 469.974 1265.96 469.494 1265.67C469.014 1265.38 468.63 1264.96 468.344 1264.41C468.064 1263.86 467.924 1263.23 467.924 1262.5C467.924 1261.77 468.064 1261.14 468.344 1260.59C468.63 1260.04 469.014 1259.62 469.494 1259.33C469.974 1259.04 470.5 1258.89 471.074 1258.89C471.647 1258.89 472.17 1259.04 472.644 1259.33C473.124 1259.62 473.504 1260.04 473.784 1260.59C474.07 1261.14 474.214 1261.77 474.214 1262.5C474.214 1263.23 474.07 1263.86 473.784 1264.41C473.504 1264.96 473.124 1265.38 472.644 1265.67C472.17 1265.96 471.647 1266.11 471.074 1266.11ZM471.074 1265.43C471.514 1265.43 471.917 1265.32 472.284 1265.1C472.65 1264.88 472.944 1264.55 473.164 1264.11C473.384 1263.66 473.494 1263.13 473.494 1262.5C473.494 1261.87 473.384 1261.34 473.164 1260.9C472.944 1260.45 472.65 1260.12 472.284 1259.9C471.917 1259.68 471.514 1259.57 471.074 1259.57C470.627 1259.57 470.22 1259.68 469.854 1259.9C469.487 1260.12 469.194 1260.45 468.974 1260.9C468.76 1261.34 468.654 1261.87 468.654 1262.5C468.654 1263.13 468.76 1263.66 468.974 1264.11C469.194 1264.55 469.487 1264.88 469.854 1265.1C470.22 1265.32 470.627 1265.43 471.074 1265.43Z" fill="#8D8B84"/>
<path d="M1091.8 1266V1259H1092.46V1261.85H1092.51C1092.68 1261.56 1092.91 1261.34 1093.21 1261.17C1093.52 1261 1093.87 1260.91 1094.26 1260.91C1094.66 1260.91 1095 1260.99 1095.29 1261.16C1095.58 1261.32 1095.81 1261.56 1095.96 1261.88C1096.11 1262.2 1096.19 1262.58 1096.19 1263.03V1266H1095.53V1263.14C1095.53 1262.62 1095.41 1262.22 1095.17 1261.94C1094.93 1261.65 1094.58 1261.51 1094.12 1261.51C1093.81 1261.51 1093.52 1261.58 1093.27 1261.73C1093.02 1261.88 1092.82 1262.08 1092.67 1262.35C1092.53 1262.61 1092.46 1262.91 1092.46 1263.26V1266H1091.8ZM1102.29 1266.11C1101.75 1266.11 1101.27 1266.02 1100.87 1265.85C1100.48 1265.68 1100.17 1265.44 1099.95 1265.13C1099.73 1264.82 1099.61 1264.46 1099.57 1264.05H1100.32C1100.37 1264.5 1100.56 1264.84 1100.9 1265.08C1101.24 1265.31 1101.71 1265.43 1102.29 1265.43C1102.69 1265.43 1103.02 1265.37 1103.29 1265.24C1103.57 1265.11 1103.78 1264.93 1103.92 1264.7C1104.07 1264.47 1104.14 1264.22 1104.14 1263.93C1104.14 1263.63 1104.07 1263.37 1103.92 1263.15C1103.78 1262.92 1103.56 1262.75 1103.28 1262.64C1103.01 1262.53 1102.68 1262.47 1102.3 1262.47H1101.06V1261.85L1103.58 1259.73V1259.68H1100.11V1259H1104.43V1259.81L1102.07 1261.81V1262.07L1101.89 1261.86H1102.42C1102.91 1261.86 1103.34 1261.94 1103.7 1262.11C1104.08 1262.28 1104.36 1262.52 1104.56 1262.83C1104.77 1263.14 1104.87 1263.51 1104.87 1263.93C1104.87 1264.32 1104.77 1264.69 1104.57 1265.02C1104.37 1265.35 1104.08 1265.62 1103.68 1265.82C1103.3 1266.01 1102.83 1266.11 1102.29 1266.11ZM1107.08 1266V1259.55L1107.34 1259.66L1105.58 1261.04V1260.23L1107.13 1259H1107.78V1266H1107.08ZM1109.14 1264.44V1263.71L1111.61 1259H1112.39L1109.92 1263.71V1263.76H1114.79V1264.44H1109.14ZM1113.09 1266V1261.41H1113.79V1266H1113.09Z" fill="#8D8B84"/>
<path d="M774.75 1711V1706.01H775.38V1706.86H775.43C775.577 1706.57 775.78 1706.34 776.04 1706.19C776.307 1706.04 776.613 1705.96 776.96 1705.96H777.66V1706.59H776.96C776.487 1706.59 776.11 1706.75 775.83 1707.07C775.55 1707.39 775.41 1707.81 775.41 1708.33V1711H774.75ZM782.997 1711.11C782.451 1711.11 781.977 1711.02 781.577 1710.85C781.184 1710.68 780.877 1710.44 780.657 1710.13C780.437 1709.82 780.311 1709.46 780.277 1709.05H781.027C781.074 1709.5 781.267 1709.84 781.607 1710.08C781.947 1710.31 782.411 1710.43 782.997 1710.43C783.391 1710.43 783.724 1710.37 783.997 1710.24C784.277 1710.11 784.487 1709.93 784.627 1709.7C784.774 1709.47 784.847 1709.22 784.847 1708.93C784.847 1708.63 784.774 1708.37 784.627 1708.15C784.481 1707.92 784.267 1707.75 783.987 1707.64C783.714 1707.53 783.387 1707.47 783.007 1707.47H781.767V1706.85L784.287 1704.73V1704.68H780.817V1704H785.137V1704.81L782.777 1706.81V1707.07L782.597 1706.86H783.127C783.614 1706.86 784.041 1706.94 784.407 1707.11C784.781 1707.28 785.067 1707.52 785.267 1707.83C785.474 1708.14 785.577 1708.51 785.577 1708.93C785.577 1709.32 785.477 1709.69 785.277 1710.02C785.077 1710.35 784.781 1710.62 784.387 1710.82C784.001 1711.01 783.537 1711.11 782.997 1711.11ZM786.385 1711V1710.12L789.275 1707.89C789.589 1707.64 789.835 1707.41 790.015 1707.22C790.202 1707.02 790.335 1706.82 790.415 1706.63C790.502 1706.43 790.545 1706.22 790.545 1705.99C790.545 1705.56 790.402 1705.21 790.115 1704.96C789.835 1704.7 789.462 1704.57 788.995 1704.57C788.462 1704.57 788.045 1704.71 787.745 1705C787.452 1705.29 787.285 1705.66 787.245 1706.11H786.525C786.539 1705.71 786.635 1705.34 786.815 1705.01C787.002 1704.68 787.275 1704.41 787.635 1704.2C788.002 1703.99 788.455 1703.89 788.995 1703.89C789.455 1703.89 789.855 1703.98 790.195 1704.16C790.535 1704.33 790.799 1704.58 790.985 1704.89C791.172 1705.2 791.265 1705.56 791.265 1705.96C791.265 1706.27 791.212 1706.56 791.105 1706.81C791.005 1707.06 790.842 1707.32 790.615 1707.58C790.389 1707.83 790.075 1708.11 789.675 1708.41L787.295 1710.27V1710.32H791.435V1711H786.385ZM795.394 1711.11C794.821 1711.11 794.294 1710.96 793.814 1710.67C793.334 1710.38 792.951 1709.96 792.664 1709.41C792.384 1708.86 792.244 1708.23 792.244 1707.5C792.244 1706.77 792.384 1706.14 792.664 1705.59C792.951 1705.04 793.334 1704.62 793.814 1704.33C794.294 1704.04 794.821 1703.89 795.394 1703.89C795.967 1703.89 796.491 1704.04 796.964 1704.33C797.444 1704.62 797.824 1705.04 798.104 1705.59C798.391 1706.14 798.534 1706.77 798.534 1707.5C798.534 1708.23 798.391 1708.86 798.104 1709.41C797.824 1709.96 797.444 1710.38 796.964 1710.67C796.491 1710.96 795.967 1711.11 795.394 1711.11ZM795.394 1710.43C795.834 1710.43 796.237 1710.32 796.604 1710.1C796.971 1709.88 797.264 1709.55 797.484 1709.11C797.704 1708.66 797.814 1708.13 797.814 1707.5C797.814 1706.87 797.704 1706.34 797.484 1705.9C797.264 1705.45 796.971 1705.12 796.604 1704.9C796.237 1704.68 795.834 1704.57 795.394 1704.57C794.947 1704.57 794.541 1704.68 794.174 1704.9C793.807 1705.12 793.514 1705.45 793.294 1705.9C793.081 1706.34 792.974 1706.87 792.974 1707.5C792.974 1708.13 793.081 1708.66 793.294 1709.11C793.514 1709.55 793.807 1709.88 794.174 1710.1C794.541 1710.32 794.947 1710.43 795.394 1710.43Z" fill="#8D8B84"/>
<path d="M451.26 2083.1C450.887 2083.1 450.537 2083.01 450.21 2082.84C449.883 2082.66 449.623 2082.41 449.43 2082.08H449.38V2083H448.75V2076H449.41V2078.9H449.46C449.633 2078.59 449.883 2078.35 450.21 2078.18C450.537 2078 450.887 2077.91 451.26 2077.91C451.707 2077.91 452.107 2078.02 452.46 2078.24C452.82 2078.45 453.1 2078.76 453.3 2079.15C453.507 2079.54 453.61 2079.99 453.61 2080.5C453.61 2081.01 453.507 2081.46 453.3 2081.86C453.1 2082.25 452.82 2082.56 452.46 2082.78C452.107 2082.99 451.707 2083.1 451.26 2083.1ZM451.14 2082.49C451.5 2082.49 451.813 2082.41 452.08 2082.25C452.353 2082.09 452.563 2081.86 452.71 2081.56C452.857 2081.26 452.93 2080.91 452.93 2080.5C452.93 2080.1 452.857 2079.75 452.71 2079.45C452.563 2079.15 452.353 2078.92 452.08 2078.76C451.813 2078.59 451.5 2078.51 451.14 2078.51C450.8 2078.51 450.5 2078.59 450.24 2078.76C449.98 2078.92 449.777 2079.15 449.63 2079.45C449.483 2079.75 449.41 2080.1 449.41 2080.5C449.41 2080.9 449.483 2081.25 449.63 2081.55C449.777 2081.85 449.98 2082.08 450.24 2082.25C450.5 2082.41 450.8 2082.49 451.14 2082.49ZM459.243 2083.11C458.697 2083.11 458.223 2083.02 457.823 2082.85C457.43 2082.68 457.123 2082.44 456.903 2082.13C456.683 2081.82 456.557 2081.46 456.523 2081.05H457.273C457.32 2081.5 457.513 2081.84 457.853 2082.08C458.193 2082.31 458.657 2082.43 459.243 2082.43C459.637 2082.43 459.97 2082.37 460.243 2082.24C460.523 2082.11 460.733 2081.93 460.873 2081.7C461.02 2081.47 461.093 2081.22 461.093 2080.93C461.093 2080.63 461.02 2080.37 460.873 2080.15C460.727 2079.92 460.513 2079.75 460.233 2079.64C459.96 2079.53 459.633 2079.47 459.253 2079.47H458.013V2078.85L460.533 2076.73V2076.68H457.063V2076H461.383V2076.81L459.023 2078.81V2079.07L458.843 2078.86H459.373C459.86 2078.86 460.287 2078.94 460.653 2079.11C461.027 2079.28 461.313 2079.52 461.513 2079.83C461.72 2080.14 461.823 2080.51 461.823 2080.93C461.823 2081.32 461.723 2081.69 461.523 2082.02C461.323 2082.35 461.027 2082.62 460.633 2082.82C460.247 2083.01 459.783 2083.11 459.243 2083.11ZM463.042 2083L466.242 2076.75V2076.7H462.282V2076H467.022V2076.78L463.872 2083H463.042ZM470.849 2083.11C470.276 2083.11 469.749 2082.96 469.269 2082.67C468.789 2082.38 468.406 2081.96 468.119 2081.41C467.839 2080.86 467.699 2080.23 467.699 2079.5C467.699 2078.77 467.839 2078.14 468.119 2077.59C468.406 2077.04 468.789 2076.62 469.269 2076.33C469.749 2076.04 470.276 2075.89 470.849 2075.89C471.423 2075.89 471.946 2076.04 472.419 2076.33C472.899 2076.62 473.279 2077.04 473.559 2077.59C473.846 2078.14 473.989 2078.77 473.989 2079.5C473.989 2080.23 473.846 2080.86 473.559 2081.41C473.279 2081.96 472.899 2082.38 472.419 2082.67C471.946 2082.96 471.423 2083.11 470.849 2083.11ZM470.849 2082.43C471.289 2082.43 471.693 2082.32 472.059 2082.1C472.426 2081.88 472.719 2081.55 472.939 2081.11C473.159 2080.66 473.269 2080.13 473.269 2079.5C473.269 2078.87 473.159 2078.34 472.939 2077.9C472.719 2077.45 472.426 2077.12 472.059 2076.9C471.693 2076.68 471.289 2076.57 470.849 2076.57C470.403 2076.57 469.996 2076.68 469.629 2076.9C469.263 2077.12 468.969 2077.45 468.749 2077.9C468.536 2078.34 468.429 2078.87 468.429 2079.5C468.429 2080.13 468.536 2080.66 468.749 2081.11C468.969 2081.55 469.263 2081.88 469.629 2082.1C469.996 2082.32 470.403 2082.43 470.849 2082.43Z" fill="#8D8B84"/>
<path d="M1091.8 2083V2076H1092.46V2078.85H1092.51C1092.68 2078.56 1092.91 2078.34 1093.21 2078.17C1093.52 2078 1093.87 2077.91 1094.26 2077.91C1094.66 2077.91 1095 2077.99 1095.29 2078.16C1095.58 2078.32 1095.81 2078.56 1095.96 2078.88C1096.11 2079.2 1096.19 2079.58 1096.19 2080.03V2083H1095.53V2080.14C1095.53 2079.62 1095.41 2079.22 1095.17 2078.94C1094.93 2078.65 1094.58 2078.51 1094.12 2078.51C1093.81 2078.51 1093.52 2078.58 1093.27 2078.73C1093.02 2078.88 1092.82 2079.08 1092.67 2079.35C1092.53 2079.61 1092.46 2079.91 1092.46 2080.26V2083H1091.8ZM1102.29 2083.11C1101.75 2083.11 1101.27 2083.02 1100.87 2082.85C1100.48 2082.68 1100.17 2082.44 1099.95 2082.13C1099.73 2081.82 1099.61 2081.46 1099.57 2081.05H1100.32C1100.37 2081.5 1100.56 2081.84 1100.9 2082.08C1101.24 2082.31 1101.71 2082.43 1102.29 2082.43C1102.69 2082.43 1103.02 2082.37 1103.29 2082.24C1103.57 2082.11 1103.78 2081.93 1103.92 2081.7C1104.07 2081.47 1104.14 2081.22 1104.14 2080.93C1104.14 2080.63 1104.07 2080.37 1103.92 2080.15C1103.78 2079.92 1103.56 2079.75 1103.28 2079.64C1103.01 2079.53 1102.68 2079.47 1102.3 2079.47H1101.06V2078.85L1103.58 2076.73V2076.68H1100.11V2076H1104.43V2076.81L1102.07 2078.81V2079.07L1101.89 2078.86H1102.42C1102.91 2078.86 1103.34 2078.94 1103.7 2079.11C1104.08 2079.28 1104.36 2079.52 1104.56 2079.83C1104.77 2080.14 1104.87 2080.51 1104.87 2080.93C1104.87 2081.32 1104.77 2081.69 1104.57 2082.02C1104.37 2082.35 1104.08 2082.62 1103.68 2082.82C1103.3 2083.01 1102.83 2083.11 1102.29 2083.11ZM1107.32 2083L1109.41 2080.32L1109.64 2080.5C1109.45 2080.58 1109.25 2080.64 1109.03 2080.69C1108.81 2080.74 1108.59 2080.76 1108.35 2080.76C1107.81 2080.76 1107.33 2080.65 1106.93 2080.44C1106.52 2080.23 1106.2 2079.94 1105.98 2079.57C1105.76 2079.2 1105.65 2078.78 1105.65 2078.33C1105.65 2077.88 1105.76 2077.47 1105.98 2077.1C1106.2 2076.73 1106.52 2076.43 1106.93 2076.22C1107.33 2076 1107.81 2075.89 1108.35 2075.89C1108.89 2075.89 1109.36 2076 1109.77 2076.22C1110.18 2076.43 1110.5 2076.73 1110.72 2077.1C1110.94 2077.47 1111.05 2077.88 1111.05 2078.33C1111.05 2078.64 1110.98 2078.95 1110.86 2079.27C1110.73 2079.59 1110.54 2079.91 1110.3 2080.24L1108.18 2083H1107.32ZM1108.35 2080.11C1108.75 2080.11 1109.1 2080.03 1109.4 2079.88C1109.7 2079.73 1109.93 2079.52 1110.09 2079.25C1110.25 2078.98 1110.33 2078.67 1110.33 2078.33C1110.33 2077.99 1110.25 2077.69 1110.09 2077.42C1109.93 2077.15 1109.7 2076.93 1109.4 2076.78C1109.1 2076.62 1108.75 2076.54 1108.35 2076.54C1107.94 2076.54 1107.59 2076.62 1107.29 2076.78C1106.99 2076.93 1106.77 2077.15 1106.61 2077.42C1106.45 2077.69 1106.38 2077.99 1106.38 2078.33C1106.38 2078.67 1106.45 2078.98 1106.61 2079.25C1106.77 2079.52 1106.99 2079.73 1107.29 2079.88C1107.59 2080.03 1107.94 2080.11 1108.35 2080.11ZM1114.35 2083.11C1113.81 2083.11 1113.33 2083.02 1112.93 2082.85C1112.54 2082.68 1112.23 2082.44 1112.01 2082.13C1111.79 2081.82 1111.67 2081.46 1111.63 2081.05H1112.38C1112.43 2081.5 1112.62 2081.84 1112.96 2082.08C1113.3 2082.31 1113.77 2082.43 1114.35 2082.43C1114.75 2082.43 1115.08 2082.37 1115.35 2082.24C1115.63 2082.11 1115.84 2081.93 1115.98 2081.7C1116.13 2081.47 1116.2 2081.22 1116.2 2080.93C1116.2 2080.63 1116.13 2080.37 1115.98 2080.15C1115.84 2079.92 1115.62 2079.75 1115.34 2079.64C1115.07 2079.53 1114.74 2079.47 1114.36 2079.47H1113.12V2078.85L1115.64 2076.73V2076.68H1112.17V2076H1116.49V2076.81L1114.13 2078.81V2079.07L1113.95 2078.86H1114.48C1114.97 2078.86 1115.4 2078.94 1115.76 2079.11C1116.14 2079.28 1116.42 2079.52 1116.62 2079.83C1116.83 2080.14 1116.93 2080.51 1116.93 2080.93C1116.93 2081.32 1116.83 2081.69 1116.63 2082.02C1116.43 2082.35 1116.14 2082.62 1115.74 2082.82C1115.36 2083.01 1114.89 2083.11 1114.35 2083.11Z" fill="#8D8B84"/>
<path d="M1272.07 1690V1683H1272.77V1689.32H1276.53V1690H1272.07ZM1280.77 1690V1683.55L1281.03 1683.66L1279.27 1685.04V1684.23L1280.82 1683H1281.47V1690H1280.77ZM1285.5 1690.11C1284.95 1690.11 1284.48 1690.02 1284.08 1689.85C1283.69 1689.68 1283.38 1689.44 1283.16 1689.13C1282.94 1688.82 1282.81 1688.46 1282.78 1688.05H1283.53C1283.58 1688.5 1283.77 1688.84 1284.11 1689.08C1284.45 1689.31 1284.91 1689.43 1285.5 1689.43C1285.89 1689.43 1286.23 1689.37 1286.5 1689.24C1286.78 1689.11 1286.99 1688.93 1287.13 1688.7C1287.28 1688.47 1287.35 1688.22 1287.35 1687.93C1287.35 1687.63 1287.28 1687.37 1287.13 1687.15C1286.98 1686.92 1286.77 1686.75 1286.49 1686.64C1286.22 1686.53 1285.89 1686.47 1285.51 1686.47H1284.27V1685.85L1286.79 1683.73V1683.68H1283.32V1683H1287.64V1683.81L1285.28 1685.81V1686.07L1285.1 1685.86H1285.63C1286.12 1685.86 1286.54 1685.94 1286.91 1686.11C1287.28 1686.28 1287.57 1686.52 1287.77 1686.83C1287.98 1687.14 1288.08 1687.51 1288.08 1687.93C1288.08 1688.32 1287.98 1688.69 1287.78 1689.02C1287.58 1689.35 1287.28 1689.62 1286.89 1689.82C1286.5 1690.01 1286.04 1690.11 1285.5 1690.11ZM1291.7 1690.11C1291.16 1690.11 1290.69 1690 1290.28 1689.79C1289.88 1689.57 1289.56 1689.28 1289.33 1688.91C1289.11 1688.54 1289 1688.12 1289 1687.67C1289 1687.36 1289.07 1687.05 1289.19 1686.73C1289.32 1686.41 1289.51 1686.09 1289.76 1685.76L1291.88 1683H1292.74L1290.64 1685.68L1290.42 1685.5C1290.6 1685.42 1290.8 1685.36 1291.01 1685.31C1291.23 1685.26 1291.46 1685.24 1291.7 1685.24C1292.24 1685.24 1292.72 1685.35 1293.12 1685.56C1293.54 1685.77 1293.85 1686.07 1294.07 1686.44C1294.29 1686.81 1294.4 1687.22 1294.4 1687.67C1294.4 1688.12 1294.29 1688.54 1294.07 1688.91C1293.85 1689.28 1293.54 1689.57 1293.12 1689.79C1292.72 1690 1292.24 1690.11 1291.7 1690.11ZM1291.7 1689.46C1292.11 1689.46 1292.46 1689.38 1292.75 1689.23C1293.05 1689.07 1293.28 1688.86 1293.44 1688.59C1293.6 1688.32 1293.68 1688.01 1293.68 1687.67C1293.68 1687.33 1293.6 1687.03 1293.44 1686.76C1293.28 1686.49 1293.05 1686.27 1292.75 1686.12C1292.46 1685.97 1292.11 1685.89 1291.7 1685.89C1291.3 1685.89 1290.94 1685.97 1290.64 1686.12C1290.35 1686.27 1290.12 1686.49 1289.96 1686.76C1289.81 1687.03 1289.73 1687.33 1289.73 1687.67C1289.73 1688.01 1289.81 1688.32 1289.96 1688.59C1290.12 1688.86 1290.35 1689.07 1290.64 1689.23C1290.94 1689.38 1291.3 1689.46 1291.7 1689.46ZM1298.36 1690.11C1297.78 1690.11 1297.26 1689.96 1296.78 1689.67C1296.3 1689.38 1295.91 1688.96 1295.63 1688.41C1295.35 1687.86 1295.21 1687.23 1295.21 1686.5C1295.21 1685.77 1295.35 1685.14 1295.63 1684.59C1295.91 1684.04 1296.3 1683.62 1296.78 1683.33C1297.26 1683.04 1297.78 1682.89 1298.36 1682.89C1298.93 1682.89 1299.45 1683.04 1299.93 1683.33C1300.41 1683.62 1300.79 1684.04 1301.07 1684.59C1301.35 1685.14 1301.5 1685.77 1301.5 1686.5C1301.5 1687.23 1301.35 1687.86 1301.07 1688.41C1300.79 1688.96 1300.41 1689.38 1299.93 1689.67C1299.45 1689.96 1298.93 1690.11 1298.36 1690.11ZM1298.36 1689.43C1298.8 1689.43 1299.2 1689.32 1299.57 1689.1C1299.93 1688.88 1300.23 1688.55 1300.45 1688.11C1300.67 1687.66 1300.78 1687.13 1300.78 1686.5C1300.78 1685.87 1300.67 1685.34 1300.45 1684.9C1300.23 1684.45 1299.93 1684.12 1299.57 1683.9C1299.2 1683.68 1298.8 1683.57 1298.36 1683.57C1297.91 1683.57 1297.5 1683.68 1297.14 1683.9C1296.77 1684.12 1296.48 1684.45 1296.26 1684.9C1296.04 1685.34 1295.94 1685.87 1295.94 1686.5C1295.94 1687.13 1296.04 1687.66 1296.26 1688.11C1296.48 1688.55 1296.77 1688.88 1297.14 1689.1C1297.5 1689.32 1297.91 1689.43 1298.36 1689.43Z" fill="#8D8B84"/>
</g>
<defs>
<clipPath id="clip0_1_677">
<rect width="1440" height="2090" fill="white"/>
</clipPath>
</defs>
</svg>
