<svg width="1440" height="4894" viewBox="0 0 1440 4894" fill="none" xmlns="http://www.w3.org/2000/svg">
<g clip-path="url(#clip0_1_875)">
<rect width="1440" height="4894" fill="#E8E8E8"/>
<line x1="-2.18557e-08" y1="2949.75" x2="1440" y2="2949.75" stroke="#8D8B84" stroke-width="0.5"/>
<g clip-path="url(#clip1_1_875)">
<rect x="1111" y="2765" width="329" height="185" fill="#21201C"/>
<rect x="770" y="2765" width="341" height="45" fill="#21201C"/>
<circle cx="811.5" cy="3411.5" r="461.25" stroke="#8D8B84" stroke-width="0.5"/>
<line x1="902.25" y1="2765" x2="902.25" y2="3700" stroke="#8D8B84" stroke-width="0.5" stroke-dasharray="8 8"/>
<line x1="1134.25" y1="3988" x2="1134.25" y2="4877" stroke="#8D8B84" stroke-width="0.5" stroke-dasharray="8 8"/>
<line x1="115.25" y1="3874" x2="115.25" y2="4603" stroke="#8D8B84" stroke-width="0.5" stroke-dasharray="8 8"/>
<line x1="662" y1="3396.25" y2="3396.25" stroke="#8D8B84" stroke-width="0.5" stroke-dasharray="8 8"/>
<rect x="-41.75" y="3070.25" width="1508.5" height="434.5" stroke="#8D8B84" stroke-width="0.5"/>
<rect x="662.25" y="3316.25" width="471.5" height="383.5" stroke="#8D8B84" stroke-width="0.5"/>
<rect x="74.25" y="3565.25" width="1137.5" height="308.5" stroke="#8D8B84" stroke-width="0.5"/>
<rect x="1018.25" y="3141.25" width="455.5" height="846.5" stroke="#8D8B84" stroke-width="0.5"/>
<rect x="-149.75" y="3745.25" width="434.5" height="695.5" stroke="#8D8B84" stroke-width="0.5"/>
<rect x="1076.25" y="4192.25" width="455.5" height="634.5" stroke="#8D8B84" stroke-width="0.5"/>
<line x1="350.25" y1="2765" x2="350.25" y2="4846" stroke="#8D8B84" stroke-width="0.5"/>
<line x1="1339.66" y1="2765" x2="1339.66" y2="4846" stroke="#8D8B84" stroke-width="0.5"/>
<path d="M910.96 2944.1C910.48 2944.1 910.047 2943.99 909.66 2943.76C909.28 2943.53 908.98 2943.22 908.76 2942.83C908.54 2942.44 908.43 2941.99 908.43 2941.5C908.43 2941.01 908.54 2940.57 908.76 2940.18C908.98 2939.78 909.28 2939.47 909.66 2939.25C910.047 2939.02 910.48 2938.91 910.96 2938.91C911.333 2938.91 911.68 2938.98 912 2939.13C912.327 2939.28 912.603 2939.49 912.83 2939.76C913.063 2940.03 913.223 2940.35 913.31 2940.7H912.64C912.513 2940.33 912.297 2940.04 911.99 2939.83C911.69 2939.62 911.347 2939.51 910.96 2939.51C910.6 2939.51 910.277 2939.6 909.99 2939.77C909.71 2939.94 909.49 2940.17 909.33 2940.47C909.177 2940.77 909.1 2941.11 909.1 2941.5C909.1 2941.89 909.177 2942.23 909.33 2942.54C909.49 2942.84 909.71 2943.07 909.99 2943.24C910.277 2943.41 910.6 2943.49 910.96 2943.49C911.347 2943.49 911.69 2943.38 911.99 2943.17C912.297 2942.96 912.513 2942.67 912.64 2942.3H913.31C913.223 2942.66 913.063 2942.98 912.83 2943.25C912.603 2943.52 912.327 2943.73 912 2943.88C911.68 2944.03 911.333 2944.1 910.96 2944.1ZM919.097 2944.11C918.55 2944.11 918.077 2944.02 917.677 2943.85C917.284 2943.68 916.977 2943.44 916.757 2943.13C916.537 2942.82 916.41 2942.46 916.377 2942.05H917.127C917.174 2942.5 917.367 2942.84 917.707 2943.08C918.047 2943.31 918.51 2943.43 919.097 2943.43C919.49 2943.43 919.824 2943.37 920.097 2943.24C920.377 2943.11 920.587 2942.93 920.727 2942.7C920.874 2942.47 920.947 2942.22 920.947 2941.93C920.947 2941.63 920.874 2941.37 920.727 2941.15C920.58 2940.92 920.367 2940.75 920.087 2940.64C919.814 2940.53 919.487 2940.47 919.107 2940.47H917.867V2939.85L920.387 2937.73V2937.68H916.917V2937H921.237V2937.81L918.877 2939.81V2940.07L918.697 2939.86H919.227C919.714 2939.86 920.14 2939.94 920.507 2940.11C920.88 2940.28 921.167 2940.52 921.367 2940.83C921.574 2941.14 921.677 2941.51 921.677 2941.93C921.677 2942.32 921.577 2942.69 921.377 2943.02C921.177 2943.35 920.88 2943.62 920.487 2943.82C920.1 2944.01 919.637 2944.11 919.097 2944.11Z" fill="#8D8B84"/>
<path d="M1023.76 3153L1022.3 3148.01H1022.98L1024.19 3152.28H1024.24L1025.42 3148.01H1026.25L1027.43 3152.28H1027.48L1028.7 3148.01H1029.37L1027.9 3153H1027.04L1025.85 3148.73H1025.8L1024.62 3153H1023.76ZM1032.2 3151.44V3150.71L1034.67 3146H1035.45L1032.98 3150.71V3150.76H1037.85V3151.44H1032.2ZM1036.15 3153V3148.41H1036.85V3153H1036.15ZM1038.33 3153V3152.12L1041.22 3149.89C1041.53 3149.64 1041.78 3149.41 1041.96 3149.22C1042.15 3149.02 1042.28 3148.82 1042.36 3148.63C1042.45 3148.43 1042.49 3148.22 1042.49 3147.99C1042.49 3147.56 1042.35 3147.21 1042.06 3146.96C1041.78 3146.7 1041.41 3146.57 1040.94 3146.57C1040.41 3146.57 1039.99 3146.71 1039.69 3147C1039.4 3147.29 1039.23 3147.66 1039.19 3148.11H1038.47C1038.48 3147.71 1038.58 3147.34 1038.76 3147.01C1038.95 3146.68 1039.22 3146.41 1039.58 3146.2C1039.95 3145.99 1040.4 3145.89 1040.94 3145.89C1041.4 3145.89 1041.8 3145.98 1042.14 3146.16C1042.48 3146.33 1042.74 3146.58 1042.93 3146.89C1043.12 3147.2 1043.21 3147.56 1043.21 3147.96C1043.21 3148.27 1043.16 3148.56 1043.05 3148.81C1042.95 3149.06 1042.79 3149.32 1042.56 3149.58C1042.33 3149.83 1042.02 3150.11 1041.62 3150.41L1039.24 3152.27V3152.32H1043.38V3153H1038.33ZM1047.34 3153.11C1046.77 3153.11 1046.24 3152.96 1045.76 3152.67C1045.28 3152.38 1044.9 3151.96 1044.61 3151.41C1044.33 3150.86 1044.19 3150.23 1044.19 3149.5C1044.19 3148.77 1044.33 3148.14 1044.61 3147.59C1044.9 3147.04 1045.28 3146.62 1045.76 3146.33C1046.24 3146.04 1046.77 3145.89 1047.34 3145.89C1047.91 3145.89 1048.44 3146.04 1048.91 3146.33C1049.39 3146.62 1049.77 3147.04 1050.05 3147.59C1050.34 3148.14 1050.48 3148.77 1050.48 3149.5C1050.48 3150.23 1050.34 3150.86 1050.05 3151.41C1049.77 3151.96 1049.39 3152.38 1048.91 3152.67C1048.44 3152.96 1047.91 3153.11 1047.34 3153.11ZM1047.34 3152.43C1047.78 3152.43 1048.18 3152.32 1048.55 3152.1C1048.92 3151.88 1049.21 3151.55 1049.43 3151.11C1049.65 3150.66 1049.76 3150.13 1049.76 3149.5C1049.76 3148.87 1049.65 3148.34 1049.43 3147.9C1049.21 3147.45 1048.92 3147.12 1048.55 3146.9C1048.18 3146.68 1047.78 3146.57 1047.34 3146.57C1046.89 3146.57 1046.49 3146.68 1046.12 3146.9C1045.75 3147.12 1045.46 3147.45 1045.24 3147.9C1045.03 3148.34 1044.92 3148.87 1044.92 3149.5C1044.92 3150.13 1045.03 3150.66 1045.24 3151.11C1045.46 3151.55 1045.75 3151.88 1046.12 3152.1C1046.49 3152.32 1046.89 3152.43 1047.34 3152.43Z" fill="#8D8B84"/>
<path d="M667.8 3330V3323H668.46V3325.85H668.51C668.677 3325.56 668.91 3325.34 669.21 3325.17C669.517 3325 669.867 3324.91 670.26 3324.91C670.66 3324.91 671.003 3324.99 671.29 3325.16C671.583 3325.32 671.807 3325.56 671.96 3325.88C672.113 3326.2 672.19 3326.58 672.19 3327.03V3330H671.53V3327.14C671.53 3326.62 671.41 3326.22 671.17 3325.94C670.93 3325.65 670.58 3325.51 670.12 3325.51C669.807 3325.51 669.523 3325.58 669.27 3325.73C669.017 3325.88 668.817 3326.08 668.67 3326.35C668.53 3326.61 668.46 3326.91 668.46 3327.26V3330H667.8ZM678.292 3330.11C677.746 3330.11 677.272 3330.02 676.872 3329.85C676.479 3329.68 676.172 3329.44 675.952 3329.13C675.732 3328.82 675.606 3328.46 675.572 3328.05H676.322C676.369 3328.5 676.562 3328.84 676.902 3329.08C677.242 3329.31 677.706 3329.43 678.292 3329.43C678.686 3329.43 679.019 3329.37 679.292 3329.24C679.572 3329.11 679.782 3328.93 679.922 3328.7C680.069 3328.47 680.142 3328.22 680.142 3327.93C680.142 3327.63 680.069 3327.37 679.922 3327.15C679.776 3326.92 679.562 3326.75 679.282 3326.64C679.009 3326.53 678.682 3326.47 678.302 3326.47H677.062V3325.85L679.582 3323.73V3323.68H676.112V3323H680.432V3323.81L678.072 3325.81V3326.07L677.892 3325.86H678.422C678.909 3325.86 679.336 3325.94 679.702 3326.11C680.076 3326.28 680.362 3326.52 680.562 3326.83C680.769 3327.14 680.872 3327.51 680.872 3327.93C680.872 3328.32 680.772 3328.69 680.572 3329.02C680.372 3329.35 680.076 3329.62 679.682 3329.82C679.296 3330.01 678.832 3330.11 678.292 3330.11ZM684.446 3330.11C683.912 3330.11 683.446 3330.03 683.046 3329.87C682.652 3329.71 682.346 3329.48 682.126 3329.18C681.906 3328.87 681.796 3328.51 681.796 3328.1C681.796 3327.67 681.919 3327.31 682.166 3327C682.412 3326.69 682.756 3326.47 683.196 3326.35V3326.3C682.796 3326.16 682.496 3325.96 682.296 3325.7C682.102 3325.43 682.006 3325.12 682.006 3324.76C682.006 3324.39 682.099 3324.07 682.286 3323.79C682.479 3323.5 682.759 3323.28 683.126 3323.13C683.492 3322.97 683.932 3322.89 684.446 3322.89C684.959 3322.89 685.399 3322.97 685.766 3323.13C686.132 3323.28 686.412 3323.5 686.606 3323.79C686.799 3324.07 686.896 3324.39 686.896 3324.76C686.896 3325.12 686.796 3325.43 686.596 3325.7C686.402 3325.96 686.102 3326.16 685.696 3326.3V3326.35C686.136 3326.47 686.479 3326.69 686.726 3327C686.972 3327.31 687.096 3327.67 687.096 3328.1C687.096 3328.51 686.986 3328.87 686.766 3329.18C686.552 3329.48 686.246 3329.71 685.846 3329.87C685.446 3330.03 684.979 3330.11 684.446 3330.11ZM684.446 3329.43C685.059 3329.43 685.532 3329.31 685.866 3329.08C686.206 3328.85 686.376 3328.5 686.376 3328.05C686.376 3327.6 686.206 3327.26 685.866 3327.03C685.532 3326.8 685.059 3326.68 684.446 3326.68C683.832 3326.68 683.359 3326.8 683.026 3327.03C682.692 3327.26 682.526 3327.6 682.526 3328.05C682.526 3328.5 682.692 3328.85 683.026 3329.08C683.359 3329.31 683.832 3329.43 684.446 3329.43ZM684.446 3326.01C685.012 3326.01 685.439 3325.9 685.726 3325.69C686.019 3325.48 686.166 3325.18 686.166 3324.79C686.166 3324.4 686.022 3324.1 685.736 3323.89C685.449 3323.68 685.019 3323.57 684.446 3323.57C683.872 3323.57 683.442 3323.68 683.156 3323.89C682.869 3324.1 682.726 3324.4 682.726 3324.79C682.726 3325.18 682.872 3325.48 683.166 3325.69C683.459 3325.9 683.886 3326.01 684.446 3326.01ZM687.927 3328.44V3327.71L690.397 3323H691.177L688.707 3327.71V3327.76H693.577V3328.44H687.927ZM691.877 3330V3325.41H692.577V3330H691.877Z" fill="#8D8B84"/>
<path d="M318.685 3390V3383H320.895C321.581 3383 322.195 3383.15 322.735 3383.45C323.281 3383.74 323.705 3384.16 324.005 3384.69C324.311 3385.22 324.465 3385.83 324.465 3386.5C324.465 3387.17 324.311 3387.78 324.005 3388.31C323.705 3388.84 323.281 3389.26 322.735 3389.56C322.195 3389.85 321.581 3390 320.895 3390H318.685ZM320.895 3389.32C321.455 3389.32 321.948 3389.2 322.375 3388.97C322.808 3388.74 323.145 3388.41 323.385 3387.98C323.625 3387.55 323.745 3387.05 323.745 3386.5C323.745 3385.95 323.625 3385.46 323.385 3385.03C323.145 3384.6 322.808 3384.26 322.375 3384.03C321.948 3383.8 321.455 3383.68 320.895 3383.68H319.385V3389.32H320.895ZM329.023 3390L331.113 3387.32L331.343 3387.5C331.156 3387.58 330.953 3387.64 330.733 3387.69C330.52 3387.74 330.293 3387.76 330.053 3387.76C329.513 3387.76 329.04 3387.65 328.633 3387.44C328.226 3387.23 327.91 3386.94 327.683 3386.57C327.463 3386.2 327.353 3385.78 327.353 3385.33C327.353 3384.88 327.463 3384.47 327.683 3384.1C327.91 3383.73 328.226 3383.43 328.633 3383.22C329.04 3383 329.513 3382.89 330.053 3382.89C330.593 3382.89 331.066 3383 331.473 3383.22C331.886 3383.43 332.203 3383.73 332.423 3384.1C332.643 3384.47 332.753 3384.88 332.753 3385.33C332.753 3385.64 332.69 3385.95 332.563 3386.27C332.436 3386.59 332.25 3386.91 332.003 3387.24L329.883 3390H329.023ZM330.053 3387.11C330.46 3387.11 330.81 3387.03 331.103 3386.88C331.403 3386.73 331.633 3386.52 331.793 3386.25C331.953 3385.98 332.033 3385.67 332.033 3385.33C332.033 3384.99 331.953 3384.69 331.793 3384.42C331.633 3384.15 331.403 3383.93 331.103 3383.78C330.81 3383.62 330.46 3383.54 330.053 3383.54C329.646 3383.54 329.293 3383.62 328.993 3383.78C328.7 3383.93 328.473 3384.15 328.313 3384.42C328.16 3384.69 328.083 3384.99 328.083 3385.33C328.083 3385.67 328.16 3385.98 328.313 3386.25C328.473 3386.52 328.7 3386.73 328.993 3386.88C329.293 3387.03 329.646 3387.11 330.053 3387.11ZM333.538 3390V3389.12L336.428 3386.89C336.741 3386.64 336.988 3386.41 337.168 3386.22C337.354 3386.02 337.488 3385.82 337.568 3385.63C337.654 3385.43 337.698 3385.22 337.698 3384.99C337.698 3384.56 337.554 3384.21 337.268 3383.96C336.988 3383.7 336.614 3383.57 336.148 3383.57C335.614 3383.57 335.198 3383.71 334.898 3384C334.604 3384.29 334.438 3384.66 334.398 3385.11H333.678C333.691 3384.71 333.788 3384.34 333.968 3384.01C334.154 3383.68 334.428 3383.41 334.788 3383.2C335.154 3382.99 335.608 3382.89 336.148 3382.89C336.608 3382.89 337.008 3382.98 337.348 3383.16C337.688 3383.33 337.951 3383.58 338.138 3383.89C338.324 3384.2 338.418 3384.56 338.418 3384.96C338.418 3385.27 338.364 3385.56 338.258 3385.81C338.158 3386.06 337.994 3386.32 337.768 3386.58C337.541 3386.83 337.228 3387.11 336.828 3387.41L334.448 3389.27V3389.32H338.588V3390H333.538ZM341.946 3390.11C341.4 3390.11 340.926 3390.02 340.526 3389.85C340.133 3389.68 339.826 3389.44 339.606 3389.13C339.386 3388.82 339.26 3388.46 339.226 3388.05H339.976C340.023 3388.5 340.216 3388.84 340.556 3389.08C340.896 3389.31 341.36 3389.43 341.946 3389.43C342.34 3389.43 342.673 3389.37 342.946 3389.24C343.226 3389.11 343.436 3388.93 343.576 3388.7C343.723 3388.47 343.796 3388.22 343.796 3387.93C343.796 3387.63 343.723 3387.37 343.576 3387.15C343.43 3386.92 343.216 3386.75 342.936 3386.64C342.663 3386.53 342.336 3386.47 341.956 3386.47H340.716V3385.85L343.236 3383.73V3383.68H339.766V3383H344.086V3383.81L341.726 3385.81V3386.07L341.546 3385.86H342.076C342.563 3385.86 342.99 3385.94 343.356 3386.11C343.73 3386.28 344.016 3386.52 344.216 3386.83C344.423 3387.14 344.526 3387.51 344.526 3387.93C344.526 3388.32 344.426 3388.69 344.226 3389.02C344.026 3389.35 343.73 3389.62 343.336 3389.82C342.95 3390.01 342.486 3390.11 341.946 3390.11Z" fill="#8D8B84"/>
<path d="M666.8 3560V3553H667.46V3555.85H667.51C667.677 3555.56 667.91 3555.34 668.21 3555.17C668.517 3555 668.867 3554.91 669.26 3554.91C669.66 3554.91 670.003 3554.99 670.29 3555.16C670.583 3555.32 670.807 3555.56 670.96 3555.88C671.113 3556.2 671.19 3556.58 671.19 3557.03V3560H670.53V3557.14C670.53 3556.62 670.41 3556.22 670.17 3555.94C669.93 3555.65 669.58 3555.51 669.12 3555.51C668.807 3555.51 668.523 3555.58 668.27 3555.73C668.017 3555.88 667.817 3556.08 667.67 3556.35C667.53 3556.61 667.46 3556.91 667.46 3557.26V3560H666.8ZM677.392 3560.11C676.852 3560.11 676.379 3560 675.972 3559.79C675.566 3559.57 675.249 3559.28 675.022 3558.91C674.802 3558.54 674.692 3558.12 674.692 3557.67C674.692 3557.36 674.756 3557.05 674.882 3556.73C675.009 3556.41 675.199 3556.09 675.452 3555.76L677.572 3553H678.432L676.332 3555.68L676.112 3555.5C676.292 3555.42 676.489 3555.36 676.702 3555.31C676.922 3555.26 677.152 3555.24 677.392 3555.24C677.932 3555.24 678.406 3555.35 678.812 3555.56C679.226 3555.77 679.542 3556.07 679.762 3556.44C679.982 3556.81 680.092 3557.22 680.092 3557.67C680.092 3558.12 679.982 3558.54 679.762 3558.91C679.542 3559.28 679.226 3559.57 678.812 3559.79C678.406 3560 677.932 3560.11 677.392 3560.11ZM677.392 3559.46C677.799 3559.46 678.149 3559.38 678.442 3559.23C678.742 3559.07 678.972 3558.86 679.132 3558.59C679.292 3558.32 679.372 3558.01 679.372 3557.67C679.372 3557.33 679.292 3557.03 679.132 3556.76C678.972 3556.49 678.742 3556.27 678.442 3556.12C678.149 3555.97 677.799 3555.89 677.392 3555.89C676.986 3555.89 676.632 3555.97 676.332 3556.12C676.039 3556.27 675.812 3556.49 675.652 3556.76C675.499 3557.03 675.422 3557.33 675.422 3557.67C675.422 3558.01 675.499 3558.32 675.652 3558.59C675.812 3558.86 676.039 3559.07 676.332 3559.23C676.632 3559.38 676.986 3559.46 677.392 3559.46ZM684.045 3560.11C683.471 3560.11 682.945 3559.96 682.465 3559.67C681.985 3559.38 681.601 3558.96 681.315 3558.41C681.035 3557.86 680.895 3557.23 680.895 3556.5C680.895 3555.77 681.035 3555.14 681.315 3554.59C681.601 3554.04 681.985 3553.62 682.465 3553.33C682.945 3553.04 683.471 3552.89 684.045 3552.89C684.618 3552.89 685.141 3553.04 685.615 3553.33C686.095 3553.62 686.475 3554.04 686.755 3554.59C687.041 3555.14 687.185 3555.77 687.185 3556.5C687.185 3557.23 687.041 3557.86 686.755 3558.41C686.475 3558.96 686.095 3559.38 685.615 3559.67C685.141 3559.96 684.618 3560.11 684.045 3560.11ZM684.045 3559.43C684.485 3559.43 684.888 3559.32 685.255 3559.1C685.621 3558.88 685.915 3558.55 686.135 3558.11C686.355 3557.66 686.465 3557.13 686.465 3556.5C686.465 3555.87 686.355 3555.34 686.135 3554.9C685.915 3554.45 685.621 3554.12 685.255 3553.9C684.888 3553.68 684.485 3553.57 684.045 3553.57C683.598 3553.57 683.191 3553.68 682.825 3553.9C682.458 3554.12 682.165 3554.45 681.945 3554.9C681.731 3555.34 681.625 3555.87 681.625 3556.5C681.625 3557.13 681.731 3557.66 681.945 3558.11C682.165 3558.55 682.458 3558.88 682.825 3559.1C683.191 3559.32 683.598 3559.43 684.045 3559.43Z" fill="#8D8B84"/>
<path d="M1023.8 3982V3975H1024.46V3977.85H1024.51C1024.68 3977.56 1024.91 3977.34 1025.21 3977.17C1025.52 3977 1025.87 3976.91 1026.26 3976.91C1026.66 3976.91 1027 3976.99 1027.29 3977.16C1027.58 3977.32 1027.81 3977.56 1027.96 3977.88C1028.11 3978.2 1028.19 3978.58 1028.19 3979.03V3982H1027.53V3979.14C1027.53 3978.62 1027.41 3978.22 1027.17 3977.94C1026.93 3977.65 1026.58 3977.51 1026.12 3977.51C1025.81 3977.51 1025.52 3977.58 1025.27 3977.73C1025.02 3977.88 1024.82 3978.08 1024.67 3978.35C1024.53 3978.61 1024.46 3978.91 1024.46 3979.26V3982H1023.8ZM1034.54 3982.11C1034 3982.11 1033.54 3982.03 1033.14 3981.87C1032.74 3981.71 1032.44 3981.48 1032.22 3981.18C1032 3980.87 1031.89 3980.51 1031.89 3980.1C1031.89 3979.67 1032.01 3979.31 1032.26 3979C1032.5 3978.69 1032.85 3978.47 1033.29 3978.35V3978.3C1032.89 3978.16 1032.59 3977.96 1032.39 3977.7C1032.19 3977.43 1032.1 3977.12 1032.1 3976.76C1032.1 3976.39 1032.19 3976.07 1032.38 3975.79C1032.57 3975.5 1032.85 3975.28 1033.22 3975.13C1033.58 3974.97 1034.02 3974.89 1034.54 3974.89C1035.05 3974.89 1035.49 3974.97 1035.86 3975.13C1036.22 3975.28 1036.5 3975.5 1036.7 3975.79C1036.89 3976.07 1036.99 3976.39 1036.99 3976.76C1036.99 3977.12 1036.89 3977.43 1036.69 3977.7C1036.49 3977.96 1036.19 3978.16 1035.79 3978.3V3978.35C1036.23 3978.47 1036.57 3978.69 1036.82 3979C1037.06 3979.31 1037.19 3979.67 1037.19 3980.1C1037.19 3980.51 1037.08 3980.87 1036.86 3981.18C1036.64 3981.48 1036.34 3981.71 1035.94 3981.87C1035.54 3982.03 1035.07 3982.11 1034.54 3982.11ZM1034.54 3981.43C1035.15 3981.43 1035.62 3981.31 1035.96 3981.08C1036.3 3980.85 1036.47 3980.5 1036.47 3980.05C1036.47 3979.6 1036.3 3979.26 1035.96 3979.03C1035.62 3978.8 1035.15 3978.68 1034.54 3978.68C1033.92 3978.68 1033.45 3978.8 1033.12 3979.03C1032.78 3979.26 1032.62 3979.6 1032.62 3980.05C1032.62 3980.5 1032.78 3980.85 1033.12 3981.08C1033.45 3981.31 1033.92 3981.43 1034.54 3981.43ZM1034.54 3978.01C1035.1 3978.01 1035.53 3977.9 1035.82 3977.69C1036.11 3977.48 1036.26 3977.18 1036.26 3976.79C1036.26 3976.4 1036.11 3976.1 1035.83 3975.89C1035.54 3975.68 1035.11 3975.57 1034.54 3975.57C1033.96 3975.57 1033.53 3975.68 1033.25 3975.89C1032.96 3976.1 1032.82 3976.4 1032.82 3976.79C1032.82 3977.18 1032.96 3977.48 1033.26 3977.69C1033.55 3977.9 1033.98 3978.01 1034.54 3978.01ZM1038.02 3980.44V3979.71L1040.49 3975H1041.27L1038.8 3979.71V3979.76H1043.67V3980.44H1038.02ZM1041.97 3982V3977.41H1042.67V3982H1041.97ZM1044.46 3982L1047.66 3975.75V3975.7H1043.7V3975H1048.44V3975.78L1045.29 3982H1044.46Z" fill="#8D8B84"/>
<path d="M1310.09 4187.1C1309.75 4187.1 1309.45 4187.04 1309.18 4186.91C1308.92 4186.78 1308.72 4186.59 1308.57 4186.36C1308.42 4186.13 1308.35 4185.87 1308.35 4185.58C1308.35 4185.3 1308.42 4185.05 1308.56 4184.83C1308.71 4184.6 1308.92 4184.43 1309.2 4184.3C1309.48 4184.17 1309.82 4184.11 1310.23 4184.11H1312.33V4184.66H1310.26C1309.85 4184.66 1309.54 4184.74 1309.33 4184.91C1309.13 4185.08 1309.03 4185.29 1309.03 4185.56C1309.03 4185.84 1309.13 4186.07 1309.34 4186.24C1309.55 4186.41 1309.85 4186.49 1310.24 4186.49C1310.59 4186.49 1310.9 4186.42 1311.17 4186.27C1311.44 4186.12 1311.66 4185.91 1311.81 4185.64C1311.96 4185.37 1312.04 4185.07 1312.04 4184.73V4183.77C1312.04 4183.37 1311.91 4183.06 1311.66 4182.84C1311.41 4182.62 1311.08 4182.51 1310.66 4182.51C1310.25 4182.51 1309.93 4182.6 1309.7 4182.79C1309.47 4182.98 1309.32 4183.21 1309.25 4183.5H1308.57C1308.61 4183.21 1308.72 4182.95 1308.89 4182.71C1309.06 4182.47 1309.3 4182.28 1309.6 4182.13C1309.91 4181.98 1310.26 4181.91 1310.66 4181.91C1311.08 4181.91 1311.44 4181.99 1311.74 4182.14C1312.05 4182.29 1312.28 4182.51 1312.44 4182.8C1312.61 4183.08 1312.69 4183.4 1312.69 4183.77V4187H1312.06V4186.09H1312.01C1311.86 4186.37 1311.62 4186.61 1311.29 4186.81C1310.96 4187 1310.56 4187.1 1310.09 4187.1ZM1316.27 4187V4186.12L1319.16 4183.89C1319.48 4183.64 1319.72 4183.41 1319.9 4183.22C1320.09 4183.02 1320.22 4182.82 1320.3 4182.63C1320.39 4182.43 1320.43 4182.22 1320.43 4181.99C1320.43 4181.56 1320.29 4181.21 1320 4180.96C1319.72 4180.7 1319.35 4180.57 1318.88 4180.57C1318.35 4180.57 1317.93 4180.71 1317.63 4181C1317.34 4181.29 1317.17 4181.66 1317.13 4182.11H1316.41C1316.43 4181.71 1316.52 4181.34 1316.7 4181.01C1316.89 4180.68 1317.16 4180.41 1317.52 4180.2C1317.89 4179.99 1318.34 4179.89 1318.88 4179.89C1319.34 4179.89 1319.74 4179.98 1320.08 4180.16C1320.42 4180.33 1320.69 4180.58 1320.87 4180.89C1321.06 4181.2 1321.15 4181.56 1321.15 4181.96C1321.15 4182.27 1321.1 4182.56 1320.99 4182.81C1320.89 4183.06 1320.73 4183.32 1320.5 4183.58C1320.28 4183.83 1319.96 4184.11 1319.56 4184.41L1317.18 4186.27V4186.32H1321.32V4187H1316.27ZM1325.28 4187.11C1324.71 4187.11 1324.18 4186.96 1323.7 4186.67C1323.22 4186.38 1322.84 4185.96 1322.55 4185.41C1322.27 4184.86 1322.13 4184.23 1322.13 4183.5C1322.13 4182.77 1322.27 4182.14 1322.55 4181.59C1322.84 4181.04 1323.22 4180.62 1323.7 4180.33C1324.18 4180.04 1324.71 4179.89 1325.28 4179.89C1325.85 4179.89 1326.38 4180.04 1326.85 4180.33C1327.33 4180.62 1327.71 4181.04 1327.99 4181.59C1328.28 4182.14 1328.42 4182.77 1328.42 4183.5C1328.42 4184.23 1328.28 4184.86 1327.99 4185.41C1327.71 4185.96 1327.33 4186.38 1326.85 4186.67C1326.38 4186.96 1325.85 4187.11 1325.28 4187.11ZM1325.28 4186.43C1325.72 4186.43 1326.12 4186.32 1326.49 4186.1C1326.86 4185.88 1327.15 4185.55 1327.37 4185.11C1327.59 4184.66 1327.7 4184.13 1327.7 4183.5C1327.7 4182.87 1327.59 4182.34 1327.37 4181.9C1327.15 4181.45 1326.86 4181.12 1326.49 4180.9C1326.12 4180.68 1325.72 4180.57 1325.28 4180.57C1324.83 4180.57 1324.43 4180.68 1324.06 4180.9C1323.69 4181.12 1323.4 4181.45 1323.18 4181.9C1322.97 4182.34 1322.86 4182.87 1322.86 4183.5C1322.86 4184.13 1322.97 4184.66 1323.18 4185.11C1323.4 4185.55 1323.69 4185.88 1324.06 4186.1C1324.43 4186.32 1324.83 4186.43 1325.28 4186.43ZM1329.31 4185.44V4184.71L1331.78 4180H1332.56L1330.09 4184.71V4184.76H1334.96V4185.44H1329.31ZM1333.26 4187V4182.41H1333.96V4187H1333.26Z" fill="#8D8B84"/>
<path d="M254.198 4435V4428H254.858V4430.85H254.908C255.075 4430.56 255.308 4430.34 255.608 4430.17C255.915 4430 256.265 4429.91 256.658 4429.91C257.058 4429.91 257.402 4429.99 257.688 4430.16C257.982 4430.32 258.205 4430.56 258.358 4430.88C258.512 4431.2 258.588 4431.58 258.588 4432.03V4435H257.928V4432.14C257.928 4431.62 257.808 4431.22 257.568 4430.94C257.328 4430.65 256.978 4430.51 256.518 4430.51C256.205 4430.51 255.922 4430.58 255.668 4430.73C255.415 4430.88 255.215 4431.08 255.068 4431.35C254.928 4431.61 254.858 4431.91 254.858 4432.26V4435H254.198ZM264.791 4435.11C264.251 4435.11 263.777 4435 263.371 4434.79C262.964 4434.57 262.647 4434.28 262.421 4433.91C262.201 4433.54 262.091 4433.12 262.091 4432.67C262.091 4432.36 262.154 4432.05 262.281 4431.73C262.407 4431.41 262.597 4431.09 262.851 4430.76L264.971 4428H265.831L263.731 4430.68L263.511 4430.5C263.691 4430.42 263.887 4430.36 264.101 4430.31C264.321 4430.26 264.551 4430.24 264.791 4430.24C265.331 4430.24 265.804 4430.35 266.211 4430.56C266.624 4430.77 266.941 4431.07 267.161 4431.44C267.381 4431.81 267.491 4432.22 267.491 4432.67C267.491 4433.12 267.381 4433.54 267.161 4433.91C266.941 4434.28 266.624 4434.57 266.211 4434.79C265.804 4435 265.331 4435.11 264.791 4435.11ZM264.791 4434.46C265.197 4434.46 265.547 4434.38 265.841 4434.23C266.141 4434.07 266.371 4433.86 266.531 4433.59C266.691 4433.32 266.771 4433.01 266.771 4432.67C266.771 4432.33 266.691 4432.03 266.531 4431.76C266.371 4431.49 266.141 4431.27 265.841 4431.12C265.547 4430.97 265.197 4430.89 264.791 4430.89C264.384 4430.89 264.031 4430.97 263.731 4431.12C263.437 4431.27 263.211 4431.49 263.051 4431.76C262.897 4432.03 262.821 4432.33 262.821 4432.67C262.821 4433.01 262.897 4433.32 263.051 4433.59C263.211 4433.86 263.437 4434.07 263.731 4434.23C264.031 4434.38 264.384 4434.46 264.791 4434.46ZM269.765 4435L271.855 4432.32L272.085 4432.5C271.899 4432.58 271.695 4432.64 271.475 4432.69C271.262 4432.74 271.035 4432.76 270.795 4432.76C270.255 4432.76 269.782 4432.65 269.375 4432.44C268.969 4432.23 268.652 4431.94 268.425 4431.57C268.205 4431.2 268.095 4430.78 268.095 4430.33C268.095 4429.88 268.205 4429.47 268.425 4429.1C268.652 4428.73 268.969 4428.43 269.375 4428.22C269.782 4428 270.255 4427.89 270.795 4427.89C271.335 4427.89 271.809 4428 272.215 4428.22C272.629 4428.43 272.945 4428.73 273.165 4429.1C273.385 4429.47 273.495 4429.88 273.495 4430.33C273.495 4430.64 273.432 4430.95 273.305 4431.27C273.179 4431.59 272.992 4431.91 272.745 4432.24L270.625 4435H269.765ZM270.795 4432.11C271.202 4432.11 271.552 4432.03 271.845 4431.88C272.145 4431.73 272.375 4431.52 272.535 4431.25C272.695 4430.98 272.775 4430.67 272.775 4430.33C272.775 4429.99 272.695 4429.69 272.535 4429.42C272.375 4429.15 272.145 4428.93 271.845 4428.78C271.552 4428.62 271.202 4428.54 270.795 4428.54C270.389 4428.54 270.035 4428.62 269.735 4428.78C269.442 4428.93 269.215 4429.15 269.055 4429.42C268.902 4429.69 268.825 4429.99 268.825 4430.33C268.825 4430.67 268.902 4430.98 269.055 4431.25C269.215 4431.52 269.442 4431.73 269.735 4431.88C270.035 4432.03 270.389 4432.11 270.795 4432.11ZM276.9 4435.11C276.36 4435.11 275.887 4435 275.48 4434.79C275.073 4434.57 274.757 4434.28 274.53 4433.91C274.31 4433.54 274.2 4433.12 274.2 4432.67C274.2 4432.36 274.263 4432.05 274.39 4431.73C274.517 4431.41 274.707 4431.09 274.96 4430.76L277.08 4428H277.94L275.84 4430.68L275.62 4430.5C275.8 4430.42 275.997 4430.36 276.21 4430.31C276.43 4430.26 276.66 4430.24 276.9 4430.24C277.44 4430.24 277.913 4430.35 278.32 4430.56C278.733 4430.77 279.05 4431.07 279.27 4431.44C279.49 4431.81 279.6 4432.22 279.6 4432.67C279.6 4433.12 279.49 4433.54 279.27 4433.91C279.05 4434.28 278.733 4434.57 278.32 4434.79C277.913 4435 277.44 4435.11 276.9 4435.11ZM276.9 4434.46C277.307 4434.46 277.657 4434.38 277.95 4434.23C278.25 4434.07 278.48 4433.86 278.64 4433.59C278.8 4433.32 278.88 4433.01 278.88 4432.67C278.88 4432.33 278.8 4432.03 278.64 4431.76C278.48 4431.49 278.25 4431.27 277.95 4431.12C277.657 4430.97 277.307 4430.89 276.9 4430.89C276.493 4430.89 276.14 4430.97 275.84 4431.12C275.547 4431.27 275.32 4431.49 275.16 4431.76C275.007 4432.03 274.93 4432.33 274.93 4432.67C274.93 4433.01 275.007 4433.32 275.16 4433.59C275.32 4433.86 275.547 4434.07 275.84 4434.23C276.14 4434.38 276.493 4434.46 276.9 4434.46Z" fill="#8D8B84"/>
<path d="M325.641 3887L324.181 3882.01H324.861L326.071 3886.28H326.121L327.301 3882.01H328.131L329.311 3886.28H329.361L330.581 3882.01H331.251L329.781 3887H328.921L327.731 3882.73H327.681L326.501 3887H325.641ZM336.855 3887.11C336.315 3887.11 335.842 3887 335.435 3886.79C335.028 3886.57 334.712 3886.28 334.485 3885.91C334.265 3885.54 334.155 3885.12 334.155 3884.67C334.155 3884.36 334.218 3884.05 334.345 3883.73C334.472 3883.41 334.662 3883.09 334.915 3882.76L337.035 3880H337.895L335.795 3882.68L335.575 3882.5C335.755 3882.42 335.952 3882.36 336.165 3882.31C336.385 3882.26 336.615 3882.24 336.855 3882.24C337.395 3882.24 337.868 3882.35 338.275 3882.56C338.688 3882.77 339.005 3883.07 339.225 3883.44C339.445 3883.81 339.555 3884.22 339.555 3884.67C339.555 3885.12 339.445 3885.54 339.225 3885.91C339.005 3886.28 338.688 3886.57 338.275 3886.79C337.868 3887 337.395 3887.11 336.855 3887.11ZM336.855 3886.46C337.262 3886.46 337.612 3886.38 337.905 3886.23C338.205 3886.07 338.435 3885.86 338.595 3885.59C338.755 3885.32 338.835 3885.01 338.835 3884.67C338.835 3884.33 338.755 3884.03 338.595 3883.76C338.435 3883.49 338.205 3883.27 337.905 3883.12C337.612 3882.97 337.262 3882.89 336.855 3882.89C336.448 3882.89 336.095 3882.97 335.795 3883.12C335.502 3883.27 335.275 3883.49 335.115 3883.76C334.962 3884.03 334.885 3884.33 334.885 3884.67C334.885 3885.01 334.962 3885.32 335.115 3885.59C335.275 3885.86 335.502 3886.07 335.795 3886.23C336.095 3886.38 336.448 3886.46 336.855 3886.46ZM342.92 3887.11C342.393 3887.11 341.933 3887.02 341.54 3886.84C341.146 3886.66 340.84 3886.41 340.62 3886.1C340.4 3885.79 340.273 3885.44 340.24 3885.05H340.99C341.03 3885.33 341.13 3885.57 341.29 3885.78C341.456 3885.99 341.676 3886.15 341.95 3886.26C342.23 3886.37 342.553 3886.43 342.92 3886.43C343.306 3886.43 343.643 3886.36 343.93 3886.21C344.216 3886.06 344.436 3885.85 344.59 3885.58C344.743 3885.31 344.82 3885.01 344.82 3884.68C344.82 3884.37 344.743 3884.09 344.59 3883.84C344.443 3883.58 344.23 3883.38 343.95 3883.23C343.676 3883.08 343.356 3883.01 342.99 3883.01C342.636 3883.01 342.313 3883.07 342.02 3883.2C341.726 3883.32 341.5 3883.49 341.34 3883.72H340.66L341.2 3880H345.08V3880.68H341.74L341.41 3882.9H341.46C341.66 3882.73 341.896 3882.59 342.17 3882.5C342.45 3882.41 342.753 3882.36 343.08 3882.36C343.566 3882.36 343.996 3882.46 344.37 3882.67C344.743 3882.88 345.03 3883.16 345.23 3883.51C345.436 3883.86 345.54 3884.25 345.54 3884.68C345.54 3885.15 345.433 3885.57 345.22 3885.94C345.013 3886.31 344.713 3886.59 344.32 3886.8C343.926 3887.01 343.46 3887.11 342.92 3887.11Z" fill="#8D8B84"/>
</g>
<g clip-path="url(#clip2_1_875)">
<rect x="850" y="1312" width="216" height="44" fill="#21201C"/>
<rect x="1066" y="1085" width="380" height="272" fill="#21201C"/>
<rect x="949" y="482" width="497" height="312" fill="#21201C"/>
<rect x="6" y="265" width="831" height="320" fill="#21201C"/>
<rect x="949.25" y="559.25" width="569.5" height="333.5" stroke="#8D8B84" stroke-width="0.5"/>
<rect x="688.25" y="1085.25" width="569.5" height="288.5" stroke="#8D8B84" stroke-width="0.5"/>
<circle cx="1066" cy="1000" r="355.75" stroke="#8D8B84" stroke-width="0.5"/>
<rect x="-49.75" y="265.25" width="625.5" height="725.5" stroke="#8D8B84" stroke-width="0.5"/>
<line x1="1066.25" y1="482" x2="1066.25" y2="1356" stroke="#8D8B84" stroke-width="0.5" stroke-dasharray="8 8"/>
<line x1="356.25" y1="482" x2="356.25" y2="1356" stroke="#8D8B84" stroke-width="0.5"/>
<line x1="850.25" y1="482" x2="850.25" y2="1356" stroke="#8D8B84" stroke-width="0.5"/>
<path d="M955.76 888L954.3 883.01H954.98L956.19 887.28H956.24L957.42 883.01H958.25L959.43 887.28H959.48L960.7 883.01H961.37L959.9 888H959.04L957.85 883.73H957.8L956.62 888H955.76ZM965.754 888V881.55L966.014 881.66L964.254 883.04V882.23L965.804 881H966.454V888H965.754ZM969.368 888V881.55L969.628 881.66L967.868 883.04V882.23L969.418 881H970.068V888H969.368ZM971.991 888L975.191 881.75V881.7H971.231V881H975.971V881.78L972.821 888H971.991Z" fill="#8D8B84"/>
<path d="M854.96 1098V1091H857.17C857.857 1091 858.47 1091.15 859.01 1091.45C859.557 1091.74 859.98 1092.16 860.28 1092.69C860.587 1093.22 860.74 1093.83 860.74 1094.5C860.74 1095.17 860.587 1095.78 860.28 1096.31C859.98 1096.84 859.557 1097.26 859.01 1097.56C858.47 1097.85 857.857 1098 857.17 1098H854.96ZM857.17 1097.32C857.73 1097.32 858.223 1097.2 858.65 1096.97C859.083 1096.74 859.42 1096.41 859.66 1095.98C859.9 1095.55 860.02 1095.05 860.02 1094.5C860.02 1093.95 859.9 1093.46 859.66 1093.03C859.42 1092.6 859.083 1092.26 858.65 1092.03C858.223 1091.8 857.73 1091.68 857.17 1091.68H855.66V1097.32H857.17ZM864.169 1098L867.369 1091.75V1091.7H863.409V1091H868.149V1091.78L864.999 1098H864.169ZM870.354 1098V1091.55L870.614 1091.66L868.854 1093.04V1092.23L870.404 1091H871.054V1098H870.354ZM872.567 1098V1097.12L875.457 1094.89C875.77 1094.64 876.017 1094.41 876.197 1094.22C876.384 1094.02 876.517 1093.82 876.597 1093.63C876.684 1093.43 876.727 1093.22 876.727 1092.99C876.727 1092.56 876.584 1092.21 876.297 1091.96C876.017 1091.7 875.644 1091.57 875.177 1091.57C874.644 1091.57 874.227 1091.71 873.927 1092C873.634 1092.29 873.467 1092.66 873.427 1093.11H872.707C872.72 1092.71 872.817 1092.34 872.997 1092.01C873.184 1091.68 873.457 1091.41 873.817 1091.2C874.184 1090.99 874.637 1090.89 875.177 1090.89C875.637 1090.89 876.037 1090.98 876.377 1091.16C876.717 1091.33 876.98 1091.58 877.167 1091.89C877.354 1092.2 877.447 1092.56 877.447 1092.96C877.447 1093.27 877.394 1093.56 877.287 1093.81C877.187 1094.06 877.024 1094.32 876.797 1094.58C876.57 1094.83 876.257 1095.11 875.857 1095.41L873.477 1097.27V1097.32H877.617V1098H872.567Z" fill="#8D8B84"/>
<path d="M1225.75 1097L1223.85 1090H1224.59L1226.24 1096.18H1226.29L1228.04 1090H1228.96L1230.71 1096.18H1230.76L1232.42 1090H1233.13L1231.23 1097H1230.27L1228.51 1090.82H1228.46L1226.71 1097H1225.75ZM1238.83 1097.11C1238.3 1097.11 1237.84 1097.02 1237.45 1096.84C1237.06 1096.66 1236.75 1096.41 1236.53 1096.1C1236.31 1095.79 1236.18 1095.44 1236.15 1095.05H1236.9C1236.94 1095.33 1237.04 1095.57 1237.2 1095.78C1237.37 1095.99 1237.59 1096.15 1237.86 1096.26C1238.14 1096.37 1238.46 1096.43 1238.83 1096.43C1239.22 1096.43 1239.55 1096.36 1239.84 1096.21C1240.13 1096.06 1240.35 1095.85 1240.5 1095.58C1240.65 1095.31 1240.73 1095.01 1240.73 1094.68C1240.73 1094.37 1240.65 1094.09 1240.5 1093.84C1240.35 1093.58 1240.14 1093.38 1239.86 1093.23C1239.59 1093.08 1239.27 1093.01 1238.9 1093.01C1238.55 1093.01 1238.22 1093.07 1237.93 1093.2C1237.64 1093.32 1237.41 1093.49 1237.25 1093.72H1236.57L1237.11 1090H1240.99V1090.68H1237.65L1237.32 1092.9H1237.37C1237.57 1092.73 1237.81 1092.59 1238.08 1092.5C1238.36 1092.41 1238.66 1092.36 1238.99 1092.36C1239.48 1092.36 1239.91 1092.46 1240.28 1092.67C1240.65 1092.88 1240.94 1093.16 1241.14 1093.51C1241.35 1093.86 1241.45 1094.25 1241.45 1094.68C1241.45 1095.15 1241.34 1095.57 1241.13 1095.94C1240.92 1096.31 1240.62 1096.59 1240.23 1096.8C1239.84 1097.01 1239.37 1097.11 1238.83 1097.11ZM1242.55 1097L1245.75 1090.75V1090.7H1241.79V1090H1246.53V1090.78L1243.38 1097H1242.55ZM1250.36 1097.11C1249.78 1097.11 1249.26 1096.96 1248.78 1096.67C1248.3 1096.38 1247.91 1095.96 1247.63 1095.41C1247.35 1094.86 1247.21 1094.23 1247.21 1093.5C1247.21 1092.77 1247.35 1092.14 1247.63 1091.59C1247.91 1091.04 1248.3 1090.62 1248.78 1090.33C1249.26 1090.04 1249.78 1089.89 1250.36 1089.89C1250.93 1089.89 1251.45 1090.04 1251.93 1090.33C1252.41 1090.62 1252.79 1091.04 1253.07 1091.59C1253.35 1092.14 1253.5 1092.77 1253.5 1093.5C1253.5 1094.23 1253.35 1094.86 1253.07 1095.41C1252.79 1095.96 1252.41 1096.38 1251.93 1096.67C1251.45 1096.96 1250.93 1097.11 1250.36 1097.11ZM1250.36 1096.43C1250.8 1096.43 1251.2 1096.32 1251.57 1096.1C1251.93 1095.88 1252.23 1095.55 1252.45 1095.11C1252.67 1094.66 1252.78 1094.13 1252.78 1093.5C1252.78 1092.87 1252.67 1092.34 1252.45 1091.9C1252.23 1091.45 1251.93 1091.12 1251.57 1090.9C1251.2 1090.68 1250.8 1090.57 1250.36 1090.57C1249.91 1090.57 1249.5 1090.68 1249.14 1090.9C1248.77 1091.12 1248.48 1091.45 1248.26 1091.9C1248.04 1092.34 1247.94 1092.87 1247.94 1093.5C1247.94 1094.13 1248.04 1094.66 1248.26 1095.11C1248.48 1095.55 1248.77 1095.88 1249.14 1096.1C1249.5 1096.32 1249.91 1096.43 1250.36 1096.43Z" fill="#8D8B84"/>
<path d="M692.8 1352V1345H693.46V1347.85H693.51C693.677 1347.56 693.91 1347.34 694.21 1347.17C694.517 1347 694.867 1346.91 695.26 1346.91C695.66 1346.91 696.003 1346.99 696.29 1347.16C696.583 1347.32 696.807 1347.56 696.96 1347.88C697.113 1348.2 697.19 1348.58 697.19 1349.03V1352H696.53V1349.14C696.53 1348.62 696.41 1348.22 696.17 1347.94C695.93 1347.65 695.58 1347.51 695.12 1347.51C694.807 1347.51 694.523 1347.58 694.27 1347.73C694.017 1347.88 693.817 1348.08 693.67 1348.35C693.53 1348.61 693.46 1348.91 693.46 1349.26V1352H692.8ZM700.622 1350.44V1349.71L703.092 1345H703.872L701.402 1349.71V1349.76H706.272V1350.44H700.622ZM704.572 1352V1347.41H705.272V1352H704.572ZM706.784 1350.44V1349.71L709.254 1345H710.034L707.564 1349.71V1349.76H712.434V1350.44H706.784ZM710.734 1352V1347.41H711.434V1352H710.734Z" fill="#8D8B84"/>
<path d="M361.76 1352L360.3 1347.01H360.98L362.19 1351.28H362.24L363.42 1347.01H364.25L365.43 1351.28H365.48L366.7 1347.01H367.37L365.9 1352H365.04L363.85 1347.73H363.8L362.62 1352H361.76ZM372.874 1352.11C372.328 1352.11 371.854 1352.02 371.454 1351.85C371.061 1351.68 370.754 1351.44 370.534 1351.13C370.314 1350.82 370.188 1350.46 370.154 1350.05H370.904C370.951 1350.5 371.144 1350.84 371.484 1351.08C371.824 1351.31 372.288 1351.43 372.874 1351.43C373.268 1351.43 373.601 1351.37 373.874 1351.24C374.154 1351.11 374.364 1350.93 374.504 1350.7C374.651 1350.47 374.724 1350.22 374.724 1349.93C374.724 1349.63 374.651 1349.37 374.504 1349.15C374.358 1348.92 374.144 1348.75 373.864 1348.64C373.591 1348.53 373.264 1348.47 372.884 1348.47H371.644V1347.85L374.164 1345.73V1345.68H370.694V1345H375.014V1345.81L372.654 1347.81V1348.07L372.474 1347.86H373.004C373.491 1347.86 373.918 1347.94 374.284 1348.11C374.658 1348.28 374.944 1348.52 375.144 1348.83C375.351 1349.14 375.454 1349.51 375.454 1349.93C375.454 1350.32 375.354 1350.69 375.154 1351.02C374.954 1351.35 374.658 1351.62 374.264 1351.82C373.878 1352.01 373.414 1352.11 372.874 1352.11ZM378.782 1352.11C378.236 1352.11 377.762 1352.02 377.362 1351.85C376.969 1351.68 376.662 1351.44 376.442 1351.13C376.222 1350.82 376.096 1350.46 376.062 1350.05H376.812C376.859 1350.5 377.052 1350.84 377.392 1351.08C377.732 1351.31 378.196 1351.43 378.782 1351.43C379.176 1351.43 379.509 1351.37 379.782 1351.24C380.062 1351.11 380.272 1350.93 380.412 1350.7C380.559 1350.47 380.632 1350.22 380.632 1349.93C380.632 1349.63 380.559 1349.37 380.412 1349.15C380.266 1348.92 380.052 1348.75 379.772 1348.64C379.499 1348.53 379.172 1348.47 378.792 1348.47H377.552V1347.85L380.072 1345.73V1345.68H376.602V1345H380.922V1345.81L378.562 1347.81V1348.07L378.382 1347.86H378.912C379.399 1347.86 379.826 1347.94 380.192 1348.11C380.566 1348.28 380.852 1348.52 381.052 1348.83C381.259 1349.14 381.362 1349.51 381.362 1349.93C381.362 1350.32 381.262 1350.69 381.062 1351.02C380.862 1351.35 380.566 1351.62 380.172 1351.82C379.786 1352.01 379.322 1352.11 378.782 1352.11ZM382.171 1352V1351.12L385.061 1348.89C385.374 1348.64 385.621 1348.41 385.801 1348.22C385.987 1348.02 386.121 1347.82 386.201 1347.63C386.287 1347.43 386.331 1347.22 386.331 1346.99C386.331 1346.56 386.187 1346.21 385.901 1345.96C385.621 1345.7 385.247 1345.57 384.781 1345.57C384.247 1345.57 383.831 1345.71 383.531 1346C383.237 1346.29 383.071 1346.66 383.031 1347.11H382.311C382.324 1346.71 382.421 1346.34 382.601 1346.01C382.787 1345.68 383.061 1345.41 383.421 1345.2C383.787 1344.99 384.241 1344.89 384.781 1344.89C385.241 1344.89 385.641 1344.98 385.981 1345.16C386.321 1345.33 386.584 1345.58 386.771 1345.89C386.957 1346.2 387.051 1346.56 387.051 1346.96C387.051 1347.27 386.997 1347.56 386.891 1347.81C386.791 1348.06 386.627 1348.32 386.401 1348.58C386.174 1348.83 385.861 1349.11 385.461 1349.41L383.081 1351.27V1351.32H387.221V1352H382.171Z" fill="#8D8B84"/>
</g>
<g clip-path="url(#clip3_1_875)">
<rect y="1356" width="1440" height="1409" fill="#21201C"/>
<mask id="path-43-inside-1_1_875" fill="white">
<path d="M1340 2777C1340 2680.46 1301.65 2587.88 1233.39 2519.61C1165.12 2451.35 1072.54 2413 976 2413C879.461 2413 786.876 2451.35 718.613 2519.61C650.35 2587.88 612 2680.46 612 2777L976 2777H1340Z"/>
</mask>
<path d="M1340 2777C1340 2680.46 1301.65 2587.88 1233.39 2519.61C1165.12 2451.35 1072.54 2413 976 2413C879.461 2413 786.876 2451.35 718.613 2519.61C650.35 2587.88 612 2680.46 612 2777L976 2777H1340Z" stroke="#8D8B84" mask="url(#path-43-inside-1_1_875)"/>
<line x1="1060.25" y1="1356" x2="1060.25" y2="2200" stroke="#8D8B84" stroke-width="0.5" stroke-dasharray="8 8"/>
<line x1="1060" y1="1976.25" y2="1976.25" stroke="#8D8B84" stroke-width="0.5" stroke-dasharray="8 8"/>
<line x1="902.25" y1="2200" x2="902.25" y2="2765" stroke="#8D8B84" stroke-width="0.5" stroke-dasharray="8 8"/>
<line x1="350.25" y1="1356" x2="350.25" y2="2765" stroke="#8D8B84" stroke-width="0.5"/>
<line x1="350" y1="2670.25" y2="2670.25" stroke="#8D8B84" stroke-width="0.5"/>
<mask id="path-49-inside-2_1_875" fill="white">
<path d="M682 1356H1252V1737H682V1356Z"/>
</mask>
<path d="M1252 1737V1737.5H1252.5V1737H1252ZM682 1737H681.5V1737.5H682V1737ZM1252 1356H1251.5V1737H1252H1252.5V1356H1252ZM1252 1737V1736.5H682V1737V1737.5H1252V1737ZM682 1737H682.5V1356H682H681.5V1737H682Z" fill="#8D8B84" mask="url(#path-49-inside-2_1_875)"/>
<rect x="770.25" y="2200.25" width="569.5" height="640.5" stroke="#8D8B84" stroke-width="0.5"/>
<path d="M687.8 1732V1725H688.46V1727.85H688.51C688.677 1727.56 688.91 1727.34 689.21 1727.17C689.517 1727 689.867 1726.91 690.26 1726.91C690.66 1726.91 691.003 1726.99 691.29 1727.16C691.583 1727.32 691.807 1727.56 691.96 1727.88C692.113 1728.2 692.19 1728.58 692.19 1729.03V1732H691.53V1729.14C691.53 1728.62 691.41 1728.22 691.17 1727.94C690.93 1727.65 690.58 1727.51 690.12 1727.51C689.807 1727.51 689.523 1727.58 689.27 1727.73C689.017 1727.88 688.817 1728.08 688.67 1728.35C688.53 1728.61 688.46 1728.91 688.46 1729.26V1732H687.8ZM698.292 1732.11C697.746 1732.11 697.272 1732.02 696.872 1731.85C696.479 1731.68 696.172 1731.44 695.952 1731.13C695.732 1730.82 695.606 1730.46 695.572 1730.05H696.322C696.369 1730.5 696.562 1730.84 696.902 1731.08C697.242 1731.31 697.706 1731.43 698.292 1731.43C698.686 1731.43 699.019 1731.37 699.292 1731.24C699.572 1731.11 699.782 1730.93 699.922 1730.7C700.069 1730.47 700.142 1730.22 700.142 1729.93C700.142 1729.63 700.069 1729.37 699.922 1729.15C699.776 1728.92 699.562 1728.75 699.282 1728.64C699.009 1728.53 698.682 1728.47 698.302 1728.47H697.062V1727.85L699.582 1725.73V1725.68H696.112V1725H700.432V1725.81L698.072 1727.81V1728.07L697.892 1727.86H698.422C698.909 1727.86 699.336 1727.94 699.702 1728.11C700.076 1728.28 700.362 1728.52 700.562 1728.83C700.769 1729.14 700.872 1729.51 700.872 1729.93C700.872 1730.32 700.772 1730.69 700.572 1731.02C700.372 1731.35 700.076 1731.62 699.682 1731.82C699.296 1732.01 698.832 1732.11 698.292 1732.11ZM704.446 1732.11C703.912 1732.11 703.446 1732.03 703.046 1731.87C702.652 1731.71 702.346 1731.48 702.126 1731.18C701.906 1730.87 701.796 1730.51 701.796 1730.1C701.796 1729.67 701.919 1729.31 702.166 1729C702.412 1728.69 702.756 1728.47 703.196 1728.35V1728.3C702.796 1728.16 702.496 1727.96 702.296 1727.7C702.102 1727.43 702.006 1727.12 702.006 1726.76C702.006 1726.39 702.099 1726.07 702.286 1725.79C702.479 1725.5 702.759 1725.28 703.126 1725.13C703.492 1724.97 703.932 1724.89 704.446 1724.89C704.959 1724.89 705.399 1724.97 705.766 1725.13C706.132 1725.28 706.412 1725.5 706.606 1725.79C706.799 1726.07 706.896 1726.39 706.896 1726.76C706.896 1727.12 706.796 1727.43 706.596 1727.7C706.402 1727.96 706.102 1728.16 705.696 1728.3V1728.35C706.136 1728.47 706.479 1728.69 706.726 1729C706.972 1729.31 707.096 1729.67 707.096 1730.1C707.096 1730.51 706.986 1730.87 706.766 1731.18C706.552 1731.48 706.246 1731.71 705.846 1731.87C705.446 1732.03 704.979 1732.11 704.446 1732.11ZM704.446 1731.43C705.059 1731.43 705.532 1731.31 705.866 1731.08C706.206 1730.85 706.376 1730.5 706.376 1730.05C706.376 1729.6 706.206 1729.26 705.866 1729.03C705.532 1728.8 705.059 1728.68 704.446 1728.68C703.832 1728.68 703.359 1728.8 703.026 1729.03C702.692 1729.26 702.526 1729.6 702.526 1730.05C702.526 1730.5 702.692 1730.85 703.026 1731.08C703.359 1731.31 703.832 1731.43 704.446 1731.43ZM704.446 1728.01C705.012 1728.01 705.439 1727.9 705.726 1727.69C706.019 1727.48 706.166 1727.18 706.166 1726.79C706.166 1726.4 706.022 1726.1 705.736 1725.89C705.449 1725.68 705.019 1725.57 704.446 1725.57C703.872 1725.57 703.442 1725.68 703.156 1725.89C702.869 1726.1 702.726 1726.4 702.726 1726.79C702.726 1727.18 702.872 1727.48 703.166 1727.69C703.459 1727.9 703.886 1728.01 704.446 1728.01ZM711.197 1732.11C710.624 1732.11 710.097 1731.96 709.617 1731.67C709.137 1731.38 708.754 1730.96 708.467 1730.41C708.187 1729.86 708.047 1729.23 708.047 1728.5C708.047 1727.77 708.187 1727.14 708.467 1726.59C708.754 1726.04 709.137 1725.62 709.617 1725.33C710.097 1725.04 710.624 1724.89 711.197 1724.89C711.77 1724.89 712.294 1725.04 712.767 1725.33C713.247 1725.62 713.627 1726.04 713.907 1726.59C714.194 1727.14 714.337 1727.77 714.337 1728.5C714.337 1729.23 714.194 1729.86 713.907 1730.41C713.627 1730.96 713.247 1731.38 712.767 1731.67C712.294 1731.96 711.77 1732.11 711.197 1732.11ZM711.197 1731.43C711.637 1731.43 712.04 1731.32 712.407 1731.1C712.774 1730.88 713.067 1730.55 713.287 1730.11C713.507 1729.66 713.617 1729.13 713.617 1728.5C713.617 1727.87 713.507 1727.34 713.287 1726.9C713.067 1726.45 712.774 1726.12 712.407 1725.9C712.04 1725.68 711.637 1725.57 711.197 1725.57C710.75 1725.57 710.344 1725.68 709.977 1725.9C709.61 1726.12 709.317 1726.45 709.097 1726.9C708.884 1727.34 708.777 1727.87 708.777 1728.5C708.777 1729.13 708.884 1729.66 709.097 1730.11C709.317 1730.55 709.61 1730.88 709.977 1731.1C710.344 1731.32 710.75 1731.43 711.197 1731.43Z" fill="#8D8B84"/>
<path d="M1065.8 1732V1725H1066.46V1727.85H1066.51C1066.68 1727.56 1066.91 1727.34 1067.21 1727.17C1067.52 1727 1067.87 1726.91 1068.26 1726.91C1068.66 1726.91 1069 1726.99 1069.29 1727.16C1069.58 1727.32 1069.81 1727.56 1069.96 1727.88C1070.11 1728.2 1070.19 1728.58 1070.19 1729.03V1732H1069.53V1729.14C1069.53 1728.62 1069.41 1728.22 1069.17 1727.94C1068.93 1727.65 1068.58 1727.51 1068.12 1727.51C1067.81 1727.51 1067.52 1727.58 1067.27 1727.73C1067.02 1727.88 1066.82 1728.08 1066.67 1728.35C1066.53 1728.61 1066.46 1728.91 1066.46 1729.26V1732H1065.8ZM1073.77 1732V1731.12L1076.66 1728.89C1076.98 1728.64 1077.22 1728.41 1077.4 1728.22C1077.59 1728.02 1077.72 1727.82 1077.8 1727.63C1077.89 1727.43 1077.93 1727.22 1077.93 1726.99C1077.93 1726.56 1077.79 1726.21 1077.5 1725.96C1077.22 1725.7 1076.85 1725.57 1076.38 1725.57C1075.85 1725.57 1075.43 1725.71 1075.13 1726C1074.84 1726.29 1074.67 1726.66 1074.63 1727.11H1073.91C1073.93 1726.71 1074.02 1726.34 1074.2 1726.01C1074.39 1725.68 1074.66 1725.41 1075.02 1725.2C1075.39 1724.99 1075.84 1724.89 1076.38 1724.89C1076.84 1724.89 1077.24 1724.98 1077.58 1725.16C1077.92 1725.33 1078.19 1725.58 1078.37 1725.89C1078.56 1726.2 1078.65 1726.56 1078.65 1726.96C1078.65 1727.27 1078.6 1727.56 1078.49 1727.81C1078.39 1728.06 1078.23 1728.32 1078 1728.58C1077.78 1728.83 1077.46 1729.11 1077.06 1729.41L1074.68 1731.27V1731.32H1078.82V1732H1073.77ZM1082.78 1732.11C1082.21 1732.11 1081.68 1731.96 1081.2 1731.67C1080.72 1731.38 1080.34 1730.96 1080.05 1730.41C1079.77 1729.86 1079.63 1729.23 1079.63 1728.5C1079.63 1727.77 1079.77 1727.14 1080.05 1726.59C1080.34 1726.04 1080.72 1725.62 1081.2 1725.33C1081.68 1725.04 1082.21 1724.89 1082.78 1724.89C1083.35 1724.89 1083.88 1725.04 1084.35 1725.33C1084.83 1725.62 1085.21 1726.04 1085.49 1726.59C1085.78 1727.14 1085.92 1727.77 1085.92 1728.5C1085.92 1729.23 1085.78 1729.86 1085.49 1730.41C1085.21 1730.96 1084.83 1731.38 1084.35 1731.67C1083.88 1731.96 1083.35 1732.11 1082.78 1732.11ZM1082.78 1731.43C1083.22 1731.43 1083.62 1731.32 1083.99 1731.1C1084.36 1730.88 1084.65 1730.55 1084.87 1730.11C1085.09 1729.66 1085.2 1729.13 1085.2 1728.5C1085.2 1727.87 1085.09 1727.34 1084.87 1726.9C1084.65 1726.45 1084.36 1726.12 1083.99 1725.9C1083.62 1725.68 1083.22 1725.57 1082.78 1725.57C1082.33 1725.57 1081.93 1725.68 1081.56 1725.9C1081.19 1726.12 1080.9 1726.45 1080.68 1726.9C1080.47 1727.34 1080.36 1727.87 1080.36 1728.5C1080.36 1729.13 1080.47 1729.66 1080.68 1730.11C1080.9 1730.55 1081.19 1730.88 1081.56 1731.1C1081.93 1731.32 1082.33 1731.43 1082.78 1731.43ZM1086.81 1730.44V1729.71L1089.28 1725H1090.06L1087.59 1729.71V1729.76H1092.46V1730.44H1086.81ZM1090.76 1732V1727.41H1091.46V1732H1090.76Z" fill="#8D8B84"/>
<path d="M1067.19 2194.1C1066.85 2194.1 1066.55 2194.04 1066.28 2193.91C1066.02 2193.78 1065.82 2193.59 1065.67 2193.36C1065.52 2193.13 1065.45 2192.87 1065.45 2192.58C1065.45 2192.3 1065.52 2192.05 1065.66 2191.83C1065.81 2191.6 1066.02 2191.43 1066.3 2191.3C1066.58 2191.17 1066.92 2191.11 1067.33 2191.11H1069.43V2191.66H1067.36C1066.95 2191.66 1066.64 2191.74 1066.43 2191.91C1066.23 2192.08 1066.13 2192.29 1066.13 2192.56C1066.13 2192.84 1066.23 2193.07 1066.44 2193.24C1066.65 2193.41 1066.95 2193.49 1067.34 2193.49C1067.69 2193.49 1068 2193.42 1068.27 2193.27C1068.54 2193.12 1068.76 2192.91 1068.91 2192.64C1069.06 2192.37 1069.14 2192.07 1069.14 2191.73V2190.77C1069.14 2190.37 1069.01 2190.06 1068.76 2189.84C1068.51 2189.62 1068.18 2189.51 1067.76 2189.51C1067.35 2189.51 1067.03 2189.6 1066.8 2189.79C1066.57 2189.98 1066.42 2190.21 1066.35 2190.5H1065.67C1065.71 2190.21 1065.82 2189.95 1065.99 2189.71C1066.16 2189.47 1066.4 2189.28 1066.7 2189.13C1067.01 2188.98 1067.36 2188.91 1067.76 2188.91C1068.18 2188.91 1068.54 2188.99 1068.84 2189.14C1069.15 2189.29 1069.38 2189.51 1069.54 2189.8C1069.71 2190.08 1069.79 2190.4 1069.79 2190.77V2194H1069.16V2193.09H1069.11C1068.96 2193.37 1068.72 2193.61 1068.39 2193.81C1068.06 2194 1067.66 2194.1 1067.19 2194.1ZM1075.99 2194.11C1075.45 2194.11 1074.98 2194 1074.57 2193.79C1074.17 2193.57 1073.85 2193.28 1073.62 2192.91C1073.4 2192.54 1073.29 2192.12 1073.29 2191.67C1073.29 2191.36 1073.36 2191.05 1073.48 2190.73C1073.61 2190.41 1073.8 2190.09 1074.05 2189.76L1076.17 2187H1077.03L1074.93 2189.68L1074.71 2189.5C1074.89 2189.42 1075.09 2189.36 1075.3 2189.31C1075.52 2189.26 1075.75 2189.24 1075.99 2189.24C1076.53 2189.24 1077.01 2189.35 1077.41 2189.56C1077.83 2189.77 1078.14 2190.07 1078.36 2190.44C1078.58 2190.81 1078.69 2191.22 1078.69 2191.67C1078.69 2192.12 1078.58 2192.54 1078.36 2192.91C1078.14 2193.28 1077.83 2193.57 1077.41 2193.79C1077.01 2194 1076.53 2194.11 1075.99 2194.11ZM1075.99 2193.46C1076.4 2193.46 1076.75 2193.38 1077.04 2193.23C1077.34 2193.07 1077.57 2192.86 1077.73 2192.59C1077.89 2192.32 1077.97 2192.01 1077.97 2191.67C1077.97 2191.33 1077.89 2191.03 1077.73 2190.76C1077.57 2190.49 1077.34 2190.27 1077.04 2190.12C1076.75 2189.97 1076.4 2189.89 1075.99 2189.89C1075.59 2189.89 1075.23 2189.97 1074.93 2190.12C1074.64 2190.27 1074.41 2190.49 1074.25 2190.76C1074.1 2191.03 1074.02 2191.33 1074.02 2191.67C1074.02 2192.01 1074.1 2192.32 1074.25 2192.59C1074.41 2192.86 1074.64 2193.07 1074.93 2193.23C1075.23 2193.38 1075.59 2193.46 1075.99 2193.46ZM1079.47 2192.44V2191.71L1081.94 2187H1082.72L1080.25 2191.71V2191.76H1085.12V2192.44H1079.47ZM1083.42 2194V2189.41H1084.12V2194H1083.42ZM1088.82 2194.11C1088.24 2194.11 1087.72 2193.96 1087.24 2193.67C1086.76 2193.38 1086.37 2192.96 1086.09 2192.41C1085.81 2191.86 1085.67 2191.23 1085.67 2190.5C1085.67 2189.77 1085.81 2189.14 1086.09 2188.59C1086.37 2188.04 1086.76 2187.62 1087.24 2187.33C1087.72 2187.04 1088.24 2186.89 1088.82 2186.89C1089.39 2186.89 1089.91 2187.04 1090.39 2187.33C1090.87 2187.62 1091.25 2188.04 1091.53 2188.59C1091.81 2189.14 1091.96 2189.77 1091.96 2190.5C1091.96 2191.23 1091.81 2191.86 1091.53 2192.41C1091.25 2192.96 1090.87 2193.38 1090.39 2193.67C1089.91 2193.96 1089.39 2194.11 1088.82 2194.11ZM1088.82 2193.43C1089.26 2193.43 1089.66 2193.32 1090.03 2193.1C1090.39 2192.88 1090.69 2192.55 1090.91 2192.11C1091.13 2191.66 1091.24 2191.13 1091.24 2190.5C1091.24 2189.87 1091.13 2189.34 1090.91 2188.9C1090.69 2188.45 1090.39 2188.12 1090.03 2187.9C1089.66 2187.68 1089.26 2187.57 1088.82 2187.57C1088.37 2187.57 1087.96 2187.68 1087.6 2187.9C1087.23 2188.12 1086.94 2188.45 1086.72 2188.9C1086.5 2189.34 1086.4 2189.87 1086.4 2190.5C1086.4 2191.13 1086.5 2191.66 1086.72 2192.11C1086.94 2192.55 1087.23 2192.88 1087.6 2193.1C1087.96 2193.32 1088.37 2193.43 1088.82 2193.43Z" fill="#8D8B84"/>
<path d="M775.75 2759V2754.01H776.38V2754.86H776.43C776.577 2754.57 776.78 2754.34 777.04 2754.19C777.307 2754.04 777.613 2753.96 777.96 2753.96H778.66V2754.59H777.96C777.487 2754.59 777.11 2754.75 776.83 2755.07C776.55 2755.39 776.41 2755.81 776.41 2756.33V2759H775.75ZM783.997 2759.11C783.451 2759.11 782.977 2759.02 782.577 2758.85C782.184 2758.68 781.877 2758.44 781.657 2758.13C781.437 2757.82 781.311 2757.46 781.277 2757.05H782.027C782.074 2757.5 782.267 2757.84 782.607 2758.08C782.947 2758.31 783.411 2758.43 783.997 2758.43C784.391 2758.43 784.724 2758.37 784.997 2758.24C785.277 2758.11 785.487 2757.93 785.627 2757.7C785.774 2757.47 785.847 2757.22 785.847 2756.93C785.847 2756.63 785.774 2756.37 785.627 2756.15C785.481 2755.92 785.267 2755.75 784.987 2755.64C784.714 2755.53 784.387 2755.47 784.007 2755.47H782.767V2754.85L785.287 2752.73V2752.68H781.817V2752H786.137V2752.81L783.777 2754.81V2755.07L783.597 2754.86H784.127C784.614 2754.86 785.041 2754.94 785.407 2755.11C785.781 2755.28 786.067 2755.52 786.267 2755.83C786.474 2756.14 786.577 2756.51 786.577 2756.93C786.577 2757.32 786.477 2757.69 786.277 2758.02C786.077 2758.35 785.781 2758.62 785.387 2758.82C785.001 2759.01 784.537 2759.11 783.997 2759.11ZM790.201 2759.11C789.661 2759.11 789.187 2759 788.781 2758.79C788.374 2758.57 788.057 2758.28 787.831 2757.91C787.611 2757.54 787.501 2757.12 787.501 2756.67C787.501 2756.36 787.564 2756.05 787.691 2755.73C787.817 2755.41 788.007 2755.09 788.261 2754.76L790.381 2752H791.241L789.141 2754.68L788.921 2754.5C789.101 2754.42 789.297 2754.36 789.511 2754.31C789.731 2754.26 789.961 2754.24 790.201 2754.24C790.741 2754.24 791.214 2754.35 791.621 2754.56C792.034 2754.77 792.351 2755.07 792.571 2755.44C792.791 2755.81 792.901 2756.22 792.901 2756.67C792.901 2757.12 792.791 2757.54 792.571 2757.91C792.351 2758.28 792.034 2758.57 791.621 2758.79C791.214 2759 790.741 2759.11 790.201 2759.11ZM790.201 2758.46C790.607 2758.46 790.957 2758.38 791.251 2758.23C791.551 2758.07 791.781 2757.86 791.941 2757.59C792.101 2757.32 792.181 2757.01 792.181 2756.67C792.181 2756.33 792.101 2756.03 791.941 2755.76C791.781 2755.49 791.551 2755.27 791.251 2755.12C790.957 2754.97 790.607 2754.89 790.201 2754.89C789.794 2754.89 789.441 2754.97 789.141 2755.12C788.847 2755.27 788.621 2755.49 788.461 2755.76C788.307 2756.03 788.231 2756.33 788.231 2756.67C788.231 2757.01 788.307 2757.32 788.461 2757.59C788.621 2757.86 788.847 2758.07 789.141 2758.23C789.441 2758.38 789.794 2758.46 790.201 2758.46ZM793.681 2757.44V2756.71L796.151 2752H796.931L794.461 2756.71V2756.76H799.331V2757.44H793.681ZM797.631 2759V2754.41H798.331V2759H797.631Z" fill="#8D8B84"/>
<path d="M360.66 2759V2752H361.36V2759H360.66ZM355.96 2759V2752H356.66V2759H355.96ZM356.29 2755.79V2755.11H361V2755.79H356.29ZM366.608 2759V2752.55L366.868 2752.66L365.108 2754.04V2753.23L366.658 2752H367.308V2759H366.608ZM368.671 2757.44V2756.71L371.141 2752H371.921L369.451 2756.71V2756.76H374.321V2757.44H368.671ZM372.621 2759V2754.41H373.321V2759H372.621ZM378.015 2759.11C377.442 2759.11 376.915 2758.96 376.435 2758.67C375.955 2758.38 375.572 2757.96 375.285 2757.41C375.005 2756.86 374.865 2756.23 374.865 2755.5C374.865 2754.77 375.005 2754.14 375.285 2753.59C375.572 2753.04 375.955 2752.62 376.435 2752.33C376.915 2752.04 377.442 2751.89 378.015 2751.89C378.589 2751.89 379.112 2752.04 379.585 2752.33C380.065 2752.62 380.445 2753.04 380.725 2753.59C381.012 2754.14 381.155 2754.77 381.155 2755.5C381.155 2756.23 381.012 2756.86 380.725 2757.41C380.445 2757.96 380.065 2758.38 379.585 2758.67C379.112 2758.96 378.589 2759.11 378.015 2759.11ZM378.015 2758.43C378.455 2758.43 378.859 2758.32 379.225 2758.1C379.592 2757.88 379.885 2757.55 380.105 2757.11C380.325 2756.66 380.435 2756.13 380.435 2755.5C380.435 2754.87 380.325 2754.34 380.105 2753.9C379.885 2753.45 379.592 2753.12 379.225 2752.9C378.859 2752.68 378.455 2752.57 378.015 2752.57C377.569 2752.57 377.162 2752.68 376.795 2752.9C376.429 2753.12 376.135 2753.45 375.915 2753.9C375.702 2754.34 375.595 2754.87 375.595 2755.5C375.595 2756.13 375.702 2756.66 375.915 2757.11C376.135 2757.55 376.429 2757.88 376.795 2758.1C377.162 2758.32 377.569 2758.43 378.015 2758.43ZM383.73 2759L385.82 2756.32L386.05 2756.5C385.863 2756.58 385.66 2756.64 385.44 2756.69C385.227 2756.74 385 2756.76 384.76 2756.76C384.22 2756.76 383.747 2756.65 383.34 2756.44C382.933 2756.23 382.617 2755.94 382.39 2755.57C382.17 2755.2 382.06 2754.78 382.06 2754.33C382.06 2753.88 382.17 2753.47 382.39 2753.1C382.617 2752.73 382.933 2752.43 383.34 2752.22C383.747 2752 384.22 2751.89 384.76 2751.89C385.3 2751.89 385.773 2752 386.18 2752.22C386.593 2752.43 386.91 2752.73 387.13 2753.1C387.35 2753.47 387.46 2753.88 387.46 2754.33C387.46 2754.64 387.397 2754.95 387.27 2755.27C387.143 2755.59 386.957 2755.91 386.71 2756.24L384.59 2759H383.73ZM384.76 2756.11C385.167 2756.11 385.517 2756.03 385.81 2755.88C386.11 2755.73 386.34 2755.52 386.5 2755.25C386.66 2754.98 386.74 2754.67 386.74 2754.33C386.74 2753.99 386.66 2753.69 386.5 2753.42C386.34 2753.15 386.11 2752.93 385.81 2752.78C385.517 2752.62 385.167 2752.54 384.76 2752.54C384.353 2752.54 384 2752.62 383.7 2752.78C383.407 2752.93 383.18 2753.15 383.02 2753.42C382.867 2753.69 382.79 2753.99 382.79 2754.33C382.79 2754.67 382.867 2754.98 383.02 2755.25C383.18 2755.52 383.407 2755.73 383.7 2755.88C384 2756.03 384.353 2756.11 384.76 2756.11Z" fill="#8D8B84"/>
<path d="M317.59 2665L316.13 2660.01H316.81L318.02 2664.28H318.07L319.25 2660.01H320.08L321.26 2664.28H321.31L322.53 2660.01H323.2L321.73 2665H320.87L319.68 2660.73H319.63L318.45 2665H317.59ZM328.704 2665.11C328.158 2665.11 327.684 2665.02 327.284 2664.85C326.891 2664.68 326.584 2664.44 326.364 2664.13C326.144 2663.82 326.018 2663.46 325.984 2663.05H326.734C326.781 2663.5 326.974 2663.84 327.314 2664.08C327.654 2664.31 328.118 2664.43 328.704 2664.43C329.098 2664.43 329.431 2664.37 329.704 2664.24C329.984 2664.11 330.194 2663.93 330.334 2663.7C330.481 2663.47 330.554 2663.22 330.554 2662.93C330.554 2662.63 330.481 2662.37 330.334 2662.15C330.188 2661.92 329.974 2661.75 329.694 2661.64C329.421 2661.53 329.094 2661.47 328.714 2661.47H327.474V2660.85L329.994 2658.73V2658.68H326.524V2658H330.844V2658.81L328.484 2660.81V2661.07L328.304 2660.86H328.834C329.321 2660.86 329.748 2660.94 330.114 2661.11C330.488 2661.28 330.774 2661.52 330.974 2661.83C331.181 2662.14 331.284 2662.51 331.284 2662.93C331.284 2663.32 331.184 2663.69 330.984 2664.02C330.784 2664.35 330.488 2664.62 330.094 2664.82C329.708 2665.01 329.244 2665.11 328.704 2665.11ZM334.723 2665.11C334.196 2665.11 333.736 2665.02 333.343 2664.84C332.949 2664.66 332.643 2664.41 332.423 2664.1C332.203 2663.79 332.076 2663.44 332.043 2663.05H332.793C332.833 2663.33 332.933 2663.57 333.093 2663.78C333.259 2663.99 333.479 2664.15 333.753 2664.26C334.033 2664.37 334.356 2664.43 334.723 2664.43C335.109 2664.43 335.446 2664.36 335.733 2664.21C336.019 2664.06 336.239 2663.85 336.393 2663.58C336.546 2663.31 336.623 2663.01 336.623 2662.68C336.623 2662.37 336.546 2662.09 336.393 2661.84C336.246 2661.58 336.033 2661.38 335.753 2661.23C335.479 2661.08 335.159 2661.01 334.793 2661.01C334.439 2661.01 334.116 2661.07 333.823 2661.2C333.529 2661.32 333.303 2661.49 333.143 2661.72H332.463L333.003 2658H336.883V2658.68H333.543L333.213 2660.9H333.263C333.463 2660.73 333.699 2660.59 333.973 2660.5C334.253 2660.41 334.556 2660.36 334.883 2660.36C335.369 2660.36 335.799 2660.46 336.173 2660.67C336.546 2660.88 336.833 2661.16 337.033 2661.51C337.239 2661.86 337.343 2662.25 337.343 2662.68C337.343 2663.15 337.236 2663.57 337.023 2663.94C336.816 2664.31 336.516 2664.59 336.123 2664.8C335.729 2665.01 335.263 2665.11 334.723 2665.11ZM341.355 2665.11C340.782 2665.11 340.255 2664.96 339.775 2664.67C339.295 2664.38 338.912 2663.96 338.625 2663.41C338.345 2662.86 338.205 2662.23 338.205 2661.5C338.205 2660.77 338.345 2660.14 338.625 2659.59C338.912 2659.04 339.295 2658.62 339.775 2658.33C340.255 2658.04 340.782 2657.89 341.355 2657.89C341.928 2657.89 342.452 2658.04 342.925 2658.33C343.405 2658.62 343.785 2659.04 344.065 2659.59C344.352 2660.14 344.495 2660.77 344.495 2661.5C344.495 2662.23 344.352 2662.86 344.065 2663.41C343.785 2663.96 343.405 2664.38 342.925 2664.67C342.452 2664.96 341.928 2665.11 341.355 2665.11ZM341.355 2664.43C341.795 2664.43 342.198 2664.32 342.565 2664.1C342.932 2663.88 343.225 2663.55 343.445 2663.11C343.665 2662.66 343.775 2662.13 343.775 2661.5C343.775 2660.87 343.665 2660.34 343.445 2659.9C343.225 2659.45 342.932 2659.12 342.565 2658.9C342.198 2658.68 341.795 2658.57 341.355 2658.57C340.908 2658.57 340.502 2658.68 340.135 2658.9C339.768 2659.12 339.475 2659.45 339.255 2659.9C339.042 2660.34 338.935 2660.87 338.935 2661.5C338.935 2662.13 339.042 2662.66 339.255 2663.11C339.475 2663.55 339.768 2663.88 340.135 2664.1C340.502 2664.32 340.908 2664.43 341.355 2664.43Z" fill="#8D8B84"/>
<path d="M1258.96 1528.1C1258.48 1528.1 1258.05 1527.99 1257.66 1527.76C1257.28 1527.53 1256.98 1527.22 1256.76 1526.83C1256.54 1526.44 1256.43 1525.99 1256.43 1525.5C1256.43 1525.01 1256.54 1524.57 1256.76 1524.18C1256.98 1523.78 1257.28 1523.47 1257.66 1523.25C1258.05 1523.02 1258.48 1522.91 1258.96 1522.91C1259.33 1522.91 1259.68 1522.98 1260 1523.13C1260.33 1523.28 1260.6 1523.49 1260.83 1523.76C1261.06 1524.03 1261.22 1524.35 1261.31 1524.7H1260.64C1260.51 1524.33 1260.3 1524.04 1259.99 1523.83C1259.69 1523.62 1259.35 1523.51 1258.96 1523.51C1258.6 1523.51 1258.28 1523.6 1257.99 1523.77C1257.71 1523.94 1257.49 1524.17 1257.33 1524.47C1257.18 1524.77 1257.1 1525.11 1257.1 1525.5C1257.1 1525.89 1257.18 1526.23 1257.33 1526.54C1257.49 1526.84 1257.71 1527.07 1257.99 1527.24C1258.28 1527.41 1258.6 1527.49 1258.96 1527.49C1259.35 1527.49 1259.69 1527.38 1259.99 1527.17C1260.3 1526.96 1260.51 1526.67 1260.64 1526.3H1261.31C1261.22 1526.66 1261.06 1526.98 1260.83 1527.25C1260.6 1527.52 1260.33 1527.73 1260 1527.88C1259.68 1528.03 1259.33 1528.1 1258.96 1528.1ZM1267.21 1528.11C1266.68 1528.11 1266.22 1528.02 1265.83 1527.84C1265.43 1527.66 1265.13 1527.41 1264.91 1527.1C1264.69 1526.79 1264.56 1526.44 1264.53 1526.05H1265.28C1265.32 1526.33 1265.42 1526.57 1265.58 1526.78C1265.74 1526.99 1265.96 1527.15 1266.24 1527.26C1266.52 1527.37 1266.84 1527.43 1267.21 1527.43C1267.59 1527.43 1267.93 1527.36 1268.22 1527.21C1268.5 1527.06 1268.72 1526.85 1268.88 1526.58C1269.03 1526.31 1269.11 1526.01 1269.11 1525.68C1269.11 1525.37 1269.03 1525.09 1268.88 1524.84C1268.73 1524.58 1268.52 1524.38 1268.24 1524.23C1267.96 1524.08 1267.64 1524.01 1267.28 1524.01C1266.92 1524.01 1266.6 1524.07 1266.31 1524.2C1266.01 1524.32 1265.79 1524.49 1265.63 1524.72H1264.95L1265.49 1521H1269.37V1521.68H1266.03L1265.7 1523.9H1265.75C1265.95 1523.73 1266.18 1523.59 1266.46 1523.5C1266.74 1523.41 1267.04 1523.36 1267.37 1523.36C1267.85 1523.36 1268.28 1523.46 1268.66 1523.67C1269.03 1523.88 1269.32 1524.16 1269.52 1524.51C1269.72 1524.86 1269.83 1525.25 1269.83 1525.68C1269.83 1526.15 1269.72 1526.57 1269.51 1526.94C1269.3 1527.31 1269 1527.59 1268.61 1527.8C1268.21 1528.01 1267.75 1528.11 1267.21 1528.11Z" fill="#8D8B84"/>
</g>
<path d="M1441 4119H1440C1440 4119.33 1440 4119.67 1440 4120C1440 4517.65 1117.65 4840 720 4840C322.355 4840 0 4517.65 0 4120C0 4119.67 0.00247658 4119.33 0.00292969 4119H-1V4894H1441V4119Z" fill="#21201C"/>
</g>
<defs>
<clipPath id="clip0_1_875">
<rect width="1440" height="4894" fill="white"/>
</clipPath>
<clipPath id="clip1_1_875">
<rect width="1440" height="2129" fill="white" transform="translate(0 2765)"/>
</clipPath>
<clipPath id="clip2_1_875">
<rect width="1440" height="1356" fill="white" transform="translate(6)"/>
</clipPath>
<clipPath id="clip3_1_875">
<rect width="1440" height="1409" fill="white" transform="translate(0 1356)"/>
</clipPath>
</defs>
</svg>
