<svg width="1442" height="9106" viewBox="0 0 1442 9106" fill="none" xmlns="http://www.w3.org/2000/svg">
<g clip-path="url(#clip0_2020_4448)">
<rect width="1440" height="4225" transform="translate(1 4826)" fill="#E8E8E8"/>
<rect x="1028" y="4826" width="194" height="160" fill="#21201C"/>
<rect x="1120" y="4986" width="102" height="102" fill="#21201C"/>
<rect x="713" y="5088" width="728" height="125" fill="#21201C"/>
<rect x="1222" y="4826" width="220" height="262" fill="#21201C"/>
<rect x="713" y="4826" width="315" height="42" fill="#21201C"/>
<rect y="4826" width="234" height="42" fill="#21201C"/>
<rect x="625" y="5573" width="817" height="148" fill="#21201C"/>
<rect x="713" y="5507" width="729" height="66" fill="#21201C"/>
<rect x="965" y="5872" width="333" height="146" fill="#21201C"/>
<rect x="943" y="6623" width="60" height="252" fill="#21201C"/>
<rect x="965" y="5818" width="187" height="54" fill="#21201C"/>
<rect width="146" height="151" transform="matrix(-1 0 0 1 1298 5721)" fill="#21201C"/>
<rect width="144" height="297" transform="matrix(-1 0 0 1 1442 5721)" fill="#21201C"/>
<rect width="144" height="165" transform="matrix(-1 0 0 1 1442 6179)" fill="#21201C"/>
<rect width="156" height="105" transform="matrix(-1 0 0 1 1442 6518)" fill="#21201C"/>
<rect width="277" height="107" transform="matrix(-1 0 0 1 1442 7090)" fill="#21201C"/>
<rect width="554" height="409" transform="matrix(-1 0 0 1 1272 7442)" fill="#21201C"/>
<rect width="348" height="129" transform="matrix(-1 0 0 1 1441 7197)" fill="#21201C"/>
<rect width="170" height="525" transform="matrix(-1 0 0 1 1442 7326)" fill="#21201C"/>
<rect width="439" height="374" transform="matrix(-1 0 0 1 1442 6623)" fill="#21201C"/>
<rect width="476" height="162" transform="matrix(-1 0 0 1 1441 6017)" fill="#21201C"/>
<rect x="-84.75" y="8604.25" width="375.5" height="380.5" stroke="#8D8B84" stroke-width="0.5"/>
<rect x="-84.75" y="8211.25" width="301.5" height="232.5" stroke="#8D8B84" stroke-width="0.5"/>
<circle cx="579" cy="6842" r="154.75" stroke="#8D8B84" stroke-width="0.5"/>
<circle cx="307" cy="8021" r="105.75" stroke="#8D8B84" stroke-width="0.5"/>
<circle cx="775" cy="7524" r="326.75" stroke="#8D8B84" stroke-width="0.5"/>
<circle cx="1442" cy="6618" r="438.75" stroke="#8D8B84" stroke-width="0.5"/>
<circle cx="713" cy="5088" r="219.75" stroke="#8D8B84" stroke-width="0.5"/>
<circle cx="307" cy="5642" r="175.75" stroke="#8D8B84" stroke-width="0.5"/>
<rect x="625.25" y="5573.25" width="841.5" height="147.5" stroke="#8D8B84" stroke-width="0.5"/>
<rect x="965.25" y="5570.25" width="332.5" height="301.5" stroke="#8D8B84" stroke-width="0.5"/>
<rect x="597.25" y="7651.25" width="897.5" height="451.5" stroke="#8D8B84" stroke-width="0.5"/>
<rect x="1148.25" y="7839.25" width="175.5" height="478.5" stroke="#8D8B84" stroke-width="0.5"/>
<rect x="1226.25" y="8161.25" width="242.5" height="784.5" stroke="#8D8B84" stroke-width="0.5"/>
<rect x="-88.75" y="7851.25" width="242.5" height="1094.5" stroke="#8D8B84" stroke-width="0.5"/>
<rect x="1119.25" y="8592.25" width="472.5" height="221.5" stroke="#8D8B84" stroke-width="0.5"/>
<line x1="1441" y1="5507.25" x2="1" y2="5507.25" stroke="#8D8B84" stroke-width="0.5"/>
<line x1="234.25" y1="4826" x2="234.25" y2="7851" stroke="#8D8B84" stroke-width="0.5"/>
<line x1="713.25" y1="4826" x2="713.25" y2="6018" stroke="#8D8B84" stroke-width="0.5" stroke-dasharray="8 8"/>
<line x1="1222.25" y1="4826" x2="1222.25" y2="5144" stroke="#8D8B84" stroke-width="0.5"/>
<line x1="1442" y1="4826.25" x2="1" y2="4826.25" stroke="#8D8B84" stroke-width="0.5"/>
<line x1="1003.25" y1="6018" x2="1003.25" y2="7197" stroke="#8D8B84" stroke-width="0.5"/>
<line x1="579.25" y1="6018" x2="579.25" y2="7197" stroke="#8D8B84" stroke-width="0.5" stroke-dasharray="8 8"/>
<line x1="447.75" y1="7851" x2="447.75" y2="7197" stroke="#8D8B84" stroke-width="0.5"/>
<line x1="1271.75" y1="7851" x2="1271.75" y2="7197" stroke="#8D8B84" stroke-width="0.5" stroke-dasharray="8 8"/>
<line x1="1441" y1="6179.25" x2="1" y2="6179.25" stroke="#8D8B84" stroke-width="0.5"/>
<line x1="1441" y1="7851.25" x2="1" y2="7851.25" stroke="#8D8B84" stroke-width="0.5"/>
<line x1="1441" y1="7326.25" x2="1" y2="7326.25" stroke="#8D8B84" stroke-width="0.5" stroke-dasharray="8 8"/>
<line x1="1441" y1="6623.25" x2="1" y2="6623.25" stroke="#8D8B84" stroke-width="0.5" stroke-dasharray="8 8"/>
<line x1="1441" y1="5213.25" x2="1" y2="5213.25" stroke="#8D8B84" stroke-width="0.5" stroke-dasharray="8 8"/>
<path d="M682.633 5081V5076.01H683.263V5076.86H683.313C683.459 5076.57 683.663 5076.34 683.923 5076.19C684.189 5076.04 684.496 5075.96 684.843 5075.96H685.543V5076.59H684.843C684.369 5076.59 683.993 5076.75 683.713 5077.07C683.433 5077.39 683.293 5077.81 683.293 5078.33V5081H682.633ZM688.36 5081V5080.12L691.25 5077.89C691.563 5077.64 691.81 5077.41 691.99 5077.22C692.177 5077.02 692.31 5076.82 692.39 5076.63C692.477 5076.43 692.52 5076.22 692.52 5075.99C692.52 5075.56 692.377 5075.21 692.09 5074.96C691.81 5074.7 691.437 5074.57 690.97 5074.57C690.437 5074.57 690.02 5074.71 689.72 5075C689.427 5075.29 689.26 5075.66 689.22 5076.11H688.5C688.513 5075.71 688.61 5075.34 688.79 5075.01C688.977 5074.68 689.25 5074.41 689.61 5074.2C689.977 5073.99 690.43 5073.89 690.97 5073.89C691.43 5073.89 691.83 5073.98 692.17 5074.16C692.51 5074.33 692.773 5074.58 692.96 5074.89C693.147 5075.2 693.24 5075.56 693.24 5075.96C693.24 5076.27 693.187 5076.56 693.08 5076.81C692.98 5077.06 692.817 5077.32 692.59 5077.58C692.363 5077.83 692.05 5078.11 691.65 5078.41L689.27 5080.27V5080.32H693.41V5081H688.36ZM694.346 5081V5080.12L697.236 5077.89C697.55 5077.64 697.796 5077.41 697.976 5077.22C698.163 5077.02 698.296 5076.82 698.376 5076.63C698.463 5076.43 698.506 5076.22 698.506 5075.99C698.506 5075.56 698.363 5075.21 698.076 5074.96C697.796 5074.7 697.423 5074.57 696.956 5074.57C696.423 5074.57 696.006 5074.71 695.706 5075C695.413 5075.29 695.246 5075.66 695.206 5076.11H694.486C694.5 5075.71 694.596 5075.34 694.776 5075.01C694.963 5074.68 695.236 5074.41 695.596 5074.2C695.963 5073.99 696.416 5073.89 696.956 5073.89C697.416 5073.89 697.816 5073.98 698.156 5074.16C698.496 5074.33 698.76 5074.58 698.946 5074.89C699.133 5075.2 699.226 5075.56 699.226 5075.96C699.226 5076.27 699.173 5076.56 699.066 5076.81C698.966 5077.06 698.803 5077.32 698.576 5077.58C698.35 5077.83 698.036 5078.11 697.636 5078.41L695.256 5080.27V5080.32H699.396V5081H694.346ZM703.355 5081.11C702.782 5081.11 702.255 5080.96 701.775 5080.67C701.295 5080.38 700.912 5079.96 700.625 5079.41C700.345 5078.86 700.205 5078.23 700.205 5077.5C700.205 5076.77 700.345 5076.14 700.625 5075.59C700.912 5075.04 701.295 5074.62 701.775 5074.33C702.255 5074.04 702.782 5073.89 703.355 5073.89C703.928 5073.89 704.452 5074.04 704.925 5074.33C705.405 5074.62 705.785 5075.04 706.065 5075.59C706.352 5076.14 706.495 5076.77 706.495 5077.5C706.495 5078.23 706.352 5078.86 706.065 5079.41C705.785 5079.96 705.405 5080.38 704.925 5080.67C704.452 5080.96 703.928 5081.11 703.355 5081.11ZM703.355 5080.43C703.795 5080.43 704.198 5080.32 704.565 5080.1C704.932 5079.88 705.225 5079.55 705.445 5079.11C705.665 5078.66 705.775 5078.13 705.775 5077.5C705.775 5076.87 705.665 5076.34 705.445 5075.9C705.225 5075.45 704.932 5075.12 704.565 5074.9C704.198 5074.68 703.795 5074.57 703.355 5074.57C702.908 5074.57 702.502 5074.68 702.135 5074.9C701.768 5075.12 701.475 5075.45 701.255 5075.9C701.042 5076.34 700.935 5076.87 700.935 5077.5C700.935 5078.13 701.042 5078.66 701.255 5079.11C701.475 5079.55 701.768 5079.88 702.135 5080.1C702.502 5080.32 702.908 5080.43 703.355 5080.43Z" fill="#8D8B84"/>
<path d="M241.96 5207.1C241.48 5207.1 241.047 5206.99 240.66 5206.76C240.28 5206.53 239.98 5206.22 239.76 5205.83C239.54 5205.44 239.43 5204.99 239.43 5204.5C239.43 5204.01 239.54 5203.57 239.76 5203.18C239.98 5202.78 240.28 5202.47 240.66 5202.25C241.047 5202.02 241.48 5201.91 241.96 5201.91C242.333 5201.91 242.68 5201.98 243 5202.13C243.327 5202.28 243.603 5202.49 243.83 5202.76C244.063 5203.03 244.223 5203.35 244.31 5203.7H243.64C243.513 5203.33 243.297 5203.04 242.99 5202.83C242.69 5202.62 242.347 5202.51 241.96 5202.51C241.6 5202.51 241.277 5202.6 240.99 5202.77C240.71 5202.94 240.49 5203.17 240.33 5203.47C240.177 5203.77 240.1 5204.11 240.1 5204.5C240.1 5204.89 240.177 5205.23 240.33 5205.54C240.49 5205.84 240.71 5206.07 240.99 5206.24C241.277 5206.41 241.6 5206.49 241.96 5206.49C242.347 5206.49 242.69 5206.38 242.99 5206.17C243.297 5205.96 243.513 5205.67 243.64 5205.3H244.31C244.223 5205.66 244.063 5205.98 243.83 5206.25C243.603 5206.52 243.327 5206.73 243 5206.88C242.68 5207.03 242.333 5207.1 241.96 5207.1ZM247.577 5207V5206.12L250.467 5203.89C250.78 5203.64 251.027 5203.41 251.207 5203.22C251.394 5203.02 251.527 5202.82 251.607 5202.63C251.694 5202.43 251.737 5202.22 251.737 5201.99C251.737 5201.56 251.594 5201.21 251.307 5200.96C251.027 5200.7 250.654 5200.57 250.187 5200.57C249.654 5200.57 249.237 5200.71 248.937 5201C248.644 5201.29 248.477 5201.66 248.437 5202.11H247.717C247.73 5201.71 247.827 5201.34 248.007 5201.01C248.194 5200.68 248.467 5200.41 248.827 5200.2C249.194 5199.99 249.647 5199.89 250.187 5199.89C250.647 5199.89 251.047 5199.98 251.387 5200.16C251.727 5200.33 251.99 5200.58 252.177 5200.89C252.364 5201.2 252.457 5201.56 252.457 5201.96C252.457 5202.27 252.404 5202.56 252.297 5202.81C252.197 5203.06 252.034 5203.32 251.807 5203.58C251.58 5203.83 251.267 5204.11 250.867 5204.41L248.487 5206.27V5206.32H252.627V5207H247.577Z" fill="#8D8B84"/>
<path d="M682.329 5501V5494H682.989V5496.85H683.039C683.206 5496.56 683.439 5496.34 683.739 5496.17C684.046 5496 684.396 5495.91 684.789 5495.91C685.189 5495.91 685.533 5495.99 685.819 5496.16C686.113 5496.32 686.336 5496.56 686.489 5496.88C686.643 5497.2 686.719 5497.58 686.719 5498.03V5501H686.059V5498.14C686.059 5497.62 685.939 5497.22 685.699 5496.94C685.459 5496.65 685.109 5496.51 684.649 5496.51C684.336 5496.51 684.053 5496.58 683.799 5496.73C683.546 5496.88 683.346 5497.08 683.199 5497.35C683.059 5497.61 682.989 5497.91 682.989 5498.26V5501H682.329ZM692.931 5501.11C692.405 5501.11 691.945 5501.02 691.551 5500.84C691.158 5500.66 690.851 5500.41 690.631 5500.1C690.411 5499.79 690.285 5499.44 690.251 5499.05H691.001C691.041 5499.33 691.141 5499.57 691.301 5499.78C691.468 5499.99 691.688 5500.15 691.961 5500.26C692.241 5500.37 692.565 5500.43 692.931 5500.43C693.318 5500.43 693.655 5500.36 693.941 5500.21C694.228 5500.06 694.448 5499.85 694.601 5499.58C694.755 5499.31 694.831 5499.01 694.831 5498.68C694.831 5498.37 694.755 5498.09 694.601 5497.84C694.455 5497.58 694.241 5497.38 693.961 5497.23C693.688 5497.08 693.368 5497.01 693.001 5497.01C692.648 5497.01 692.325 5497.07 692.031 5497.2C691.738 5497.32 691.511 5497.49 691.351 5497.72H690.671L691.211 5494H695.091V5494.68H691.751L691.421 5496.9H691.471C691.671 5496.73 691.908 5496.59 692.181 5496.5C692.461 5496.41 692.765 5496.36 693.091 5496.36C693.578 5496.36 694.008 5496.46 694.381 5496.67C694.755 5496.88 695.041 5497.16 695.241 5497.51C695.448 5497.86 695.551 5498.25 695.551 5498.68C695.551 5499.15 695.445 5499.57 695.231 5499.94C695.025 5500.31 694.725 5500.59 694.331 5500.8C693.938 5501.01 693.471 5501.11 692.931 5501.11ZM696.346 5501V5500.12L699.236 5497.89C699.55 5497.64 699.796 5497.41 699.976 5497.22C700.163 5497.02 700.296 5496.82 700.376 5496.63C700.463 5496.43 700.506 5496.22 700.506 5495.99C700.506 5495.56 700.363 5495.21 700.076 5494.96C699.796 5494.7 699.423 5494.57 698.956 5494.57C698.423 5494.57 698.006 5494.71 697.706 5495C697.413 5495.29 697.246 5495.66 697.206 5496.11H696.486C696.5 5495.71 696.596 5495.34 696.776 5495.01C696.963 5494.68 697.236 5494.41 697.596 5494.2C697.963 5493.99 698.416 5493.89 698.956 5493.89C699.416 5493.89 699.816 5493.98 700.156 5494.16C700.496 5494.33 700.76 5494.58 700.946 5494.89C701.133 5495.2 701.226 5495.56 701.226 5495.96C701.226 5496.27 701.173 5496.56 701.066 5496.81C700.966 5497.06 700.803 5497.32 700.576 5497.58C700.35 5497.83 700.036 5498.11 699.636 5498.41L697.256 5500.27V5500.32H701.396V5501H696.346ZM705.355 5501.11C704.782 5501.11 704.255 5500.96 703.775 5500.67C703.295 5500.38 702.912 5499.96 702.625 5499.41C702.345 5498.86 702.205 5498.23 702.205 5497.5C702.205 5496.77 702.345 5496.14 702.625 5495.59C702.912 5495.04 703.295 5494.62 703.775 5494.33C704.255 5494.04 704.782 5493.89 705.355 5493.89C705.928 5493.89 706.452 5494.04 706.925 5494.33C707.405 5494.62 707.785 5495.04 708.065 5495.59C708.352 5496.14 708.495 5496.77 708.495 5497.5C708.495 5498.23 708.352 5498.86 708.065 5499.41C707.785 5499.96 707.405 5500.38 706.925 5500.67C706.452 5500.96 705.928 5501.11 705.355 5501.11ZM705.355 5500.43C705.795 5500.43 706.198 5500.32 706.565 5500.1C706.932 5499.88 707.225 5499.55 707.445 5499.11C707.665 5498.66 707.775 5498.13 707.775 5497.5C707.775 5496.87 707.665 5496.34 707.445 5495.9C707.225 5495.45 706.932 5495.12 706.565 5494.9C706.198 5494.68 705.795 5494.57 705.355 5494.57C704.908 5494.57 704.502 5494.68 704.135 5494.9C703.768 5495.12 703.475 5495.45 703.255 5495.9C703.042 5496.34 702.935 5496.87 702.935 5497.5C702.935 5498.13 703.042 5498.66 703.255 5499.11C703.475 5499.55 703.768 5499.88 704.135 5500.1C704.502 5500.32 704.908 5500.43 705.355 5500.43Z" fill="#8D8B84"/>
<path d="M720.96 6012.1C720.48 6012.1 720.047 6011.99 719.66 6011.76C719.28 6011.53 718.98 6011.22 718.76 6010.83C718.54 6010.44 718.43 6009.99 718.43 6009.5C718.43 6009.01 718.54 6008.57 718.76 6008.18C718.98 6007.78 719.28 6007.47 719.66 6007.25C720.047 6007.02 720.48 6006.91 720.96 6006.91C721.333 6006.91 721.68 6006.98 722 6007.13C722.327 6007.28 722.603 6007.49 722.83 6007.76C723.063 6008.03 723.223 6008.35 723.31 6008.7H722.64C722.513 6008.33 722.297 6008.04 721.99 6007.83C721.69 6007.62 721.347 6007.51 720.96 6007.51C720.6 6007.51 720.277 6007.6 719.99 6007.77C719.71 6007.94 719.49 6008.17 719.33 6008.47C719.177 6008.77 719.1 6009.11 719.1 6009.5C719.1 6009.89 719.177 6010.23 719.33 6010.54C719.49 6010.84 719.71 6011.07 719.99 6011.24C720.277 6011.41 720.6 6011.49 720.96 6011.49C721.347 6011.49 721.69 6011.38 721.99 6011.17C722.297 6010.96 722.513 6010.67 722.64 6010.3H723.31C723.223 6010.66 723.063 6010.98 722.83 6011.25C722.603 6011.52 722.327 6011.73 722 6011.88C721.68 6012.03 721.333 6012.1 720.96 6012.1ZM729.097 6012.11C728.55 6012.11 728.077 6012.02 727.677 6011.85C727.284 6011.68 726.977 6011.44 726.757 6011.13C726.537 6010.82 726.41 6010.46 726.377 6010.05H727.127C727.174 6010.5 727.367 6010.84 727.707 6011.08C728.047 6011.31 728.51 6011.43 729.097 6011.43C729.49 6011.43 729.824 6011.37 730.097 6011.24C730.377 6011.11 730.587 6010.93 730.727 6010.7C730.874 6010.47 730.947 6010.22 730.947 6009.93C730.947 6009.63 730.874 6009.37 730.727 6009.15C730.58 6008.92 730.367 6008.75 730.087 6008.64C729.814 6008.53 729.487 6008.47 729.107 6008.47H727.867V6007.85L730.387 6005.73V6005.68H726.917V6005H731.237V6005.81L728.877 6007.81V6008.07L728.697 6007.86H729.227C729.714 6007.86 730.14 6007.94 730.507 6008.11C730.88 6008.28 731.167 6008.52 731.367 6008.83C731.574 6009.14 731.677 6009.51 731.677 6009.93C731.677 6010.32 731.577 6010.69 731.377 6011.02C731.177 6011.35 730.88 6011.62 730.487 6011.82C730.1 6012.01 729.637 6012.11 729.097 6012.11Z" fill="#8D8B84"/>
<path d="M240.76 6174L239.3 6169.01H239.98L241.19 6173.28H241.24L242.42 6169.01H243.25L244.43 6173.28H244.48L245.7 6169.01H246.37L244.9 6174H244.04L242.85 6169.73H242.8L241.62 6174H240.76ZM250.754 6174V6167.55L251.014 6167.66L249.254 6169.04V6168.23L250.804 6167H251.454V6174H250.754ZM252.818 6172.44V6171.71L255.288 6167H256.068L253.598 6171.71V6171.76H258.468V6172.44H252.818ZM256.768 6174V6169.41H257.468V6174H256.768ZM258.98 6172.44V6171.71L261.45 6167H262.23L259.76 6171.71V6171.76H264.63V6172.44H258.98ZM262.93 6174V6169.41H263.63V6174H262.93ZM268.324 6174.11C267.75 6174.11 267.224 6173.96 266.744 6173.67C266.264 6173.38 265.88 6172.96 265.594 6172.41C265.314 6171.86 265.174 6171.23 265.174 6170.5C265.174 6169.77 265.314 6169.14 265.594 6168.59C265.88 6168.04 266.264 6167.62 266.744 6167.33C267.224 6167.04 267.75 6166.89 268.324 6166.89C268.897 6166.89 269.42 6167.04 269.894 6167.33C270.374 6167.62 270.754 6168.04 271.034 6168.59C271.32 6169.14 271.464 6169.77 271.464 6170.5C271.464 6171.23 271.32 6171.86 271.034 6172.41C270.754 6172.96 270.374 6173.38 269.894 6173.67C269.42 6173.96 268.897 6174.11 268.324 6174.11ZM268.324 6173.43C268.764 6173.43 269.167 6173.32 269.534 6173.1C269.9 6172.88 270.194 6172.55 270.414 6172.11C270.634 6171.66 270.744 6171.13 270.744 6170.5C270.744 6169.87 270.634 6169.34 270.414 6168.9C270.194 6168.45 269.9 6168.12 269.534 6167.9C269.167 6167.68 268.764 6167.57 268.324 6167.57C267.877 6167.57 267.47 6167.68 267.104 6167.9C266.737 6168.12 266.444 6168.45 266.224 6168.9C266.01 6169.34 265.904 6169.87 265.904 6170.5C265.904 6171.13 266.01 6171.66 266.224 6172.11C266.444 6172.55 266.737 6172.88 267.104 6173.1C267.47 6173.32 267.877 6173.43 268.324 6173.43Z" fill="#8D8B84"/>
<path d="M1008.75 6618V6613.01H1009.38V6613.86H1009.43C1009.58 6613.57 1009.78 6613.34 1010.04 6613.19C1010.31 6613.04 1010.61 6612.96 1010.96 6612.96H1011.66V6613.59H1010.96C1010.49 6613.59 1010.11 6613.75 1009.83 6614.07C1009.55 6614.39 1009.41 6614.81 1009.41 6615.33V6618H1008.75ZM1014.33 6616.44V6615.71L1016.8 6611H1017.58L1015.11 6615.71V6615.76H1019.98V6616.44H1014.33ZM1018.28 6618V6613.41H1018.98V6618H1018.28ZM1020.49 6616.44V6615.71L1022.96 6611H1023.74L1021.27 6615.71V6615.76H1026.14V6616.44H1020.49ZM1024.44 6618V6613.41H1025.14V6618H1024.44ZM1029.83 6618.11C1029.26 6618.11 1028.73 6617.96 1028.25 6617.67C1027.77 6617.38 1027.39 6616.96 1027.1 6616.41C1026.82 6615.86 1026.68 6615.23 1026.68 6614.5C1026.68 6613.77 1026.82 6613.14 1027.1 6612.59C1027.39 6612.04 1027.77 6611.62 1028.25 6611.33C1028.73 6611.04 1029.26 6610.89 1029.83 6610.89C1030.41 6610.89 1030.93 6611.04 1031.4 6611.33C1031.88 6611.62 1032.26 6612.04 1032.54 6612.59C1032.83 6613.14 1032.97 6613.77 1032.97 6614.5C1032.97 6615.23 1032.83 6615.86 1032.54 6616.41C1032.26 6616.96 1031.88 6617.38 1031.4 6617.67C1030.93 6617.96 1030.41 6618.11 1029.83 6618.11ZM1029.83 6617.43C1030.27 6617.43 1030.68 6617.32 1031.04 6617.1C1031.41 6616.88 1031.7 6616.55 1031.92 6616.11C1032.14 6615.66 1032.25 6615.13 1032.25 6614.5C1032.25 6613.87 1032.14 6613.34 1031.92 6612.9C1031.7 6612.45 1031.41 6612.12 1031.04 6611.9C1030.68 6611.68 1030.27 6611.57 1029.83 6611.57C1029.39 6611.57 1028.98 6611.68 1028.61 6611.9C1028.25 6612.12 1027.95 6612.45 1027.73 6612.9C1027.52 6613.34 1027.41 6613.87 1027.41 6614.5C1027.41 6615.13 1027.52 6615.66 1027.73 6616.11C1027.95 6616.55 1028.25 6616.88 1028.61 6617.1C1028.98 6617.32 1029.39 6617.43 1029.83 6617.43Z" fill="#8D8B84"/>
<path d="M588.96 7191.1C588.48 7191.1 588.047 7190.99 587.66 7190.76C587.28 7190.53 586.98 7190.22 586.76 7189.83C586.54 7189.44 586.43 7188.99 586.43 7188.5C586.43 7188.01 586.54 7187.57 586.76 7187.18C586.98 7186.78 587.28 7186.47 587.66 7186.25C588.047 7186.02 588.48 7185.91 588.96 7185.91C589.333 7185.91 589.68 7185.98 590 7186.13C590.327 7186.28 590.603 7186.49 590.83 7186.76C591.063 7187.03 591.223 7187.35 591.31 7187.7H590.64C590.513 7187.33 590.297 7187.04 589.99 7186.83C589.69 7186.62 589.347 7186.51 588.96 7186.51C588.6 7186.51 588.277 7186.6 587.99 7186.77C587.71 7186.94 587.49 7187.17 587.33 7187.47C587.177 7187.77 587.1 7188.11 587.1 7188.5C587.1 7188.89 587.177 7189.23 587.33 7189.54C587.49 7189.84 587.71 7190.07 587.99 7190.24C588.277 7190.41 588.6 7190.49 588.96 7190.49C589.347 7190.49 589.69 7190.38 589.99 7190.17C590.297 7189.96 590.513 7189.67 590.64 7189.3H591.31C591.223 7189.66 591.063 7189.98 590.83 7190.25C590.603 7190.52 590.327 7190.73 590 7190.88C589.68 7191.03 589.333 7191.1 588.96 7191.1ZM597.097 7191.11C596.55 7191.11 596.077 7191.02 595.677 7190.85C595.284 7190.68 594.977 7190.44 594.757 7190.13C594.537 7189.82 594.41 7189.46 594.377 7189.05H595.127C595.174 7189.5 595.367 7189.84 595.707 7190.08C596.047 7190.31 596.51 7190.43 597.097 7190.43C597.49 7190.43 597.824 7190.37 598.097 7190.24C598.377 7190.11 598.587 7189.93 598.727 7189.7C598.874 7189.47 598.947 7189.22 598.947 7188.93C598.947 7188.63 598.874 7188.37 598.727 7188.15C598.58 7187.92 598.367 7187.75 598.087 7187.64C597.814 7187.53 597.487 7187.47 597.107 7187.47H595.867V7186.85L598.387 7184.73V7184.68H594.917V7184H599.237V7184.81L596.877 7186.81V7187.07L596.697 7186.86H597.227C597.714 7186.86 598.14 7186.94 598.507 7187.11C598.88 7187.28 599.167 7187.52 599.367 7187.83C599.574 7188.14 599.677 7188.51 599.677 7188.93C599.677 7189.32 599.577 7189.69 599.377 7190.02C599.177 7190.35 598.88 7190.62 598.487 7190.82C598.1 7191.01 597.637 7191.11 597.097 7191.11Z" fill="#8D8B84"/>
<path d="M602.96 7664V7657H605.17C605.857 7657 606.47 7657.15 607.01 7657.45C607.557 7657.74 607.98 7658.16 608.28 7658.69C608.587 7659.22 608.74 7659.83 608.74 7660.5C608.74 7661.17 608.587 7661.78 608.28 7662.31C607.98 7662.84 607.557 7663.26 607.01 7663.56C606.47 7663.85 605.857 7664 605.17 7664H602.96ZM605.17 7663.32C605.73 7663.32 606.223 7663.2 606.65 7662.97C607.083 7662.74 607.42 7662.41 607.66 7661.98C607.9 7661.55 608.02 7661.05 608.02 7660.5C608.02 7659.95 607.9 7659.46 607.66 7659.03C607.42 7658.6 607.083 7658.26 606.65 7658.03C606.223 7657.8 605.73 7657.68 605.17 7657.68H603.66V7663.32H605.17ZM614.379 7664.11C613.839 7664.11 613.365 7664 612.959 7663.79C612.552 7663.57 612.235 7663.28 612.009 7662.91C611.789 7662.54 611.679 7662.12 611.679 7661.67C611.679 7661.36 611.742 7661.05 611.869 7660.73C611.995 7660.41 612.185 7660.09 612.439 7659.76L614.559 7657H615.419L613.319 7659.68L613.099 7659.5C613.279 7659.42 613.475 7659.36 613.689 7659.31C613.909 7659.26 614.139 7659.24 614.379 7659.24C614.919 7659.24 615.392 7659.35 615.799 7659.56C616.212 7659.77 616.529 7660.07 616.749 7660.44C616.969 7660.81 617.079 7661.22 617.079 7661.67C617.079 7662.12 616.969 7662.54 616.749 7662.91C616.529 7663.28 616.212 7663.57 615.799 7663.79C615.392 7664 614.919 7664.11 614.379 7664.11ZM614.379 7663.46C614.785 7663.46 615.135 7663.38 615.429 7663.23C615.729 7663.07 615.959 7662.86 616.119 7662.59C616.279 7662.32 616.359 7662.01 616.359 7661.67C616.359 7661.33 616.279 7661.03 616.119 7660.76C615.959 7660.49 615.729 7660.27 615.429 7660.12C615.135 7659.97 614.785 7659.89 614.379 7659.89C613.972 7659.89 613.619 7659.97 613.319 7660.12C613.025 7660.27 612.799 7660.49 612.639 7660.76C612.485 7661.03 612.409 7661.33 612.409 7661.67C612.409 7662.01 612.485 7662.32 612.639 7662.59C612.799 7662.86 613.025 7663.07 613.319 7663.23C613.619 7663.38 613.972 7663.46 614.379 7663.46ZM620.443 7664.11C619.917 7664.11 619.457 7664.02 619.063 7663.84C618.67 7663.66 618.363 7663.41 618.143 7663.1C617.923 7662.79 617.797 7662.44 617.763 7662.05H618.513C618.553 7662.33 618.653 7662.57 618.813 7662.78C618.98 7662.99 619.2 7663.15 619.473 7663.26C619.753 7663.37 620.077 7663.43 620.443 7663.43C620.83 7663.43 621.167 7663.36 621.453 7663.21C621.74 7663.06 621.96 7662.85 622.113 7662.58C622.267 7662.31 622.343 7662.01 622.343 7661.68C622.343 7661.37 622.267 7661.09 622.113 7660.84C621.967 7660.58 621.753 7660.38 621.473 7660.23C621.2 7660.08 620.88 7660.01 620.513 7660.01C620.16 7660.01 619.837 7660.07 619.543 7660.2C619.25 7660.32 619.023 7660.49 618.863 7660.72H618.183L618.723 7657H622.603V7657.68H619.263L618.933 7659.9H618.983C619.183 7659.73 619.42 7659.59 619.693 7659.5C619.973 7659.41 620.277 7659.36 620.603 7659.36C621.09 7659.36 621.52 7659.46 621.893 7659.67C622.267 7659.88 622.553 7660.16 622.753 7660.51C622.96 7660.86 623.063 7661.25 623.063 7661.68C623.063 7662.15 622.957 7662.57 622.743 7662.94C622.537 7663.31 622.237 7663.59 621.843 7663.8C621.45 7664.01 620.983 7664.11 620.443 7664.11ZM623.903 7662.44V7661.71L626.373 7657H627.153L624.683 7661.71V7661.76H629.553V7662.44H623.903ZM627.853 7664V7659.41H628.553V7664H627.853Z" fill="#8D8B84"/>
<path d="M603.8 8097V8090H604.46V8092.85H604.51C604.677 8092.56 604.91 8092.34 605.21 8092.17C605.517 8092 605.867 8091.91 606.26 8091.91C606.66 8091.91 607.003 8091.99 607.29 8092.16C607.583 8092.32 607.807 8092.56 607.96 8092.88C608.113 8093.2 608.19 8093.58 608.19 8094.03V8097H607.53V8094.14C607.53 8093.62 607.41 8093.22 607.17 8092.94C606.93 8092.65 606.58 8092.51 606.12 8092.51C605.807 8092.51 605.523 8092.58 605.27 8092.73C605.017 8092.88 604.817 8093.08 604.67 8093.35C604.53 8093.61 604.46 8093.91 604.46 8094.26V8097H603.8ZM611.622 8095.44V8094.71L614.092 8090H614.872L612.402 8094.71V8094.76H617.272V8095.44H611.622ZM615.572 8097V8092.41H616.272V8097H615.572ZM620.476 8097.11C619.95 8097.11 619.49 8097.02 619.096 8096.84C618.703 8096.66 618.396 8096.41 618.176 8096.1C617.956 8095.79 617.83 8095.44 617.796 8095.05H618.546C618.586 8095.33 618.686 8095.57 618.846 8095.78C619.013 8095.99 619.233 8096.15 619.506 8096.26C619.786 8096.37 620.11 8096.43 620.476 8096.43C620.863 8096.43 621.2 8096.36 621.486 8096.21C621.773 8096.06 621.993 8095.85 622.146 8095.58C622.3 8095.31 622.376 8095.01 622.376 8094.68C622.376 8094.37 622.3 8094.09 622.146 8093.84C622 8093.58 621.786 8093.38 621.506 8093.23C621.233 8093.08 620.913 8093.01 620.546 8093.01C620.193 8093.01 619.87 8093.07 619.576 8093.2C619.283 8093.32 619.056 8093.49 618.896 8093.72H618.216L618.756 8090H622.636V8090.68H619.296L618.966 8092.9H619.016C619.216 8092.73 619.453 8092.59 619.726 8092.5C620.006 8092.41 620.31 8092.36 620.636 8092.36C621.123 8092.36 621.553 8092.46 621.926 8092.67C622.3 8092.88 622.586 8093.16 622.786 8093.51C622.993 8093.86 623.096 8094.25 623.096 8094.68C623.096 8095.15 622.99 8095.57 622.776 8095.94C622.57 8096.31 622.27 8096.59 621.876 8096.8C621.483 8097.01 621.016 8097.11 620.476 8097.11ZM623.891 8097V8096.12L626.781 8093.89C627.095 8093.64 627.341 8093.41 627.521 8093.22C627.708 8093.02 627.841 8092.82 627.921 8092.63C628.008 8092.43 628.051 8092.22 628.051 8091.99C628.051 8091.56 627.908 8091.21 627.621 8090.96C627.341 8090.7 626.968 8090.57 626.501 8090.57C625.968 8090.57 625.551 8090.71 625.251 8091C624.958 8091.29 624.791 8091.66 624.751 8092.11H624.031C624.045 8091.71 624.141 8091.34 624.321 8091.01C624.508 8090.68 624.781 8090.41 625.141 8090.2C625.508 8089.99 625.961 8089.89 626.501 8089.89C626.961 8089.89 627.361 8089.98 627.701 8090.16C628.041 8090.33 628.305 8090.58 628.491 8090.89C628.678 8091.2 628.771 8091.56 628.771 8091.96C628.771 8092.27 628.718 8092.56 628.611 8092.81C628.511 8093.06 628.348 8093.32 628.121 8093.58C627.895 8093.83 627.581 8094.11 627.181 8094.41L624.801 8096.27V8096.32H628.941V8097H623.891Z" fill="#8D8B84"/>
<path d="M159.8 8205V8198H160.46V8200.85H160.51C160.677 8200.56 160.91 8200.34 161.21 8200.17C161.517 8200 161.867 8199.91 162.26 8199.91C162.66 8199.91 163.003 8199.99 163.29 8200.16C163.583 8200.32 163.807 8200.56 163.96 8200.88C164.113 8201.2 164.19 8201.58 164.19 8202.03V8205H163.53V8202.14C163.53 8201.62 163.41 8201.22 163.17 8200.94C162.93 8200.65 162.58 8200.51 162.12 8200.51C161.807 8200.51 161.523 8200.58 161.27 8200.73C161.017 8200.88 160.817 8201.08 160.67 8201.35C160.53 8201.61 160.46 8201.91 160.46 8202.26V8205H159.8ZM169.172 8205V8198.55L169.432 8198.66L167.672 8200.04V8199.23L169.222 8198H169.872V8205H169.172ZM174.505 8205.11C173.932 8205.11 173.405 8204.96 172.925 8204.67C172.445 8204.38 172.062 8203.96 171.775 8203.41C171.495 8202.86 171.355 8202.23 171.355 8201.5C171.355 8200.77 171.495 8200.14 171.775 8199.59C172.062 8199.04 172.445 8198.62 172.925 8198.33C173.405 8198.04 173.932 8197.89 174.505 8197.89C175.079 8197.89 175.602 8198.04 176.075 8198.33C176.555 8198.62 176.935 8199.04 177.215 8199.59C177.502 8200.14 177.645 8200.77 177.645 8201.5C177.645 8202.23 177.502 8202.86 177.215 8203.41C176.935 8203.96 176.555 8204.38 176.075 8204.67C175.602 8204.96 175.079 8205.11 174.505 8205.11ZM174.505 8204.43C174.945 8204.43 175.349 8204.32 175.715 8204.1C176.082 8203.88 176.375 8203.55 176.595 8203.11C176.815 8202.66 176.925 8202.13 176.925 8201.5C176.925 8200.87 176.815 8200.34 176.595 8199.9C176.375 8199.45 176.082 8199.12 175.715 8198.9C175.349 8198.68 174.945 8198.57 174.505 8198.57C174.059 8198.57 173.652 8198.68 173.285 8198.9C172.919 8199.12 172.625 8199.45 172.405 8199.9C172.192 8200.34 172.085 8200.87 172.085 8201.5C172.085 8202.13 172.192 8202.66 172.405 8203.11C172.625 8203.55 172.919 8203.88 173.285 8204.1C173.652 8204.32 174.059 8204.43 174.505 8204.43ZM180.22 8205L182.31 8202.32L182.54 8202.5C182.354 8202.58 182.15 8202.64 181.93 8202.69C181.717 8202.74 181.49 8202.76 181.25 8202.76C180.71 8202.76 180.237 8202.65 179.83 8202.44C179.424 8202.23 179.107 8201.94 178.88 8201.57C178.66 8201.2 178.55 8200.78 178.55 8200.33C178.55 8199.88 178.66 8199.47 178.88 8199.1C179.107 8198.73 179.424 8198.43 179.83 8198.22C180.237 8198 180.71 8197.89 181.25 8197.89C181.79 8197.89 182.264 8198 182.67 8198.22C183.084 8198.43 183.4 8198.73 183.62 8199.1C183.84 8199.47 183.95 8199.88 183.95 8200.33C183.95 8200.64 183.887 8200.95 183.76 8201.27C183.634 8201.59 183.447 8201.91 183.2 8202.24L181.08 8205H180.22ZM181.25 8202.11C181.657 8202.11 182.007 8202.03 182.3 8201.88C182.6 8201.73 182.83 8201.52 182.99 8201.25C183.15 8200.98 183.23 8200.67 183.23 8200.33C183.23 8199.99 183.15 8199.69 182.99 8199.42C182.83 8199.15 182.6 8198.93 182.3 8198.78C182.007 8198.62 181.657 8198.54 181.25 8198.54C180.844 8198.54 180.49 8198.62 180.19 8198.78C179.897 8198.93 179.67 8199.15 179.51 8199.42C179.357 8199.69 179.28 8199.99 179.28 8200.33C179.28 8200.67 179.357 8200.98 179.51 8201.25C179.67 8201.52 179.897 8201.73 180.19 8201.88C180.49 8202.03 180.844 8202.11 181.25 8202.11ZM187.365 8205.11C186.838 8205.11 186.378 8205.02 185.985 8204.84C185.592 8204.66 185.285 8204.41 185.065 8204.1C184.845 8203.79 184.718 8203.44 184.685 8203.05H185.435C185.475 8203.33 185.575 8203.57 185.735 8203.78C185.902 8203.99 186.122 8204.15 186.395 8204.26C186.675 8204.37 186.998 8204.43 187.365 8204.43C187.752 8204.43 188.088 8204.36 188.375 8204.21C188.662 8204.06 188.882 8203.85 189.035 8203.58C189.188 8203.31 189.265 8203.01 189.265 8202.68C189.265 8202.37 189.188 8202.09 189.035 8201.84C188.888 8201.58 188.675 8201.38 188.395 8201.23C188.122 8201.08 187.802 8201.01 187.435 8201.01C187.082 8201.01 186.758 8201.07 186.465 8201.2C186.172 8201.32 185.945 8201.49 185.785 8201.72H185.105L185.645 8198H189.525V8198.68H186.185L185.855 8200.9H185.905C186.105 8200.73 186.342 8200.59 186.615 8200.5C186.895 8200.41 187.198 8200.36 187.525 8200.36C188.012 8200.36 188.442 8200.46 188.815 8200.67C189.188 8200.88 189.475 8201.16 189.675 8201.51C189.882 8201.86 189.985 8202.25 189.985 8202.68C189.985 8203.15 189.878 8203.57 189.665 8203.94C189.458 8204.31 189.158 8204.59 188.765 8204.8C188.372 8205.01 187.905 8205.11 187.365 8205.11Z" fill="#8D8B84"/>
<path d="M1153.75 8313.9V8307.01H1154.38V8307.93H1154.43C1154.62 8307.62 1154.87 8307.37 1155.2 8307.19C1155.53 8307 1155.88 8306.91 1156.26 8306.91C1156.71 8306.91 1157.11 8307.02 1157.46 8307.24C1157.82 8307.45 1158.1 8307.76 1158.3 8308.15C1158.51 8308.54 1158.61 8308.99 1158.61 8309.5C1158.61 8310.01 1158.51 8310.46 1158.3 8310.86C1158.1 8311.25 1157.82 8311.56 1157.46 8311.78C1157.11 8311.99 1156.71 8312.1 1156.26 8312.1C1155.89 8312.1 1155.54 8312.01 1155.21 8311.83C1154.89 8311.65 1154.64 8311.41 1154.46 8311.1H1154.41V8313.9H1153.75ZM1156.14 8311.49C1156.5 8311.49 1156.81 8311.41 1157.08 8311.25C1157.35 8311.09 1157.56 8310.86 1157.71 8310.56C1157.86 8310.26 1157.93 8309.91 1157.93 8309.5C1157.93 8309.1 1157.86 8308.75 1157.71 8308.45C1157.56 8308.15 1157.35 8307.92 1157.08 8307.76C1156.81 8307.59 1156.5 8307.51 1156.14 8307.51C1155.8 8307.51 1155.5 8307.59 1155.23 8307.76C1154.97 8307.93 1154.77 8308.16 1154.62 8308.46C1154.48 8308.76 1154.41 8309.11 1154.41 8309.5C1154.41 8309.89 1154.48 8310.24 1154.62 8310.55C1154.77 8310.85 1154.97 8311.08 1155.23 8311.25C1155.5 8311.41 1155.8 8311.49 1156.14 8311.49ZM1161.72 8312V8311.12L1164.61 8308.89C1164.93 8308.64 1165.17 8308.41 1165.35 8308.22C1165.54 8308.02 1165.67 8307.82 1165.75 8307.63C1165.84 8307.43 1165.88 8307.22 1165.88 8306.99C1165.88 8306.56 1165.74 8306.21 1165.45 8305.96C1165.17 8305.7 1164.8 8305.57 1164.33 8305.57C1163.8 8305.57 1163.38 8305.71 1163.08 8306C1162.79 8306.29 1162.62 8306.66 1162.58 8307.11H1161.86C1161.88 8306.71 1161.97 8306.34 1162.15 8306.01C1162.34 8305.68 1162.61 8305.41 1162.97 8305.2C1163.34 8304.99 1163.79 8304.89 1164.33 8304.89C1164.79 8304.89 1165.19 8304.98 1165.53 8305.16C1165.87 8305.33 1166.14 8305.58 1166.32 8305.89C1166.51 8306.2 1166.6 8306.56 1166.6 8306.96C1166.6 8307.27 1166.55 8307.56 1166.44 8307.81C1166.34 8308.06 1166.18 8308.32 1165.95 8308.58C1165.73 8308.83 1165.41 8309.11 1165.01 8309.41L1162.63 8311.27V8311.32H1166.77V8312H1161.72ZM1170.13 8312.11C1169.59 8312.11 1169.12 8312 1168.71 8311.79C1168.31 8311.57 1167.99 8311.28 1167.76 8310.91C1167.54 8310.54 1167.43 8310.12 1167.43 8309.67C1167.43 8309.36 1167.5 8309.05 1167.62 8308.73C1167.75 8308.41 1167.94 8308.09 1168.19 8307.76L1170.31 8305H1171.17L1169.07 8307.68L1168.85 8307.5C1169.03 8307.42 1169.23 8307.36 1169.44 8307.31C1169.66 8307.26 1169.89 8307.24 1170.13 8307.24C1170.67 8307.24 1171.15 8307.35 1171.55 8307.56C1171.97 8307.77 1172.28 8308.07 1172.5 8308.44C1172.72 8308.81 1172.83 8309.22 1172.83 8309.67C1172.83 8310.12 1172.72 8310.54 1172.5 8310.91C1172.28 8311.28 1171.97 8311.57 1171.55 8311.79C1171.15 8312 1170.67 8312.11 1170.13 8312.11ZM1170.13 8311.46C1170.54 8311.46 1170.89 8311.38 1171.18 8311.23C1171.48 8311.07 1171.71 8310.86 1171.87 8310.59C1172.03 8310.32 1172.11 8310.01 1172.11 8309.67C1172.11 8309.33 1172.03 8309.03 1171.87 8308.76C1171.71 8308.49 1171.48 8308.27 1171.18 8308.12C1170.89 8307.97 1170.54 8307.89 1170.13 8307.89C1169.73 8307.89 1169.37 8307.97 1169.07 8308.12C1168.78 8308.27 1168.55 8308.49 1168.39 8308.76C1168.24 8309.03 1168.16 8309.33 1168.16 8309.67C1168.16 8310.01 1168.24 8310.32 1168.39 8310.59C1168.55 8310.86 1168.78 8311.07 1169.07 8311.23C1169.37 8311.38 1169.73 8311.46 1170.13 8311.46ZM1176.79 8312.11C1176.21 8312.11 1175.69 8311.96 1175.21 8311.67C1174.73 8311.38 1174.34 8310.96 1174.06 8310.41C1173.78 8309.86 1173.64 8309.23 1173.64 8308.5C1173.64 8307.77 1173.78 8307.14 1174.06 8306.59C1174.34 8306.04 1174.73 8305.62 1175.21 8305.33C1175.69 8305.04 1176.21 8304.89 1176.79 8304.89C1177.36 8304.89 1177.88 8305.04 1178.36 8305.33C1178.84 8305.62 1179.22 8306.04 1179.5 8306.59C1179.78 8307.14 1179.93 8307.77 1179.93 8308.5C1179.93 8309.23 1179.78 8309.86 1179.5 8310.41C1179.22 8310.96 1178.84 8311.38 1178.36 8311.67C1177.88 8311.96 1177.36 8312.11 1176.79 8312.11ZM1176.79 8311.43C1177.23 8311.43 1177.63 8311.32 1178 8311.1C1178.36 8310.88 1178.66 8310.55 1178.88 8310.11C1179.1 8309.66 1179.21 8309.13 1179.21 8308.5C1179.21 8307.87 1179.1 8307.34 1178.88 8306.9C1178.66 8306.45 1178.36 8306.12 1178 8305.9C1177.63 8305.68 1177.23 8305.57 1176.79 8305.57C1176.34 8305.57 1175.93 8305.68 1175.57 8305.9C1175.2 8306.12 1174.91 8306.45 1174.69 8306.9C1174.47 8307.34 1174.37 8307.87 1174.37 8308.5C1174.37 8309.13 1174.47 8309.66 1174.69 8310.11C1174.91 8310.55 1175.2 8310.88 1175.57 8311.1C1175.93 8311.32 1176.34 8311.43 1176.79 8311.43Z" fill="#8D8B84"/>
<path d="M1231.8 8605V8598H1232.46V8600.85H1232.51C1232.68 8600.56 1232.91 8600.34 1233.21 8600.17C1233.52 8600 1233.87 8599.91 1234.26 8599.91C1234.66 8599.91 1235 8599.99 1235.29 8600.16C1235.58 8600.32 1235.81 8600.56 1235.96 8600.88C1236.11 8601.2 1236.19 8601.58 1236.19 8602.03V8605H1235.53V8602.14C1235.53 8601.62 1235.41 8601.22 1235.17 8600.94C1234.93 8600.65 1234.58 8600.51 1234.12 8600.51C1233.81 8600.51 1233.52 8600.58 1233.27 8600.73C1233.02 8600.88 1232.82 8601.08 1232.67 8601.35C1232.53 8601.61 1232.46 8601.91 1232.46 8602.26V8605H1231.8ZM1239.77 8605V8604.12L1242.66 8601.89C1242.98 8601.64 1243.22 8601.41 1243.4 8601.22C1243.59 8601.02 1243.72 8600.82 1243.8 8600.63C1243.89 8600.43 1243.93 8600.22 1243.93 8599.99C1243.93 8599.56 1243.79 8599.21 1243.5 8598.96C1243.22 8598.7 1242.85 8598.57 1242.38 8598.57C1241.85 8598.57 1241.43 8598.71 1241.13 8599C1240.84 8599.29 1240.67 8599.66 1240.63 8600.11H1239.91C1239.93 8599.71 1240.02 8599.34 1240.2 8599.01C1240.39 8598.68 1240.66 8598.41 1241.02 8598.2C1241.39 8597.99 1241.84 8597.89 1242.38 8597.89C1242.84 8597.89 1243.24 8597.98 1243.58 8598.16C1243.92 8598.33 1244.19 8598.58 1244.37 8598.89C1244.56 8599.2 1244.65 8599.56 1244.65 8599.96C1244.65 8600.27 1244.6 8600.56 1244.49 8600.81C1244.39 8601.06 1244.23 8601.32 1244 8601.58C1243.78 8601.83 1243.46 8602.11 1243.06 8602.41L1240.68 8604.27V8604.32H1244.82V8605H1239.77ZM1245.76 8605V8604.12L1248.65 8601.89C1248.96 8601.64 1249.21 8601.41 1249.39 8601.22C1249.58 8601.02 1249.71 8600.82 1249.79 8600.63C1249.88 8600.43 1249.92 8600.22 1249.92 8599.99C1249.92 8599.56 1249.78 8599.21 1249.49 8598.96C1249.21 8598.7 1248.84 8598.57 1248.37 8598.57C1247.84 8598.57 1247.42 8598.71 1247.12 8599C1246.83 8599.29 1246.66 8599.66 1246.62 8600.11H1245.9C1245.91 8599.71 1246.01 8599.34 1246.19 8599.01C1246.38 8598.68 1246.65 8598.41 1247.01 8598.2C1247.38 8597.99 1247.83 8597.89 1248.37 8597.89C1248.83 8597.89 1249.23 8597.98 1249.57 8598.16C1249.91 8598.33 1250.17 8598.58 1250.36 8598.89C1250.55 8599.2 1250.64 8599.56 1250.64 8599.96C1250.64 8600.27 1250.59 8600.56 1250.48 8600.81C1250.38 8601.06 1250.22 8601.32 1249.99 8601.58C1249.76 8601.83 1249.45 8602.11 1249.05 8602.41L1246.67 8604.27V8604.32H1250.81V8605H1245.76ZM1254.77 8605.11C1254.19 8605.11 1253.67 8604.96 1253.19 8604.67C1252.71 8604.38 1252.32 8603.96 1252.04 8603.41C1251.76 8602.86 1251.62 8602.23 1251.62 8601.5C1251.62 8600.77 1251.76 8600.14 1252.04 8599.59C1252.32 8599.04 1252.71 8598.62 1253.19 8598.33C1253.67 8598.04 1254.19 8597.89 1254.77 8597.89C1255.34 8597.89 1255.86 8598.04 1256.34 8598.33C1256.82 8598.62 1257.2 8599.04 1257.48 8599.59C1257.76 8600.14 1257.91 8600.77 1257.91 8601.5C1257.91 8602.23 1257.76 8602.86 1257.48 8603.41C1257.2 8603.96 1256.82 8604.38 1256.34 8604.67C1255.86 8604.96 1255.34 8605.11 1254.77 8605.11ZM1254.77 8604.43C1255.21 8604.43 1255.61 8604.32 1255.98 8604.1C1256.34 8603.88 1256.64 8603.55 1256.86 8603.11C1257.08 8602.66 1257.19 8602.13 1257.19 8601.5C1257.19 8600.87 1257.08 8600.34 1256.86 8599.9C1256.64 8599.45 1256.34 8599.12 1255.98 8598.9C1255.61 8598.68 1255.21 8598.57 1254.77 8598.57C1254.32 8598.57 1253.91 8598.68 1253.55 8598.9C1253.18 8599.12 1252.89 8599.45 1252.67 8599.9C1252.45 8600.34 1252.35 8600.87 1252.35 8601.5C1252.35 8602.13 1252.45 8602.66 1252.67 8603.11C1252.89 8603.55 1253.18 8603.88 1253.55 8604.1C1253.91 8604.32 1254.32 8604.43 1254.77 8604.43Z" fill="#8D8B84"/>
<path d="M159.76 8599L158.3 8594.01H158.98L160.19 8598.28H160.24L161.42 8594.01H162.25L163.43 8598.28H163.48L164.7 8594.01H165.37L163.9 8599H163.04L161.85 8594.73H161.8L160.62 8599H159.76ZM168.354 8599V8598.12L171.244 8595.89C171.558 8595.64 171.804 8595.41 171.984 8595.22C172.171 8595.02 172.304 8594.82 172.384 8594.63C172.471 8594.43 172.514 8594.22 172.514 8593.99C172.514 8593.56 172.371 8593.21 172.084 8592.96C171.804 8592.7 171.431 8592.57 170.964 8592.57C170.431 8592.57 170.014 8592.71 169.714 8593C169.421 8593.29 169.254 8593.66 169.214 8594.11H168.494C168.508 8593.71 168.604 8593.34 168.784 8593.01C168.971 8592.68 169.244 8592.41 169.604 8592.2C169.971 8591.99 170.424 8591.89 170.964 8591.89C171.424 8591.89 171.824 8591.98 172.164 8592.16C172.504 8592.33 172.768 8592.58 172.954 8592.89C173.141 8593.2 173.234 8593.56 173.234 8593.96C173.234 8594.27 173.181 8594.56 173.074 8594.81C172.974 8595.06 172.811 8595.32 172.584 8595.58C172.358 8595.83 172.044 8596.11 171.644 8596.41L169.264 8598.27V8598.32H173.404V8599H168.354ZM175.881 8599L177.971 8596.32L178.201 8596.5C178.014 8596.58 177.811 8596.64 177.591 8596.69C177.377 8596.74 177.151 8596.76 176.911 8596.76C176.371 8596.76 175.897 8596.65 175.491 8596.44C175.084 8596.23 174.767 8595.94 174.541 8595.57C174.321 8595.2 174.211 8594.78 174.211 8594.33C174.211 8593.88 174.321 8593.47 174.541 8593.1C174.767 8592.73 175.084 8592.43 175.491 8592.22C175.897 8592 176.371 8591.89 176.911 8591.89C177.451 8591.89 177.924 8592 178.331 8592.22C178.744 8592.43 179.061 8592.73 179.281 8593.1C179.501 8593.47 179.611 8593.88 179.611 8594.33C179.611 8594.64 179.547 8594.95 179.421 8595.27C179.294 8595.59 179.107 8595.91 178.861 8596.24L176.741 8599H175.881ZM176.911 8596.11C177.317 8596.11 177.667 8596.03 177.961 8595.88C178.261 8595.73 178.491 8595.52 178.651 8595.25C178.811 8594.98 178.891 8594.67 178.891 8594.33C178.891 8593.99 178.811 8593.69 178.651 8593.42C178.491 8593.15 178.261 8592.93 177.961 8592.78C177.667 8592.62 177.317 8592.54 176.911 8592.54C176.504 8592.54 176.151 8592.62 175.851 8592.78C175.557 8592.93 175.331 8593.15 175.171 8593.42C175.017 8593.69 174.941 8593.99 174.941 8594.33C174.941 8594.67 175.017 8594.98 175.171 8595.25C175.331 8595.52 175.557 8595.73 175.851 8595.88C176.151 8596.03 176.504 8596.11 176.911 8596.11ZM183.613 8599.11C183.04 8599.11 182.513 8598.96 182.033 8598.67C181.553 8598.38 181.17 8597.96 180.883 8597.41C180.603 8596.86 180.463 8596.23 180.463 8595.5C180.463 8594.77 180.603 8594.14 180.883 8593.59C181.17 8593.04 181.553 8592.62 182.033 8592.33C182.513 8592.04 183.04 8591.89 183.613 8591.89C184.186 8591.89 184.71 8592.04 185.183 8592.33C185.663 8592.62 186.043 8593.04 186.323 8593.59C186.61 8594.14 186.753 8594.77 186.753 8595.5C186.753 8596.23 186.61 8596.86 186.323 8597.41C186.043 8597.96 185.663 8598.38 185.183 8598.67C184.71 8598.96 184.186 8599.11 183.613 8599.11ZM183.613 8598.43C184.053 8598.43 184.456 8598.32 184.823 8598.1C185.19 8597.88 185.483 8597.55 185.703 8597.11C185.923 8596.66 186.033 8596.13 186.033 8595.5C186.033 8594.87 185.923 8594.34 185.703 8593.9C185.483 8593.45 185.19 8593.12 184.823 8592.9C184.456 8592.68 184.053 8592.57 183.613 8592.57C183.166 8592.57 182.76 8592.68 182.393 8592.9C182.026 8593.12 181.733 8593.45 181.513 8593.9C181.3 8594.34 181.193 8594.87 181.193 8595.5C181.193 8596.13 181.3 8596.66 181.513 8597.11C181.733 8597.55 182.026 8597.88 182.393 8598.1C182.76 8598.32 183.166 8598.43 183.613 8598.43Z" fill="#8D8B84"/>
</g>
<g clip-path="url(#clip1_2020_4448)">
<rect y="1507" width="1441" height="3319" fill="#21201C"/>
<rect x="1208.25" y="4236.25" width="267.5" height="231.5" stroke="#8D8B84" stroke-width="0.5"/>
<rect x="-33.75" y="3700.25" width="267.5" height="1126.5" stroke="#8D8B84" stroke-width="0.5"/>
<rect x="1391.25" y="2431.25" width="98.5" height="809.5" stroke="#8D8B84" stroke-width="0.5"/>
<rect x="-65.75" y="2520.25" width="699.5" height="720.5" stroke="#8D8B84" stroke-width="0.5"/>
<line x1="503.25" y1="1507" x2="503.25" y2="3579" stroke="#8D8B84" stroke-width="0.5"/>
<rect x="207.25" y="2037.25" width="1143.5" height="180.5" stroke="#8D8B84" stroke-width="0.5"/>
<rect x="-13.75" y="2122.25" width="362.5" height="321.5" stroke="#8D8B84" stroke-width="0.5"/>
<rect x="-44.75" y="2293.25" width="208.5" height="1077.5" stroke="#8D8B84" stroke-width="0.5"/>
<rect x="1238.25" y="3286.25" width="340.5" height="119.5" stroke="#8D8B84" stroke-width="0.5"/>
<rect x="-33.75" y="4437.25" width="1052.5" height="311.5" stroke="#8D8B84" stroke-width="0.5"/>
<rect x="845.25" y="2728.25" width="679.5" height="617.5" stroke="#8D8B84" stroke-width="0.5"/>
<rect x="1297.25" y="1868.25" width="157.5" height="651.5" stroke="#8D8B84" stroke-width="0.5"/>
<circle cx="712.5" cy="1716.5" r="209.25" stroke="#8D8B84" stroke-width="0.5"/>
<circle cx="234" cy="3998" r="309.75" stroke="#8D8B84" stroke-width="0.5"/>
<circle cx="1135.5" cy="4068.5" r="102.25" stroke="#8D8B84" stroke-width="0.5"/>
<line x1="1" y1="2359.75" x2="1441" y2="2359.75" stroke="#8D8B84" stroke-width="0.5" stroke-dasharray="8 8"/>
<line x1="1003.25" y1="1507" x2="1003.25" y2="3579" stroke="#8D8B84" stroke-width="0.5"/>
<line x1="713.25" y1="1507" x2="713.25" y2="2467" stroke="#8D8B84" stroke-width="0.5" stroke-dasharray="8 8"/>
<line x1="713.25" y1="3267" x2="713.25" y2="4818" stroke="#8D8B84" stroke-width="0.5" stroke-dasharray="8 8"/>
<line x1="321" y1="2866.25" x2="1" y2="2866.25" stroke="#8D8B84" stroke-width="0.5" stroke-dasharray="8 8"/>
<line x1="1441" y1="3875.25" x2="1" y2="3875.25" stroke="#8D8B84" stroke-width="0.5"/>
<line x1="1441" y1="4308.25" x2="1" y2="4308.25" stroke="#8D8B84" stroke-width="0.5" stroke-dasharray="8 8"/>
<line x1="1441" y1="4659.25" x2="1" y2="4659.25" stroke="#8D8B84" stroke-width="0.5" stroke-dasharray="8 8"/>
<line x1="1135" y1="4069.25" x2="982" y2="4069.25" stroke="#8D8B84" stroke-width="0.5" stroke-dasharray="8 8"/>
<line x1="1134.75" y1="4069" x2="1134.75" y2="3966" stroke="#8D8B84" stroke-width="0.5" stroke-dasharray="8 8"/>
<line x1="1441" y1="2866.25" x2="1122" y2="2866.25" stroke="#8D8B84" stroke-width="0.5" stroke-dasharray="8 8"/>
<path d="M720.75 1712V1707.01H721.38V1707.86H721.43C721.577 1707.57 721.78 1707.34 722.04 1707.19C722.307 1707.04 722.613 1706.96 722.96 1706.96H723.66V1707.59H722.96C722.487 1707.59 722.11 1707.75 721.83 1708.07C721.55 1708.39 721.41 1708.81 721.41 1709.33V1712H720.75ZM726.477 1712V1711.12L729.367 1708.89C729.681 1708.64 729.927 1708.41 730.107 1708.22C730.294 1708.02 730.427 1707.82 730.507 1707.63C730.594 1707.43 730.637 1707.22 730.637 1706.99C730.637 1706.56 730.494 1706.21 730.207 1705.96C729.927 1705.7 729.554 1705.57 729.087 1705.57C728.554 1705.57 728.137 1705.71 727.837 1706C727.544 1706.29 727.377 1706.66 727.337 1707.11H726.617C726.631 1706.71 726.727 1706.34 726.907 1706.01C727.094 1705.68 727.367 1705.41 727.727 1705.2C728.094 1704.99 728.547 1704.89 729.087 1704.89C729.547 1704.89 729.947 1704.98 730.287 1705.16C730.627 1705.33 730.891 1705.58 731.077 1705.89C731.264 1706.2 731.357 1706.56 731.357 1706.96C731.357 1707.27 731.304 1707.56 731.197 1707.81C731.097 1708.06 730.934 1708.32 730.707 1708.58C730.481 1708.83 730.167 1709.11 729.767 1709.41L727.387 1711.27V1711.32H731.527V1712H726.477ZM733.864 1712V1705.55L734.124 1705.66L732.364 1707.04V1706.23L733.914 1705H734.564V1712H733.864ZM739.197 1712.11C738.624 1712.11 738.097 1711.96 737.617 1711.67C737.137 1711.38 736.754 1710.96 736.467 1710.41C736.187 1709.86 736.047 1709.23 736.047 1708.5C736.047 1707.77 736.187 1707.14 736.467 1706.59C736.754 1706.04 737.137 1705.62 737.617 1705.33C738.097 1705.04 738.624 1704.89 739.197 1704.89C739.77 1704.89 740.294 1705.04 740.767 1705.33C741.247 1705.62 741.627 1706.04 741.907 1706.59C742.194 1707.14 742.337 1707.77 742.337 1708.5C742.337 1709.23 742.194 1709.86 741.907 1710.41C741.627 1710.96 741.247 1711.38 740.767 1711.67C740.294 1711.96 739.77 1712.11 739.197 1712.11ZM739.197 1711.43C739.637 1711.43 740.04 1711.32 740.407 1711.1C740.774 1710.88 741.067 1710.55 741.287 1710.11C741.507 1709.66 741.617 1709.13 741.617 1708.5C741.617 1707.87 741.507 1707.34 741.287 1706.9C741.067 1706.45 740.774 1706.12 740.407 1705.9C740.04 1705.68 739.637 1705.57 739.197 1705.57C738.75 1705.57 738.344 1705.68 737.977 1705.9C737.61 1706.12 737.317 1706.45 737.097 1706.9C736.884 1707.34 736.777 1707.87 736.777 1708.5C736.777 1709.13 736.884 1709.66 737.097 1710.11C737.317 1710.55 737.61 1710.88 737.977 1711.1C738.344 1711.32 738.75 1711.43 739.197 1711.43Z" fill="#8D8B84"/>
<path d="M508.96 2211V2204H509.66V2210.32H513.42V2211H508.96ZM517.655 2211V2204.55L517.915 2204.66L516.155 2206.04V2205.23L517.705 2204H518.355V2211H517.655ZM521.268 2211V2204.55L521.528 2204.66L519.768 2206.04V2205.23L521.318 2204H521.968V2211H521.268ZM523.331 2209.44V2208.71L525.801 2204H526.581L524.111 2208.71V2208.76H528.981V2209.44H523.331ZM527.281 2211V2206.41H527.981V2211H527.281ZM532.675 2211.11C532.102 2211.11 531.575 2210.96 531.095 2210.67C530.615 2210.38 530.232 2209.96 529.945 2209.41C529.665 2208.86 529.525 2208.23 529.525 2207.5C529.525 2206.77 529.665 2206.14 529.945 2205.59C530.232 2205.04 530.615 2204.62 531.095 2204.33C531.575 2204.04 532.102 2203.89 532.675 2203.89C533.249 2203.89 533.772 2204.04 534.245 2204.33C534.725 2204.62 535.105 2205.04 535.385 2205.59C535.672 2206.14 535.815 2206.77 535.815 2207.5C535.815 2208.23 535.672 2208.86 535.385 2209.41C535.105 2209.96 534.725 2210.38 534.245 2210.67C533.772 2210.96 533.249 2211.11 532.675 2211.11ZM532.675 2210.43C533.115 2210.43 533.519 2210.32 533.885 2210.1C534.252 2209.88 534.545 2209.55 534.765 2209.11C534.985 2208.66 535.095 2208.13 535.095 2207.5C535.095 2206.87 534.985 2206.34 534.765 2205.9C534.545 2205.45 534.252 2205.12 533.885 2204.9C533.519 2204.68 533.115 2204.57 532.675 2204.57C532.229 2204.57 531.822 2204.68 531.455 2204.9C531.089 2205.12 530.795 2205.45 530.575 2205.9C530.362 2206.34 530.255 2206.87 530.255 2207.5C530.255 2208.13 530.362 2208.66 530.575 2209.11C530.795 2209.55 531.089 2209.88 531.455 2210.1C531.822 2210.32 532.229 2210.43 532.675 2210.43Z" fill="#8D8B84"/>
<path d="M173.06 2859.11C172.413 2859.11 171.82 2858.95 171.28 2858.64C170.74 2858.33 170.313 2857.9 170 2857.35C169.687 2856.8 169.53 2856.18 169.53 2855.5C169.53 2854.82 169.687 2854.21 170 2853.66C170.313 2853.11 170.74 2852.67 171.28 2852.36C171.82 2852.05 172.413 2851.89 173.06 2851.89C173.62 2851.89 174.127 2852 174.58 2852.23C175.033 2852.46 175.407 2852.76 175.7 2853.13C176 2853.5 176.21 2853.89 176.33 2854.32H175.59C175.477 2854.01 175.303 2853.72 175.07 2853.45C174.843 2853.18 174.56 2852.97 174.22 2852.81C173.88 2852.65 173.497 2852.57 173.07 2852.57C172.543 2852.57 172.063 2852.7 171.63 2852.95C171.203 2853.2 170.867 2853.54 170.62 2853.99C170.373 2854.43 170.25 2854.93 170.25 2855.5C170.25 2856.07 170.373 2856.57 170.62 2857.02C170.867 2857.46 171.203 2857.81 171.63 2858.06C172.063 2858.31 172.543 2858.43 173.07 2858.43C173.503 2858.43 173.89 2858.35 174.23 2858.18C174.577 2858.01 174.867 2857.79 175.1 2857.51C175.333 2857.23 175.507 2856.93 175.62 2856.61H176.37C176.237 2857.06 176.02 2857.48 175.72 2857.86C175.42 2858.23 175.04 2858.54 174.58 2858.77C174.127 2859 173.62 2859.11 173.06 2859.11ZM176.731 2859L179.431 2852H180.311L183.011 2859H182.291L179.891 2852.72H179.841L177.441 2859H176.731ZM177.851 2857.01L178.041 2856.36H181.691L181.891 2857.01H177.851ZM184.247 2859V2852H184.947V2858.32H188.707V2859H184.247ZM192.513 2859.11C191.866 2859.11 191.273 2858.95 190.733 2858.64C190.193 2858.33 189.766 2857.9 189.453 2857.35C189.14 2856.8 188.983 2856.18 188.983 2855.5C188.983 2854.82 189.14 2854.21 189.453 2853.66C189.766 2853.11 190.193 2852.67 190.733 2852.36C191.273 2852.05 191.866 2851.89 192.513 2851.89C193.073 2851.89 193.58 2852 194.033 2852.23C194.486 2852.46 194.86 2852.76 195.153 2853.13C195.453 2853.5 195.663 2853.89 195.783 2854.32H195.043C194.93 2854.01 194.756 2853.72 194.523 2853.45C194.296 2853.18 194.013 2852.97 193.673 2852.81C193.333 2852.65 192.95 2852.57 192.523 2852.57C191.996 2852.57 191.516 2852.7 191.083 2852.95C190.656 2853.2 190.32 2853.54 190.073 2853.99C189.826 2854.43 189.703 2854.93 189.703 2855.5C189.703 2856.07 189.826 2856.57 190.073 2857.02C190.32 2857.46 190.656 2857.81 191.083 2858.06C191.516 2858.31 191.996 2858.43 192.523 2858.43C192.956 2858.43 193.343 2858.35 193.683 2858.18C194.03 2858.01 194.32 2857.79 194.553 2857.51C194.786 2857.23 194.96 2856.93 195.073 2856.61H195.823C195.69 2857.06 195.473 2857.48 195.173 2857.86C194.873 2858.23 194.493 2858.54 194.033 2858.77C193.58 2859 193.073 2859.11 192.513 2859.11Z" fill="#8D8B84"/>
<path d="M850.96 3340V3333H853.17C853.857 3333 854.47 3333.15 855.01 3333.45C855.557 3333.74 855.98 3334.16 856.28 3334.69C856.587 3335.22 856.74 3335.83 856.74 3336.5C856.74 3337.17 856.587 3337.78 856.28 3338.31C855.98 3338.84 855.557 3339.26 855.01 3339.56C854.47 3339.85 853.857 3340 853.17 3340H850.96ZM853.17 3339.32C853.73 3339.32 854.223 3339.2 854.65 3338.97C855.083 3338.74 855.42 3338.41 855.66 3337.98C855.9 3337.55 856.02 3337.05 856.02 3336.5C856.02 3335.95 855.9 3335.46 855.66 3335.03C855.42 3334.6 855.083 3334.26 854.65 3334.03C854.223 3333.8 853.73 3333.68 853.17 3333.68H851.66V3339.32H853.17ZM862.524 3340.11C861.99 3340.11 861.524 3340.03 861.124 3339.87C860.73 3339.71 860.424 3339.48 860.204 3339.18C859.984 3338.87 859.874 3338.51 859.874 3338.1C859.874 3337.67 859.997 3337.31 860.244 3337C860.49 3336.69 860.834 3336.47 861.274 3336.35V3336.3C860.874 3336.16 860.574 3335.96 860.374 3335.7C860.18 3335.43 860.084 3335.12 860.084 3334.76C860.084 3334.39 860.177 3334.07 860.364 3333.79C860.557 3333.5 860.837 3333.28 861.204 3333.13C861.57 3332.97 862.01 3332.89 862.524 3332.89C863.037 3332.89 863.477 3332.97 863.844 3333.13C864.21 3333.28 864.49 3333.5 864.684 3333.79C864.877 3334.07 864.974 3334.39 864.974 3334.76C864.974 3335.12 864.874 3335.43 864.674 3335.7C864.48 3335.96 864.18 3336.16 863.774 3336.3V3336.35C864.214 3336.47 864.557 3336.69 864.804 3337C865.05 3337.31 865.174 3337.67 865.174 3338.1C865.174 3338.51 865.064 3338.87 864.844 3339.18C864.63 3339.48 864.324 3339.71 863.924 3339.87C863.524 3340.03 863.057 3340.11 862.524 3340.11ZM862.524 3339.43C863.137 3339.43 863.61 3339.31 863.944 3339.08C864.284 3338.85 864.454 3338.5 864.454 3338.05C864.454 3337.6 864.284 3337.26 863.944 3337.03C863.61 3336.8 863.137 3336.68 862.524 3336.68C861.91 3336.68 861.437 3336.8 861.104 3337.03C860.77 3337.26 860.604 3337.6 860.604 3338.05C860.604 3338.5 860.77 3338.85 861.104 3339.08C861.437 3339.31 861.91 3339.43 862.524 3339.43ZM862.524 3336.01C863.09 3336.01 863.517 3335.9 863.804 3335.69C864.097 3335.48 864.244 3335.18 864.244 3334.79C864.244 3334.4 864.1 3334.1 863.814 3333.89C863.527 3333.68 863.097 3333.57 862.524 3333.57C861.95 3333.57 861.52 3333.68 861.234 3333.89C860.947 3334.1 860.804 3334.4 860.804 3334.79C860.804 3335.18 860.95 3335.48 861.244 3335.69C861.537 3335.9 861.964 3336.01 862.524 3336.01ZM869.275 3340.11C868.702 3340.11 868.175 3339.96 867.695 3339.67C867.215 3339.38 866.832 3338.96 866.545 3338.41C866.265 3337.86 866.125 3337.23 866.125 3336.5C866.125 3335.77 866.265 3335.14 866.545 3334.59C866.832 3334.04 867.215 3333.62 867.695 3333.33C868.175 3333.04 868.702 3332.89 869.275 3332.89C869.848 3332.89 870.372 3333.04 870.845 3333.33C871.325 3333.62 871.705 3334.04 871.985 3334.59C872.272 3335.14 872.415 3335.77 872.415 3336.5C872.415 3337.23 872.272 3337.86 871.985 3338.41C871.705 3338.96 871.325 3339.38 870.845 3339.67C870.372 3339.96 869.848 3340.11 869.275 3340.11ZM869.275 3339.43C869.715 3339.43 870.118 3339.32 870.485 3339.1C870.852 3338.88 871.145 3338.55 871.365 3338.11C871.585 3337.66 871.695 3337.13 871.695 3336.5C871.695 3335.87 871.585 3335.34 871.365 3334.9C871.145 3334.45 870.852 3334.12 870.485 3333.9C870.118 3333.68 869.715 3333.57 869.275 3333.57C868.828 3333.57 868.422 3333.68 868.055 3333.9C867.688 3334.12 867.395 3334.45 867.175 3334.9C866.962 3335.34 866.855 3335.87 866.855 3336.5C866.855 3337.13 866.962 3337.66 867.175 3338.11C867.395 3338.55 867.688 3338.88 868.055 3339.1C868.422 3339.32 868.828 3339.43 869.275 3339.43ZM876.57 3340.11C875.997 3340.11 875.47 3339.96 874.99 3339.67C874.51 3339.38 874.127 3338.96 873.84 3338.41C873.56 3337.86 873.42 3337.23 873.42 3336.5C873.42 3335.77 873.56 3335.14 873.84 3334.59C874.127 3334.04 874.51 3333.62 874.99 3333.33C875.47 3333.04 875.997 3332.89 876.57 3332.89C877.143 3332.89 877.667 3333.04 878.14 3333.33C878.62 3333.62 879 3334.04 879.28 3334.59C879.567 3335.14 879.71 3335.77 879.71 3336.5C879.71 3337.23 879.567 3337.86 879.28 3338.41C879 3338.96 878.62 3339.38 878.14 3339.67C877.667 3339.96 877.143 3340.11 876.57 3340.11ZM876.57 3339.43C877.01 3339.43 877.413 3339.32 877.78 3339.1C878.147 3338.88 878.44 3338.55 878.66 3338.11C878.88 3337.66 878.99 3337.13 878.99 3336.5C878.99 3335.87 878.88 3335.34 878.66 3334.9C878.44 3334.45 878.147 3334.12 877.78 3333.9C877.413 3333.68 877.01 3333.57 876.57 3333.57C876.123 3333.57 875.717 3333.68 875.35 3333.9C874.983 3334.12 874.69 3334.45 874.47 3334.9C874.257 3335.34 874.15 3335.87 874.15 3336.5C874.15 3337.13 874.257 3337.66 874.47 3338.11C874.69 3338.55 874.983 3338.88 875.35 3339.1C875.717 3339.32 876.123 3339.43 876.57 3339.43Z" fill="#8D8B84"/>
<path d="M696.673 3868.1C696.193 3868.1 695.76 3867.99 695.373 3867.76C694.993 3867.53 694.693 3867.22 694.473 3866.83C694.253 3866.44 694.143 3865.99 694.143 3865.5C694.143 3865.01 694.253 3864.57 694.473 3864.18C694.693 3863.78 694.993 3863.47 695.373 3863.25C695.76 3863.02 696.193 3862.91 696.673 3862.91C697.046 3862.91 697.393 3862.98 697.713 3863.13C698.04 3863.28 698.316 3863.49 698.543 3863.76C698.776 3864.03 698.936 3864.35 699.023 3864.7H698.353C698.226 3864.33 698.01 3864.04 697.703 3863.83C697.403 3863.62 697.06 3863.51 696.673 3863.51C696.313 3863.51 695.99 3863.6 695.703 3863.77C695.423 3863.94 695.203 3864.17 695.043 3864.47C694.89 3864.77 694.813 3865.11 694.813 3865.5C694.813 3865.89 694.89 3866.23 695.043 3866.54C695.203 3866.84 695.423 3867.07 695.703 3867.24C695.99 3867.41 696.313 3867.49 696.673 3867.49C697.06 3867.49 697.403 3867.38 697.703 3867.17C698.01 3866.96 698.226 3866.67 698.353 3866.3H699.023C698.936 3866.66 698.776 3866.98 698.543 3867.25C698.316 3867.52 698.04 3867.73 697.713 3867.88C697.393 3868.03 697.046 3868.1 696.673 3868.1ZM704.92 3868.11C704.393 3868.11 703.933 3868.02 703.54 3867.84C703.146 3867.66 702.84 3867.41 702.62 3867.1C702.4 3866.79 702.273 3866.44 702.24 3866.05H702.99C703.03 3866.33 703.13 3866.57 703.29 3866.78C703.456 3866.99 703.676 3867.15 703.95 3867.26C704.23 3867.37 704.553 3867.43 704.92 3867.43C705.306 3867.43 705.643 3867.36 705.93 3867.21C706.216 3867.06 706.436 3866.85 706.59 3866.58C706.743 3866.31 706.82 3866.01 706.82 3865.68C706.82 3865.37 706.743 3865.09 706.59 3864.84C706.443 3864.58 706.23 3864.38 705.95 3864.23C705.676 3864.08 705.356 3864.01 704.99 3864.01C704.636 3864.01 704.313 3864.07 704.02 3864.2C703.726 3864.32 703.5 3864.49 703.34 3864.72H702.66L703.2 3861H707.08V3861.68H703.74L703.41 3863.9H703.46C703.66 3863.73 703.896 3863.59 704.17 3863.5C704.45 3863.41 704.753 3863.36 705.08 3863.36C705.566 3863.36 705.996 3863.46 706.37 3863.67C706.743 3863.88 707.03 3864.16 707.23 3864.51C707.436 3864.86 707.54 3865.25 707.54 3865.68C707.54 3866.15 707.433 3866.57 707.22 3866.94C707.013 3867.31 706.713 3867.59 706.32 3867.8C705.926 3868.01 705.46 3868.11 704.92 3868.11Z" fill="#8D8B84"/>
<path d="M239.96 4743V4736H240.66V4742.32H244.42V4743H239.96ZM248.655 4743V4736.55L248.915 4736.66L247.155 4738.04V4737.23L248.705 4736H249.355V4743H248.655ZM253.988 4743.11C253.415 4743.11 252.888 4742.96 252.408 4742.67C251.928 4742.38 251.545 4741.96 251.258 4741.41C250.978 4740.86 250.838 4740.23 250.838 4739.5C250.838 4738.77 250.978 4738.14 251.258 4737.59C251.545 4737.04 251.928 4736.62 252.408 4736.33C252.888 4736.04 253.415 4735.89 253.988 4735.89C254.561 4735.89 255.085 4736.04 255.558 4736.33C256.038 4736.62 256.418 4737.04 256.698 4737.59C256.985 4738.14 257.128 4738.77 257.128 4739.5C257.128 4740.23 256.985 4740.86 256.698 4741.41C256.418 4741.96 256.038 4742.38 255.558 4742.67C255.085 4742.96 254.561 4743.11 253.988 4743.11ZM253.988 4742.43C254.428 4742.43 254.831 4742.32 255.198 4742.1C255.565 4741.88 255.858 4741.55 256.078 4741.11C256.298 4740.66 256.408 4740.13 256.408 4739.5C256.408 4738.87 256.298 4738.34 256.078 4737.9C255.858 4737.45 255.565 4737.12 255.198 4736.9C254.831 4736.68 254.428 4736.57 253.988 4736.57C253.541 4736.57 253.135 4736.68 252.768 4736.9C252.401 4737.12 252.108 4737.45 251.888 4737.9C251.675 4738.34 251.568 4738.87 251.568 4739.5C251.568 4740.13 251.675 4740.66 251.888 4741.11C252.108 4741.55 252.401 4741.88 252.768 4742.1C253.135 4742.32 253.541 4742.43 253.988 4742.43ZM258.065 4743V4742.12L260.955 4739.89C261.268 4739.64 261.515 4739.41 261.695 4739.22C261.882 4739.02 262.015 4738.82 262.095 4738.63C262.182 4738.43 262.225 4738.22 262.225 4737.99C262.225 4737.56 262.082 4737.21 261.795 4736.96C261.515 4736.7 261.142 4736.57 260.675 4736.57C260.142 4736.57 259.725 4736.71 259.425 4737C259.132 4737.29 258.965 4737.66 258.925 4738.11H258.205C258.218 4737.71 258.315 4737.34 258.495 4737.01C258.682 4736.68 258.955 4736.41 259.315 4736.2C259.682 4735.99 260.135 4735.89 260.675 4735.89C261.135 4735.89 261.535 4735.98 261.875 4736.16C262.215 4736.33 262.478 4736.58 262.665 4736.89C262.852 4737.2 262.945 4737.56 262.945 4737.96C262.945 4738.27 262.892 4738.56 262.785 4738.81C262.685 4739.06 262.522 4739.32 262.295 4739.58C262.068 4739.83 261.755 4740.11 261.355 4740.41L258.975 4742.27V4742.32H263.115V4743H258.065ZM267.074 4743.11C266.5 4743.11 265.974 4742.96 265.494 4742.67C265.014 4742.38 264.63 4741.96 264.344 4741.41C264.064 4740.86 263.924 4740.23 263.924 4739.5C263.924 4738.77 264.064 4738.14 264.344 4737.59C264.63 4737.04 265.014 4736.62 265.494 4736.33C265.974 4736.04 266.5 4735.89 267.074 4735.89C267.647 4735.89 268.17 4736.04 268.644 4736.33C269.124 4736.62 269.504 4737.04 269.784 4737.59C270.07 4738.14 270.214 4738.77 270.214 4739.5C270.214 4740.23 270.07 4740.86 269.784 4741.41C269.504 4741.96 269.124 4742.38 268.644 4742.67C268.17 4742.96 267.647 4743.11 267.074 4743.11ZM267.074 4742.43C267.514 4742.43 267.917 4742.32 268.284 4742.1C268.65 4741.88 268.944 4741.55 269.164 4741.11C269.384 4740.66 269.494 4740.13 269.494 4739.5C269.494 4738.87 269.384 4738.34 269.164 4737.9C268.944 4737.45 268.65 4737.12 268.284 4736.9C267.917 4736.68 267.514 4736.57 267.074 4736.57C266.627 4736.57 266.22 4736.68 265.854 4736.9C265.487 4737.12 265.194 4737.45 264.974 4737.9C264.76 4738.34 264.654 4738.87 264.654 4739.5C264.654 4740.13 264.76 4740.66 264.974 4741.11C265.194 4741.55 265.487 4741.88 265.854 4742.1C266.22 4742.32 266.627 4742.43 267.074 4742.43Z" fill="#8D8B84"/>
<path d="M1107.99 4063V4058.01H1108.62V4058.86H1108.67C1108.81 4058.57 1109.02 4058.34 1109.28 4058.19C1109.54 4058.04 1109.85 4057.96 1110.2 4057.96H1110.9V4058.59H1110.2C1109.72 4058.59 1109.35 4058.75 1109.07 4059.07C1108.79 4059.39 1108.65 4059.81 1108.65 4060.33V4063H1107.99ZM1115.11 4063V4056.55L1115.37 4056.66L1113.61 4058.04V4057.23L1115.16 4056H1115.81V4063H1115.11ZM1120.45 4063.11C1119.87 4063.11 1119.35 4062.96 1118.87 4062.67C1118.39 4062.38 1118 4061.96 1117.72 4061.41C1117.44 4060.86 1117.3 4060.23 1117.3 4059.5C1117.3 4058.77 1117.44 4058.14 1117.72 4057.59C1118 4057.04 1118.39 4056.62 1118.87 4056.33C1119.35 4056.04 1119.87 4055.89 1120.45 4055.89C1121.02 4055.89 1121.54 4056.04 1122.02 4056.33C1122.5 4056.62 1122.88 4057.04 1123.16 4057.59C1123.44 4058.14 1123.59 4058.77 1123.59 4059.5C1123.59 4060.23 1123.44 4060.86 1123.16 4061.41C1122.88 4061.96 1122.5 4062.38 1122.02 4062.67C1121.54 4062.96 1121.02 4063.11 1120.45 4063.11ZM1120.45 4062.43C1120.89 4062.43 1121.29 4062.32 1121.66 4062.1C1122.02 4061.88 1122.32 4061.55 1122.54 4061.11C1122.76 4060.66 1122.87 4060.13 1122.87 4059.5C1122.87 4058.87 1122.76 4058.34 1122.54 4057.9C1122.32 4057.45 1122.02 4057.12 1121.66 4056.9C1121.29 4056.68 1120.89 4056.57 1120.45 4056.57C1120 4056.57 1119.59 4056.68 1119.23 4056.9C1118.86 4057.12 1118.57 4057.45 1118.35 4057.9C1118.13 4058.34 1118.03 4058.87 1118.03 4059.5C1118.03 4060.13 1118.13 4060.66 1118.35 4061.11C1118.57 4061.55 1118.86 4061.88 1119.23 4062.1C1119.59 4062.32 1120 4062.43 1120.45 4062.43ZM1126.95 4063.11C1126.4 4063.11 1125.93 4063.02 1125.53 4062.85C1125.13 4062.68 1124.83 4062.44 1124.61 4062.13C1124.39 4061.82 1124.26 4061.46 1124.23 4061.05H1124.98C1125.02 4061.5 1125.22 4061.84 1125.56 4062.08C1125.9 4062.31 1126.36 4062.43 1126.95 4062.43C1127.34 4062.43 1127.67 4062.37 1127.95 4062.24C1128.23 4062.11 1128.44 4061.93 1128.58 4061.7C1128.72 4061.47 1128.8 4061.22 1128.8 4060.93C1128.8 4060.63 1128.72 4060.37 1128.58 4060.15C1128.43 4059.92 1128.22 4059.75 1127.94 4059.64C1127.66 4059.53 1127.34 4059.47 1126.96 4059.47H1125.72V4058.85L1128.24 4056.73V4056.68H1124.77V4056H1129.09V4056.81L1126.73 4058.81V4059.07L1126.55 4058.86H1127.08C1127.56 4058.86 1127.99 4058.94 1128.36 4059.11C1128.73 4059.28 1129.02 4059.52 1129.22 4059.83C1129.42 4060.14 1129.53 4060.51 1129.53 4060.93C1129.53 4061.32 1129.43 4061.69 1129.23 4062.02C1129.03 4062.35 1128.73 4062.62 1128.34 4062.82C1127.95 4063.01 1127.49 4063.11 1126.95 4063.11Z" fill="#8D8B84"/>
<path d="M1303.76 2514L1302.3 2509.01H1302.98L1304.19 2513.28H1304.24L1305.42 2509.01H1306.25L1307.43 2513.28H1307.48L1308.7 2509.01H1309.37L1307.9 2514H1307.04L1305.85 2509.73H1305.8L1304.62 2514H1303.76ZM1313.75 2514V2507.55L1314.01 2507.66L1312.25 2509.04V2508.23L1313.8 2507H1314.45V2514H1313.75ZM1318.6 2514.11C1318.07 2514.11 1317.61 2514.02 1317.22 2513.84C1316.82 2513.66 1316.52 2513.41 1316.3 2513.1C1316.08 2512.79 1315.95 2512.44 1315.92 2512.05H1316.67C1316.71 2512.33 1316.81 2512.57 1316.97 2512.78C1317.13 2512.99 1317.35 2513.15 1317.63 2513.26C1317.91 2513.37 1318.23 2513.43 1318.6 2513.43C1318.98 2513.43 1319.32 2513.36 1319.61 2513.21C1319.89 2513.06 1320.11 2512.85 1320.27 2512.58C1320.42 2512.31 1320.5 2512.01 1320.5 2511.68C1320.5 2511.37 1320.42 2511.09 1320.27 2510.84C1320.12 2510.58 1319.91 2510.38 1319.63 2510.23C1319.35 2510.08 1319.03 2510.01 1318.67 2510.01C1318.31 2510.01 1317.99 2510.07 1317.7 2510.2C1317.4 2510.32 1317.18 2510.49 1317.02 2510.72H1316.34L1316.88 2507H1320.76V2507.68H1317.42L1317.09 2509.9H1317.14C1317.34 2509.73 1317.57 2509.59 1317.85 2509.5C1318.13 2509.41 1318.43 2509.36 1318.76 2509.36C1319.24 2509.36 1319.67 2509.46 1320.05 2509.67C1320.42 2509.88 1320.71 2510.16 1320.91 2510.51C1321.11 2510.86 1321.22 2511.25 1321.22 2511.68C1321.22 2512.15 1321.11 2512.57 1320.9 2512.94C1320.69 2513.31 1320.39 2513.59 1320 2513.8C1319.6 2514.01 1319.14 2514.11 1318.6 2514.11ZM1325.23 2514.11C1324.66 2514.11 1324.13 2513.96 1323.65 2513.67C1323.17 2513.38 1322.79 2512.96 1322.5 2512.41C1322.22 2511.86 1322.08 2511.23 1322.08 2510.5C1322.08 2509.77 1322.22 2509.14 1322.5 2508.59C1322.79 2508.04 1323.17 2507.62 1323.65 2507.33C1324.13 2507.04 1324.66 2506.89 1325.23 2506.89C1325.8 2506.89 1326.33 2507.04 1326.8 2507.33C1327.28 2507.62 1327.66 2508.04 1327.94 2508.59C1328.23 2509.14 1328.37 2509.77 1328.37 2510.5C1328.37 2511.23 1328.23 2511.86 1327.94 2512.41C1327.66 2512.96 1327.28 2513.38 1326.8 2513.67C1326.33 2513.96 1325.8 2514.11 1325.23 2514.11ZM1325.23 2513.43C1325.67 2513.43 1326.07 2513.32 1326.44 2513.1C1326.81 2512.88 1327.1 2512.55 1327.32 2512.11C1327.54 2511.66 1327.65 2511.13 1327.65 2510.5C1327.65 2509.87 1327.54 2509.34 1327.32 2508.9C1327.1 2508.45 1326.81 2508.12 1326.44 2507.9C1326.07 2507.68 1325.67 2507.57 1325.23 2507.57C1324.78 2507.57 1324.38 2507.68 1324.01 2507.9C1323.64 2508.12 1323.35 2508.45 1323.13 2508.9C1322.92 2509.34 1322.81 2509.87 1322.81 2510.5C1322.81 2511.13 1322.92 2511.66 1323.13 2512.11C1323.35 2512.55 1323.64 2512.88 1324.01 2513.1C1324.38 2513.32 1324.78 2513.43 1325.23 2513.43Z" fill="#8D8B84"/>
<path d="M1302.8 2211V2204H1303.46V2206.85H1303.51C1303.68 2206.56 1303.91 2206.34 1304.21 2206.17C1304.52 2206 1304.87 2205.91 1305.26 2205.91C1305.66 2205.91 1306 2205.99 1306.29 2206.16C1306.58 2206.32 1306.81 2206.56 1306.96 2206.88C1307.11 2207.2 1307.19 2207.58 1307.19 2208.03V2211H1306.53V2208.14C1306.53 2207.62 1306.41 2207.22 1306.17 2206.94C1305.93 2206.65 1305.58 2206.51 1305.12 2206.51C1304.81 2206.51 1304.52 2206.58 1304.27 2206.73C1304.02 2206.88 1303.82 2207.08 1303.67 2207.35C1303.53 2207.61 1303.46 2207.91 1303.46 2208.26V2211H1302.8ZM1312.17 2211V2204.55L1312.43 2204.66L1310.67 2206.04V2205.23L1312.22 2204H1312.87V2211H1312.17ZM1316.96 2211.11C1316.42 2211.11 1315.96 2211.03 1315.56 2210.87C1315.16 2210.71 1314.86 2210.48 1314.64 2210.18C1314.42 2209.87 1314.31 2209.51 1314.31 2209.1C1314.31 2208.67 1314.43 2208.31 1314.68 2208C1314.92 2207.69 1315.27 2207.47 1315.71 2207.35V2207.3C1315.31 2207.16 1315.01 2206.96 1314.81 2206.7C1314.61 2206.43 1314.52 2206.12 1314.52 2205.76C1314.52 2205.39 1314.61 2205.07 1314.8 2204.79C1314.99 2204.5 1315.27 2204.28 1315.64 2204.13C1316 2203.97 1316.44 2203.89 1316.96 2203.89C1317.47 2203.89 1317.91 2203.97 1318.28 2204.13C1318.64 2204.28 1318.92 2204.5 1319.12 2204.79C1319.31 2205.07 1319.41 2205.39 1319.41 2205.76C1319.41 2206.12 1319.31 2206.43 1319.11 2206.7C1318.91 2206.96 1318.61 2207.16 1318.21 2207.3V2207.35C1318.65 2207.47 1318.99 2207.69 1319.24 2208C1319.48 2208.31 1319.61 2208.67 1319.61 2209.1C1319.61 2209.51 1319.5 2209.87 1319.28 2210.18C1319.06 2210.48 1318.76 2210.71 1318.36 2210.87C1317.96 2211.03 1317.49 2211.11 1316.96 2211.11ZM1316.96 2210.43C1317.57 2210.43 1318.04 2210.31 1318.38 2210.08C1318.72 2209.85 1318.89 2209.5 1318.89 2209.05C1318.89 2208.6 1318.72 2208.26 1318.38 2208.03C1318.04 2207.8 1317.57 2207.68 1316.96 2207.68C1316.34 2207.68 1315.87 2207.8 1315.54 2208.03C1315.2 2208.26 1315.04 2208.6 1315.04 2209.05C1315.04 2209.5 1315.2 2209.85 1315.54 2210.08C1315.87 2210.31 1316.34 2210.43 1316.96 2210.43ZM1316.96 2207.01C1317.52 2207.01 1317.95 2206.9 1318.24 2206.69C1318.53 2206.48 1318.68 2206.18 1318.68 2205.79C1318.68 2205.4 1318.53 2205.1 1318.25 2204.89C1317.96 2204.68 1317.53 2204.57 1316.96 2204.57C1316.38 2204.57 1315.95 2204.68 1315.67 2204.89C1315.38 2205.1 1315.24 2205.4 1315.24 2205.79C1315.24 2206.18 1315.38 2206.48 1315.68 2206.69C1315.97 2206.9 1316.4 2207.01 1316.96 2207.01ZM1321.89 2211V2204.55L1322.15 2204.66L1320.39 2206.04V2205.23L1321.94 2204H1322.59V2211H1321.89Z" fill="#8D8B84"/>
<path d="M1012.96 1712.1C1012.48 1712.1 1012.05 1711.99 1011.66 1711.76C1011.28 1711.53 1010.98 1711.22 1010.76 1710.83C1010.54 1710.44 1010.43 1709.99 1010.43 1709.5C1010.43 1709.01 1010.54 1708.57 1010.76 1708.18C1010.98 1707.78 1011.28 1707.47 1011.66 1707.25C1012.05 1707.02 1012.48 1706.91 1012.96 1706.91C1013.33 1706.91 1013.68 1706.98 1014 1707.13C1014.33 1707.28 1014.6 1707.49 1014.83 1707.76C1015.06 1708.03 1015.22 1708.35 1015.31 1708.7H1014.64C1014.51 1708.33 1014.3 1708.04 1013.99 1707.83C1013.69 1707.62 1013.35 1707.51 1012.96 1707.51C1012.6 1707.51 1012.28 1707.6 1011.99 1707.77C1011.71 1707.94 1011.49 1708.17 1011.33 1708.47C1011.18 1708.77 1011.1 1709.11 1011.1 1709.5C1011.1 1709.89 1011.18 1710.23 1011.33 1710.54C1011.49 1710.84 1011.71 1711.07 1011.99 1711.24C1012.28 1711.41 1012.6 1711.49 1012.96 1711.49C1013.35 1711.49 1013.69 1711.38 1013.99 1711.17C1014.3 1710.96 1014.51 1710.67 1014.64 1710.3H1015.31C1015.22 1710.66 1015.06 1710.98 1014.83 1711.25C1014.6 1711.52 1014.33 1711.73 1014 1711.88C1013.68 1712.03 1013.33 1712.1 1012.96 1712.1ZM1018.79 1712L1021.99 1705.75V1705.7H1018.03V1705H1022.77V1705.78L1019.62 1712H1018.79Z" fill="#8D8B84"/>
</g>
<g clip-path="url(#clip2_2020_4448)">
<rect width="1440" height="1507" transform="translate(1)" fill="#E8E8E8"/>
<rect x="1003" y="485" width="223" height="192" fill="#21201C"/>
<rect x="945" y="131" width="180" height="132" fill="#21201C"/>
<rect width="497" height="222" transform="matrix(1 0 0 -1 945 485)" fill="#21201C"/>
<rect x="1441" y="1066" width="215" height="202" transform="rotate(180 1441 1066)" fill="#21201C"/>
<rect x="1441" y="1512" width="482" height="148" transform="rotate(180 1441 1512)" fill="#21201C"/>
<rect x="1.25" y="589.25" width="1224.5" height="274.5" stroke="#8D8B84" stroke-width="0.5"/>
<rect x="1003.25" y="1066.25" width="437.5" height="297.5" fill="#21201C" stroke="#21201C" stroke-width="0.5"/>
<circle cx="900" cy="1010" r="420.75" stroke="#8D8B84" stroke-width="0.5"/>
<circle cx="284.5" cy="482.5" r="220.25" stroke="#8D8B84" stroke-width="0.5"/>
<line x1="1" y1="484.75" x2="1442" y2="484.75" stroke="#8D8B84" stroke-width="0.5" stroke-dasharray="8 8"/>
<line x1="1003.25" y1="1" x2="1003.25" y2="1512" stroke="#8D8B84" stroke-width="0.5"/>
<line x1="945.25" y1="-1.09278e-08" x2="945.25" y2="319" stroke="#8D8B84" stroke-width="0.5"/>
<line x1="285.25" y1="-1.09278e-08" x2="285.25" y2="263" stroke="#8D8B84" stroke-width="0.5"/>
<line x1="1193.25" y1="1" x2="1193.25" y2="263" stroke="#8D8B84" stroke-width="0.5"/>
<line x1="285.25" y1="263" x2="285.25" y2="1512" stroke="#8D8B84" stroke-width="0.5"/>
<line x1="1" y1="1009.75" x2="1441" y2="1009.75" stroke="#8D8B84" stroke-width="0.5" stroke-dasharray="8 8"/>
<rect x="1193" width="100" height="263" fill="#21201C"/>
<rect x="900" width="45" height="131" fill="#21201C"/>
<rect x="481" width="104" height="31" fill="#21201C"/>
<rect width="285" height="31" fill="#21201C"/>
<rect width="117" height="132" transform="matrix(1 0 0 -1 1292 263)" fill="#21201C"/>
<rect x="1408" y="-1" width="33" height="264" fill="#21201C"/>
<line x1="1293.25" y1="-1.09278e-08" x2="1293.25" y2="485" stroke="#8D8B84" stroke-width="0.5"/>
<path d="M929.673 274.1C929.193 274.1 928.76 273.987 928.373 273.76C927.993 273.533 927.693 273.223 927.473 272.83C927.253 272.437 927.143 271.993 927.143 271.5C927.143 271.013 927.253 270.573 927.473 270.18C927.693 269.78 927.993 269.47 928.373 269.25C928.76 269.023 929.193 268.91 929.673 268.91C930.046 268.91 930.393 268.983 930.713 269.13C931.04 269.277 931.316 269.487 931.543 269.76C931.776 270.033 931.936 270.347 932.023 270.7H931.353C931.226 270.333 931.01 270.043 930.703 269.83C930.403 269.617 930.06 269.51 929.673 269.51C929.313 269.51 928.99 269.597 928.703 269.77C928.423 269.937 928.203 270.17 928.043 270.47C927.89 270.77 927.813 271.113 927.813 271.5C927.813 271.887 927.89 272.233 928.043 272.54C928.203 272.84 928.423 273.073 928.703 273.24C928.99 273.407 929.313 273.49 929.673 273.49C930.06 273.49 930.403 273.383 930.703 273.17C931.01 272.957 931.226 272.667 931.353 272.3H932.023C931.936 272.66 931.776 272.977 931.543 273.25C931.316 273.517 931.04 273.727 930.713 273.88C930.393 274.027 930.046 274.1 929.673 274.1ZM937.92 274.11C937.393 274.11 936.933 274.02 936.54 273.84C936.146 273.66 935.84 273.413 935.62 273.1C935.4 272.787 935.273 272.437 935.24 272.05H935.99C936.03 272.33 936.13 272.573 936.29 272.78C936.456 272.987 936.676 273.147 936.95 273.26C937.23 273.373 937.553 273.43 937.92 273.43C938.306 273.43 938.643 273.357 938.93 273.21C939.216 273.057 939.436 272.847 939.59 272.58C939.743 272.313 939.82 272.013 939.82 271.68C939.82 271.373 939.743 271.093 939.59 270.84C939.443 270.58 939.23 270.377 938.95 270.23C938.676 270.083 938.356 270.01 937.99 270.01C937.636 270.01 937.313 270.073 937.02 270.2C936.726 270.32 936.5 270.493 936.34 270.72H935.66L936.2 267H940.08V267.68H936.74L936.41 269.9H936.46C936.66 269.727 936.896 269.593 937.17 269.5C937.45 269.407 937.753 269.36 938.08 269.36C938.566 269.36 938.996 269.463 939.37 269.67C939.743 269.877 940.03 270.157 940.23 270.51C940.436 270.863 940.54 271.253 940.54 271.68C940.54 272.153 940.433 272.573 940.22 272.94C940.013 273.307 939.713 273.593 939.32 273.8C938.926 274.007 938.46 274.11 937.92 274.11Z" fill="#8D8B84"/>
<path d="M293.77 857.1C293.33 857.1 292.93 856.993 292.57 856.78C292.217 856.56 291.937 856.253 291.73 855.86C291.53 855.46 291.43 855.007 291.43 854.5C291.43 853.993 291.53 853.543 291.73 853.15C291.937 852.757 292.217 852.453 292.57 852.24C292.93 852.02 293.33 851.91 293.77 851.91C294.163 851.91 294.52 852.003 294.84 852.19C295.16 852.37 295.407 852.607 295.58 852.9H295.63V850H296.28V857H295.65V856.08H295.6C295.42 856.393 295.167 856.643 294.84 856.83C294.52 857.01 294.163 857.1 293.77 857.1ZM293.89 856.49C294.23 856.49 294.53 856.41 294.79 856.25C295.057 856.083 295.263 855.85 295.41 855.55C295.557 855.25 295.63 854.9 295.63 854.5C295.63 854.1 295.557 853.75 295.41 853.45C295.263 853.15 295.057 852.92 294.79 852.76C294.53 852.593 294.23 852.51 293.89 852.51C293.53 852.51 293.217 852.593 292.95 852.76C292.683 852.92 292.473 853.15 292.32 853.45C292.173 853.75 292.1 854.1 292.1 854.5C292.1 854.907 292.173 855.26 292.32 855.56C292.473 855.86 292.683 856.09 292.95 856.25C293.217 856.41 293.53 856.49 293.89 856.49ZM299.573 855.44V854.71L302.043 850H302.823L300.353 854.71V854.76H305.223V855.44H299.573ZM303.523 857V852.41H304.223V857H303.523ZM305.735 855.44V854.71L308.205 850H308.985L306.515 854.71V854.76H311.385V855.44H305.735ZM309.685 857V852.41H310.385V857H309.685ZM315.08 857.11C314.506 857.11 313.98 856.963 313.5 856.67C313.02 856.377 312.636 855.957 312.35 855.41C312.07 854.863 311.93 854.227 311.93 853.5C311.93 852.773 312.07 852.137 312.35 851.59C312.636 851.043 313.02 850.623 313.5 850.33C313.98 850.037 314.506 849.89 315.08 849.89C315.653 849.89 316.176 850.037 316.65 850.33C317.13 850.623 317.51 851.043 317.79 851.59C318.076 852.137 318.22 852.773 318.22 853.5C318.22 854.227 318.076 854.863 317.79 855.41C317.51 855.957 317.13 856.377 316.65 856.67C316.176 856.963 315.653 857.11 315.08 857.11ZM315.08 856.43C315.52 856.43 315.923 856.32 316.29 856.1C316.656 855.88 316.95 855.55 317.17 855.11C317.39 854.663 317.5 854.127 317.5 853.5C317.5 852.873 317.39 852.34 317.17 851.9C316.95 851.453 316.656 851.12 316.29 850.9C315.923 850.68 315.52 850.57 315.08 850.57C314.633 850.57 314.226 850.68 313.86 850.9C313.493 851.12 313.2 851.453 312.98 851.9C312.766 852.34 312.66 852.873 312.66 853.5C312.66 854.127 312.766 854.663 312.98 855.11C313.2 855.55 313.493 855.88 313.86 856.1C314.226 856.32 314.633 856.43 315.08 856.43Z" fill="#8D8B84"/>
<path d="M965.791 1003L964.331 998.01H965.011L966.221 1002.28H966.271L967.451 998.01H968.281L969.461 1002.28H969.511L970.731 998.01H971.401L969.931 1003H969.071L967.881 998.73H967.831L966.651 1003H965.791ZM975.785 1003V996.55L976.045 996.66L974.285 998.04V997.23L975.835 996H976.485V1003H975.785ZM977.849 1001.44V1000.71L980.319 996H981.099L978.629 1000.71V1000.76H983.499V1001.44H977.849ZM981.799 1003V998.41H982.499V1003H981.799ZM984.011 1001.44V1000.71L986.481 996H987.261L984.791 1000.71V1000.76H989.661V1001.44H984.011ZM987.961 1003V998.41H988.661V1003H987.961ZM993.355 1003.11C992.782 1003.11 992.255 1002.96 991.775 1002.67C991.295 1002.38 990.912 1001.96 990.625 1001.41C990.345 1000.86 990.205 1000.23 990.205 999.5C990.205 998.773 990.345 998.137 990.625 997.59C990.912 997.043 991.295 996.623 991.775 996.33C992.255 996.037 992.782 995.89 993.355 995.89C993.928 995.89 994.452 996.037 994.925 996.33C995.405 996.623 995.785 997.043 996.065 997.59C996.352 998.137 996.495 998.773 996.495 999.5C996.495 1000.23 996.352 1000.86 996.065 1001.41C995.785 1001.96 995.405 1002.38 994.925 1002.67C994.452 1002.96 993.928 1003.11 993.355 1003.11ZM993.355 1002.43C993.795 1002.43 994.198 1002.32 994.565 1002.1C994.932 1001.88 995.225 1001.55 995.445 1001.11C995.665 1000.66 995.775 1000.13 995.775 999.5C995.775 998.873 995.665 998.34 995.445 997.9C995.225 997.453 994.932 997.12 994.565 996.9C994.198 996.68 993.795 996.57 993.355 996.57C992.908 996.57 992.502 996.68 992.135 996.9C991.768 997.12 991.475 997.453 991.255 997.9C991.042 998.34 990.935 998.873 990.935 999.5C990.935 1000.13 991.042 1000.66 991.255 1001.11C991.475 1001.55 991.768 1001.88 992.135 1002.1C992.502 1002.32 992.908 1002.43 993.355 1002.43Z" fill="#8D8B84"/>
<path d="M1008.96 125V118H1009.66V124.32H1013.42V125H1008.96ZM1016.66 125L1019.86 118.75V118.7H1015.9V118H1020.64V118.78L1017.49 125H1016.66ZM1022.99 125L1025.08 122.32L1025.31 122.5C1025.12 122.58 1024.92 122.643 1024.7 122.69C1024.49 122.737 1024.26 122.76 1024.02 122.76C1023.48 122.76 1023.01 122.653 1022.6 122.44C1022.19 122.227 1021.88 121.937 1021.65 121.57C1021.43 121.197 1021.32 120.783 1021.32 120.33C1021.32 119.877 1021.43 119.467 1021.65 119.1C1021.88 118.727 1022.19 118.433 1022.6 118.22C1023.01 118 1023.48 117.89 1024.02 117.89C1024.56 117.89 1025.03 118 1025.44 118.22C1025.85 118.433 1026.17 118.727 1026.39 119.1C1026.61 119.467 1026.72 119.877 1026.72 120.33C1026.72 120.637 1026.66 120.95 1026.53 121.27C1026.4 121.59 1026.22 121.913 1025.97 122.24L1023.85 125H1022.99ZM1024.02 122.11C1024.43 122.11 1024.78 122.033 1025.07 121.88C1025.37 121.727 1025.6 121.517 1025.76 121.25C1025.92 120.977 1026 120.67 1026 120.33C1026 119.99 1025.92 119.687 1025.76 119.42C1025.6 119.147 1025.37 118.933 1025.07 118.78C1024.78 118.62 1024.43 118.54 1024.02 118.54C1023.61 118.54 1023.26 118.62 1022.96 118.78C1022.67 118.933 1022.44 119.147 1022.28 119.42C1022.13 119.687 1022.05 119.99 1022.05 120.33C1022.05 120.67 1022.13 120.977 1022.28 121.25C1022.44 121.517 1022.67 121.727 1022.96 121.88C1023.26 122.033 1023.61 122.11 1024.02 122.11ZM1030.12 125.11C1029.58 125.11 1029.11 125.003 1028.7 124.79C1028.3 124.57 1027.98 124.277 1027.75 123.91C1027.53 123.537 1027.42 123.123 1027.42 122.67C1027.42 122.363 1027.49 122.05 1027.61 121.73C1027.74 121.41 1027.93 121.087 1028.18 120.76L1030.3 118H1031.16L1029.06 120.68L1028.84 120.5C1029.02 120.42 1029.22 120.357 1029.43 120.31C1029.65 120.263 1029.88 120.24 1030.12 120.24C1030.66 120.24 1031.14 120.347 1031.54 120.56C1031.96 120.773 1032.27 121.067 1032.49 121.44C1032.71 121.807 1032.82 122.217 1032.82 122.67C1032.82 123.123 1032.71 123.537 1032.49 123.91C1032.27 124.277 1031.96 124.57 1031.54 124.79C1031.14 125.003 1030.66 125.11 1030.12 125.11ZM1030.12 124.46C1030.53 124.46 1030.88 124.383 1031.17 124.23C1031.47 124.07 1031.7 123.857 1031.86 123.59C1032.02 123.317 1032.1 123.01 1032.1 122.67C1032.1 122.33 1032.02 122.027 1031.86 121.76C1031.7 121.487 1031.47 121.273 1031.17 121.12C1030.88 120.967 1030.53 120.89 1030.12 120.89C1029.72 120.89 1029.36 120.967 1029.06 121.12C1028.77 121.273 1028.54 121.487 1028.38 121.76C1028.23 122.027 1028.15 122.33 1028.15 122.67C1028.15 123.01 1028.23 123.317 1028.38 123.59C1028.54 123.857 1028.77 124.07 1029.06 124.23C1029.36 124.383 1029.72 124.46 1030.12 124.46Z" fill="#8D8B84"/>
</g>
<path d="M1442 8331H1441C1441 8331.33 1441 8331.67 1441 8332C1441 8729.65 1118.65 9052 721 9052C323.355 9052 1 8729.65 1 8332C1 8331.67 1.00248 8331.33 1.00293 8331H0V9106H1442V8331Z" fill="#21201C"/>
<defs>
<clipPath id="clip0_2020_4448">
<rect width="1440" height="4225" fill="white" transform="translate(1 4826)"/>
</clipPath>
<clipPath id="clip1_2020_4448">
<rect width="1440" height="3319" fill="white" transform="translate(1 1507)"/>
</clipPath>
<clipPath id="clip2_2020_4448">
<rect width="1440" height="1507" fill="white" transform="translate(1)"/>
</clipPath>
</defs>
</svg>
