<svg width="1440" height="5513" viewBox="0 0 1440 5513" fill="none" xmlns="http://www.w3.org/2000/svg">
<g clip-path="url(#clip0_2002_3654)">
<rect x="786.25" y="425.25" width="720.5" height="451.5" stroke="#8D8B84" stroke-width="0.5"/>
<rect x="767.25" y="2857.25" width="720.5" height="688.5" stroke="#8D8B84" stroke-width="0.5"/>
<rect x="-78.75" y="3132.25" width="499.5" height="418.5" stroke="#8D8B84" stroke-width="0.5"/>
<rect x="79.25" y="3377.25" width="590.5" height="225.5" stroke="#8D8B84" stroke-width="0.5"/>
<rect x="620.25" y="3014.25" width="683.5" height="845.5" stroke="#8D8B84" stroke-width="0.5"/>
<rect x="905.25" y="667.25" width="675.5" height="980.5" stroke="#8D8B84" stroke-width="0.5"/>
<rect x="-53.75" y="1271.25" width="1115.5" height="762.5" stroke="#8D8B84" stroke-width="0.5"/>
<rect x="712.25" y="1787.25" width="833.5" height="743.5" stroke="#8D8B84" stroke-width="0.5"/>
<rect x="869.25" y="2220.25" width="618.5" height="2086.5" stroke="#8D8B84" stroke-width="0.5"/>
<circle cx="905" cy="969" r="301.75" stroke="#8D8B84" stroke-width="0.5"/>
<circle cx="962" cy="3024" r="341.75" stroke="#8D8B84" stroke-width="0.5"/>
<line x1="1193.25" y1="667" x2="1193.25" y2="877" stroke="#8D8B84" stroke-width="0.5" stroke-dasharray="8 8"/>
<line x1="1440" y1="969.25" x2="905" y2="969.25" stroke="#8D8B84" stroke-width="0.5" stroke-dasharray="8 8"/>
<line x1="1062" y1="1521.25" x2="905" y2="1521.25" stroke="#8D8B84" stroke-width="0.5" stroke-dasharray="8 8"/>
<line x1="1440" y1="3014.25" x2="1304" y2="3014.25" stroke="#8D8B84" stroke-width="0.5" stroke-dasharray="8 8"/>
<line x1="720.25" y1="3860" x2="720.25" y2="4796" stroke="#8D8B84" stroke-width="0.5" stroke-dasharray="8 8"/>
<line x1="1173.25" y1="1648" x2="1173.25" y2="2220" stroke="#8D8B84" stroke-width="0.5" stroke-dasharray="8 8"/>
<line x1="329.25" y1="3860" x2="329.25" y2="5805" stroke="#8D8B84" stroke-width="0.5" stroke-dasharray="8 8"/>
<path d="M791.76 872L790.3 867.01H790.98L792.19 871.28H792.24L793.42 867.01H794.25L795.43 871.28H795.48L796.7 867.01H797.37L795.9 872H795.04L793.85 867.73H793.8L792.62 872H791.76ZM801.754 872V865.55L802.014 865.66L800.254 867.04V866.23L801.804 865H802.454V872H801.754ZM805.368 872V865.55L805.628 865.66L803.868 867.04V866.23L805.418 865H806.068V872H805.368ZM809.121 872L811.211 869.32L811.441 869.5C811.254 869.58 811.051 869.643 810.831 869.69C810.617 869.737 810.391 869.76 810.151 869.76C809.611 869.76 809.137 869.653 808.731 869.44C808.324 869.227 808.007 868.937 807.781 868.57C807.561 868.197 807.451 867.783 807.451 867.33C807.451 866.877 807.561 866.467 807.781 866.1C808.007 865.727 808.324 865.433 808.731 865.22C809.137 865 809.611 864.89 810.151 864.89C810.691 864.89 811.164 865 811.571 865.22C811.984 865.433 812.301 865.727 812.521 866.1C812.741 866.467 812.851 866.877 812.851 867.33C812.851 867.637 812.787 867.95 812.661 868.27C812.534 868.59 812.347 868.913 812.101 869.24L809.981 872H809.121ZM810.151 869.11C810.557 869.11 810.907 869.033 811.201 868.88C811.501 868.727 811.731 868.517 811.891 868.25C812.051 867.977 812.131 867.67 812.131 867.33C812.131 866.99 812.051 866.687 811.891 866.42C811.731 866.147 811.501 865.933 811.201 865.78C810.907 865.62 810.557 865.54 810.151 865.54C809.744 865.54 809.391 865.62 809.091 865.78C808.797 865.933 808.571 866.147 808.411 866.42C808.257 866.687 808.181 866.99 808.181 867.33C808.181 867.67 808.257 867.977 808.411 868.25C808.571 868.517 808.797 868.727 809.091 868.88C809.391 869.033 809.744 869.11 810.151 869.11Z" fill="#8D8B84"/>
<path d="M909.75 964V959.01H910.38V959.86H910.43C910.577 959.567 910.78 959.343 911.04 959.19C911.307 959.037 911.613 958.96 911.96 958.96H912.66V959.59H911.96C911.487 959.59 911.11 959.75 910.83 960.07C910.55 960.39 910.41 960.81 910.41 961.33V964H909.75ZM917.997 964.11C917.451 964.11 916.977 964.023 916.577 963.85C916.184 963.677 915.877 963.437 915.657 963.13C915.437 962.817 915.311 962.457 915.277 962.05H916.027C916.074 962.497 916.267 962.84 916.607 963.08C916.947 963.313 917.411 963.43 917.997 963.43C918.391 963.43 918.724 963.367 918.997 963.24C919.277 963.107 919.487 962.927 919.627 962.7C919.774 962.473 919.847 962.217 919.847 961.93C919.847 961.63 919.774 961.37 919.627 961.15C919.481 960.923 919.267 960.753 918.987 960.64C918.714 960.527 918.387 960.47 918.007 960.47H916.767V959.85L919.287 957.73V957.68H915.817V957H920.137V957.81L917.777 959.81V960.07L917.597 959.86H918.127C918.614 959.86 919.041 959.943 919.407 960.11C919.781 960.277 920.067 960.517 920.267 960.83C920.474 961.143 920.577 961.51 920.577 961.93C920.577 962.323 920.477 962.687 920.277 963.02C920.077 963.353 919.781 963.62 919.387 963.82C919.001 964.013 918.537 964.11 917.997 964.11ZM924.603 964.11C924.03 964.11 923.503 963.963 923.023 963.67C922.543 963.377 922.16 962.957 921.873 962.41C921.593 961.863 921.453 961.227 921.453 960.5C921.453 959.773 921.593 959.137 921.873 958.59C922.16 958.043 922.543 957.623 923.023 957.33C923.503 957.037 924.03 956.89 924.603 956.89C925.176 956.89 925.7 957.037 926.173 957.33C926.653 957.623 927.033 958.043 927.313 958.59C927.6 959.137 927.743 959.773 927.743 960.5C927.743 961.227 927.6 961.863 927.313 962.41C927.033 962.957 926.653 963.377 926.173 963.67C925.7 963.963 925.176 964.11 924.603 964.11ZM924.603 963.43C925.043 963.43 925.446 963.32 925.813 963.1C926.18 962.88 926.473 962.55 926.693 962.11C926.913 961.663 927.023 961.127 927.023 960.5C927.023 959.873 926.913 959.34 926.693 958.9C926.473 958.453 926.18 958.12 925.813 957.9C925.446 957.68 925.043 957.57 924.603 957.57C924.156 957.57 923.75 957.68 923.383 957.9C923.016 958.12 922.723 958.453 922.503 958.9C922.29 959.34 922.183 959.873 922.183 960.5C922.183 961.127 922.29 961.663 922.503 962.11C922.723 962.55 923.016 962.88 923.383 963.1C923.75 963.32 924.156 963.43 924.603 963.43ZM928.68 964V963.12L931.57 960.89C931.884 960.637 932.13 960.413 932.31 960.22C932.497 960.02 932.63 959.823 932.71 959.63C932.797 959.43 932.84 959.217 932.84 958.99C932.84 958.557 932.697 958.213 932.41 957.96C932.13 957.7 931.757 957.57 931.29 957.57C930.757 957.57 930.34 957.713 930.04 958C929.747 958.287 929.58 958.657 929.54 959.11H928.82C928.834 958.71 928.93 958.343 929.11 958.01C929.297 957.677 929.57 957.407 929.93 957.2C930.297 956.993 930.75 956.89 931.29 956.89C931.75 956.89 932.15 956.98 932.49 957.16C932.83 957.333 933.094 957.577 933.28 957.89C933.467 958.203 933.56 958.56 933.56 958.96C933.56 959.273 933.507 959.557 933.4 959.81C933.3 960.063 933.137 960.32 932.91 960.58C932.684 960.833 932.37 961.11 931.97 961.41L929.59 963.27V963.32H933.73V964H928.68Z" fill="#8D8B84"/>
<path d="M910.76 1516L909.3 1511.01H909.98L911.19 1515.28H911.24L912.42 1511.01H913.25L914.43 1515.28H914.48L915.7 1511.01H916.37L914.9 1516H914.04L912.85 1511.73H912.8L911.62 1516H910.76ZM920.754 1516V1509.55L921.014 1509.66L919.254 1511.04V1510.23L920.804 1509H921.454V1516H920.754ZM925.598 1516.11C925.071 1516.11 924.611 1516.02 924.218 1515.84C923.824 1515.66 923.518 1515.41 923.298 1515.1C923.078 1514.79 922.951 1514.44 922.918 1514.05H923.668C923.708 1514.33 923.808 1514.57 923.968 1514.78C924.134 1514.99 924.354 1515.15 924.628 1515.26C924.908 1515.37 925.231 1515.43 925.598 1515.43C925.984 1515.43 926.321 1515.36 926.608 1515.21C926.894 1515.06 927.114 1514.85 927.268 1514.58C927.421 1514.31 927.498 1514.01 927.498 1513.68C927.498 1513.37 927.421 1513.09 927.268 1512.84C927.121 1512.58 926.908 1512.38 926.628 1512.23C926.354 1512.08 926.034 1512.01 925.668 1512.01C925.314 1512.01 924.991 1512.07 924.698 1512.2C924.404 1512.32 924.178 1512.49 924.018 1512.72H923.338L923.878 1509H927.758V1509.68H924.418L924.088 1511.9H924.138C924.338 1511.73 924.574 1511.59 924.848 1511.5C925.128 1511.41 925.431 1511.36 925.758 1511.36C926.244 1511.36 926.674 1511.46 927.048 1511.67C927.421 1511.88 927.708 1512.16 927.908 1512.51C928.114 1512.86 928.218 1513.25 928.218 1513.68C928.218 1514.15 928.111 1514.57 927.898 1514.94C927.691 1515.31 927.391 1515.59 926.998 1515.8C926.604 1516.01 926.138 1516.11 925.598 1516.11ZM929.315 1516L932.515 1509.75V1509.7H928.555V1509H933.295V1509.78L930.145 1516H929.315Z" fill="#8D8B84"/>
<path d="M1067.76 1642L1066.3 1637.01H1066.98L1068.19 1641.28H1068.24L1069.42 1637.01H1070.25L1071.43 1641.28H1071.48L1072.7 1637.01H1073.37L1071.9 1642H1071.04L1069.85 1637.73H1069.8L1068.62 1642H1067.76ZM1078.87 1642.11C1078.33 1642.11 1077.85 1642.02 1077.45 1641.85C1077.06 1641.68 1076.75 1641.44 1076.53 1641.13C1076.31 1640.82 1076.19 1640.46 1076.15 1640.05H1076.9C1076.95 1640.5 1077.14 1640.84 1077.48 1641.08C1077.82 1641.31 1078.29 1641.43 1078.87 1641.43C1079.27 1641.43 1079.6 1641.37 1079.87 1641.24C1080.15 1641.11 1080.36 1640.93 1080.5 1640.7C1080.65 1640.47 1080.72 1640.22 1080.72 1639.93C1080.72 1639.63 1080.65 1639.37 1080.5 1639.15C1080.36 1638.92 1080.14 1638.75 1079.86 1638.64C1079.59 1638.53 1079.26 1638.47 1078.88 1638.47H1077.64V1637.85L1080.16 1635.73V1635.68H1076.69V1635H1081.01V1635.81L1078.65 1637.81V1638.07L1078.47 1637.86H1079C1079.49 1637.86 1079.92 1637.94 1080.28 1638.11C1080.66 1638.28 1080.94 1638.52 1081.14 1638.83C1081.35 1639.14 1081.45 1639.51 1081.45 1639.93C1081.45 1640.32 1081.35 1640.69 1081.15 1641.02C1080.95 1641.35 1080.66 1641.62 1080.26 1641.82C1079.88 1642.01 1079.41 1642.11 1078.87 1642.11ZM1082.67 1642L1085.87 1635.75V1635.7H1081.91V1635H1086.65V1635.78L1083.5 1642H1082.67ZM1089.93 1642.11C1089.4 1642.11 1088.93 1642.03 1088.53 1641.87C1088.14 1641.71 1087.83 1641.48 1087.61 1641.18C1087.39 1640.87 1087.28 1640.51 1087.28 1640.1C1087.28 1639.67 1087.4 1639.31 1087.65 1639C1087.9 1638.69 1088.24 1638.47 1088.68 1638.35V1638.3C1088.28 1638.16 1087.98 1637.96 1087.78 1637.7C1087.59 1637.43 1087.49 1637.12 1087.49 1636.76C1087.49 1636.39 1087.58 1636.07 1087.77 1635.79C1087.96 1635.5 1088.24 1635.28 1088.61 1635.13C1088.98 1634.97 1089.42 1634.89 1089.93 1634.89C1090.44 1634.89 1090.88 1634.97 1091.25 1635.13C1091.62 1635.28 1091.9 1635.5 1092.09 1635.79C1092.28 1636.07 1092.38 1636.39 1092.38 1636.76C1092.38 1637.12 1092.28 1637.43 1092.08 1637.7C1091.89 1637.96 1091.59 1638.16 1091.18 1638.3V1638.35C1091.62 1638.47 1091.96 1638.69 1092.21 1639C1092.46 1639.31 1092.58 1639.67 1092.58 1640.1C1092.58 1640.51 1092.47 1640.87 1092.25 1641.18C1092.04 1641.48 1091.73 1641.71 1091.33 1641.87C1090.93 1642.03 1090.46 1642.11 1089.93 1642.11ZM1089.93 1641.43C1090.54 1641.43 1091.02 1641.31 1091.35 1641.08C1091.69 1640.85 1091.86 1640.5 1091.86 1640.05C1091.86 1639.6 1091.69 1639.26 1091.35 1639.03C1091.02 1638.8 1090.54 1638.68 1089.93 1638.68C1089.32 1638.68 1088.84 1638.8 1088.51 1639.03C1088.18 1639.26 1088.01 1639.6 1088.01 1640.05C1088.01 1640.5 1088.18 1640.85 1088.51 1641.08C1088.84 1641.31 1089.32 1641.43 1089.93 1641.43ZM1089.93 1638.01C1090.5 1638.01 1090.92 1637.9 1091.21 1637.69C1091.5 1637.48 1091.65 1637.18 1091.65 1636.79C1091.65 1636.4 1091.51 1636.1 1091.22 1635.89C1090.93 1635.68 1090.5 1635.57 1089.93 1635.57C1089.36 1635.57 1088.93 1635.68 1088.64 1635.89C1088.35 1636.1 1088.21 1636.4 1088.21 1636.79C1088.21 1637.18 1088.36 1637.48 1088.65 1637.69C1088.94 1637.9 1089.37 1638.01 1089.93 1638.01Z" fill="#8D8B84"/>
<path d="M1178.76 1782L1177.3 1777.01H1177.98L1179.19 1781.28H1179.24L1180.42 1777.01H1181.25L1182.43 1781.28H1182.48L1183.7 1777.01H1184.37L1182.9 1782H1182.04L1180.85 1777.73H1180.8L1179.62 1782H1178.76ZM1187.35 1782V1781.12L1190.24 1778.89C1190.56 1778.64 1190.8 1778.41 1190.98 1778.22C1191.17 1778.02 1191.3 1777.82 1191.38 1777.63C1191.47 1777.43 1191.51 1777.22 1191.51 1776.99C1191.51 1776.56 1191.37 1776.21 1191.08 1775.96C1190.8 1775.7 1190.43 1775.57 1189.96 1775.57C1189.43 1775.57 1189.01 1775.71 1188.71 1776C1188.42 1776.29 1188.25 1776.66 1188.21 1777.11H1187.49C1187.51 1776.71 1187.6 1776.34 1187.78 1776.01C1187.97 1775.68 1188.24 1775.41 1188.6 1775.2C1188.97 1774.99 1189.42 1774.89 1189.96 1774.89C1190.42 1774.89 1190.82 1774.98 1191.16 1775.16C1191.5 1775.33 1191.77 1775.58 1191.95 1775.89C1192.14 1776.2 1192.23 1776.56 1192.23 1776.96C1192.23 1777.27 1192.18 1777.56 1192.07 1777.81C1191.97 1778.06 1191.81 1778.32 1191.58 1778.58C1191.36 1778.83 1191.04 1779.11 1190.64 1779.41L1188.26 1781.27V1781.32H1192.4V1782H1187.35ZM1195.77 1782.11C1195.23 1782.11 1194.75 1782 1194.35 1781.79C1193.94 1781.57 1193.62 1781.28 1193.4 1780.91C1193.18 1780.54 1193.07 1780.12 1193.07 1779.67C1193.07 1779.36 1193.13 1779.05 1193.26 1778.73C1193.38 1778.41 1193.57 1778.09 1193.83 1777.76L1195.95 1775H1196.81L1194.71 1777.68L1194.49 1777.5C1194.67 1777.42 1194.86 1777.36 1195.08 1777.31C1195.3 1777.26 1195.53 1777.24 1195.77 1777.24C1196.31 1777.24 1196.78 1777.35 1197.19 1777.56C1197.6 1777.77 1197.92 1778.07 1198.14 1778.44C1198.36 1778.81 1198.47 1779.22 1198.47 1779.67C1198.47 1780.12 1198.36 1780.54 1198.14 1780.91C1197.92 1781.28 1197.6 1781.57 1197.19 1781.79C1196.78 1782 1196.31 1782.11 1195.77 1782.11ZM1195.77 1781.46C1196.17 1781.46 1196.52 1781.38 1196.82 1781.23C1197.12 1781.07 1197.35 1780.86 1197.51 1780.59C1197.67 1780.32 1197.75 1780.01 1197.75 1779.67C1197.75 1779.33 1197.67 1779.03 1197.51 1778.76C1197.35 1778.49 1197.12 1778.27 1196.82 1778.12C1196.52 1777.97 1196.17 1777.89 1195.77 1777.89C1195.36 1777.89 1195.01 1777.97 1194.71 1778.12C1194.41 1778.27 1194.19 1778.49 1194.03 1778.76C1193.87 1779.03 1193.8 1779.33 1193.8 1779.67C1193.8 1780.01 1193.87 1780.32 1194.03 1780.59C1194.19 1780.86 1194.41 1781.07 1194.71 1781.23C1195.01 1781.38 1195.36 1781.46 1195.77 1781.46ZM1199.45 1782L1202.65 1775.75V1775.7H1198.69V1775H1203.43V1775.78L1200.28 1782H1199.45Z" fill="#8D8B84"/>
<path d="M911.76 2233L910.3 2228.01H910.98L912.19 2232.28H912.24L913.42 2228.01H914.25L915.43 2232.28H915.48L916.7 2228.01H917.37L915.9 2233H915.04L913.85 2228.73H913.8L912.62 2233H911.76ZM920.204 2231.44V2230.71L922.674 2226H923.454L920.984 2230.71V2230.76H925.854V2231.44H920.204ZM924.154 2233V2228.41H924.854V2233H924.154ZM926.643 2233L929.843 2226.75V2226.7H925.883V2226H930.623V2226.78L927.473 2233H926.643ZM934.451 2233.11C933.877 2233.11 933.351 2232.96 932.871 2232.67C932.391 2232.38 932.007 2231.96 931.721 2231.41C931.441 2230.86 931.301 2230.23 931.301 2229.5C931.301 2228.77 931.441 2228.14 931.721 2227.59C932.007 2227.04 932.391 2226.62 932.871 2226.33C933.351 2226.04 933.877 2225.89 934.451 2225.89C935.024 2225.89 935.547 2226.04 936.021 2226.33C936.501 2226.62 936.881 2227.04 937.161 2227.59C937.447 2228.14 937.591 2228.77 937.591 2229.5C937.591 2230.23 937.447 2230.86 937.161 2231.41C936.881 2231.96 936.501 2232.38 936.021 2232.67C935.547 2232.96 935.024 2233.11 934.451 2233.11ZM934.451 2232.43C934.891 2232.43 935.294 2232.32 935.661 2232.1C936.027 2231.88 936.321 2231.55 936.541 2231.11C936.761 2230.66 936.871 2230.13 936.871 2229.5C936.871 2228.87 936.761 2228.34 936.541 2227.9C936.321 2227.45 936.027 2227.12 935.661 2226.9C935.294 2226.68 934.891 2226.57 934.451 2226.57C934.004 2226.57 933.597 2226.68 933.231 2226.9C932.864 2227.12 932.571 2227.45 932.351 2227.9C932.137 2228.34 932.031 2228.87 932.031 2229.5C932.031 2230.13 932.137 2230.66 932.351 2231.11C932.571 2231.55 932.864 2231.88 933.231 2232.1C933.597 2232.32 934.004 2232.43 934.451 2232.43Z" fill="#8D8B84"/>
<path d="M772.96 2871V2864H773.66V2870.32H777.42V2871H772.96ZM780.255 2871V2870.12L783.145 2867.89C783.458 2867.64 783.705 2867.41 783.885 2867.22C784.071 2867.02 784.205 2866.82 784.285 2866.63C784.371 2866.43 784.415 2866.22 784.415 2865.99C784.415 2865.56 784.271 2865.21 783.985 2864.96C783.705 2864.7 783.331 2864.57 782.865 2864.57C782.331 2864.57 781.915 2864.71 781.615 2865C781.321 2865.29 781.155 2865.66 781.115 2866.11H780.395C780.408 2865.71 780.505 2865.34 780.685 2865.01C780.871 2864.68 781.145 2864.41 781.505 2864.2C781.871 2863.99 782.325 2863.89 782.865 2863.89C783.325 2863.89 783.725 2863.98 784.065 2864.16C784.405 2864.33 784.668 2864.58 784.855 2864.89C785.041 2865.2 785.135 2865.56 785.135 2865.96C785.135 2866.27 785.081 2866.56 784.975 2866.81C784.875 2867.06 784.711 2867.32 784.485 2867.58C784.258 2867.83 783.945 2868.11 783.545 2868.41L781.165 2870.27V2870.32H785.305V2871H780.255ZM788.676 2871.11C788.149 2871.11 787.689 2871.02 787.296 2870.84C786.902 2870.66 786.596 2870.41 786.376 2870.1C786.156 2869.79 786.029 2869.44 785.996 2869.05H786.746C786.786 2869.33 786.886 2869.57 787.046 2869.78C787.212 2869.99 787.432 2870.15 787.706 2870.26C787.986 2870.37 788.309 2870.43 788.676 2870.43C789.062 2870.43 789.399 2870.36 789.686 2870.21C789.972 2870.06 790.192 2869.85 790.346 2869.58C790.499 2869.31 790.576 2869.01 790.576 2868.68C790.576 2868.37 790.499 2868.09 790.346 2867.84C790.199 2867.58 789.986 2867.38 789.706 2867.23C789.432 2867.08 789.112 2867.01 788.746 2867.01C788.392 2867.01 788.069 2867.07 787.776 2867.2C787.482 2867.32 787.256 2867.49 787.096 2867.72H786.416L786.956 2864H790.836V2864.68H787.496L787.166 2866.9H787.216C787.416 2866.73 787.652 2866.59 787.926 2866.5C788.206 2866.41 788.509 2866.36 788.836 2866.36C789.322 2866.36 789.752 2866.46 790.126 2866.67C790.499 2866.88 790.786 2867.16 790.986 2867.51C791.192 2867.86 791.296 2868.25 791.296 2868.68C791.296 2869.15 791.189 2869.57 790.976 2869.94C790.769 2870.31 790.469 2870.59 790.076 2870.8C789.682 2871.01 789.216 2871.11 788.676 2871.11ZM793.285 2871V2864.55L793.545 2864.66L791.785 2866.04V2865.23L793.335 2864H793.985V2871H793.285Z" fill="#8D8B84"/>
<path d="M1023.96 3009V3002H1026.17C1026.86 3002 1027.47 3002.15 1028.01 3002.45C1028.56 3002.74 1028.98 3003.16 1029.28 3003.69C1029.59 3004.22 1029.74 3004.83 1029.74 3005.5C1029.74 3006.17 1029.59 3006.78 1029.28 3007.31C1028.98 3007.84 1028.56 3008.26 1028.01 3008.56C1027.47 3008.85 1026.86 3009 1026.17 3009H1023.96ZM1026.17 3008.32C1026.73 3008.32 1027.22 3008.2 1027.65 3007.97C1028.08 3007.74 1028.42 3007.41 1028.66 3006.98C1028.9 3006.55 1029.02 3006.05 1029.02 3005.5C1029.02 3004.95 1028.9 3004.46 1028.66 3004.03C1028.42 3003.6 1028.08 3003.26 1027.65 3003.03C1027.22 3002.8 1026.73 3002.68 1026.17 3002.68H1024.66V3008.32H1026.17ZM1035.38 3009.11C1034.84 3009.11 1034.37 3009 1033.96 3008.79C1033.55 3008.57 1033.24 3008.28 1033.01 3007.91C1032.79 3007.54 1032.68 3007.12 1032.68 3006.67C1032.68 3006.36 1032.74 3006.05 1032.87 3005.73C1033 3005.41 1033.19 3005.09 1033.44 3004.76L1035.56 3002H1036.42L1034.32 3004.68L1034.1 3004.5C1034.28 3004.42 1034.48 3004.36 1034.69 3004.31C1034.91 3004.26 1035.14 3004.24 1035.38 3004.24C1035.92 3004.24 1036.39 3004.35 1036.8 3004.56C1037.21 3004.77 1037.53 3005.07 1037.75 3005.44C1037.97 3005.81 1038.08 3006.22 1038.08 3006.67C1038.08 3007.12 1037.97 3007.54 1037.75 3007.91C1037.53 3008.28 1037.21 3008.57 1036.8 3008.79C1036.39 3009 1035.92 3009.11 1035.38 3009.11ZM1035.38 3008.46C1035.79 3008.46 1036.14 3008.38 1036.43 3008.23C1036.73 3008.07 1036.96 3007.86 1037.12 3007.59C1037.28 3007.32 1037.36 3007.01 1037.36 3006.67C1037.36 3006.33 1037.28 3006.03 1037.12 3005.76C1036.96 3005.49 1036.73 3005.27 1036.43 3005.12C1036.14 3004.97 1035.79 3004.89 1035.38 3004.89C1034.97 3004.89 1034.62 3004.97 1034.32 3005.12C1034.03 3005.27 1033.8 3005.49 1033.64 3005.76C1033.49 3006.03 1033.41 3006.33 1033.41 3006.67C1033.41 3007.01 1033.49 3007.32 1033.64 3007.59C1033.8 3007.86 1034.03 3008.07 1034.32 3008.23C1034.62 3008.38 1034.97 3008.46 1035.38 3008.46ZM1041.68 3009.11C1041.14 3009.11 1040.68 3009.03 1040.28 3008.87C1039.88 3008.71 1039.58 3008.48 1039.36 3008.18C1039.14 3007.87 1039.03 3007.51 1039.03 3007.1C1039.03 3006.67 1039.15 3006.31 1039.4 3006C1039.64 3005.69 1039.99 3005.47 1040.43 3005.35V3005.3C1040.03 3005.16 1039.73 3004.96 1039.53 3004.7C1039.33 3004.43 1039.24 3004.12 1039.24 3003.76C1039.24 3003.39 1039.33 3003.07 1039.52 3002.79C1039.71 3002.5 1039.99 3002.28 1040.36 3002.13C1040.72 3001.97 1041.16 3001.89 1041.68 3001.89C1042.19 3001.89 1042.63 3001.97 1043 3002.13C1043.36 3002.28 1043.64 3002.5 1043.84 3002.79C1044.03 3003.07 1044.13 3003.39 1044.13 3003.76C1044.13 3004.12 1044.03 3004.43 1043.83 3004.7C1043.63 3004.96 1043.33 3005.16 1042.93 3005.3V3005.35C1043.37 3005.47 1043.71 3005.69 1043.96 3006C1044.2 3006.31 1044.33 3006.67 1044.33 3007.1C1044.33 3007.51 1044.22 3007.87 1044 3008.18C1043.78 3008.48 1043.48 3008.71 1043.08 3008.87C1042.68 3009.03 1042.21 3009.11 1041.68 3009.11ZM1041.68 3008.43C1042.29 3008.43 1042.76 3008.31 1043.1 3008.08C1043.44 3007.85 1043.61 3007.5 1043.61 3007.05C1043.61 3006.6 1043.44 3006.26 1043.1 3006.03C1042.76 3005.8 1042.29 3005.68 1041.68 3005.68C1041.06 3005.68 1040.59 3005.8 1040.26 3006.03C1039.92 3006.26 1039.76 3006.6 1039.76 3007.05C1039.76 3007.5 1039.92 3007.85 1040.26 3008.08C1040.59 3008.31 1041.06 3008.43 1041.68 3008.43ZM1041.68 3005.01C1042.24 3005.01 1042.67 3004.9 1042.96 3004.69C1043.25 3004.48 1043.4 3004.18 1043.4 3003.79C1043.4 3003.4 1043.25 3003.1 1042.97 3002.89C1042.68 3002.68 1042.25 3002.57 1041.68 3002.57C1041.1 3002.57 1040.67 3002.68 1040.39 3002.89C1040.1 3003.1 1039.96 3003.4 1039.96 3003.79C1039.96 3004.18 1040.1 3004.48 1040.4 3004.69C1040.69 3004.9 1041.12 3005.01 1041.68 3005.01ZM1045.16 3007.44V3006.71L1047.63 3002H1048.41L1045.94 3006.71V3006.76H1050.81V3007.44H1045.16ZM1049.11 3009V3004.41H1049.81V3009H1049.11Z" fill="#8D8B84"/>
<path d="M425.8 3391V3384H426.46V3386.85H426.51C426.677 3386.56 426.91 3386.34 427.21 3386.17C427.517 3386 427.867 3385.91 428.26 3385.91C428.66 3385.91 429.003 3385.99 429.29 3386.16C429.583 3386.32 429.807 3386.56 429.96 3386.88C430.113 3387.2 430.19 3387.58 430.19 3388.03V3391H429.53V3388.14C429.53 3387.62 429.41 3387.22 429.17 3386.94C428.93 3386.65 428.58 3386.51 428.12 3386.51C427.807 3386.51 427.523 3386.58 427.27 3386.73C427.017 3386.88 426.817 3387.08 426.67 3387.35C426.53 3387.61 426.46 3387.91 426.46 3388.26V3391H425.8ZM436.292 3391.11C435.746 3391.11 435.272 3391.02 434.872 3390.85C434.479 3390.68 434.172 3390.44 433.952 3390.13C433.732 3389.82 433.606 3389.46 433.572 3389.05H434.322C434.369 3389.5 434.562 3389.84 434.902 3390.08C435.242 3390.31 435.706 3390.43 436.292 3390.43C436.686 3390.43 437.019 3390.37 437.292 3390.24C437.572 3390.11 437.782 3389.93 437.922 3389.7C438.069 3389.47 438.142 3389.22 438.142 3388.93C438.142 3388.63 438.069 3388.37 437.922 3388.15C437.776 3387.92 437.562 3387.75 437.282 3387.64C437.009 3387.53 436.682 3387.47 436.302 3387.47H435.062V3386.85L437.582 3384.73V3384.68H434.112V3384H438.432V3384.81L436.072 3386.81V3387.07L435.892 3386.86H436.422C436.909 3386.86 437.336 3386.94 437.702 3387.11C438.076 3387.28 438.362 3387.52 438.562 3387.83C438.769 3388.14 438.872 3388.51 438.872 3388.93C438.872 3389.32 438.772 3389.69 438.572 3390.02C438.372 3390.35 438.076 3390.62 437.682 3390.82C437.296 3391.01 436.832 3391.11 436.292 3391.11ZM442.31 3391.11C441.784 3391.11 441.324 3391.02 440.93 3390.84C440.537 3390.66 440.23 3390.41 440.01 3390.1C439.79 3389.79 439.664 3389.44 439.63 3389.05H440.38C440.42 3389.33 440.52 3389.57 440.68 3389.78C440.847 3389.99 441.067 3390.15 441.34 3390.26C441.62 3390.37 441.944 3390.43 442.31 3390.43C442.697 3390.43 443.034 3390.36 443.32 3390.21C443.607 3390.06 443.827 3389.85 443.98 3389.58C444.134 3389.31 444.21 3389.01 444.21 3388.68C444.21 3388.37 444.134 3388.09 443.98 3387.84C443.834 3387.58 443.62 3387.38 443.34 3387.23C443.067 3387.08 442.747 3387.01 442.38 3387.01C442.027 3387.01 441.704 3387.07 441.41 3387.2C441.117 3387.32 440.89 3387.49 440.73 3387.72H440.05L440.59 3384H444.47V3384.68H441.13L440.8 3386.9H440.85C441.05 3386.73 441.287 3386.59 441.56 3386.5C441.84 3386.41 442.144 3386.36 442.47 3386.36C442.957 3386.36 443.387 3386.46 443.76 3386.67C444.134 3386.88 444.42 3387.16 444.62 3387.51C444.827 3387.86 444.93 3388.25 444.93 3388.68C444.93 3389.15 444.824 3389.57 444.61 3389.94C444.404 3390.31 444.104 3390.59 443.71 3390.8C443.317 3391.01 442.85 3391.11 442.31 3391.11ZM448.355 3391.11C447.829 3391.11 447.369 3391.02 446.975 3390.84C446.582 3390.66 446.275 3390.41 446.055 3390.1C445.835 3389.79 445.709 3389.44 445.675 3389.05H446.425C446.465 3389.33 446.565 3389.57 446.725 3389.78C446.892 3389.99 447.112 3390.15 447.385 3390.26C447.665 3390.37 447.989 3390.43 448.355 3390.43C448.742 3390.43 449.079 3390.36 449.365 3390.21C449.652 3390.06 449.872 3389.85 450.025 3389.58C450.179 3389.31 450.255 3389.01 450.255 3388.68C450.255 3388.37 450.179 3388.09 450.025 3387.84C449.879 3387.58 449.665 3387.38 449.385 3387.23C449.112 3387.08 448.792 3387.01 448.425 3387.01C448.072 3387.01 447.749 3387.07 447.455 3387.2C447.162 3387.32 446.935 3387.49 446.775 3387.72H446.095L446.635 3384H450.515V3384.68H447.175L446.845 3386.9H446.895C447.095 3386.73 447.332 3386.59 447.605 3386.5C447.885 3386.41 448.189 3386.36 448.515 3386.36C449.002 3386.36 449.432 3386.46 449.805 3386.67C450.179 3386.88 450.465 3387.16 450.665 3387.51C450.872 3387.86 450.975 3388.25 450.975 3388.68C450.975 3389.15 450.869 3389.57 450.655 3389.94C450.449 3390.31 450.149 3390.59 449.755 3390.8C449.362 3391.01 448.895 3391.11 448.355 3391.11Z" fill="#8D8B84"/>
<path d="M84.76 3391L83.3 3386.01H83.98L85.19 3390.28H85.24L86.42 3386.01H87.25L88.43 3390.28H88.48L89.7 3386.01H90.37L88.9 3391H88.04L86.85 3386.73H86.8L85.62 3391H84.76ZM93.2042 3389.44V3388.71L95.6742 3384H96.4542L93.9842 3388.71V3388.76H98.8542V3389.44H93.2042ZM97.1542 3391V3386.41H97.8542V3391H97.1542ZM102.096 3391.11C101.563 3391.11 101.096 3391.03 100.696 3390.87C100.303 3390.71 99.9961 3390.48 99.7761 3390.18C99.5561 3389.87 99.4461 3389.51 99.4461 3389.1C99.4461 3388.67 99.5694 3388.31 99.8161 3388C100.063 3387.69 100.406 3387.47 100.846 3387.35V3387.3C100.446 3387.16 100.146 3386.96 99.9461 3386.7C99.7528 3386.43 99.6561 3386.12 99.6561 3385.76C99.6561 3385.39 99.7494 3385.07 99.9361 3384.79C100.129 3384.5 100.409 3384.28 100.776 3384.13C101.143 3383.97 101.583 3383.89 102.096 3383.89C102.609 3383.89 103.049 3383.97 103.416 3384.13C103.783 3384.28 104.063 3384.5 104.256 3384.79C104.449 3385.07 104.546 3385.39 104.546 3385.76C104.546 3386.12 104.446 3386.43 104.246 3386.7C104.053 3386.96 103.753 3387.16 103.346 3387.3V3387.35C103.786 3387.47 104.129 3387.69 104.376 3388C104.623 3388.31 104.746 3388.67 104.746 3389.1C104.746 3389.51 104.636 3389.87 104.416 3390.18C104.203 3390.48 103.896 3390.71 103.496 3390.87C103.096 3391.03 102.629 3391.11 102.096 3391.11ZM102.096 3390.43C102.709 3390.43 103.183 3390.31 103.516 3390.08C103.856 3389.85 104.026 3389.5 104.026 3389.05C104.026 3388.6 103.856 3388.26 103.516 3388.03C103.183 3387.8 102.709 3387.68 102.096 3387.68C101.483 3387.68 101.009 3387.8 100.676 3388.03C100.343 3388.26 100.176 3388.6 100.176 3389.05C100.176 3389.5 100.343 3389.85 100.676 3390.08C101.009 3390.31 101.483 3390.43 102.096 3390.43ZM102.096 3387.01C102.663 3387.01 103.089 3386.9 103.376 3386.69C103.669 3386.48 103.816 3386.18 103.816 3385.79C103.816 3385.4 103.673 3385.1 103.386 3384.89C103.099 3384.68 102.669 3384.57 102.096 3384.57C101.523 3384.57 101.093 3384.68 100.806 3384.89C100.519 3385.1 100.376 3385.4 100.376 3385.79C100.376 3386.18 100.523 3386.48 100.816 3386.69C101.109 3386.9 101.536 3387.01 102.096 3387.01ZM106.04 3391L109.24 3384.75V3384.7H105.28V3384H110.02V3384.78L106.87 3391H106.04Z" fill="#8D8B84"/>
<path d="M1111.8 3855V3848H1112.46V3850.85H1112.51C1112.68 3850.56 1112.91 3850.34 1113.21 3850.17C1113.52 3850 1113.87 3849.91 1114.26 3849.91C1114.66 3849.91 1115 3849.99 1115.29 3850.16C1115.58 3850.32 1115.81 3850.56 1115.96 3850.88C1116.11 3851.2 1116.19 3851.58 1116.19 3852.03V3855H1115.53V3852.14C1115.53 3851.62 1115.41 3851.22 1115.17 3850.94C1114.93 3850.65 1114.58 3850.51 1114.12 3850.51C1113.81 3850.51 1113.52 3850.58 1113.27 3850.73C1113.02 3850.88 1112.82 3851.08 1112.67 3851.35C1112.53 3851.61 1112.46 3851.91 1112.46 3852.26V3855H1111.8ZM1121.17 3855V3848.55L1121.43 3848.66L1119.67 3850.04V3849.23L1121.22 3848H1121.87V3855H1121.17ZM1125.91 3855.11C1125.36 3855.11 1124.89 3855.02 1124.49 3854.85C1124.09 3854.68 1123.79 3854.44 1123.57 3854.13C1123.35 3853.82 1123.22 3853.46 1123.19 3853.05H1123.94C1123.98 3853.5 1124.18 3853.84 1124.52 3854.08C1124.86 3854.31 1125.32 3854.43 1125.91 3854.43C1126.3 3854.43 1126.63 3854.37 1126.91 3854.24C1127.19 3854.11 1127.4 3853.93 1127.54 3853.7C1127.68 3853.47 1127.76 3853.22 1127.76 3852.93C1127.76 3852.63 1127.68 3852.37 1127.54 3852.15C1127.39 3851.92 1127.18 3851.75 1126.9 3851.64C1126.62 3851.53 1126.3 3851.47 1125.92 3851.47H1124.68V3850.85L1127.2 3848.73V3848.68H1123.73V3848H1128.05V3848.81L1125.69 3850.81V3851.07L1125.51 3850.86H1126.04C1126.52 3850.86 1126.95 3850.94 1127.32 3851.11C1127.69 3851.28 1127.98 3851.52 1128.18 3851.83C1128.38 3852.14 1128.49 3852.51 1128.49 3852.93C1128.49 3853.32 1128.39 3853.69 1128.19 3854.02C1127.99 3854.35 1127.69 3854.62 1127.3 3854.82C1126.91 3855.01 1126.45 3855.11 1125.91 3855.11ZM1129.34 3853.44V3852.71L1131.81 3848H1132.59L1130.12 3852.71V3852.76H1134.99V3853.44H1129.34ZM1133.29 3855V3850.41H1133.99V3855H1133.29Z" fill="#8D8B84"/>
<path d="M1309.8 3206V3199H1310.46V3201.85H1310.51C1310.68 3201.56 1310.91 3201.34 1311.21 3201.17C1311.52 3201 1311.87 3200.91 1312.26 3200.91C1312.66 3200.91 1313 3200.99 1313.29 3201.16C1313.58 3201.32 1313.81 3201.56 1313.96 3201.88C1314.11 3202.2 1314.19 3202.58 1314.19 3203.03V3206H1313.53V3203.14C1313.53 3202.62 1313.41 3202.22 1313.17 3201.94C1312.93 3201.65 1312.58 3201.51 1312.12 3201.51C1311.81 3201.51 1311.52 3201.58 1311.27 3201.73C1311.02 3201.88 1310.82 3202.08 1310.67 3202.35C1310.53 3202.61 1310.46 3202.91 1310.46 3203.26V3206H1309.8ZM1319.17 3206V3199.55L1319.43 3199.66L1317.67 3201.04V3200.23L1319.22 3199H1319.87V3206H1319.17ZM1322.93 3206L1325.02 3203.32L1325.25 3203.5C1325.06 3203.58 1324.86 3203.64 1324.64 3203.69C1324.42 3203.74 1324.2 3203.76 1323.96 3203.76C1323.42 3203.76 1322.94 3203.65 1322.54 3203.44C1322.13 3203.23 1321.81 3202.94 1321.59 3202.57C1321.37 3202.2 1321.26 3201.78 1321.26 3201.33C1321.26 3200.88 1321.37 3200.47 1321.59 3200.1C1321.81 3199.73 1322.13 3199.43 1322.54 3199.22C1322.94 3199 1323.42 3198.89 1323.96 3198.89C1324.5 3198.89 1324.97 3199 1325.38 3199.22C1325.79 3199.43 1326.11 3199.73 1326.33 3200.1C1326.55 3200.47 1326.66 3200.88 1326.66 3201.33C1326.66 3201.64 1326.59 3201.95 1326.47 3202.27C1326.34 3202.59 1326.15 3202.91 1325.91 3203.24L1323.79 3206H1322.93ZM1323.96 3203.11C1324.36 3203.11 1324.71 3203.03 1325.01 3202.88C1325.31 3202.73 1325.54 3202.52 1325.7 3202.25C1325.86 3201.98 1325.94 3201.67 1325.94 3201.33C1325.94 3200.99 1325.86 3200.69 1325.7 3200.42C1325.54 3200.15 1325.31 3199.93 1325.01 3199.78C1324.71 3199.62 1324.36 3199.54 1323.96 3199.54C1323.55 3199.54 1323.2 3199.62 1322.9 3199.78C1322.6 3199.93 1322.38 3200.15 1322.22 3200.42C1322.06 3200.69 1321.99 3200.99 1321.99 3201.33C1321.99 3201.67 1322.06 3201.98 1322.22 3202.25C1322.38 3202.52 1322.6 3202.73 1322.9 3202.88C1323.2 3203.03 1323.55 3203.11 1323.96 3203.11ZM1330.21 3206.11C1329.67 3206.11 1329.21 3206.03 1328.81 3205.87C1328.41 3205.71 1328.11 3205.48 1327.89 3205.18C1327.67 3204.87 1327.56 3204.51 1327.56 3204.1C1327.56 3203.67 1327.68 3203.31 1327.93 3203C1328.17 3202.69 1328.52 3202.47 1328.96 3202.35V3202.3C1328.56 3202.16 1328.26 3201.96 1328.06 3201.7C1327.86 3201.43 1327.77 3201.12 1327.77 3200.76C1327.77 3200.39 1327.86 3200.07 1328.05 3199.79C1328.24 3199.5 1328.52 3199.28 1328.89 3199.13C1329.25 3198.97 1329.69 3198.89 1330.21 3198.89C1330.72 3198.89 1331.16 3198.97 1331.53 3199.13C1331.89 3199.28 1332.17 3199.5 1332.37 3199.79C1332.56 3200.07 1332.66 3200.39 1332.66 3200.76C1332.66 3201.12 1332.56 3201.43 1332.36 3201.7C1332.16 3201.96 1331.86 3202.16 1331.46 3202.3V3202.35C1331.9 3202.47 1332.24 3202.69 1332.49 3203C1332.73 3203.31 1332.86 3203.67 1332.86 3204.1C1332.86 3204.51 1332.75 3204.87 1332.53 3205.18C1332.31 3205.48 1332.01 3205.71 1331.61 3205.87C1331.21 3206.03 1330.74 3206.11 1330.21 3206.11ZM1330.21 3205.43C1330.82 3205.43 1331.29 3205.31 1331.63 3205.08C1331.97 3204.85 1332.14 3204.5 1332.14 3204.05C1332.14 3203.6 1331.97 3203.26 1331.63 3203.03C1331.29 3202.8 1330.82 3202.68 1330.21 3202.68C1329.59 3202.68 1329.12 3202.8 1328.79 3203.03C1328.45 3203.26 1328.29 3203.6 1328.29 3204.05C1328.29 3204.5 1328.45 3204.85 1328.79 3205.08C1329.12 3205.31 1329.59 3205.43 1330.21 3205.43ZM1330.21 3202.01C1330.77 3202.01 1331.2 3201.9 1331.49 3201.69C1331.78 3201.48 1331.93 3201.18 1331.93 3200.79C1331.93 3200.4 1331.78 3200.1 1331.5 3199.89C1331.21 3199.68 1330.78 3199.57 1330.21 3199.57C1329.63 3199.57 1329.2 3199.68 1328.92 3199.89C1328.63 3200.1 1328.49 3200.4 1328.49 3200.79C1328.49 3201.18 1328.63 3201.48 1328.93 3201.69C1329.22 3201.9 1329.65 3202.01 1330.21 3202.01Z" fill="#8D8B84"/>
<path d="M1032.86 1801V1794H1033.56V1800.32H1037.32V1801H1032.86ZM1042.92 1801.11C1042.39 1801.11 1041.92 1801.03 1041.52 1800.87C1041.13 1800.71 1040.82 1800.48 1040.6 1800.18C1040.38 1799.87 1040.27 1799.51 1040.27 1799.1C1040.27 1798.67 1040.4 1798.31 1040.64 1798C1040.89 1797.69 1041.23 1797.47 1041.67 1797.35V1797.3C1041.27 1797.16 1040.97 1796.96 1040.77 1796.7C1040.58 1796.43 1040.48 1796.12 1040.48 1795.76C1040.48 1795.39 1040.58 1795.07 1040.76 1794.79C1040.96 1794.5 1041.24 1794.28 1041.6 1794.13C1041.97 1793.97 1042.41 1793.89 1042.92 1793.89C1043.44 1793.89 1043.88 1793.97 1044.24 1794.13C1044.61 1794.28 1044.89 1794.5 1045.08 1794.79C1045.28 1795.07 1045.37 1795.39 1045.37 1795.76C1045.37 1796.12 1045.27 1796.43 1045.07 1796.7C1044.88 1796.96 1044.58 1797.16 1044.17 1797.3V1797.35C1044.61 1797.47 1044.96 1797.69 1045.2 1798C1045.45 1798.31 1045.57 1798.67 1045.57 1799.1C1045.57 1799.51 1045.46 1799.87 1045.24 1800.18C1045.03 1800.48 1044.72 1800.71 1044.32 1800.87C1043.92 1801.03 1043.46 1801.11 1042.92 1801.11ZM1042.92 1800.43C1043.54 1800.43 1044.01 1800.31 1044.34 1800.08C1044.68 1799.85 1044.85 1799.5 1044.85 1799.05C1044.85 1798.6 1044.68 1798.26 1044.34 1798.03C1044.01 1797.8 1043.54 1797.68 1042.92 1797.68C1042.31 1797.68 1041.84 1797.8 1041.5 1798.03C1041.17 1798.26 1041 1798.6 1041 1799.05C1041 1799.5 1041.17 1799.85 1041.5 1800.08C1041.84 1800.31 1042.31 1800.43 1042.92 1800.43ZM1042.92 1797.01C1043.49 1797.01 1043.92 1796.9 1044.2 1796.69C1044.5 1796.48 1044.64 1796.18 1044.64 1795.79C1044.64 1795.4 1044.5 1795.1 1044.21 1794.89C1043.93 1794.68 1043.5 1794.57 1042.92 1794.57C1042.35 1794.57 1041.92 1794.68 1041.63 1794.89C1041.35 1795.1 1041.2 1795.4 1041.2 1795.79C1041.2 1796.18 1041.35 1796.48 1041.64 1796.69C1041.94 1796.9 1042.36 1797.01 1042.92 1797.01ZM1046.4 1799.44V1798.71L1048.87 1794H1049.65L1047.18 1798.71V1798.76H1052.05V1799.44H1046.4ZM1050.35 1801V1796.41H1051.05V1801H1050.35ZM1052.84 1801L1056.04 1794.75V1794.7H1052.08V1794H1056.82V1794.78L1053.67 1801H1052.84Z" fill="#8D8B84"/>
<path d="M1197.8 872V865H1198.46V867.85H1198.51C1198.68 867.563 1198.91 867.337 1199.21 867.17C1199.52 866.997 1199.87 866.91 1200.26 866.91C1200.66 866.91 1201 866.993 1201.29 867.16C1201.58 867.32 1201.81 867.56 1201.96 867.88C1202.11 868.2 1202.19 868.583 1202.19 869.03V872H1201.53V869.14C1201.53 868.62 1201.41 868.22 1201.17 867.94C1200.93 867.653 1200.58 867.51 1200.12 867.51C1199.81 867.51 1199.52 867.583 1199.27 867.73C1199.02 867.877 1198.82 868.083 1198.67 868.35C1198.53 868.61 1198.46 868.913 1198.46 869.26V872H1197.8ZM1205.77 872V871.12L1208.66 868.89C1208.98 868.637 1209.22 868.413 1209.4 868.22C1209.59 868.02 1209.72 867.823 1209.8 867.63C1209.89 867.43 1209.93 867.217 1209.93 866.99C1209.93 866.557 1209.79 866.213 1209.5 865.96C1209.22 865.7 1208.85 865.57 1208.38 865.57C1207.85 865.57 1207.43 865.713 1207.13 866C1206.84 866.287 1206.67 866.657 1206.63 867.11H1205.91C1205.93 866.71 1206.02 866.343 1206.2 866.01C1206.39 865.677 1206.66 865.407 1207.02 865.2C1207.39 864.993 1207.84 864.89 1208.38 864.89C1208.84 864.89 1209.24 864.98 1209.58 865.16C1209.92 865.333 1210.19 865.577 1210.37 865.89C1210.56 866.203 1210.65 866.56 1210.65 866.96C1210.65 867.273 1210.6 867.557 1210.49 867.81C1210.39 868.063 1210.23 868.32 1210 868.58C1209.78 868.833 1209.46 869.11 1209.06 869.41L1206.68 871.27V871.32H1210.82V872H1205.77ZM1211.41 870.44V869.71L1213.88 865H1214.66L1212.19 869.71V869.76H1217.06V870.44H1211.41ZM1215.36 872V867.41H1216.06V872H1215.36ZM1217.54 872V871.12L1220.43 868.89C1220.74 868.637 1220.99 868.413 1221.17 868.22C1221.36 868.02 1221.49 867.823 1221.57 867.63C1221.66 867.43 1221.7 867.217 1221.7 866.99C1221.7 866.557 1221.56 866.213 1221.27 865.96C1220.99 865.7 1220.62 865.57 1220.15 865.57C1219.62 865.57 1219.2 865.713 1218.9 866C1218.61 866.287 1218.44 866.657 1218.4 867.11H1217.68C1217.69 866.71 1217.79 866.343 1217.97 866.01C1218.16 865.677 1218.43 865.407 1218.79 865.2C1219.16 864.993 1219.61 864.89 1220.15 864.89C1220.61 864.89 1221.01 864.98 1221.35 865.16C1221.69 865.333 1221.95 865.577 1222.14 865.89C1222.33 866.203 1222.42 866.56 1222.42 866.96C1222.42 867.273 1222.37 867.557 1222.26 867.81C1222.16 868.063 1222 868.32 1221.77 868.58C1221.54 868.833 1221.23 869.11 1220.83 869.41L1218.45 871.27V871.32H1222.59V872H1217.54Z" fill="#8D8B84"/>
</g>
<g clip-path="url(#clip1_2002_3654)">
<rect y="3477" width="670" height="209" fill="#21201C"/>
<rect x="670" y="3546" width="390" height="140" fill="#21201C"/>
<rect x="869" y="3477" width="249" height="69" fill="#21201C"/>
<rect y="3686" width="771" height="866" fill="#21201C"/>
<rect x="770" y="4065" width="670" height="487" fill="#21201C"/>
<rect x="770" y="3696" width="588" height="369" fill="#21201C"/>
<rect x="1358" y="3919" width="42" height="146" fill="#21201C"/>
<line x1="-2.18557e-08" y1="4551.75" x2="1440" y2="4551.75" stroke="#8D8B84" stroke-width="0.5"/>
<line x1="1268.25" y1="3696" x2="1268.25" y2="4552" stroke="#8D8B84" stroke-width="0.5"/>
<line x1="869.25" y1="3546" x2="869.25" y2="4065" stroke="#8D8B84" stroke-width="0.5"/>
<line x1="670.25" y1="3546" x2="670.25" y2="4065" stroke="#8D8B84" stroke-width="0.5"/>
<line x1="386.25" y1="3477" x2="386.25" y2="4552" stroke="#8D8B84" stroke-width="0.5" stroke-dasharray="8 8"/>
<line x1="1358.25" y1="3696" x2="1358.25" y2="4266" stroke="#8D8B84" stroke-width="0.5" stroke-dasharray="8 8"/>
<line x1="827.25" y1="4119" x2="827.25" y2="4552" stroke="#8D8B84" stroke-width="0.5" stroke-dasharray="8 8"/>
<line x1="1440" y1="4065.25" y2="4065.25" stroke="#8D8B84" stroke-width="0.5"/>
<line x1="1440" y1="4266.25" y2="4266.25" stroke="#8D8B84" stroke-width="0.5"/>
<path d="M1268 4561C1268 4445.63 1221.54 4334.99 1138.83 4253.41C1056.13 4171.83 943.961 4126 827 4126C710.04 4126 597.87 4171.83 515.166 4253.41C432.462 4334.99 386 4445.63 386 4561" stroke="#8D8B84" stroke-width="0.5"/>
<path d="M1274.76 4260L1273.3 4255.01H1273.98L1275.19 4259.28H1275.24L1276.42 4255.01H1277.25L1278.43 4259.28H1278.48L1279.7 4255.01H1280.37L1278.9 4260H1278.04L1276.85 4255.73H1276.8L1275.62 4260H1274.76ZM1285.98 4260.11C1285.46 4260.11 1285 4260.02 1284.6 4259.84C1284.21 4259.66 1283.9 4259.41 1283.68 4259.1C1283.46 4258.79 1283.34 4258.44 1283.3 4258.05H1284.05C1284.09 4258.33 1284.19 4258.57 1284.35 4258.78C1284.52 4258.99 1284.74 4259.15 1285.01 4259.26C1285.29 4259.37 1285.62 4259.43 1285.98 4259.43C1286.37 4259.43 1286.71 4259.36 1286.99 4259.21C1287.28 4259.06 1287.5 4258.85 1287.65 4258.58C1287.81 4258.31 1287.88 4258.01 1287.88 4257.68C1287.88 4257.37 1287.81 4257.09 1287.65 4256.84C1287.51 4256.58 1287.29 4256.38 1287.01 4256.23C1286.74 4256.08 1286.42 4256.01 1286.05 4256.01C1285.7 4256.01 1285.38 4256.07 1285.08 4256.2C1284.79 4256.32 1284.56 4256.49 1284.4 4256.72H1283.72L1284.26 4253H1288.14V4253.68H1284.8L1284.47 4255.9H1284.52C1284.72 4255.73 1284.96 4255.59 1285.23 4255.5C1285.51 4255.41 1285.82 4255.36 1286.14 4255.36C1286.63 4255.36 1287.06 4255.46 1287.43 4255.67C1287.81 4255.88 1288.09 4256.16 1288.29 4256.51C1288.5 4256.86 1288.6 4257.25 1288.6 4257.68C1288.6 4258.15 1288.5 4258.57 1288.28 4258.94C1288.08 4259.31 1287.78 4259.59 1287.38 4259.8C1286.99 4260.01 1286.52 4260.11 1285.98 4260.11ZM1292.12 4260.11C1291.58 4260.11 1291.1 4260 1290.7 4259.79C1290.29 4259.57 1289.97 4259.28 1289.75 4258.91C1289.53 4258.54 1289.42 4258.12 1289.42 4257.67C1289.42 4257.36 1289.48 4257.05 1289.61 4256.73C1289.73 4256.41 1289.92 4256.09 1290.18 4255.76L1292.3 4253H1293.16L1291.06 4255.68L1290.84 4255.5C1291.02 4255.42 1291.21 4255.36 1291.43 4255.31C1291.65 4255.26 1291.88 4255.24 1292.12 4255.24C1292.66 4255.24 1293.13 4255.35 1293.54 4255.56C1293.95 4255.77 1294.27 4256.07 1294.49 4256.44C1294.71 4256.81 1294.82 4257.22 1294.82 4257.67C1294.82 4258.12 1294.71 4258.54 1294.49 4258.91C1294.27 4259.28 1293.95 4259.57 1293.54 4259.79C1293.13 4260 1292.66 4260.11 1292.12 4260.11ZM1292.12 4259.46C1292.52 4259.46 1292.87 4259.38 1293.17 4259.23C1293.47 4259.07 1293.7 4258.86 1293.86 4258.59C1294.02 4258.32 1294.1 4258.01 1294.1 4257.67C1294.1 4257.33 1294.02 4257.03 1293.86 4256.76C1293.7 4256.49 1293.47 4256.27 1293.17 4256.12C1292.87 4255.97 1292.52 4255.89 1292.12 4255.89C1291.71 4255.89 1291.36 4255.97 1291.06 4256.12C1290.76 4256.27 1290.54 4256.49 1290.38 4256.76C1290.22 4257.03 1290.15 4257.33 1290.15 4257.67C1290.15 4258.01 1290.22 4258.32 1290.38 4258.59C1290.54 4258.86 1290.76 4259.07 1291.06 4259.23C1291.36 4259.38 1291.71 4259.46 1292.12 4259.46Z" fill="#8D8B84"/>
<path d="M1274.76 4059L1273.3 4054.01H1273.98L1275.19 4058.28H1275.24L1276.42 4054.01H1277.25L1278.43 4058.28H1278.48L1279.7 4054.01H1280.37L1278.9 4059H1278.04L1276.85 4054.73H1276.8L1275.62 4059H1274.76ZM1284.75 4059V4052.55L1285.01 4052.66L1283.25 4054.04V4053.23L1284.8 4052H1285.45V4059H1284.75ZM1286.97 4059V4058.12L1289.86 4055.89C1290.17 4055.64 1290.42 4055.41 1290.6 4055.22C1290.78 4055.02 1290.92 4054.82 1291 4054.63C1291.08 4054.43 1291.13 4054.22 1291.13 4053.99C1291.13 4053.56 1290.98 4053.21 1290.7 4052.96C1290.42 4052.7 1290.04 4052.57 1289.58 4052.57C1289.04 4052.57 1288.63 4052.71 1288.33 4053C1288.03 4053.29 1287.87 4053.66 1287.83 4054.11H1287.11C1287.12 4053.71 1287.22 4053.34 1287.4 4053.01C1287.58 4052.68 1287.86 4052.41 1288.22 4052.2C1288.58 4051.99 1289.04 4051.89 1289.58 4051.89C1290.04 4051.89 1290.44 4051.98 1290.78 4052.16C1291.12 4052.33 1291.38 4052.58 1291.57 4052.89C1291.75 4053.2 1291.85 4053.56 1291.85 4053.96C1291.85 4054.27 1291.79 4054.56 1291.69 4054.81C1291.59 4055.06 1291.42 4055.32 1291.2 4055.58C1290.97 4055.83 1290.66 4056.11 1290.26 4056.41L1287.88 4058.27V4058.32H1292.02V4059H1286.97ZM1295.38 4059.11C1294.83 4059.11 1294.36 4059.02 1293.96 4058.85C1293.56 4058.68 1293.26 4058.44 1293.04 4058.13C1292.82 4057.82 1292.69 4057.46 1292.66 4057.05H1293.41C1293.45 4057.5 1293.65 4057.84 1293.99 4058.08C1294.33 4058.31 1294.79 4058.43 1295.38 4058.43C1295.77 4058.43 1296.1 4058.37 1296.38 4058.24C1296.66 4058.11 1296.87 4057.93 1297.01 4057.7C1297.15 4057.47 1297.23 4057.22 1297.23 4056.93C1297.23 4056.63 1297.15 4056.37 1297.01 4056.15C1296.86 4055.92 1296.65 4055.75 1296.37 4055.64C1296.09 4055.53 1295.77 4055.47 1295.39 4055.47H1294.15V4054.85L1296.67 4052.73V4052.68H1293.2V4052H1297.52V4052.81L1295.16 4054.81V4055.07L1294.98 4054.86H1295.51C1295.99 4054.86 1296.42 4054.94 1296.79 4055.11C1297.16 4055.28 1297.45 4055.52 1297.65 4055.83C1297.85 4056.14 1297.96 4056.51 1297.96 4056.93C1297.96 4057.32 1297.86 4057.69 1297.66 4058.02C1297.46 4058.35 1297.16 4058.62 1296.77 4058.82C1296.38 4059.01 1295.92 4059.11 1295.38 4059.11Z" fill="#8D8B84"/>
<path d="M391.96 4546V4539H394.17C394.857 4539 395.47 4539.15 396.01 4539.45C396.557 4539.74 396.98 4540.16 397.28 4540.69C397.587 4541.22 397.74 4541.83 397.74 4542.5C397.74 4543.17 397.587 4543.78 397.28 4544.31C396.98 4544.84 396.557 4545.26 396.01 4545.56C395.47 4545.85 394.857 4546 394.17 4546H391.96ZM394.17 4545.32C394.73 4545.32 395.223 4545.2 395.65 4544.97C396.083 4544.74 396.42 4544.41 396.66 4543.98C396.9 4543.55 397.02 4543.05 397.02 4542.5C397.02 4541.95 396.9 4541.46 396.66 4541.03C396.42 4540.6 396.083 4540.26 395.65 4540.03C395.223 4539.8 394.73 4539.68 394.17 4539.68H392.66V4545.32H394.17ZM403.524 4546.11C402.99 4546.11 402.524 4546.03 402.124 4545.87C401.73 4545.71 401.424 4545.48 401.204 4545.18C400.984 4544.87 400.874 4544.51 400.874 4544.1C400.874 4543.67 400.997 4543.31 401.244 4543C401.49 4542.69 401.834 4542.47 402.274 4542.35V4542.3C401.874 4542.16 401.574 4541.96 401.374 4541.7C401.18 4541.43 401.084 4541.12 401.084 4540.76C401.084 4540.39 401.177 4540.07 401.364 4539.79C401.557 4539.5 401.837 4539.28 402.204 4539.13C402.57 4538.97 403.01 4538.89 403.524 4538.89C404.037 4538.89 404.477 4538.97 404.844 4539.13C405.21 4539.28 405.49 4539.5 405.684 4539.79C405.877 4540.07 405.974 4540.39 405.974 4540.76C405.974 4541.12 405.874 4541.43 405.674 4541.7C405.48 4541.96 405.18 4542.16 404.774 4542.3V4542.35C405.214 4542.47 405.557 4542.69 405.804 4543C406.05 4543.31 406.174 4543.67 406.174 4544.1C406.174 4544.51 406.064 4544.87 405.844 4545.18C405.63 4545.48 405.324 4545.71 404.924 4545.87C404.524 4546.03 404.057 4546.11 403.524 4546.11ZM403.524 4545.43C404.137 4545.43 404.61 4545.31 404.944 4545.08C405.284 4544.85 405.454 4544.5 405.454 4544.05C405.454 4543.6 405.284 4543.26 404.944 4543.03C404.61 4542.8 404.137 4542.68 403.524 4542.68C402.91 4542.68 402.437 4542.8 402.104 4543.03C401.77 4543.26 401.604 4543.6 401.604 4544.05C401.604 4544.5 401.77 4544.85 402.104 4545.08C402.437 4545.31 402.91 4545.43 403.524 4545.43ZM403.524 4542.01C404.09 4542.01 404.517 4541.9 404.804 4541.69C405.097 4541.48 405.244 4541.18 405.244 4540.79C405.244 4540.4 405.1 4540.1 404.814 4539.89C404.527 4539.68 404.097 4539.57 403.524 4539.57C402.95 4539.57 402.52 4539.68 402.234 4539.89C401.947 4540.1 401.804 4540.4 401.804 4540.79C401.804 4541.18 401.95 4541.48 402.244 4541.69C402.537 4541.9 402.964 4542.01 403.524 4542.01ZM409.725 4546.11C409.192 4546.11 408.725 4546.03 408.325 4545.87C407.932 4545.71 407.625 4545.48 407.405 4545.18C407.185 4544.87 407.075 4544.51 407.075 4544.1C407.075 4543.67 407.198 4543.31 407.445 4543C407.692 4542.69 408.035 4542.47 408.475 4542.35V4542.3C408.075 4542.16 407.775 4541.96 407.575 4541.7C407.382 4541.43 407.285 4541.12 407.285 4540.76C407.285 4540.39 407.378 4540.07 407.565 4539.79C407.758 4539.5 408.038 4539.28 408.405 4539.13C408.772 4538.97 409.212 4538.89 409.725 4538.89C410.238 4538.89 410.678 4538.97 411.045 4539.13C411.412 4539.28 411.692 4539.5 411.885 4539.79C412.078 4540.07 412.175 4540.39 412.175 4540.76C412.175 4541.12 412.075 4541.43 411.875 4541.7C411.682 4541.96 411.382 4542.16 410.975 4542.3V4542.35C411.415 4542.47 411.758 4542.69 412.005 4543C412.252 4543.31 412.375 4543.67 412.375 4544.1C412.375 4544.51 412.265 4544.87 412.045 4545.18C411.832 4545.48 411.525 4545.71 411.125 4545.87C410.725 4546.03 410.258 4546.11 409.725 4546.11ZM409.725 4545.43C410.338 4545.43 410.812 4545.31 411.145 4545.08C411.485 4544.85 411.655 4544.5 411.655 4544.05C411.655 4543.6 411.485 4543.26 411.145 4543.03C410.812 4542.8 410.338 4542.68 409.725 4542.68C409.112 4542.68 408.638 4542.8 408.305 4543.03C407.972 4543.26 407.805 4543.6 407.805 4544.05C407.805 4544.5 407.972 4544.85 408.305 4545.08C408.638 4545.31 409.112 4545.43 409.725 4545.43ZM409.725 4542.01C410.292 4542.01 410.718 4541.9 411.005 4541.69C411.298 4541.48 411.445 4541.18 411.445 4540.79C411.445 4540.4 411.302 4540.1 411.015 4539.89C410.728 4539.68 410.298 4539.57 409.725 4539.57C409.152 4539.57 408.722 4539.68 408.435 4539.89C408.148 4540.1 408.005 4540.4 408.005 4540.79C408.005 4541.18 408.152 4541.48 408.445 4541.69C408.738 4541.9 409.165 4542.01 409.725 4542.01ZM413.259 4546V4545.12L416.149 4542.89C416.462 4542.64 416.709 4542.41 416.889 4542.22C417.075 4542.02 417.209 4541.82 417.289 4541.63C417.375 4541.43 417.419 4541.22 417.419 4540.99C417.419 4540.56 417.275 4540.21 416.989 4539.96C416.709 4539.7 416.335 4539.57 415.869 4539.57C415.335 4539.57 414.919 4539.71 414.619 4540C414.325 4540.29 414.159 4540.66 414.119 4541.11H413.399C413.412 4540.71 413.509 4540.34 413.689 4540.01C413.875 4539.68 414.149 4539.41 414.509 4539.2C414.875 4538.99 415.329 4538.89 415.869 4538.89C416.329 4538.89 416.729 4538.98 417.069 4539.16C417.409 4539.33 417.672 4539.58 417.859 4539.89C418.045 4540.2 418.139 4540.56 418.139 4540.96C418.139 4541.27 418.085 4541.56 417.979 4541.81C417.879 4542.06 417.715 4542.32 417.489 4542.58C417.262 4542.83 416.949 4543.11 416.549 4543.41L414.169 4545.27V4545.32H418.309V4546H413.259Z" fill="#8D8B84"/>
<path d="M832.75 4546V4541.01H833.38V4541.86H833.43C833.577 4541.57 833.78 4541.34 834.04 4541.19C834.307 4541.04 834.613 4540.96 834.96 4540.96H835.66V4541.59H834.96C834.487 4541.59 834.11 4541.75 833.83 4542.07C833.55 4542.39 833.41 4542.81 833.41 4543.33V4546H832.75ZM838.327 4544.44V4543.71L840.797 4539H841.577L839.107 4543.71V4543.76H843.977V4544.44H838.327ZM842.277 4546V4541.41H842.977V4546H842.277ZM844.489 4544.44V4543.71L846.959 4539H847.739L845.269 4543.71V4543.76H850.139V4544.44H844.489ZM848.439 4546V4541.41H849.139V4546H848.439ZM851.918 4546V4539.55L852.178 4539.66L850.418 4541.04V4540.23L851.968 4539H852.618V4546H851.918Z" fill="#8D8B84"/>
</g>
<g clip-path="url(#clip2_2002_3654)">
<rect width="1440" height="961" transform="translate(0 4552)" fill="#21201C"/>
<line x1="1440" y1="5127.25" y2="5127.25" stroke="#8D8B84" stroke-width="0.5"/>
<line x1="1268.25" y1="4552" x2="1268.25" y2="5513" stroke="#8D8B84" stroke-width="0.5"/>
<line x1="104.25" y1="5127" x2="104.25" y2="5513" stroke="#8D8B84" stroke-width="0.5"/>
<line x1="887.25" y1="5127" x2="887.25" y2="5513" stroke="#8D8B84" stroke-width="0.5"/>
<line x1="495.25" y1="4746" x2="495.25" y2="5127" stroke="#8D8B84" stroke-width="0.5"/>
<line x1="386.25" y1="4552" x2="386.25" y2="5513" stroke="#8D8B84" stroke-width="0.5" stroke-dasharray="8 8"/>
<line x1="1440" y1="5452.25" x2="887" y2="5452.25" stroke="#8D8B84" stroke-width="0.5" stroke-dasharray="8 8"/>
<line x1="827.25" y1="4552" x2="827.25" y2="5127" stroke="#8D8B84" stroke-width="0.5" stroke-dasharray="8 8"/>
<path d="M887 5513C887 5410.63 845.753 5312.45 772.332 5240.06C698.912 5167.67 599.332 5127 495.5 5127C391.668 5127 292.088 5167.67 218.668 5240.06C145.247 5312.45 104 5410.63 104 5513" stroke="#8D8B84" stroke-width="0.5"/>
<path d="M834.96 4740.1C834.48 4740.1 834.047 4739.99 833.66 4739.76C833.28 4739.53 832.98 4739.22 832.76 4738.83C832.54 4738.44 832.43 4737.99 832.43 4737.5C832.43 4737.01 832.54 4736.57 832.76 4736.18C832.98 4735.78 833.28 4735.47 833.66 4735.25C834.047 4735.02 834.48 4734.91 834.96 4734.91C835.333 4734.91 835.68 4734.98 836 4735.13C836.327 4735.28 836.603 4735.49 836.83 4735.76C837.063 4736.03 837.223 4736.35 837.31 4736.7H836.64C836.513 4736.33 836.297 4736.04 835.99 4735.83C835.69 4735.62 835.347 4735.51 834.96 4735.51C834.6 4735.51 834.277 4735.6 833.99 4735.77C833.71 4735.94 833.49 4736.17 833.33 4736.47C833.177 4736.77 833.1 4737.11 833.1 4737.5C833.1 4737.89 833.177 4738.23 833.33 4738.54C833.49 4738.84 833.71 4739.07 833.99 4739.24C834.277 4739.41 834.6 4739.49 834.96 4739.49C835.347 4739.49 835.69 4739.38 835.99 4739.17C836.297 4738.96 836.513 4738.67 836.64 4738.3H837.31C837.223 4738.66 837.063 4738.98 836.83 4739.25C836.603 4739.52 836.327 4739.73 836 4739.88C835.68 4740.03 835.333 4740.1 834.96 4740.1ZM840.427 4738.44V4737.71L842.897 4733H843.677L841.207 4737.71V4737.76H846.077V4738.44H840.427ZM844.377 4740V4735.41H845.077V4740H844.377Z" fill="#8D8B84"/>
<path d="M1272.8 5140V5133H1273.46V5135.85H1273.51C1273.68 5135.56 1273.91 5135.34 1274.21 5135.17C1274.52 5135 1274.87 5134.91 1275.26 5134.91C1275.66 5134.91 1276 5134.99 1276.29 5135.16C1276.58 5135.32 1276.81 5135.56 1276.96 5135.88C1277.11 5136.2 1277.19 5136.58 1277.19 5137.03V5140H1276.53V5137.14C1276.53 5136.62 1276.41 5136.22 1276.17 5135.94C1275.93 5135.65 1275.58 5135.51 1275.12 5135.51C1274.81 5135.51 1274.52 5135.58 1274.27 5135.73C1274.02 5135.88 1273.82 5136.08 1273.67 5136.35C1273.53 5136.61 1273.46 5136.91 1273.46 5137.26V5140H1272.8ZM1283.29 5140.11C1282.75 5140.11 1282.27 5140.02 1281.87 5139.85C1281.48 5139.68 1281.17 5139.44 1280.95 5139.13C1280.73 5138.82 1280.61 5138.46 1280.57 5138.05H1281.32C1281.37 5138.5 1281.56 5138.84 1281.9 5139.08C1282.24 5139.31 1282.71 5139.43 1283.29 5139.43C1283.69 5139.43 1284.02 5139.37 1284.29 5139.24C1284.57 5139.11 1284.78 5138.93 1284.92 5138.7C1285.07 5138.47 1285.14 5138.22 1285.14 5137.93C1285.14 5137.63 1285.07 5137.37 1284.92 5137.15C1284.78 5136.92 1284.56 5136.75 1284.28 5136.64C1284.01 5136.53 1283.68 5136.47 1283.3 5136.47H1282.06V5135.85L1284.58 5133.73V5133.68H1281.11V5133H1285.43V5133.81L1283.07 5135.81V5136.07L1282.89 5135.86H1283.42C1283.91 5135.86 1284.34 5135.94 1284.7 5136.11C1285.08 5136.28 1285.36 5136.52 1285.56 5136.83C1285.77 5137.14 1285.87 5137.51 1285.87 5137.93C1285.87 5138.32 1285.77 5138.69 1285.57 5139.02C1285.37 5139.35 1285.08 5139.62 1284.68 5139.82C1284.3 5140.01 1283.83 5140.11 1283.29 5140.11ZM1286.68 5140V5139.12L1289.57 5136.89C1289.88 5136.64 1290.13 5136.41 1290.31 5136.22C1290.5 5136.02 1290.63 5135.82 1290.71 5135.63C1290.8 5135.43 1290.84 5135.22 1290.84 5134.99C1290.84 5134.56 1290.7 5134.21 1290.41 5133.96C1290.13 5133.7 1289.76 5133.57 1289.29 5133.57C1288.76 5133.57 1288.34 5133.71 1288.04 5134C1287.75 5134.29 1287.58 5134.66 1287.54 5135.11H1286.82C1286.83 5134.71 1286.93 5134.34 1287.11 5134.01C1287.3 5133.68 1287.57 5133.41 1287.93 5133.2C1288.3 5132.99 1288.75 5132.89 1289.29 5132.89C1289.75 5132.89 1290.15 5132.98 1290.49 5133.16C1290.83 5133.33 1291.09 5133.58 1291.28 5133.89C1291.47 5134.2 1291.56 5134.56 1291.56 5134.96C1291.56 5135.27 1291.51 5135.56 1291.4 5135.81C1291.3 5136.06 1291.14 5136.32 1290.91 5136.58C1290.68 5136.83 1290.37 5137.11 1289.97 5137.41L1287.59 5139.27V5139.32H1291.73V5140H1286.68ZM1295.1 5140.11C1294.57 5140.11 1294.11 5140.02 1293.72 5139.84C1293.33 5139.66 1293.02 5139.41 1292.8 5139.1C1292.58 5138.79 1292.45 5138.44 1292.42 5138.05H1293.17C1293.21 5138.33 1293.31 5138.57 1293.47 5138.78C1293.64 5138.99 1293.86 5139.15 1294.13 5139.26C1294.41 5139.37 1294.73 5139.43 1295.1 5139.43C1295.49 5139.43 1295.82 5139.36 1296.11 5139.21C1296.4 5139.06 1296.62 5138.85 1296.77 5138.58C1296.92 5138.31 1297 5138.01 1297 5137.68C1297 5137.37 1296.92 5137.09 1296.77 5136.84C1296.62 5136.58 1296.41 5136.38 1296.13 5136.23C1295.86 5136.08 1295.54 5136.01 1295.17 5136.01C1294.82 5136.01 1294.49 5136.07 1294.2 5136.2C1293.91 5136.32 1293.68 5136.49 1293.52 5136.72H1292.84L1293.38 5133H1297.26V5133.68H1293.92L1293.59 5135.9H1293.64C1293.84 5135.73 1294.08 5135.59 1294.35 5135.5C1294.63 5135.41 1294.93 5135.36 1295.26 5135.36C1295.75 5135.36 1296.18 5135.46 1296.55 5135.67C1296.92 5135.88 1297.21 5136.16 1297.41 5136.51C1297.62 5136.86 1297.72 5137.25 1297.72 5137.68C1297.72 5138.15 1297.61 5138.57 1297.4 5138.94C1297.19 5139.31 1296.89 5139.59 1296.5 5139.8C1296.11 5140.01 1295.64 5140.11 1295.1 5140.11Z" fill="#8D8B84"/>
<path d="M891.8 5509V5502H892.46V5504.85H892.51C892.677 5504.56 892.91 5504.34 893.21 5504.17C893.517 5504 893.867 5503.91 894.26 5503.91C894.66 5503.91 895.003 5503.99 895.29 5504.16C895.583 5504.32 895.807 5504.56 895.96 5504.88C896.113 5505.2 896.19 5505.58 896.19 5506.03V5509H895.53V5506.14C895.53 5505.62 895.41 5505.22 895.17 5504.94C894.93 5504.65 894.58 5504.51 894.12 5504.51C893.807 5504.51 893.523 5504.58 893.27 5504.73C893.017 5504.88 892.817 5505.08 892.67 5505.35C892.53 5505.61 892.46 5505.91 892.46 5506.26V5509H891.8ZM902.392 5509.11C901.852 5509.11 901.379 5509 900.972 5508.79C900.566 5508.57 900.249 5508.28 900.022 5507.91C899.802 5507.54 899.692 5507.12 899.692 5506.67C899.692 5506.36 899.756 5506.05 899.882 5505.73C900.009 5505.41 900.199 5505.09 900.452 5504.76L902.572 5502H903.432L901.332 5504.68L901.112 5504.5C901.292 5504.42 901.489 5504.36 901.702 5504.31C901.922 5504.26 902.152 5504.24 902.392 5504.24C902.932 5504.24 903.406 5504.35 903.812 5504.56C904.226 5504.77 904.542 5505.07 904.762 5505.44C904.982 5505.81 905.092 5506.22 905.092 5506.67C905.092 5507.12 904.982 5507.54 904.762 5507.91C904.542 5508.28 904.226 5508.57 903.812 5508.79C903.406 5509 902.932 5509.11 902.392 5509.11ZM902.392 5508.46C902.799 5508.46 903.149 5508.38 903.442 5508.23C903.742 5508.07 903.972 5507.86 904.132 5507.59C904.292 5507.32 904.372 5507.01 904.372 5506.67C904.372 5506.33 904.292 5506.03 904.132 5505.76C903.972 5505.49 903.742 5505.27 903.442 5505.12C903.149 5504.97 902.799 5504.89 902.392 5504.89C901.986 5504.89 901.632 5504.97 901.332 5505.12C901.039 5505.27 900.812 5505.49 900.652 5505.76C900.499 5506.03 900.422 5506.33 900.422 5506.67C900.422 5507.01 900.499 5507.32 900.652 5507.59C900.812 5507.86 901.039 5508.07 901.332 5508.23C901.632 5508.38 901.986 5508.46 902.392 5508.46ZM909.045 5509.11C908.471 5509.11 907.945 5508.96 907.465 5508.67C906.985 5508.38 906.601 5507.96 906.315 5507.41C906.035 5506.86 905.895 5506.23 905.895 5505.5C905.895 5504.77 906.035 5504.14 906.315 5503.59C906.601 5503.04 906.985 5502.62 907.465 5502.33C907.945 5502.04 908.471 5501.89 909.045 5501.89C909.618 5501.89 910.141 5502.04 910.615 5502.33C911.095 5502.62 911.475 5503.04 911.755 5503.59C912.041 5504.14 912.185 5504.77 912.185 5505.5C912.185 5506.23 912.041 5506.86 911.755 5507.41C911.475 5507.96 911.095 5508.38 910.615 5508.67C910.141 5508.96 909.618 5509.11 909.045 5509.11ZM909.045 5508.43C909.485 5508.43 909.888 5508.32 910.255 5508.1C910.621 5507.88 910.915 5507.55 911.135 5507.11C911.355 5506.66 911.465 5506.13 911.465 5505.5C911.465 5504.87 911.355 5504.34 911.135 5503.9C910.915 5503.45 910.621 5503.12 910.255 5502.9C909.888 5502.68 909.485 5502.57 909.045 5502.57C908.598 5502.57 908.191 5502.68 907.825 5502.9C907.458 5503.12 907.165 5503.45 906.945 5503.9C906.731 5504.34 906.625 5504.87 906.625 5505.5C906.625 5506.13 906.731 5506.66 906.945 5507.11C907.165 5507.55 907.458 5507.88 907.825 5508.1C908.191 5508.32 908.598 5508.43 909.045 5508.43Z" fill="#8D8B84"/>
<path d="M1273.76 5509L1272.3 5504.01H1272.98L1274.19 5508.28H1274.24L1275.42 5504.01H1276.25L1277.43 5508.28H1277.48L1278.7 5504.01H1279.37L1277.9 5509H1277.04L1275.85 5504.73H1275.8L1274.62 5509H1273.76ZM1283.75 5509V5502.55L1284.01 5502.66L1282.25 5504.04V5503.23L1283.8 5502H1284.45V5509H1283.75ZM1286.38 5509L1289.58 5502.75V5502.7H1285.62V5502H1290.36V5502.78L1287.21 5509H1286.38ZM1291.07 5509V5508.12L1293.96 5505.89C1294.27 5505.64 1294.52 5505.41 1294.7 5505.22C1294.88 5505.02 1295.02 5504.82 1295.1 5504.63C1295.18 5504.43 1295.23 5504.22 1295.23 5503.99C1295.23 5503.56 1295.08 5503.21 1294.8 5502.96C1294.52 5502.7 1294.14 5502.57 1293.68 5502.57C1293.14 5502.57 1292.73 5502.71 1292.43 5503C1292.13 5503.29 1291.97 5503.66 1291.93 5504.11H1291.21C1291.22 5503.71 1291.32 5503.34 1291.5 5503.01C1291.68 5502.68 1291.96 5502.41 1292.32 5502.2C1292.68 5501.99 1293.14 5501.89 1293.68 5501.89C1294.14 5501.89 1294.54 5501.98 1294.88 5502.16C1295.22 5502.33 1295.48 5502.58 1295.67 5502.89C1295.85 5503.2 1295.95 5503.56 1295.95 5503.96C1295.95 5504.27 1295.89 5504.56 1295.79 5504.81C1295.69 5505.06 1295.52 5505.32 1295.3 5505.58C1295.07 5505.83 1294.76 5506.11 1294.36 5506.41L1291.98 5508.27V5508.32H1296.12V5509H1291.07Z" fill="#8D8B84"/>
<path d="M390.96 5509V5502H391.66V5508.32H395.42V5509H390.96ZM400.885 5509.11C400.358 5509.11 399.898 5509.02 399.505 5508.84C399.111 5508.66 398.805 5508.41 398.585 5508.1C398.365 5507.79 398.238 5507.44 398.205 5507.05H398.955C398.995 5507.33 399.095 5507.57 399.255 5507.78C399.421 5507.99 399.641 5508.15 399.915 5508.26C400.195 5508.37 400.518 5508.43 400.885 5508.43C401.271 5508.43 401.608 5508.36 401.895 5508.21C402.181 5508.06 402.401 5507.85 402.555 5507.58C402.708 5507.31 402.785 5507.01 402.785 5506.68C402.785 5506.37 402.708 5506.09 402.555 5505.84C402.408 5505.58 402.195 5505.38 401.915 5505.23C401.641 5505.08 401.321 5505.01 400.955 5505.01C400.601 5505.01 400.278 5505.07 399.985 5505.2C399.691 5505.32 399.465 5505.49 399.305 5505.72H398.625L399.165 5502H403.045V5502.68H399.705L399.375 5504.9H399.425C399.625 5504.73 399.861 5504.59 400.135 5504.5C400.415 5504.41 400.718 5504.36 401.045 5504.36C401.531 5504.36 401.961 5504.46 402.335 5504.67C402.708 5504.88 402.995 5505.16 403.195 5505.51C403.401 5505.86 403.505 5506.25 403.505 5506.68C403.505 5507.15 403.398 5507.57 403.185 5507.94C402.978 5508.31 402.678 5508.59 402.285 5508.8C401.891 5509.01 401.425 5509.11 400.885 5509.11ZM407.517 5509.11C406.944 5509.11 406.417 5508.96 405.937 5508.67C405.457 5508.38 405.074 5507.96 404.787 5507.41C404.507 5506.86 404.367 5506.23 404.367 5505.5C404.367 5504.77 404.507 5504.14 404.787 5503.59C405.074 5503.04 405.457 5502.62 405.937 5502.33C406.417 5502.04 406.944 5501.89 407.517 5501.89C408.091 5501.89 408.614 5502.04 409.087 5502.33C409.567 5502.62 409.947 5503.04 410.227 5503.59C410.514 5504.14 410.657 5504.77 410.657 5505.5C410.657 5506.23 410.514 5506.86 410.227 5507.41C409.947 5507.96 409.567 5508.38 409.087 5508.67C408.614 5508.96 408.091 5509.11 407.517 5509.11ZM407.517 5508.43C407.957 5508.43 408.361 5508.32 408.727 5508.1C409.094 5507.88 409.387 5507.55 409.607 5507.11C409.827 5506.66 409.937 5506.13 409.937 5505.5C409.937 5504.87 409.827 5504.34 409.607 5503.9C409.387 5503.45 409.094 5503.12 408.727 5502.9C408.361 5502.68 407.957 5502.57 407.517 5502.57C407.071 5502.57 406.664 5502.68 406.297 5502.9C405.931 5503.12 405.637 5503.45 405.417 5503.9C405.204 5504.34 405.097 5504.87 405.097 5505.5C405.097 5506.13 405.204 5506.66 405.417 5507.11C405.637 5507.55 405.931 5507.88 406.297 5508.1C406.664 5508.32 407.071 5508.43 407.517 5508.43ZM412.897 5509V5502.55L413.157 5502.66L411.397 5504.04V5503.23L412.947 5502H413.597V5509H412.897Z" fill="#8D8B84"/>
<path d="M108.8 5509V5502H109.46V5504.85H109.51C109.677 5504.56 109.91 5504.34 110.21 5504.17C110.517 5504 110.867 5503.91 111.26 5503.91C111.66 5503.91 112.003 5503.99 112.29 5504.16C112.583 5504.32 112.807 5504.56 112.96 5504.88C113.113 5505.2 113.19 5505.58 113.19 5506.03V5509H112.53V5506.14C112.53 5505.62 112.41 5505.22 112.17 5504.94C111.93 5504.65 111.58 5504.51 111.12 5504.51C110.807 5504.51 110.523 5504.58 110.27 5504.73C110.017 5504.88 109.817 5505.08 109.67 5505.35C109.53 5505.61 109.46 5505.91 109.46 5506.26V5509H108.8ZM119.292 5509.11C118.746 5509.11 118.272 5509.02 117.872 5508.85C117.479 5508.68 117.172 5508.44 116.952 5508.13C116.732 5507.82 116.606 5507.46 116.572 5507.05H117.322C117.369 5507.5 117.562 5507.84 117.902 5508.08C118.242 5508.31 118.706 5508.43 119.292 5508.43C119.686 5508.43 120.019 5508.37 120.292 5508.24C120.572 5508.11 120.782 5507.93 120.922 5507.7C121.069 5507.47 121.142 5507.22 121.142 5506.93C121.142 5506.63 121.069 5506.37 120.922 5506.15C120.776 5505.92 120.562 5505.75 120.282 5505.64C120.009 5505.53 119.682 5505.47 119.302 5505.47H118.062V5504.85L120.582 5502.73V5502.68H117.112V5502H121.432V5502.81L119.072 5504.81V5505.07L118.892 5504.86H119.422C119.909 5504.86 120.336 5504.94 120.702 5505.11C121.076 5505.28 121.362 5505.52 121.562 5505.83C121.769 5506.14 121.872 5506.51 121.872 5506.93C121.872 5507.32 121.772 5507.69 121.572 5508.02C121.372 5508.35 121.076 5508.62 120.682 5508.82C120.296 5509.01 119.832 5509.11 119.292 5509.11ZM125.446 5509.11C124.912 5509.11 124.446 5509.03 124.046 5508.87C123.652 5508.71 123.346 5508.48 123.126 5508.18C122.906 5507.87 122.796 5507.51 122.796 5507.1C122.796 5506.67 122.919 5506.31 123.166 5506C123.412 5505.69 123.756 5505.47 124.196 5505.35V5505.3C123.796 5505.16 123.496 5504.96 123.296 5504.7C123.102 5504.43 123.006 5504.12 123.006 5503.76C123.006 5503.39 123.099 5503.07 123.286 5502.79C123.479 5502.5 123.759 5502.28 124.126 5502.13C124.492 5501.97 124.932 5501.89 125.446 5501.89C125.959 5501.89 126.399 5501.97 126.766 5502.13C127.132 5502.28 127.412 5502.5 127.606 5502.79C127.799 5503.07 127.896 5503.39 127.896 5503.76C127.896 5504.12 127.796 5504.43 127.596 5504.7C127.402 5504.96 127.102 5505.16 126.696 5505.3V5505.35C127.136 5505.47 127.479 5505.69 127.726 5506C127.972 5506.31 128.096 5506.67 128.096 5507.1C128.096 5507.51 127.986 5507.87 127.766 5508.18C127.552 5508.48 127.246 5508.71 126.846 5508.87C126.446 5509.03 125.979 5509.11 125.446 5509.11ZM125.446 5508.43C126.059 5508.43 126.532 5508.31 126.866 5508.08C127.206 5507.85 127.376 5507.5 127.376 5507.05C127.376 5506.6 127.206 5506.26 126.866 5506.03C126.532 5505.8 126.059 5505.68 125.446 5505.68C124.832 5505.68 124.359 5505.8 124.026 5506.03C123.692 5506.26 123.526 5506.6 123.526 5507.05C123.526 5507.5 123.692 5507.85 124.026 5508.08C124.359 5508.31 124.832 5508.43 125.446 5508.43ZM125.446 5505.01C126.012 5505.01 126.439 5504.9 126.726 5504.69C127.019 5504.48 127.166 5504.18 127.166 5503.79C127.166 5503.4 127.022 5503.1 126.736 5502.89C126.449 5502.68 126.019 5502.57 125.446 5502.57C124.872 5502.57 124.442 5502.68 124.156 5502.89C123.869 5503.1 123.726 5503.4 123.726 5503.79C123.726 5504.18 123.872 5504.48 124.166 5504.69C124.459 5504.9 124.886 5505.01 125.446 5505.01ZM131.697 5509.11C131.157 5509.11 130.684 5509 130.277 5508.79C129.87 5508.57 129.554 5508.28 129.327 5507.91C129.107 5507.54 128.997 5507.12 128.997 5506.67C128.997 5506.36 129.06 5506.05 129.187 5505.73C129.314 5505.41 129.504 5505.09 129.757 5504.76L131.877 5502H132.737L130.637 5504.68L130.417 5504.5C130.597 5504.42 130.794 5504.36 131.007 5504.31C131.227 5504.26 131.457 5504.24 131.697 5504.24C132.237 5504.24 132.71 5504.35 133.117 5504.56C133.53 5504.77 133.847 5505.07 134.067 5505.44C134.287 5505.81 134.397 5506.22 134.397 5506.67C134.397 5507.12 134.287 5507.54 134.067 5507.91C133.847 5508.28 133.53 5508.57 133.117 5508.79C132.71 5509 132.237 5509.11 131.697 5509.11ZM131.697 5508.46C132.104 5508.46 132.454 5508.38 132.747 5508.23C133.047 5508.07 133.277 5507.86 133.437 5507.59C133.597 5507.32 133.677 5507.01 133.677 5506.67C133.677 5506.33 133.597 5506.03 133.437 5505.76C133.277 5505.49 133.047 5505.27 132.747 5505.12C132.454 5504.97 132.104 5504.89 131.697 5504.89C131.29 5504.89 130.937 5504.97 130.637 5505.12C130.344 5505.27 130.117 5505.49 129.957 5505.76C129.804 5506.03 129.727 5506.33 129.727 5506.67C129.727 5507.01 129.804 5507.32 129.957 5507.59C130.117 5507.86 130.344 5508.07 130.637 5508.23C130.937 5508.38 131.29 5508.46 131.697 5508.46Z" fill="#8D8B84"/>
<path d="M501.76 5122L500.3 5117.01H500.98L502.19 5121.28H502.24L503.42 5117.01H504.25L505.43 5121.28H505.48L506.7 5117.01H507.37L505.9 5122H505.04L503.85 5117.73H503.8L502.62 5122H501.76ZM512.874 5122.11C512.328 5122.11 511.854 5122.02 511.454 5121.85C511.061 5121.68 510.754 5121.44 510.534 5121.13C510.314 5120.82 510.188 5120.46 510.154 5120.05H510.904C510.951 5120.5 511.144 5120.84 511.484 5121.08C511.824 5121.31 512.288 5121.43 512.874 5121.43C513.268 5121.43 513.601 5121.37 513.874 5121.24C514.154 5121.11 514.364 5120.93 514.504 5120.7C514.651 5120.47 514.724 5120.22 514.724 5119.93C514.724 5119.63 514.651 5119.37 514.504 5119.15C514.358 5118.92 514.144 5118.75 513.864 5118.64C513.591 5118.53 513.264 5118.47 512.884 5118.47H511.644V5117.85L514.164 5115.73V5115.68H510.694V5115H515.014V5115.81L512.654 5117.81V5118.07L512.474 5117.86H513.004C513.491 5117.86 513.918 5117.94 514.284 5118.11C514.658 5118.28 514.944 5118.52 515.144 5118.83C515.351 5119.14 515.454 5119.51 515.454 5119.93C515.454 5120.32 515.354 5120.69 515.154 5121.02C514.954 5121.35 514.658 5121.62 514.264 5121.82C513.878 5122.01 513.414 5122.11 512.874 5122.11ZM517.9 5122L519.99 5119.32L520.22 5119.5C520.033 5119.58 519.83 5119.64 519.61 5119.69C519.397 5119.74 519.17 5119.76 518.93 5119.76C518.39 5119.76 517.917 5119.65 517.51 5119.44C517.103 5119.23 516.787 5118.94 516.56 5118.57C516.34 5118.2 516.23 5117.78 516.23 5117.33C516.23 5116.88 516.34 5116.47 516.56 5116.1C516.787 5115.73 517.103 5115.43 517.51 5115.22C517.917 5115 518.39 5114.89 518.93 5114.89C519.47 5114.89 519.943 5115 520.35 5115.22C520.763 5115.43 521.08 5115.73 521.3 5116.1C521.52 5116.47 521.63 5116.88 521.63 5117.33C521.63 5117.64 521.567 5117.95 521.44 5118.27C521.313 5118.59 521.127 5118.91 520.88 5119.24L518.76 5122H517.9ZM518.93 5119.11C519.337 5119.11 519.687 5119.03 519.98 5118.88C520.28 5118.73 520.51 5118.52 520.67 5118.25C520.83 5117.98 520.91 5117.67 520.91 5117.33C520.91 5116.99 520.83 5116.69 520.67 5116.42C520.51 5116.15 520.28 5115.93 519.98 5115.78C519.687 5115.62 519.337 5115.54 518.93 5115.54C518.523 5115.54 518.17 5115.62 517.87 5115.78C517.577 5115.93 517.35 5116.15 517.19 5116.42C517.037 5116.69 516.96 5116.99 516.96 5117.33C516.96 5117.67 517.037 5117.98 517.19 5118.25C517.35 5118.52 517.577 5118.73 517.87 5118.88C518.17 5119.03 518.523 5119.11 518.93 5119.11ZM522.415 5122V5121.12L525.305 5118.89C525.618 5118.64 525.865 5118.41 526.045 5118.22C526.231 5118.02 526.365 5117.82 526.445 5117.63C526.531 5117.43 526.575 5117.22 526.575 5116.99C526.575 5116.56 526.431 5116.21 526.145 5115.96C525.865 5115.7 525.491 5115.57 525.025 5115.57C524.491 5115.57 524.075 5115.71 523.775 5116C523.481 5116.29 523.315 5116.66 523.275 5117.11H522.555C522.568 5116.71 522.665 5116.34 522.845 5116.01C523.031 5115.68 523.305 5115.41 523.665 5115.2C524.031 5114.99 524.485 5114.89 525.025 5114.89C525.485 5114.89 525.885 5114.98 526.225 5115.16C526.565 5115.33 526.828 5115.58 527.015 5115.89C527.201 5116.2 527.295 5116.56 527.295 5116.96C527.295 5117.27 527.241 5117.56 527.135 5117.81C527.035 5118.06 526.871 5118.32 526.645 5118.58C526.418 5118.83 526.105 5119.11 525.705 5119.41L523.325 5121.27V5121.32H527.465V5122H522.415Z" fill="#8D8B84"/>
</g>
<defs>
<clipPath id="clip0_2002_3654">
<rect width="1440" height="4065" fill="white"/>
</clipPath>
<clipPath id="clip1_2002_3654">
<rect width="1440" height="1075" fill="white" transform="translate(0 3477)"/>
</clipPath>
<clipPath id="clip2_2002_3654">
<rect width="1440" height="961" fill="white" transform="translate(0 4552)"/>
</clipPath>
</defs>
</svg>
