<svg width="1440" height="2106" viewBox="0 0 1440 2106" fill="none" xmlns="http://www.w3.org/2000/svg">
<g clip-path="url(#clip0_1_2012)">
<rect width="1441" height="2106" fill="#E8E8E8"/>
<path d="M465.76 179L464.3 174.01H464.98L466.19 178.28H466.24L467.42 174.01H468.25L469.43 178.28H469.48L470.7 174.01H471.37L469.9 179H469.04L467.85 174.73H467.8L466.62 179H465.76ZM475.754 179V172.55L476.014 172.66L474.254 174.04V173.23L475.804 172H476.454V179H475.754ZM477.818 177.44V176.71L480.288 172H481.068L478.598 176.71V176.76H483.468V177.44H477.818ZM481.768 179V174.41H482.468V179H481.768ZM483.98 177.44V176.71L486.45 172H487.23L484.76 176.71V176.76H489.63V177.44H483.98ZM487.93 179V174.41H488.63V179H487.93ZM493.324 179.11C492.75 179.11 492.224 178.963 491.744 178.67C491.264 178.377 490.88 177.957 490.594 177.41C490.314 176.863 490.174 176.227 490.174 175.5C490.174 174.773 490.314 174.137 490.594 173.59C490.88 173.043 491.264 172.623 491.744 172.33C492.224 172.037 492.75 171.89 493.324 171.89C493.897 171.89 494.42 172.037 494.894 172.33C495.374 172.623 495.754 173.043 496.034 173.59C496.32 174.137 496.464 174.773 496.464 175.5C496.464 176.227 496.32 176.863 496.034 177.41C495.754 177.957 495.374 178.377 494.894 178.67C494.42 178.963 493.897 179.11 493.324 179.11ZM493.324 178.43C493.764 178.43 494.167 178.32 494.534 178.1C494.9 177.88 495.194 177.55 495.414 177.11C495.634 176.663 495.744 176.127 495.744 175.5C495.744 174.873 495.634 174.34 495.414 173.9C495.194 173.453 494.9 173.12 494.534 172.9C494.167 172.68 493.764 172.57 493.324 172.57C492.877 172.57 492.47 172.68 492.104 172.9C491.737 173.12 491.444 173.453 491.224 173.9C491.01 174.34 490.904 174.873 490.904 175.5C490.904 176.127 491.01 176.663 491.224 177.11C491.444 177.55 491.737 177.88 492.104 178.1C492.47 178.32 492.877 178.43 493.324 178.43Z" fill="#8D8B84"/>
<path d="M464.75 780V775.01H465.38V775.86H465.43C465.577 775.567 465.78 775.343 466.04 775.19C466.307 775.037 466.613 774.96 466.96 774.96H467.66V775.59H466.96C466.487 775.59 466.11 775.75 465.83 776.07C465.55 776.39 465.41 776.81 465.41 777.33V780H464.75ZM472.997 780.11C472.451 780.11 471.977 780.023 471.577 779.85C471.184 779.677 470.877 779.437 470.657 779.13C470.437 778.817 470.311 778.457 470.277 778.05H471.027C471.074 778.497 471.267 778.84 471.607 779.08C471.947 779.313 472.411 779.43 472.997 779.43C473.391 779.43 473.724 779.367 473.997 779.24C474.277 779.107 474.487 778.927 474.627 778.7C474.774 778.473 474.847 778.217 474.847 777.93C474.847 777.63 474.774 777.37 474.627 777.15C474.481 776.923 474.267 776.753 473.987 776.64C473.714 776.527 473.387 776.47 473.007 776.47H471.767V775.85L474.287 773.73V773.68H470.817V773H475.137V773.81L472.777 775.81V776.07L472.597 775.86H473.127C473.614 775.86 474.041 775.943 474.407 776.11C474.781 776.277 475.067 776.517 475.267 776.83C475.474 777.143 475.577 777.51 475.577 777.93C475.577 778.323 475.477 778.687 475.277 779.02C475.077 779.353 474.781 779.62 474.387 779.82C474.001 780.013 473.537 780.11 472.997 780.11ZM477.785 780V773.55L478.045 773.66L476.285 775.04V774.23L477.835 773H478.485V780H477.785ZM482.629 780.11C482.102 780.11 481.642 780.02 481.249 779.84C480.855 779.66 480.549 779.413 480.329 779.1C480.109 778.787 479.982 778.437 479.949 778.05H480.699C480.739 778.33 480.839 778.573 480.999 778.78C481.165 778.987 481.385 779.147 481.659 779.26C481.939 779.373 482.262 779.43 482.629 779.43C483.015 779.43 483.352 779.357 483.639 779.21C483.925 779.057 484.145 778.847 484.299 778.58C484.452 778.313 484.529 778.013 484.529 777.68C484.529 777.373 484.452 777.093 484.299 776.84C484.152 776.58 483.939 776.377 483.659 776.23C483.385 776.083 483.065 776.01 482.699 776.01C482.345 776.01 482.022 776.073 481.729 776.2C481.435 776.32 481.209 776.493 481.049 776.72H480.369L480.909 773H484.789V773.68H481.449L481.119 775.9H481.169C481.369 775.727 481.605 775.593 481.879 775.5C482.159 775.407 482.462 775.36 482.789 775.36C483.275 775.36 483.705 775.463 484.079 775.67C484.452 775.877 484.739 776.157 484.939 776.51C485.145 776.863 485.249 777.253 485.249 777.68C485.249 778.153 485.142 778.573 484.929 778.94C484.722 779.307 484.422 779.593 484.029 779.8C483.635 780.007 483.169 780.11 482.629 780.11Z" fill="#8D8B84"/>
<path d="M983.19 1381.1C982.85 1381.1 982.547 1381.04 982.28 1380.91C982.02 1380.78 981.817 1380.59 981.67 1380.36C981.523 1380.13 981.45 1379.87 981.45 1379.58C981.45 1379.3 981.52 1379.05 981.66 1378.83C981.807 1378.6 982.02 1378.43 982.3 1378.3C982.58 1378.17 982.923 1378.11 983.33 1378.11H985.43V1378.66H983.36C982.947 1378.66 982.637 1378.74 982.43 1378.91C982.23 1379.08 982.13 1379.29 982.13 1379.56C982.13 1379.84 982.233 1380.07 982.44 1380.24C982.647 1380.41 982.947 1380.49 983.34 1380.49C983.687 1380.49 983.997 1380.42 984.27 1380.27C984.543 1380.12 984.757 1379.91 984.91 1379.64C985.063 1379.37 985.14 1379.07 985.14 1378.73V1377.77C985.14 1377.37 985.013 1377.06 984.76 1376.84C984.513 1376.62 984.18 1376.51 983.76 1376.51C983.353 1376.51 983.033 1376.6 982.8 1376.79C982.567 1376.98 982.417 1377.21 982.35 1377.5H981.67C981.71 1377.21 981.817 1376.95 981.99 1376.71C982.163 1376.47 982.4 1376.28 982.7 1376.13C983.007 1375.98 983.36 1375.91 983.76 1375.91C984.18 1375.91 984.54 1375.99 984.84 1376.14C985.147 1376.29 985.38 1376.51 985.54 1376.8C985.707 1377.08 985.79 1377.4 985.79 1377.77V1381H985.16V1380.09H985.11C984.963 1380.37 984.723 1380.61 984.39 1380.81C984.057 1381 983.657 1381.1 983.19 1381.1ZM989.372 1381V1380.12L992.262 1377.89C992.575 1377.64 992.822 1377.41 993.002 1377.22C993.188 1377.02 993.322 1376.82 993.402 1376.63C993.488 1376.43 993.532 1376.22 993.532 1375.99C993.532 1375.56 993.388 1375.21 993.102 1374.96C992.822 1374.7 992.448 1374.57 991.982 1374.57C991.448 1374.57 991.032 1374.71 990.732 1375C990.438 1375.29 990.272 1375.66 990.232 1376.11H989.512C989.525 1375.71 989.622 1375.34 989.802 1375.01C989.988 1374.68 990.262 1374.41 990.622 1374.2C990.988 1373.99 991.442 1373.89 991.982 1373.89C992.442 1373.89 992.842 1373.98 993.182 1374.16C993.522 1374.33 993.785 1374.58 993.972 1374.89C994.158 1375.2 994.252 1375.56 994.252 1375.96C994.252 1376.27 994.198 1376.56 994.092 1376.81C993.992 1377.06 993.828 1377.32 993.602 1377.58C993.375 1377.83 993.062 1378.11 992.662 1378.41L990.282 1380.27V1380.32H994.422V1381H989.372ZM997.783 1381.11C997.243 1381.11 996.769 1381 996.363 1380.79C995.956 1380.57 995.639 1380.28 995.413 1379.91C995.193 1379.54 995.083 1379.12 995.083 1378.67C995.083 1378.36 995.146 1378.05 995.273 1377.73C995.399 1377.41 995.589 1377.09 995.843 1376.76L997.963 1374H998.823L996.723 1376.68L996.503 1376.5C996.683 1376.42 996.879 1376.36 997.093 1376.31C997.313 1376.26 997.543 1376.24 997.783 1376.24C998.323 1376.24 998.796 1376.35 999.203 1376.56C999.616 1376.77 999.933 1377.07 1000.15 1377.44C1000.37 1377.81 1000.48 1378.22 1000.48 1378.67C1000.48 1379.12 1000.37 1379.54 1000.15 1379.91C999.933 1380.28 999.616 1380.57 999.203 1380.79C998.796 1381 998.323 1381.11 997.783 1381.11ZM997.783 1380.46C998.189 1380.46 998.539 1380.38 998.833 1380.23C999.133 1380.07 999.363 1379.86 999.523 1379.59C999.683 1379.32 999.763 1379.01 999.763 1378.67C999.763 1378.33 999.683 1378.03 999.523 1377.76C999.363 1377.49 999.133 1377.27 998.833 1377.12C998.539 1376.97 998.189 1376.89 997.783 1376.89C997.376 1376.89 997.023 1376.97 996.723 1377.12C996.429 1377.27 996.203 1377.49 996.043 1377.76C995.889 1378.03 995.813 1378.33 995.813 1378.67C995.813 1379.01 995.889 1379.32 996.043 1379.59C996.203 1379.86 996.429 1380.07 996.723 1380.23C997.023 1380.38 997.376 1380.46 997.783 1380.46ZM1004.08 1381.11C1003.55 1381.11 1003.08 1381.03 1002.68 1380.87C1002.29 1380.71 1001.98 1380.48 1001.76 1380.18C1001.54 1379.87 1001.43 1379.51 1001.43 1379.1C1001.43 1378.67 1001.55 1378.31 1001.8 1378C1002.05 1377.69 1002.39 1377.47 1002.83 1377.35V1377.3C1002.43 1377.16 1002.13 1376.96 1001.93 1376.7C1001.74 1376.43 1001.64 1376.12 1001.64 1375.76C1001.64 1375.39 1001.73 1375.07 1001.92 1374.79C1002.11 1374.5 1002.39 1374.28 1002.76 1374.13C1003.13 1373.97 1003.57 1373.89 1004.08 1373.89C1004.59 1373.89 1005.03 1373.97 1005.4 1374.13C1005.77 1374.28 1006.05 1374.5 1006.24 1374.79C1006.43 1375.07 1006.53 1375.39 1006.53 1375.76C1006.53 1376.12 1006.43 1376.43 1006.23 1376.7C1006.04 1376.96 1005.74 1377.16 1005.33 1377.3V1377.35C1005.77 1377.47 1006.11 1377.69 1006.36 1378C1006.61 1378.31 1006.73 1378.67 1006.73 1379.1C1006.73 1379.51 1006.62 1379.87 1006.4 1380.18C1006.19 1380.48 1005.88 1380.71 1005.48 1380.87C1005.08 1381.03 1004.61 1381.11 1004.08 1381.11ZM1004.08 1380.43C1004.69 1380.43 1005.17 1380.31 1005.5 1380.08C1005.84 1379.85 1006.01 1379.5 1006.01 1379.05C1006.01 1378.6 1005.84 1378.26 1005.5 1378.03C1005.17 1377.8 1004.69 1377.68 1004.08 1377.68C1003.47 1377.68 1002.99 1377.8 1002.66 1378.03C1002.33 1378.26 1002.16 1378.6 1002.16 1379.05C1002.16 1379.5 1002.33 1379.85 1002.66 1380.08C1002.99 1380.31 1003.47 1380.43 1004.08 1380.43ZM1004.08 1377.01C1004.65 1377.01 1005.07 1376.9 1005.36 1376.69C1005.65 1376.48 1005.8 1376.18 1005.8 1375.79C1005.8 1375.4 1005.66 1375.1 1005.37 1374.89C1005.08 1374.68 1004.65 1374.57 1004.08 1374.57C1003.51 1374.57 1003.08 1374.68 1002.79 1374.89C1002.5 1375.1 1002.36 1375.4 1002.36 1375.79C1002.36 1376.18 1002.51 1376.48 1002.8 1376.69C1003.09 1376.9 1003.52 1377.01 1004.08 1377.01Z" fill="#8D8B84"/>
<path d="M718.96 1649V1642H721.17C721.857 1642 722.47 1642.15 723.01 1642.45C723.557 1642.74 723.98 1643.16 724.28 1643.69C724.587 1644.22 724.74 1644.83 724.74 1645.5C724.74 1646.17 724.587 1646.78 724.28 1647.31C723.98 1647.84 723.557 1648.26 723.01 1648.56C722.47 1648.85 721.857 1649 721.17 1649H718.96ZM721.17 1648.32C721.73 1648.32 722.223 1648.2 722.65 1647.97C723.083 1647.74 723.42 1647.41 723.66 1646.98C723.9 1646.55 724.02 1646.05 724.02 1645.5C724.02 1644.95 723.9 1644.46 723.66 1644.03C723.42 1643.6 723.083 1643.26 722.65 1643.03C722.223 1642.8 721.73 1642.68 721.17 1642.68H719.66V1648.32H721.17ZM730.389 1649.11C729.862 1649.11 729.402 1649.02 729.009 1648.84C728.615 1648.66 728.309 1648.41 728.089 1648.1C727.869 1647.79 727.742 1647.44 727.709 1647.05H728.459C728.499 1647.33 728.599 1647.57 728.759 1647.78C728.925 1647.99 729.145 1648.15 729.419 1648.26C729.699 1648.37 730.022 1648.43 730.389 1648.43C730.775 1648.43 731.112 1648.36 731.399 1648.21C731.685 1648.06 731.905 1647.85 732.059 1647.58C732.212 1647.31 732.289 1647.01 732.289 1646.68C732.289 1646.37 732.212 1646.09 732.059 1645.84C731.912 1645.58 731.699 1645.38 731.419 1645.23C731.145 1645.08 730.825 1645.01 730.459 1645.01C730.105 1645.01 729.782 1645.07 729.489 1645.2C729.195 1645.32 728.969 1645.49 728.809 1645.72H728.129L728.669 1642H732.549V1642.68H729.209L728.879 1644.9H728.929C729.129 1644.73 729.365 1644.59 729.639 1644.5C729.919 1644.41 730.222 1644.36 730.549 1644.36C731.035 1644.36 731.465 1644.46 731.839 1644.67C732.212 1644.88 732.499 1645.16 732.699 1645.51C732.905 1645.86 733.009 1646.25 733.009 1646.68C733.009 1647.15 732.902 1647.57 732.689 1647.94C732.482 1648.31 732.182 1648.59 731.789 1648.8C731.395 1649.01 730.929 1649.11 730.389 1649.11ZM736.323 1649.11C735.777 1649.11 735.303 1649.02 734.903 1648.85C734.51 1648.68 734.203 1648.44 733.983 1648.13C733.763 1647.82 733.637 1647.46 733.603 1647.05H734.353C734.4 1647.5 734.593 1647.84 734.933 1648.08C735.273 1648.31 735.737 1648.43 736.323 1648.43C736.717 1648.43 737.05 1648.37 737.323 1648.24C737.603 1648.11 737.813 1647.93 737.953 1647.7C738.1 1647.47 738.173 1647.22 738.173 1646.93C738.173 1646.63 738.1 1646.37 737.953 1646.15C737.807 1645.92 737.593 1645.75 737.313 1645.64C737.04 1645.53 736.713 1645.47 736.333 1645.47H735.093V1644.85L737.613 1642.73V1642.68H734.143V1642H738.463V1642.81L736.103 1644.81V1645.07L735.923 1644.86H736.453C736.94 1644.86 737.367 1644.94 737.733 1645.11C738.107 1645.28 738.393 1645.52 738.593 1645.83C738.8 1646.14 738.903 1646.51 738.903 1646.93C738.903 1647.32 738.803 1647.69 738.603 1648.02C738.403 1648.35 738.107 1648.62 737.713 1648.82C737.327 1649.01 736.863 1649.11 736.323 1649.11ZM742.527 1649.11C741.987 1649.11 741.514 1649 741.107 1648.79C740.7 1648.57 740.384 1648.28 740.157 1647.91C739.937 1647.54 739.827 1647.12 739.827 1646.67C739.827 1646.36 739.89 1646.05 740.017 1645.73C740.144 1645.41 740.334 1645.09 740.587 1644.76L742.707 1642H743.567L741.467 1644.68L741.247 1644.5C741.427 1644.42 741.624 1644.36 741.837 1644.31C742.057 1644.26 742.287 1644.24 742.527 1644.24C743.067 1644.24 743.54 1644.35 743.947 1644.56C744.36 1644.77 744.677 1645.07 744.897 1645.44C745.117 1645.81 745.227 1646.22 745.227 1646.67C745.227 1647.12 745.117 1647.54 744.897 1647.91C744.677 1648.28 744.36 1648.57 743.947 1648.79C743.54 1649 743.067 1649.11 742.527 1649.11ZM742.527 1648.46C742.934 1648.46 743.284 1648.38 743.577 1648.23C743.877 1648.07 744.107 1647.86 744.267 1647.59C744.427 1647.32 744.507 1647.01 744.507 1646.67C744.507 1646.33 744.427 1646.03 744.267 1645.76C744.107 1645.49 743.877 1645.27 743.577 1645.12C743.284 1644.97 742.934 1644.89 742.527 1644.89C742.12 1644.89 741.767 1644.97 741.467 1645.12C741.174 1645.27 740.947 1645.49 740.787 1645.76C740.634 1646.03 740.557 1646.33 740.557 1646.67C740.557 1647.01 740.634 1647.32 740.787 1647.59C740.947 1647.86 741.174 1648.07 741.467 1648.23C741.767 1648.38 742.12 1648.46 742.527 1648.46Z" fill="#8D8B84"/>
<path d="M965.8 2046V2039H966.46V2041.85H966.51C966.677 2041.56 966.91 2041.34 967.21 2041.17C967.517 2041 967.867 2040.91 968.26 2040.91C968.66 2040.91 969.003 2040.99 969.29 2041.16C969.583 2041.32 969.807 2041.56 969.96 2041.88C970.113 2042.2 970.19 2042.58 970.19 2043.03V2046H969.53V2043.14C969.53 2042.62 969.41 2042.22 969.17 2041.94C968.93 2041.65 968.58 2041.51 968.12 2041.51C967.807 2041.51 967.523 2041.58 967.27 2041.73C967.017 2041.88 966.817 2042.08 966.67 2042.35C966.53 2042.61 966.46 2042.91 966.46 2043.26V2046H965.8ZM973.622 2044.44V2043.71L976.092 2039H976.872L974.402 2043.71V2043.76H979.272V2044.44H973.622ZM977.572 2046V2041.41H978.272V2046H977.572ZM982.476 2046.11C981.95 2046.11 981.49 2046.02 981.096 2045.84C980.703 2045.66 980.396 2045.41 980.176 2045.1C979.956 2044.79 979.83 2044.44 979.796 2044.05H980.546C980.586 2044.33 980.686 2044.57 980.846 2044.78C981.013 2044.99 981.233 2045.15 981.506 2045.26C981.786 2045.37 982.11 2045.43 982.476 2045.43C982.863 2045.43 983.2 2045.36 983.486 2045.21C983.773 2045.06 983.993 2044.85 984.146 2044.58C984.3 2044.31 984.376 2044.01 984.376 2043.68C984.376 2043.37 984.3 2043.09 984.146 2042.84C984 2042.58 983.786 2042.38 983.506 2042.23C983.233 2042.08 982.913 2042.01 982.546 2042.01C982.193 2042.01 981.87 2042.07 981.576 2042.2C981.283 2042.32 981.056 2042.49 980.896 2042.72H980.216L980.756 2039H984.636V2039.68H981.296L980.966 2041.9H981.016C981.216 2041.73 981.453 2041.59 981.726 2041.5C982.006 2041.41 982.31 2041.36 982.636 2041.36C983.123 2041.36 983.553 2041.46 983.926 2041.67C984.3 2041.88 984.586 2042.16 984.786 2042.51C984.993 2042.86 985.096 2043.25 985.096 2043.68C985.096 2044.15 984.99 2044.57 984.776 2044.94C984.57 2045.31 984.27 2045.59 983.876 2045.8C983.483 2046.01 983.016 2046.11 982.476 2046.11ZM989.109 2046.11C988.536 2046.11 988.009 2045.96 987.529 2045.67C987.049 2045.38 986.666 2044.96 986.379 2044.41C986.099 2043.86 985.959 2043.23 985.959 2042.5C985.959 2041.77 986.099 2041.14 986.379 2040.59C986.666 2040.04 987.049 2039.62 987.529 2039.33C988.009 2039.04 988.536 2038.89 989.109 2038.89C989.682 2038.89 990.206 2039.04 990.679 2039.33C991.159 2039.62 991.539 2040.04 991.819 2040.59C992.106 2041.14 992.249 2041.77 992.249 2042.5C992.249 2043.23 992.106 2043.86 991.819 2044.41C991.539 2044.96 991.159 2045.38 990.679 2045.67C990.206 2045.96 989.682 2046.11 989.109 2046.11ZM989.109 2045.43C989.549 2045.43 989.952 2045.32 990.319 2045.1C990.686 2044.88 990.979 2044.55 991.199 2044.11C991.419 2043.66 991.529 2043.13 991.529 2042.5C991.529 2041.87 991.419 2041.34 991.199 2040.9C990.979 2040.45 990.686 2040.12 990.319 2039.9C989.952 2039.68 989.549 2039.57 989.109 2039.57C988.662 2039.57 988.256 2039.68 987.889 2039.9C987.522 2040.12 987.229 2040.45 987.009 2040.9C986.796 2041.34 986.689 2041.87 986.689 2042.5C986.689 2043.13 986.796 2043.66 987.009 2044.11C987.229 2044.55 987.522 2044.88 987.889 2045.1C988.256 2045.32 988.662 2045.43 989.109 2045.43Z" fill="#8D8B84"/>
<path d="M464.8 1114V1107H465.46V1109.85H465.51C465.677 1109.56 465.91 1109.34 466.21 1109.17C466.517 1109 466.867 1108.91 467.26 1108.91C467.66 1108.91 468.003 1108.99 468.29 1109.16C468.583 1109.32 468.807 1109.56 468.96 1109.88C469.113 1110.2 469.19 1110.58 469.19 1111.03V1114H468.53V1111.14C468.53 1110.62 468.41 1110.22 468.17 1109.94C467.93 1109.65 467.58 1109.51 467.12 1109.51C466.807 1109.51 466.523 1109.58 466.27 1109.73C466.017 1109.88 465.817 1110.08 465.67 1110.35C465.53 1110.61 465.46 1110.91 465.46 1111.26V1114H464.8ZM475.392 1114.11C474.852 1114.11 474.379 1114 473.972 1113.79C473.566 1113.57 473.249 1113.28 473.022 1112.91C472.802 1112.54 472.692 1112.12 472.692 1111.67C472.692 1111.36 472.756 1111.05 472.882 1110.73C473.009 1110.41 473.199 1110.09 473.452 1109.76L475.572 1107H476.432L474.332 1109.68L474.112 1109.5C474.292 1109.42 474.489 1109.36 474.702 1109.31C474.922 1109.26 475.152 1109.24 475.392 1109.24C475.932 1109.24 476.406 1109.35 476.812 1109.56C477.226 1109.77 477.542 1110.07 477.762 1110.44C477.982 1110.81 478.092 1111.22 478.092 1111.67C478.092 1112.12 477.982 1112.54 477.762 1112.91C477.542 1113.28 477.226 1113.57 476.812 1113.79C476.406 1114 475.932 1114.11 475.392 1114.11ZM475.392 1113.46C475.799 1113.46 476.149 1113.38 476.442 1113.23C476.742 1113.07 476.972 1112.86 477.132 1112.59C477.292 1112.32 477.372 1112.01 477.372 1111.67C477.372 1111.33 477.292 1111.03 477.132 1110.76C476.972 1110.49 476.742 1110.27 476.442 1110.12C476.149 1109.97 475.799 1109.89 475.392 1109.89C474.986 1109.89 474.632 1109.97 474.332 1110.12C474.039 1110.27 473.812 1110.49 473.652 1110.76C473.499 1111.03 473.422 1111.33 473.422 1111.67C473.422 1112.01 473.499 1112.32 473.652 1112.59C473.812 1112.86 474.039 1113.07 474.332 1113.23C474.632 1113.38 474.986 1113.46 475.392 1113.46ZM481.347 1114.11C480.8 1114.11 480.327 1114.02 479.927 1113.85C479.534 1113.68 479.227 1113.44 479.007 1113.13C478.787 1112.82 478.66 1112.46 478.627 1112.05H479.377C479.424 1112.5 479.617 1112.84 479.957 1113.08C480.297 1113.31 480.76 1113.43 481.347 1113.43C481.74 1113.43 482.074 1113.37 482.347 1113.24C482.627 1113.11 482.837 1112.93 482.977 1112.7C483.124 1112.47 483.197 1112.22 483.197 1111.93C483.197 1111.63 483.124 1111.37 482.977 1111.15C482.83 1110.92 482.617 1110.75 482.337 1110.64C482.064 1110.53 481.737 1110.47 481.357 1110.47H480.117V1109.85L482.637 1107.73V1107.68H479.167V1107H483.487V1107.81L481.127 1109.81V1110.07L480.947 1109.86H481.477C481.964 1109.86 482.39 1109.94 482.757 1110.11C483.13 1110.28 483.417 1110.52 483.617 1110.83C483.824 1111.14 483.927 1111.51 483.927 1111.93C483.927 1112.32 483.827 1112.69 483.627 1113.02C483.427 1113.35 483.13 1113.62 482.737 1113.82C482.35 1114.01 481.887 1114.11 481.347 1114.11ZM487.953 1114.11C487.379 1114.11 486.853 1113.96 486.373 1113.67C485.893 1113.38 485.509 1112.96 485.223 1112.41C484.943 1111.86 484.803 1111.23 484.803 1110.5C484.803 1109.77 484.943 1109.14 485.223 1108.59C485.509 1108.04 485.893 1107.62 486.373 1107.33C486.853 1107.04 487.379 1106.89 487.953 1106.89C488.526 1106.89 489.049 1107.04 489.523 1107.33C490.003 1107.62 490.383 1108.04 490.663 1108.59C490.949 1109.14 491.093 1109.77 491.093 1110.5C491.093 1111.23 490.949 1111.86 490.663 1112.41C490.383 1112.96 490.003 1113.38 489.523 1113.67C489.049 1113.96 488.526 1114.11 487.953 1114.11ZM487.953 1113.43C488.393 1113.43 488.796 1113.32 489.163 1113.1C489.529 1112.88 489.823 1112.55 490.043 1112.11C490.263 1111.66 490.373 1111.13 490.373 1110.5C490.373 1109.87 490.263 1109.34 490.043 1108.9C489.823 1108.45 489.529 1108.12 489.163 1107.9C488.796 1107.68 488.393 1107.57 487.953 1107.57C487.506 1107.57 487.099 1107.68 486.733 1107.9C486.366 1108.12 486.073 1108.45 485.853 1108.9C485.639 1109.34 485.533 1109.87 485.533 1110.5C485.533 1111.13 485.639 1111.66 485.853 1112.11C486.073 1112.55 486.366 1112.88 486.733 1113.1C487.099 1113.32 487.506 1113.43 487.953 1113.43Z" fill="#8D8B84"/>
<path d="M253.96 821V814H254.66V820.32H258.42V821H253.96ZM261.255 821V820.12L264.145 817.89C264.458 817.637 264.705 817.413 264.885 817.22C265.071 817.02 265.205 816.823 265.285 816.63C265.371 816.43 265.415 816.217 265.415 815.99C265.415 815.557 265.271 815.213 264.985 814.96C264.705 814.7 264.331 814.57 263.865 814.57C263.331 814.57 262.915 814.713 262.615 815C262.321 815.287 262.155 815.657 262.115 816.11H261.395C261.408 815.71 261.505 815.343 261.685 815.01C261.871 814.677 262.145 814.407 262.505 814.2C262.871 813.993 263.325 813.89 263.865 813.89C264.325 813.89 264.725 813.98 265.065 814.16C265.405 814.333 265.668 814.577 265.855 814.89C266.041 815.203 266.135 815.56 266.135 815.96C266.135 816.273 266.081 816.557 265.975 816.81C265.875 817.063 265.711 817.32 265.485 817.58C265.258 817.833 264.945 818.11 264.545 818.41L262.165 820.27V820.32H266.305V821H261.255ZM266.896 819.44V818.71L269.366 814H270.146L267.676 818.71V818.76H272.546V819.44H266.896ZM270.846 821V816.41H271.546V821H270.846ZM275.788 821.11C275.254 821.11 274.788 821.03 274.388 820.87C273.994 820.71 273.688 820.48 273.468 820.18C273.248 819.873 273.138 819.513 273.138 819.1C273.138 818.673 273.261 818.307 273.508 818C273.754 817.687 274.098 817.47 274.538 817.35V817.3C274.138 817.16 273.838 816.96 273.638 816.7C273.444 816.433 273.347 816.12 273.347 815.76C273.347 815.393 273.441 815.07 273.628 814.79C273.821 814.503 274.101 814.283 274.468 814.13C274.834 813.97 275.274 813.89 275.788 813.89C276.301 813.89 276.741 813.97 277.108 814.13C277.474 814.283 277.754 814.503 277.948 814.79C278.141 815.07 278.238 815.393 278.238 815.76C278.238 816.12 278.138 816.433 277.938 816.7C277.744 816.96 277.444 817.16 277.038 817.3V817.35C277.478 817.47 277.821 817.687 278.068 818C278.314 818.307 278.438 818.673 278.438 819.1C278.438 819.513 278.328 819.873 278.108 820.18C277.894 820.48 277.588 820.71 277.188 820.87C276.788 821.03 276.321 821.11 275.788 821.11ZM275.788 820.43C276.401 820.43 276.874 820.313 277.208 820.08C277.548 819.847 277.718 819.503 277.718 819.05C277.718 818.603 277.548 818.263 277.208 818.03C276.874 817.797 276.401 817.68 275.788 817.68C275.174 817.68 274.701 817.797 274.368 818.03C274.034 818.263 273.868 818.603 273.868 819.05C273.868 819.503 274.034 819.847 274.368 820.08C274.701 820.313 275.174 820.43 275.788 820.43ZM275.788 817.01C276.354 817.01 276.781 816.903 277.068 816.69C277.361 816.477 277.508 816.177 277.508 815.79C277.508 815.403 277.364 815.103 277.078 814.89C276.791 814.677 276.361 814.57 275.788 814.57C275.214 814.57 274.784 814.677 274.498 814.89C274.211 815.103 274.068 815.403 274.068 815.79C274.068 816.177 274.214 816.477 274.508 816.69C274.801 816.903 275.228 817.01 275.788 817.01Z" fill="#8D8B84"/>
<rect x="986" width="90" height="185" fill="#21201C"/>
<rect x="798" width="30" height="185" fill="#21201C"/>
<rect width="248" height="30" fill="#21201C"/>
<rect x="459" width="153" height="30" fill="#21201C"/>
<rect x="828" y="185" width="612" height="129" fill="#21201C"/>
<rect x="986" y="185" width="454" height="434" fill="#21201C"/>
<rect x="1076" y="786" width="271" height="235" fill="#21201C"/>
<rect x="986" y="786" width="90" height="235" fill="#21201C"/>
<path d="M993.28 821L991.38 814H992.12L993.77 820.18H993.82L995.57 814H996.49L998.24 820.18H998.29L999.95 814H1000.66L998.76 821H997.8L996.04 814.82H995.99L994.24 821H993.28ZM1005.13 821V814.55L1005.39 814.66L1003.63 816.04V815.23L1005.18 814H1005.83V821H1005.13ZM1008.74 821V814.55L1009 814.66L1007.24 816.04V815.23L1008.79 814H1009.44V821H1008.74ZM1013.58 821.11C1013.06 821.11 1012.6 821.02 1012.2 820.84C1011.81 820.66 1011.5 820.413 1011.28 820.1C1011.06 819.787 1010.94 819.437 1010.9 819.05H1011.65C1011.69 819.33 1011.79 819.573 1011.95 819.78C1012.12 819.987 1012.34 820.147 1012.61 820.26C1012.89 820.373 1013.22 820.43 1013.58 820.43C1013.97 820.43 1014.31 820.357 1014.59 820.21C1014.88 820.057 1015.1 819.847 1015.25 819.58C1015.41 819.313 1015.48 819.013 1015.48 818.68C1015.48 818.373 1015.41 818.093 1015.25 817.84C1015.11 817.58 1014.89 817.377 1014.61 817.23C1014.34 817.083 1014.02 817.01 1013.65 817.01C1013.3 817.01 1012.98 817.073 1012.68 817.2C1012.39 817.32 1012.16 817.493 1012 817.72H1011.32L1011.86 814H1015.74V814.68H1012.4L1012.07 816.9H1012.12C1012.32 816.727 1012.56 816.593 1012.83 816.5C1013.11 816.407 1013.42 816.36 1013.74 816.36C1014.23 816.36 1014.66 816.463 1015.03 816.67C1015.41 816.877 1015.69 817.157 1015.89 817.51C1016.1 817.863 1016.2 818.253 1016.2 818.68C1016.2 819.153 1016.1 819.573 1015.88 819.94C1015.68 820.307 1015.38 820.593 1014.98 820.8C1014.59 821.007 1014.12 821.11 1013.58 821.11ZM1019.76 821.11C1019.23 821.11 1018.76 821.03 1018.36 820.87C1017.97 820.71 1017.66 820.48 1017.44 820.18C1017.22 819.873 1017.11 819.513 1017.11 819.1C1017.11 818.673 1017.24 818.307 1017.48 818C1017.73 817.687 1018.07 817.47 1018.51 817.35V817.3C1018.11 817.16 1017.81 816.96 1017.61 816.7C1017.42 816.433 1017.32 816.12 1017.32 815.76C1017.32 815.393 1017.42 815.07 1017.6 814.79C1017.8 814.503 1018.08 814.283 1018.44 814.13C1018.81 813.97 1019.25 813.89 1019.76 813.89C1020.28 813.89 1020.72 813.97 1021.08 814.13C1021.45 814.283 1021.73 814.503 1021.92 814.79C1022.12 815.07 1022.21 815.393 1022.21 815.76C1022.21 816.12 1022.11 816.433 1021.91 816.7C1021.72 816.96 1021.42 817.16 1021.01 817.3V817.35C1021.45 817.47 1021.8 817.687 1022.04 818C1022.29 818.307 1022.41 818.673 1022.41 819.1C1022.41 819.513 1022.3 819.873 1022.08 820.18C1021.87 820.48 1021.56 820.71 1021.16 820.87C1020.76 821.03 1020.3 821.11 1019.76 821.11ZM1019.76 820.43C1020.38 820.43 1020.85 820.313 1021.18 820.08C1021.52 819.847 1021.69 819.503 1021.69 819.05C1021.69 818.603 1021.52 818.263 1021.18 818.03C1020.85 817.797 1020.38 817.68 1019.76 817.68C1019.15 817.68 1018.68 817.797 1018.34 818.03C1018.01 818.263 1017.84 818.603 1017.84 819.05C1017.84 819.503 1018.01 819.847 1018.34 820.08C1018.68 820.313 1019.15 820.43 1019.76 820.43ZM1019.76 817.01C1020.33 817.01 1020.76 816.903 1021.04 816.69C1021.34 816.477 1021.48 816.177 1021.48 815.79C1021.48 815.403 1021.34 815.103 1021.05 814.89C1020.77 814.677 1020.34 814.57 1019.76 814.57C1019.19 814.57 1018.76 814.677 1018.47 814.89C1018.19 815.103 1018.04 815.403 1018.04 815.79C1018.04 816.177 1018.19 816.477 1018.48 816.69C1018.78 816.903 1019.2 817.01 1019.76 817.01Z" fill="#8D8B84"/>
<rect x="818" y="846" width="126" height="254" fill="#21201C"/>
<rect x="1347" y="947" width="94" height="153" fill="#21201C"/>
<rect x="1076" width="364" height="185" fill="#21201C"/>
<rect width="422" height="1006" transform="matrix(1 0 0 -1 0 2106)" fill="#21201C"/>
<rect width="248" height="314" transform="matrix(1 0 0 -1 0 1100)" fill="#21201C"/>
<rect width="248" height="273" transform="matrix(1 0 0 -1 211 1100)" fill="#21201C"/>
<rect x="981" y="1387" width="269" height="268" fill="#21201C"/>
<rect x="903" y="1447" width="78" height="268" fill="#21201C"/>
<rect x="1094" y="1692" width="78" height="72" fill="#21201C"/>
<rect x="670" y="1980" width="100" height="72" fill="#21201C"/>
<rect x="902" y="2052" width="539" height="54" fill="#21201C"/>
<rect x="422" y="2052" width="291" height="54" fill="#21201C"/>
<rect x="422" y="1655" width="248" height="397" fill="#21201C"/>
<circle cx="458.5" cy="785.5" r="314.25" stroke="#8D8B84" stroke-width="0.5"/>
<path d="M464.8 2100V2093H465.46V2095.85H465.51C465.677 2095.56 465.91 2095.34 466.21 2095.17C466.517 2095 466.867 2094.91 467.26 2094.91C467.66 2094.91 468.003 2094.99 468.29 2095.16C468.583 2095.32 468.807 2095.56 468.96 2095.88C469.113 2096.2 469.19 2096.58 469.19 2097.03V2100H468.53V2097.14C468.53 2096.62 468.41 2096.22 468.17 2095.94C467.93 2095.65 467.58 2095.51 467.12 2095.51C466.807 2095.51 466.523 2095.58 466.27 2095.73C466.017 2095.88 465.817 2096.08 465.67 2096.35C465.53 2096.61 465.46 2096.91 465.46 2097.26V2100H464.8ZM472.622 2098.44V2097.71L475.092 2093H475.872L473.402 2097.71V2097.76H478.272V2098.44H472.622ZM476.572 2100V2095.41H477.272V2100H476.572ZM481.476 2100.11C480.95 2100.11 480.49 2100.02 480.096 2099.84C479.703 2099.66 479.396 2099.41 479.176 2099.1C478.956 2098.79 478.83 2098.44 478.796 2098.05H479.546C479.586 2098.33 479.686 2098.57 479.846 2098.78C480.013 2098.99 480.233 2099.15 480.506 2099.26C480.786 2099.37 481.11 2099.43 481.476 2099.43C481.863 2099.43 482.2 2099.36 482.486 2099.21C482.773 2099.06 482.993 2098.85 483.146 2098.58C483.3 2098.31 483.376 2098.01 483.376 2097.68C483.376 2097.37 483.3 2097.09 483.146 2096.84C483 2096.58 482.786 2096.38 482.506 2096.23C482.233 2096.08 481.913 2096.01 481.546 2096.01C481.193 2096.01 480.87 2096.07 480.576 2096.2C480.283 2096.32 480.056 2096.49 479.896 2096.72H479.216L479.756 2093H483.636V2093.68H480.296L479.966 2095.9H480.016C480.216 2095.73 480.453 2095.59 480.726 2095.5C481.006 2095.41 481.31 2095.36 481.636 2095.36C482.123 2095.36 482.553 2095.46 482.926 2095.67C483.3 2095.88 483.586 2096.16 483.786 2096.51C483.993 2096.86 484.096 2097.25 484.096 2097.68C484.096 2098.15 483.99 2098.57 483.776 2098.94C483.57 2099.31 483.27 2099.59 482.876 2099.8C482.483 2100.01 482.016 2100.11 481.476 2100.11ZM486.086 2100V2093.55L486.346 2093.66L484.586 2095.04V2094.23L486.136 2093H486.786V2100H486.086Z" fill="#8D8B84"/>
<path d="M153.96 2100V2093H154.66V2099.32H158.42V2100H153.96ZM162.655 2100V2093.55L162.915 2093.66L161.155 2095.04V2094.23L162.705 2093H163.355V2100H162.655ZM166.408 2100L168.498 2097.32L168.728 2097.5C168.541 2097.58 168.338 2097.64 168.118 2097.69C167.905 2097.74 167.678 2097.76 167.438 2097.76C166.898 2097.76 166.425 2097.65 166.018 2097.44C165.611 2097.23 165.295 2096.94 165.068 2096.57C164.848 2096.2 164.738 2095.78 164.738 2095.33C164.738 2094.88 164.848 2094.47 165.068 2094.1C165.295 2093.73 165.611 2093.43 166.018 2093.22C166.425 2093 166.898 2092.89 167.438 2092.89C167.978 2092.89 168.451 2093 168.858 2093.22C169.271 2093.43 169.588 2093.73 169.808 2094.1C170.028 2094.47 170.138 2094.88 170.138 2095.33C170.138 2095.64 170.075 2095.95 169.948 2096.27C169.821 2096.59 169.635 2096.91 169.388 2097.24L167.268 2100H166.408ZM167.438 2097.11C167.845 2097.11 168.195 2097.03 168.488 2096.88C168.788 2096.73 169.018 2096.52 169.178 2096.25C169.338 2095.98 169.418 2095.67 169.418 2095.33C169.418 2094.99 169.338 2094.69 169.178 2094.42C169.018 2094.15 168.788 2093.93 168.488 2093.78C168.195 2093.62 167.845 2093.54 167.438 2093.54C167.031 2093.54 166.678 2093.62 166.378 2093.78C166.085 2093.93 165.858 2094.15 165.698 2094.42C165.545 2094.69 165.468 2094.99 165.468 2095.33C165.468 2095.67 165.545 2095.98 165.698 2096.25C165.858 2096.52 166.085 2096.73 166.378 2096.88C166.678 2097.03 167.031 2097.11 167.438 2097.11ZM173.688 2100.11C173.155 2100.11 172.688 2100.03 172.288 2099.87C171.895 2099.71 171.588 2099.48 171.368 2099.18C171.148 2098.87 171.038 2098.51 171.038 2098.1C171.038 2097.67 171.161 2097.31 171.408 2097C171.655 2096.69 171.998 2096.47 172.438 2096.35V2096.3C172.038 2096.16 171.738 2095.96 171.538 2095.7C171.345 2095.43 171.248 2095.12 171.248 2094.76C171.248 2094.39 171.341 2094.07 171.528 2093.79C171.721 2093.5 172.001 2093.28 172.368 2093.13C172.735 2092.97 173.175 2092.89 173.688 2092.89C174.201 2092.89 174.641 2092.97 175.008 2093.13C175.375 2093.28 175.655 2093.5 175.848 2093.79C176.041 2094.07 176.138 2094.39 176.138 2094.76C176.138 2095.12 176.038 2095.43 175.838 2095.7C175.645 2095.96 175.345 2096.16 174.938 2096.3V2096.35C175.378 2096.47 175.721 2096.69 175.968 2097C176.215 2097.31 176.338 2097.67 176.338 2098.1C176.338 2098.51 176.228 2098.87 176.008 2099.18C175.795 2099.48 175.488 2099.71 175.088 2099.87C174.688 2100.03 174.221 2100.11 173.688 2100.11ZM173.688 2099.43C174.301 2099.43 174.775 2099.31 175.108 2099.08C175.448 2098.85 175.618 2098.5 175.618 2098.05C175.618 2097.6 175.448 2097.26 175.108 2097.03C174.775 2096.8 174.301 2096.68 173.688 2096.68C173.075 2096.68 172.601 2096.8 172.268 2097.03C171.935 2097.26 171.768 2097.6 171.768 2098.05C171.768 2098.5 171.935 2098.85 172.268 2099.08C172.601 2099.31 173.075 2099.43 173.688 2099.43ZM173.688 2096.01C174.255 2096.01 174.681 2095.9 174.968 2095.69C175.261 2095.48 175.408 2095.18 175.408 2094.79C175.408 2094.4 175.265 2094.1 174.978 2093.89C174.691 2093.68 174.261 2093.57 173.688 2093.57C173.115 2093.57 172.685 2093.68 172.398 2093.89C172.111 2094.1 171.968 2094.4 171.968 2094.79C171.968 2095.18 172.115 2095.48 172.408 2095.69C172.701 2095.9 173.128 2096.01 173.688 2096.01Z" fill="#8D8B84"/>
<mask id="path-33-inside-1_1_2012" fill="white">
<path d="M1249 1655C1249 1583.92 1220.76 1515.76 1170.5 1465.5C1120.24 1415.24 1052.08 1387 981 1387C909.922 1387 841.755 1415.24 791.495 1465.5C741.236 1515.76 713 1583.92 713 1655L981 1655H1249Z"/>
</mask>
<path d="M1249 1655C1249 1583.92 1220.76 1515.76 1170.5 1465.5C1120.24 1415.24 1052.08 1387 981 1387C909.922 1387 841.755 1415.24 791.495 1465.5C741.236 1515.76 713 1583.92 713 1655L981 1655H1249Z" stroke="#8D8B84" mask="url(#path-33-inside-1_1_2012)"/>
<rect x="-22.75" y="471.25" width="1156.5" height="314.5" stroke="#8D8B84" stroke-width="0.5"/>
<rect x="190.25" y="1100.25" width="1156.5" height="554.5" stroke="#8D8B84" stroke-width="0.5"/>
<line x1="986.25" y1="-1.09278e-08" x2="986.25" y2="1100" stroke="#8D8B84" stroke-width="0.5"/>
<line x1="1076.25" y1="-1.09278e-08" x2="1076.25" y2="471" stroke="#8D8B84" stroke-width="0.5"/>
<line x1="713.25" y1="1655" x2="713.25" y2="2106" stroke="#8D8B84" stroke-width="0.5" stroke-dasharray="8 8"/>
<line x1="1441" y1="1387.25" x2="459" y2="1387.25" stroke="#8D8B84" stroke-width="0.5" stroke-dasharray="8 8"/>
<line x1="1440" y1="827.25" y2="827.25" stroke="#8D8B84" stroke-width="0.5" stroke-dasharray="8 8"/>
<line x1="1440" y1="314.25" y2="314.25" stroke="#8D8B84" stroke-width="0.5" stroke-dasharray="8 8"/>
<line x1="960.25" y1="1655" x2="960.25" y2="2106" stroke="#8D8B84" stroke-width="0.5" stroke-dasharray="8 8"/>
<line x1="1347.25" y1="185" x2="1347.25" y2="1100" stroke="#8D8B84" stroke-width="0.5" stroke-dasharray="8 8"/>
<line x1="459.25" y1="-1.09278e-08" x2="459.25" y2="2106" stroke="#8D8B84" stroke-width="0.5"/>
<line x1="148.25" y1="1655" x2="148.25" y2="2106" stroke="#8D8B84" stroke-width="0.5"/>
<path d="M1083.96 179.1C1083.48 179.1 1083.05 178.987 1082.66 178.76C1082.28 178.533 1081.98 178.223 1081.76 177.83C1081.54 177.437 1081.43 176.993 1081.43 176.5C1081.43 176.013 1081.54 175.573 1081.76 175.18C1081.98 174.78 1082.28 174.47 1082.66 174.25C1083.05 174.023 1083.48 173.91 1083.96 173.91C1084.33 173.91 1084.68 173.983 1085 174.13C1085.33 174.277 1085.6 174.487 1085.83 174.76C1086.06 175.033 1086.22 175.347 1086.31 175.7H1085.64C1085.51 175.333 1085.3 175.043 1084.99 174.83C1084.69 174.617 1084.35 174.51 1083.96 174.51C1083.6 174.51 1083.28 174.597 1082.99 174.77C1082.71 174.937 1082.49 175.17 1082.33 175.47C1082.18 175.77 1082.1 176.113 1082.1 176.5C1082.1 176.887 1082.18 177.233 1082.33 177.54C1082.49 177.84 1082.71 178.073 1082.99 178.24C1083.28 178.407 1083.6 178.49 1083.96 178.49C1084.35 178.49 1084.69 178.383 1084.99 178.17C1085.3 177.957 1085.51 177.667 1085.64 177.3H1086.31C1086.22 177.66 1086.06 177.977 1085.83 178.25C1085.6 178.517 1085.33 178.727 1085 178.88C1084.68 179.027 1084.33 179.1 1083.96 179.1ZM1092.34 179.11C1091.81 179.11 1091.34 179.03 1090.94 178.87C1090.55 178.71 1090.24 178.48 1090.02 178.18C1089.8 177.873 1089.69 177.513 1089.69 177.1C1089.69 176.673 1089.82 176.307 1090.06 176C1090.31 175.687 1090.65 175.47 1091.09 175.35V175.3C1090.69 175.16 1090.39 174.96 1090.19 174.7C1090 174.433 1089.9 174.12 1089.9 173.76C1089.9 173.393 1090 173.07 1090.18 172.79C1090.38 172.503 1090.66 172.283 1091.02 172.13C1091.39 171.97 1091.83 171.89 1092.34 171.89C1092.86 171.89 1093.3 171.97 1093.66 172.13C1094.03 172.283 1094.31 172.503 1094.5 172.79C1094.7 173.07 1094.79 173.393 1094.79 173.76C1094.79 174.12 1094.69 174.433 1094.49 174.7C1094.3 174.96 1094 175.16 1093.59 175.3V175.35C1094.03 175.47 1094.38 175.687 1094.62 176C1094.87 176.307 1094.99 176.673 1094.99 177.1C1094.99 177.513 1094.88 177.873 1094.66 178.18C1094.45 178.48 1094.14 178.71 1093.74 178.87C1093.34 179.03 1092.88 179.11 1092.34 179.11ZM1092.34 178.43C1092.96 178.43 1093.43 178.313 1093.76 178.08C1094.1 177.847 1094.27 177.503 1094.27 177.05C1094.27 176.603 1094.1 176.263 1093.76 176.03C1093.43 175.797 1092.96 175.68 1092.34 175.68C1091.73 175.68 1091.26 175.797 1090.92 176.03C1090.59 176.263 1090.42 176.603 1090.42 177.05C1090.42 177.503 1090.59 177.847 1090.92 178.08C1091.26 178.313 1091.73 178.43 1092.34 178.43ZM1092.34 175.01C1092.91 175.01 1093.34 174.903 1093.62 174.69C1093.92 174.477 1094.06 174.177 1094.06 173.79C1094.06 173.403 1093.92 173.103 1093.63 172.89C1093.35 172.677 1092.92 172.57 1092.34 172.57C1091.77 172.57 1091.34 172.677 1091.05 172.89C1090.77 173.103 1090.62 173.403 1090.62 173.79C1090.62 174.177 1090.77 174.477 1091.06 174.69C1091.36 174.903 1091.78 175.01 1092.34 175.01Z" fill="#8D8B84"/>
</g>
<defs>
<clipPath id="clip0_1_2012">
<rect width="1441" height="2106" fill="white"/>
</clipPath>
</defs>
</svg>
