<svg width="1440" height="3126" viewBox="0 0 1440 3126" fill="none" xmlns="http://www.w3.org/2000/svg">
<g clip-path="url(#clip0_2003_3780)">
<rect x="786.25" y="425.25" width="720.5" height="451.5" stroke="#8D8B84" stroke-width="0.5"/>
<rect x="905.25" y="667.25" width="675.5" height="980.5" stroke="#8D8B84" stroke-width="0.5"/>
<rect x="-53.75" y="1271.25" width="1115.5" height="762.5" stroke="#8D8B84" stroke-width="0.5"/>
<circle cx="905" cy="969" r="301.75" stroke="#8D8B84" stroke-width="0.5"/>
<line x1="1193.25" y1="667" x2="1193.25" y2="877" stroke="#8D8B84" stroke-width="0.5" stroke-dasharray="8 8"/>
<line x1="1440" y1="969.25" x2="905" y2="969.25" stroke="#8D8B84" stroke-width="0.5" stroke-dasharray="8 8"/>
<line x1="1062" y1="1521.25" x2="905" y2="1521.25" stroke="#8D8B84" stroke-width="0.5" stroke-dasharray="8 8"/>
<line x1="1173.25" y1="1648" x2="1173.25" y2="2220" stroke="#8D8B84" stroke-width="0.5" stroke-dasharray="8 8"/>
<path d="M791.76 872L790.3 867.01H790.98L792.19 871.28H792.24L793.42 867.01H794.25L795.43 871.28H795.48L796.7 867.01H797.37L795.9 872H795.04L793.85 867.73H793.8L792.62 872H791.76ZM801.754 872V865.55L802.014 865.66L800.254 867.04V866.23L801.804 865H802.454V872H801.754ZM805.368 872V865.55L805.628 865.66L803.868 867.04V866.23L805.418 865H806.068V872H805.368ZM809.121 872L811.211 869.32L811.441 869.5C811.254 869.58 811.051 869.643 810.831 869.69C810.617 869.737 810.391 869.76 810.151 869.76C809.611 869.76 809.137 869.653 808.731 869.44C808.324 869.227 808.007 868.937 807.781 868.57C807.561 868.197 807.451 867.783 807.451 867.33C807.451 866.877 807.561 866.467 807.781 866.1C808.007 865.727 808.324 865.433 808.731 865.22C809.137 865 809.611 864.89 810.151 864.89C810.691 864.89 811.164 865 811.571 865.22C811.984 865.433 812.301 865.727 812.521 866.1C812.741 866.467 812.851 866.877 812.851 867.33C812.851 867.637 812.787 867.95 812.661 868.27C812.534 868.59 812.347 868.913 812.101 869.24L809.981 872H809.121ZM810.151 869.11C810.557 869.11 810.907 869.033 811.201 868.88C811.501 868.727 811.731 868.517 811.891 868.25C812.051 867.977 812.131 867.67 812.131 867.33C812.131 866.99 812.051 866.687 811.891 866.42C811.731 866.147 811.501 865.933 811.201 865.78C810.907 865.62 810.557 865.54 810.151 865.54C809.744 865.54 809.391 865.62 809.091 865.78C808.797 865.933 808.571 866.147 808.411 866.42C808.257 866.687 808.181 866.99 808.181 867.33C808.181 867.67 808.257 867.977 808.411 868.25C808.571 868.517 808.797 868.727 809.091 868.88C809.391 869.033 809.744 869.11 810.151 869.11Z" fill="#8D8B84"/>
<path d="M909.75 964V959.01H910.38V959.86H910.43C910.577 959.567 910.78 959.343 911.04 959.19C911.307 959.037 911.613 958.96 911.96 958.96H912.66V959.59H911.96C911.487 959.59 911.11 959.75 910.83 960.07C910.55 960.39 910.41 960.81 910.41 961.33V964H909.75ZM917.997 964.11C917.451 964.11 916.977 964.023 916.577 963.85C916.184 963.677 915.877 963.437 915.657 963.13C915.437 962.817 915.311 962.457 915.277 962.05H916.027C916.074 962.497 916.267 962.84 916.607 963.08C916.947 963.313 917.411 963.43 917.997 963.43C918.391 963.43 918.724 963.367 918.997 963.24C919.277 963.107 919.487 962.927 919.627 962.7C919.774 962.473 919.847 962.217 919.847 961.93C919.847 961.63 919.774 961.37 919.627 961.15C919.481 960.923 919.267 960.753 918.987 960.64C918.714 960.527 918.387 960.47 918.007 960.47H916.767V959.85L919.287 957.73V957.68H915.817V957H920.137V957.81L917.777 959.81V960.07L917.597 959.86H918.127C918.614 959.86 919.041 959.943 919.407 960.11C919.781 960.277 920.067 960.517 920.267 960.83C920.474 961.143 920.577 961.51 920.577 961.93C920.577 962.323 920.477 962.687 920.277 963.02C920.077 963.353 919.781 963.62 919.387 963.82C919.001 964.013 918.537 964.11 917.997 964.11ZM924.603 964.11C924.03 964.11 923.503 963.963 923.023 963.67C922.543 963.377 922.16 962.957 921.873 962.41C921.593 961.863 921.453 961.227 921.453 960.5C921.453 959.773 921.593 959.137 921.873 958.59C922.16 958.043 922.543 957.623 923.023 957.33C923.503 957.037 924.03 956.89 924.603 956.89C925.176 956.89 925.7 957.037 926.173 957.33C926.653 957.623 927.033 958.043 927.313 958.59C927.6 959.137 927.743 959.773 927.743 960.5C927.743 961.227 927.6 961.863 927.313 962.41C927.033 962.957 926.653 963.377 926.173 963.67C925.7 963.963 925.176 964.11 924.603 964.11ZM924.603 963.43C925.043 963.43 925.446 963.32 925.813 963.1C926.18 962.88 926.473 962.55 926.693 962.11C926.913 961.663 927.023 961.127 927.023 960.5C927.023 959.873 926.913 959.34 926.693 958.9C926.473 958.453 926.18 958.12 925.813 957.9C925.446 957.68 925.043 957.57 924.603 957.57C924.156 957.57 923.75 957.68 923.383 957.9C923.016 958.12 922.723 958.453 922.503 958.9C922.29 959.34 922.183 959.873 922.183 960.5C922.183 961.127 922.29 961.663 922.503 962.11C922.723 962.55 923.016 962.88 923.383 963.1C923.75 963.32 924.156 963.43 924.603 963.43ZM928.68 964V963.12L931.57 960.89C931.884 960.637 932.13 960.413 932.31 960.22C932.497 960.02 932.63 959.823 932.71 959.63C932.797 959.43 932.84 959.217 932.84 958.99C932.84 958.557 932.697 958.213 932.41 957.96C932.13 957.7 931.757 957.57 931.29 957.57C930.757 957.57 930.34 957.713 930.04 958C929.747 958.287 929.58 958.657 929.54 959.11H928.82C928.834 958.71 928.93 958.343 929.11 958.01C929.297 957.677 929.57 957.407 929.93 957.2C930.297 956.993 930.75 956.89 931.29 956.89C931.75 956.89 932.15 956.98 932.49 957.16C932.83 957.333 933.094 957.577 933.28 957.89C933.467 958.203 933.56 958.56 933.56 958.96C933.56 959.273 933.507 959.557 933.4 959.81C933.3 960.063 933.137 960.32 932.91 960.58C932.684 960.833 932.37 961.11 931.97 961.41L929.59 963.27V963.32H933.73V964H928.68Z" fill="#8D8B84"/>
<path d="M910.76 1516L909.3 1511.01H909.98L911.19 1515.28H911.24L912.42 1511.01H913.25L914.43 1515.28H914.48L915.7 1511.01H916.37L914.9 1516H914.04L912.85 1511.73H912.8L911.62 1516H910.76ZM920.754 1516V1509.55L921.014 1509.66L919.254 1511.04V1510.23L920.804 1509H921.454V1516H920.754ZM925.598 1516.11C925.071 1516.11 924.611 1516.02 924.218 1515.84C923.824 1515.66 923.518 1515.41 923.298 1515.1C923.078 1514.79 922.951 1514.44 922.918 1514.05H923.668C923.708 1514.33 923.808 1514.57 923.968 1514.78C924.134 1514.99 924.354 1515.15 924.628 1515.26C924.908 1515.37 925.231 1515.43 925.598 1515.43C925.984 1515.43 926.321 1515.36 926.608 1515.21C926.894 1515.06 927.114 1514.85 927.268 1514.58C927.421 1514.31 927.498 1514.01 927.498 1513.68C927.498 1513.37 927.421 1513.09 927.268 1512.84C927.121 1512.58 926.908 1512.38 926.628 1512.23C926.354 1512.08 926.034 1512.01 925.668 1512.01C925.314 1512.01 924.991 1512.07 924.698 1512.2C924.404 1512.32 924.178 1512.49 924.018 1512.72H923.338L923.878 1509H927.758V1509.68H924.418L924.088 1511.9H924.138C924.338 1511.73 924.574 1511.59 924.848 1511.5C925.128 1511.41 925.431 1511.36 925.758 1511.36C926.244 1511.36 926.674 1511.46 927.048 1511.67C927.421 1511.88 927.708 1512.16 927.908 1512.51C928.114 1512.86 928.218 1513.25 928.218 1513.68C928.218 1514.15 928.111 1514.57 927.898 1514.94C927.691 1515.31 927.391 1515.59 926.998 1515.8C926.604 1516.01 926.138 1516.11 925.598 1516.11ZM929.315 1516L932.515 1509.75V1509.7H928.555V1509H933.295V1509.78L930.145 1516H929.315Z" fill="#8D8B84"/>
<path d="M1067.76 1642L1066.3 1637.01H1066.98L1068.19 1641.28H1068.24L1069.42 1637.01H1070.25L1071.43 1641.28H1071.48L1072.7 1637.01H1073.37L1071.9 1642H1071.04L1069.85 1637.73H1069.8L1068.62 1642H1067.76ZM1078.87 1642.11C1078.33 1642.11 1077.85 1642.02 1077.45 1641.85C1077.06 1641.68 1076.75 1641.44 1076.53 1641.13C1076.31 1640.82 1076.19 1640.46 1076.15 1640.05H1076.9C1076.95 1640.5 1077.14 1640.84 1077.48 1641.08C1077.82 1641.31 1078.29 1641.43 1078.87 1641.43C1079.27 1641.43 1079.6 1641.37 1079.87 1641.24C1080.15 1641.11 1080.36 1640.93 1080.5 1640.7C1080.65 1640.47 1080.72 1640.22 1080.72 1639.93C1080.72 1639.63 1080.65 1639.37 1080.5 1639.15C1080.36 1638.92 1080.14 1638.75 1079.86 1638.64C1079.59 1638.53 1079.26 1638.47 1078.88 1638.47H1077.64V1637.85L1080.16 1635.73V1635.68H1076.69V1635H1081.01V1635.81L1078.65 1637.81V1638.07L1078.47 1637.86H1079C1079.49 1637.86 1079.92 1637.94 1080.28 1638.11C1080.66 1638.28 1080.94 1638.52 1081.14 1638.83C1081.35 1639.14 1081.45 1639.51 1081.45 1639.93C1081.45 1640.32 1081.35 1640.69 1081.15 1641.02C1080.95 1641.35 1080.66 1641.62 1080.26 1641.82C1079.88 1642.01 1079.41 1642.11 1078.87 1642.11ZM1082.67 1642L1085.87 1635.75V1635.7H1081.91V1635H1086.65V1635.78L1083.5 1642H1082.67ZM1089.93 1642.11C1089.4 1642.11 1088.93 1642.03 1088.53 1641.87C1088.14 1641.71 1087.83 1641.48 1087.61 1641.18C1087.39 1640.87 1087.28 1640.51 1087.28 1640.1C1087.28 1639.67 1087.4 1639.31 1087.65 1639C1087.9 1638.69 1088.24 1638.47 1088.68 1638.35V1638.3C1088.28 1638.16 1087.98 1637.96 1087.78 1637.7C1087.59 1637.43 1087.49 1637.12 1087.49 1636.76C1087.49 1636.39 1087.58 1636.07 1087.77 1635.79C1087.96 1635.5 1088.24 1635.28 1088.61 1635.13C1088.98 1634.97 1089.42 1634.89 1089.93 1634.89C1090.44 1634.89 1090.88 1634.97 1091.25 1635.13C1091.62 1635.28 1091.9 1635.5 1092.09 1635.79C1092.28 1636.07 1092.38 1636.39 1092.38 1636.76C1092.38 1637.12 1092.28 1637.43 1092.08 1637.7C1091.89 1637.96 1091.59 1638.16 1091.18 1638.3V1638.35C1091.62 1638.47 1091.96 1638.69 1092.21 1639C1092.46 1639.31 1092.58 1639.67 1092.58 1640.1C1092.58 1640.51 1092.47 1640.87 1092.25 1641.18C1092.04 1641.48 1091.73 1641.71 1091.33 1641.87C1090.93 1642.03 1090.46 1642.11 1089.93 1642.11ZM1089.93 1641.43C1090.54 1641.43 1091.02 1641.31 1091.35 1641.08C1091.69 1640.85 1091.86 1640.5 1091.86 1640.05C1091.86 1639.6 1091.69 1639.26 1091.35 1639.03C1091.02 1638.8 1090.54 1638.68 1089.93 1638.68C1089.32 1638.68 1088.84 1638.8 1088.51 1639.03C1088.18 1639.26 1088.01 1639.6 1088.01 1640.05C1088.01 1640.5 1088.18 1640.85 1088.51 1641.08C1088.84 1641.31 1089.32 1641.43 1089.93 1641.43ZM1089.93 1638.01C1090.5 1638.01 1090.92 1637.9 1091.21 1637.69C1091.5 1637.48 1091.65 1637.18 1091.65 1636.79C1091.65 1636.4 1091.51 1636.1 1091.22 1635.89C1090.93 1635.68 1090.5 1635.57 1089.93 1635.57C1089.36 1635.57 1088.93 1635.68 1088.64 1635.89C1088.35 1636.1 1088.21 1636.4 1088.21 1636.79C1088.21 1637.18 1088.36 1637.48 1088.65 1637.69C1088.94 1637.9 1089.37 1638.01 1089.93 1638.01Z" fill="#8D8B84"/>
<path d="M1197.8 872V865H1198.46V867.85H1198.51C1198.68 867.563 1198.91 867.337 1199.21 867.17C1199.52 866.997 1199.87 866.91 1200.26 866.91C1200.66 866.91 1201 866.993 1201.29 867.16C1201.58 867.32 1201.81 867.56 1201.96 867.88C1202.11 868.2 1202.19 868.583 1202.19 869.03V872H1201.53V869.14C1201.53 868.62 1201.41 868.22 1201.17 867.94C1200.93 867.653 1200.58 867.51 1200.12 867.51C1199.81 867.51 1199.52 867.583 1199.27 867.73C1199.02 867.877 1198.82 868.083 1198.67 868.35C1198.53 868.61 1198.46 868.913 1198.46 869.26V872H1197.8ZM1205.77 872V871.12L1208.66 868.89C1208.98 868.637 1209.22 868.413 1209.4 868.22C1209.59 868.02 1209.72 867.823 1209.8 867.63C1209.89 867.43 1209.93 867.217 1209.93 866.99C1209.93 866.557 1209.79 866.213 1209.5 865.96C1209.22 865.7 1208.85 865.57 1208.38 865.57C1207.85 865.57 1207.43 865.713 1207.13 866C1206.84 866.287 1206.67 866.657 1206.63 867.11H1205.91C1205.93 866.71 1206.02 866.343 1206.2 866.01C1206.39 865.677 1206.66 865.407 1207.02 865.2C1207.39 864.993 1207.84 864.89 1208.38 864.89C1208.84 864.89 1209.24 864.98 1209.58 865.16C1209.92 865.333 1210.19 865.577 1210.37 865.89C1210.56 866.203 1210.65 866.56 1210.65 866.96C1210.65 867.273 1210.6 867.557 1210.49 867.81C1210.39 868.063 1210.23 868.32 1210 868.58C1209.78 868.833 1209.46 869.11 1209.06 869.41L1206.68 871.27V871.32H1210.82V872H1205.77ZM1211.41 870.44V869.71L1213.88 865H1214.66L1212.19 869.71V869.76H1217.06V870.44H1211.41ZM1215.36 872V867.41H1216.06V872H1215.36ZM1217.54 872V871.12L1220.43 868.89C1220.74 868.637 1220.99 868.413 1221.17 868.22C1221.36 868.02 1221.49 867.823 1221.57 867.63C1221.66 867.43 1221.7 867.217 1221.7 866.99C1221.7 866.557 1221.56 866.213 1221.27 865.96C1220.99 865.7 1220.62 865.57 1220.15 865.57C1219.62 865.57 1219.2 865.713 1218.9 866C1218.61 866.287 1218.44 866.657 1218.4 867.11H1217.68C1217.69 866.71 1217.79 866.343 1217.97 866.01C1218.16 865.677 1218.43 865.407 1218.79 865.2C1219.16 864.993 1219.61 864.89 1220.15 864.89C1220.61 864.89 1221.01 864.98 1221.35 865.16C1221.69 865.333 1221.95 865.577 1222.14 865.89C1222.33 866.203 1222.42 866.56 1222.42 866.96C1222.42 867.273 1222.37 867.557 1222.26 867.81C1222.16 868.063 1222 868.32 1221.77 868.58C1221.54 868.833 1221.23 869.11 1220.83 869.41L1218.45 871.27V871.32H1222.59V872H1217.54Z" fill="#8D8B84"/>
</g>
<g clip-path="url(#clip1_2003_3780)">
<rect y="1090" width="670" height="209" fill="#21201C"/>
<rect x="670" y="1159" width="390" height="140" fill="#21201C"/>
<rect x="869" y="1090" width="249" height="69" fill="#21201C"/>
<rect y="1299" width="771" height="866" fill="#21201C"/>
<rect x="770" y="1678" width="670" height="487" fill="#21201C"/>
<rect x="770" y="1309" width="588" height="369" fill="#21201C"/>
<rect x="1358" y="1532" width="42" height="146" fill="#21201C"/>
<line x1="-2.18557e-08" y1="2164.75" x2="1440" y2="2164.75" stroke="#8D8B84" stroke-width="0.5"/>
<line x1="1268.25" y1="1309" x2="1268.25" y2="2165" stroke="#8D8B84" stroke-width="0.5"/>
<line x1="869.25" y1="1159" x2="869.25" y2="1678" stroke="#8D8B84" stroke-width="0.5"/>
<line x1="670.25" y1="1159" x2="670.25" y2="1678" stroke="#8D8B84" stroke-width="0.5"/>
<line x1="386.25" y1="1090" x2="386.25" y2="2165" stroke="#8D8B84" stroke-width="0.5" stroke-dasharray="8 8"/>
<line x1="1358.25" y1="1309" x2="1358.25" y2="1879" stroke="#8D8B84" stroke-width="0.5" stroke-dasharray="8 8"/>
<line x1="827.25" y1="1732" x2="827.25" y2="2165" stroke="#8D8B84" stroke-width="0.5" stroke-dasharray="8 8"/>
<line x1="1440" y1="1678.25" y2="1678.25" stroke="#8D8B84" stroke-width="0.5"/>
<line x1="1440" y1="1879.25" y2="1879.25" stroke="#8D8B84" stroke-width="0.5"/>
<path d="M1268 2174C1268 2058.63 1221.54 1947.99 1138.83 1866.41C1056.13 1784.83 943.961 1739 827 1739C710.04 1739 597.87 1784.83 515.166 1866.41C432.462 1947.99 386 2058.63 386 2174" stroke="#8D8B84" stroke-width="0.5"/>
<path d="M1274.76 1873L1273.3 1868.01H1273.98L1275.19 1872.28H1275.24L1276.42 1868.01H1277.25L1278.43 1872.28H1278.48L1279.7 1868.01H1280.37L1278.9 1873H1278.04L1276.85 1868.73H1276.8L1275.62 1873H1274.76ZM1285.98 1873.11C1285.46 1873.11 1285 1873.02 1284.6 1872.84C1284.21 1872.66 1283.9 1872.41 1283.68 1872.1C1283.46 1871.79 1283.34 1871.44 1283.3 1871.05H1284.05C1284.09 1871.33 1284.19 1871.57 1284.35 1871.78C1284.52 1871.99 1284.74 1872.15 1285.01 1872.26C1285.29 1872.37 1285.62 1872.43 1285.98 1872.43C1286.37 1872.43 1286.71 1872.36 1286.99 1872.21C1287.28 1872.06 1287.5 1871.85 1287.65 1871.58C1287.81 1871.31 1287.88 1871.01 1287.88 1870.68C1287.88 1870.37 1287.81 1870.09 1287.65 1869.84C1287.51 1869.58 1287.29 1869.38 1287.01 1869.23C1286.74 1869.08 1286.42 1869.01 1286.05 1869.01C1285.7 1869.01 1285.38 1869.07 1285.08 1869.2C1284.79 1869.32 1284.56 1869.49 1284.4 1869.72H1283.72L1284.26 1866H1288.14V1866.68H1284.8L1284.47 1868.9H1284.52C1284.72 1868.73 1284.96 1868.59 1285.23 1868.5C1285.51 1868.41 1285.82 1868.36 1286.14 1868.36C1286.63 1868.36 1287.06 1868.46 1287.43 1868.67C1287.81 1868.88 1288.09 1869.16 1288.29 1869.51C1288.5 1869.86 1288.6 1870.25 1288.6 1870.68C1288.6 1871.15 1288.5 1871.57 1288.28 1871.94C1288.08 1872.31 1287.78 1872.59 1287.38 1872.8C1286.99 1873.01 1286.52 1873.11 1285.98 1873.11ZM1292.12 1873.11C1291.58 1873.11 1291.1 1873 1290.7 1872.79C1290.29 1872.57 1289.97 1872.28 1289.75 1871.91C1289.53 1871.54 1289.42 1871.12 1289.42 1870.67C1289.42 1870.36 1289.48 1870.05 1289.61 1869.73C1289.73 1869.41 1289.92 1869.09 1290.18 1868.76L1292.3 1866H1293.16L1291.06 1868.68L1290.84 1868.5C1291.02 1868.42 1291.21 1868.36 1291.43 1868.31C1291.65 1868.26 1291.88 1868.24 1292.12 1868.24C1292.66 1868.24 1293.13 1868.35 1293.54 1868.56C1293.95 1868.77 1294.27 1869.07 1294.49 1869.44C1294.71 1869.81 1294.82 1870.22 1294.82 1870.67C1294.82 1871.12 1294.71 1871.54 1294.49 1871.91C1294.27 1872.28 1293.95 1872.57 1293.54 1872.79C1293.13 1873 1292.66 1873.11 1292.12 1873.11ZM1292.12 1872.46C1292.52 1872.46 1292.87 1872.38 1293.17 1872.23C1293.47 1872.07 1293.7 1871.86 1293.86 1871.59C1294.02 1871.32 1294.1 1871.01 1294.1 1870.67C1294.1 1870.33 1294.02 1870.03 1293.86 1869.76C1293.7 1869.49 1293.47 1869.27 1293.17 1869.12C1292.87 1868.97 1292.52 1868.89 1292.12 1868.89C1291.71 1868.89 1291.36 1868.97 1291.06 1869.12C1290.76 1869.27 1290.54 1869.49 1290.38 1869.76C1290.22 1870.03 1290.15 1870.33 1290.15 1870.67C1290.15 1871.01 1290.22 1871.32 1290.38 1871.59C1290.54 1871.86 1290.76 1872.07 1291.06 1872.23C1291.36 1872.38 1291.71 1872.46 1292.12 1872.46Z" fill="#8D8B84"/>
<path d="M1274.76 1672L1273.3 1667.01H1273.98L1275.19 1671.28H1275.24L1276.42 1667.01H1277.25L1278.43 1671.28H1278.48L1279.7 1667.01H1280.37L1278.9 1672H1278.04L1276.85 1667.73H1276.8L1275.62 1672H1274.76ZM1284.75 1672V1665.55L1285.01 1665.66L1283.25 1667.04V1666.23L1284.8 1665H1285.45V1672H1284.75ZM1286.97 1672V1671.12L1289.86 1668.89C1290.17 1668.64 1290.42 1668.41 1290.6 1668.22C1290.78 1668.02 1290.92 1667.82 1291 1667.63C1291.08 1667.43 1291.13 1667.22 1291.13 1666.99C1291.13 1666.56 1290.98 1666.21 1290.7 1665.96C1290.42 1665.7 1290.04 1665.57 1289.58 1665.57C1289.04 1665.57 1288.63 1665.71 1288.33 1666C1288.03 1666.29 1287.87 1666.66 1287.83 1667.11H1287.11C1287.12 1666.71 1287.22 1666.34 1287.4 1666.01C1287.58 1665.68 1287.86 1665.41 1288.22 1665.2C1288.58 1664.99 1289.04 1664.89 1289.58 1664.89C1290.04 1664.89 1290.44 1664.98 1290.78 1665.16C1291.12 1665.33 1291.38 1665.58 1291.57 1665.89C1291.75 1666.2 1291.85 1666.56 1291.85 1666.96C1291.85 1667.27 1291.79 1667.56 1291.69 1667.81C1291.59 1668.06 1291.42 1668.32 1291.2 1668.58C1290.97 1668.83 1290.66 1669.11 1290.26 1669.41L1287.88 1671.27V1671.32H1292.02V1672H1286.97ZM1295.38 1672.11C1294.83 1672.11 1294.36 1672.02 1293.96 1671.85C1293.56 1671.68 1293.26 1671.44 1293.04 1671.13C1292.82 1670.82 1292.69 1670.46 1292.66 1670.05H1293.41C1293.45 1670.5 1293.65 1670.84 1293.99 1671.08C1294.33 1671.31 1294.79 1671.43 1295.38 1671.43C1295.77 1671.43 1296.1 1671.37 1296.38 1671.24C1296.66 1671.11 1296.87 1670.93 1297.01 1670.7C1297.15 1670.47 1297.23 1670.22 1297.23 1669.93C1297.23 1669.63 1297.15 1669.37 1297.01 1669.15C1296.86 1668.92 1296.65 1668.75 1296.37 1668.64C1296.09 1668.53 1295.77 1668.47 1295.39 1668.47H1294.15V1667.85L1296.67 1665.73V1665.68H1293.2V1665H1297.52V1665.81L1295.16 1667.81V1668.07L1294.98 1667.86H1295.51C1295.99 1667.86 1296.42 1667.94 1296.79 1668.11C1297.16 1668.28 1297.45 1668.52 1297.65 1668.83C1297.85 1669.14 1297.96 1669.51 1297.96 1669.93C1297.96 1670.32 1297.86 1670.69 1297.66 1671.02C1297.46 1671.35 1297.16 1671.62 1296.77 1671.82C1296.38 1672.01 1295.92 1672.11 1295.38 1672.11Z" fill="#8D8B84"/>
<path d="M391.96 2159V2152H394.17C394.857 2152 395.47 2152.15 396.01 2152.45C396.557 2152.74 396.98 2153.16 397.28 2153.69C397.587 2154.22 397.74 2154.83 397.74 2155.5C397.74 2156.17 397.587 2156.78 397.28 2157.31C396.98 2157.84 396.557 2158.26 396.01 2158.56C395.47 2158.85 394.857 2159 394.17 2159H391.96ZM394.17 2158.32C394.73 2158.32 395.223 2158.2 395.65 2157.97C396.083 2157.74 396.42 2157.41 396.66 2156.98C396.9 2156.55 397.02 2156.05 397.02 2155.5C397.02 2154.95 396.9 2154.46 396.66 2154.03C396.42 2153.6 396.083 2153.26 395.65 2153.03C395.223 2152.8 394.73 2152.68 394.17 2152.68H392.66V2158.32H394.17ZM403.524 2159.11C402.99 2159.11 402.524 2159.03 402.124 2158.87C401.73 2158.71 401.424 2158.48 401.204 2158.18C400.984 2157.87 400.874 2157.51 400.874 2157.1C400.874 2156.67 400.997 2156.31 401.244 2156C401.49 2155.69 401.834 2155.47 402.274 2155.35V2155.3C401.874 2155.16 401.574 2154.96 401.374 2154.7C401.18 2154.43 401.084 2154.12 401.084 2153.76C401.084 2153.39 401.177 2153.07 401.364 2152.79C401.557 2152.5 401.837 2152.28 402.204 2152.13C402.57 2151.97 403.01 2151.89 403.524 2151.89C404.037 2151.89 404.477 2151.97 404.844 2152.13C405.21 2152.28 405.49 2152.5 405.684 2152.79C405.877 2153.07 405.974 2153.39 405.974 2153.76C405.974 2154.12 405.874 2154.43 405.674 2154.7C405.48 2154.96 405.18 2155.16 404.774 2155.3V2155.35C405.214 2155.47 405.557 2155.69 405.804 2156C406.05 2156.31 406.174 2156.67 406.174 2157.1C406.174 2157.51 406.064 2157.87 405.844 2158.18C405.63 2158.48 405.324 2158.71 404.924 2158.87C404.524 2159.03 404.057 2159.11 403.524 2159.11ZM403.524 2158.43C404.137 2158.43 404.61 2158.31 404.944 2158.08C405.284 2157.85 405.454 2157.5 405.454 2157.05C405.454 2156.6 405.284 2156.26 404.944 2156.03C404.61 2155.8 404.137 2155.68 403.524 2155.68C402.91 2155.68 402.437 2155.8 402.104 2156.03C401.77 2156.26 401.604 2156.6 401.604 2157.05C401.604 2157.5 401.77 2157.85 402.104 2158.08C402.437 2158.31 402.91 2158.43 403.524 2158.43ZM403.524 2155.01C404.09 2155.01 404.517 2154.9 404.804 2154.69C405.097 2154.48 405.244 2154.18 405.244 2153.79C405.244 2153.4 405.1 2153.1 404.814 2152.89C404.527 2152.68 404.097 2152.57 403.524 2152.57C402.95 2152.57 402.52 2152.68 402.234 2152.89C401.947 2153.1 401.804 2153.4 401.804 2153.79C401.804 2154.18 401.95 2154.48 402.244 2154.69C402.537 2154.9 402.964 2155.01 403.524 2155.01ZM409.725 2159.11C409.192 2159.11 408.725 2159.03 408.325 2158.87C407.932 2158.71 407.625 2158.48 407.405 2158.18C407.185 2157.87 407.075 2157.51 407.075 2157.1C407.075 2156.67 407.198 2156.31 407.445 2156C407.692 2155.69 408.035 2155.47 408.475 2155.35V2155.3C408.075 2155.16 407.775 2154.96 407.575 2154.7C407.382 2154.43 407.285 2154.12 407.285 2153.76C407.285 2153.39 407.378 2153.07 407.565 2152.79C407.758 2152.5 408.038 2152.28 408.405 2152.13C408.772 2151.97 409.212 2151.89 409.725 2151.89C410.238 2151.89 410.678 2151.97 411.045 2152.13C411.412 2152.28 411.692 2152.5 411.885 2152.79C412.078 2153.07 412.175 2153.39 412.175 2153.76C412.175 2154.12 412.075 2154.43 411.875 2154.7C411.682 2154.96 411.382 2155.16 410.975 2155.3V2155.35C411.415 2155.47 411.758 2155.69 412.005 2156C412.252 2156.31 412.375 2156.67 412.375 2157.1C412.375 2157.51 412.265 2157.87 412.045 2158.18C411.832 2158.48 411.525 2158.71 411.125 2158.87C410.725 2159.03 410.258 2159.11 409.725 2159.11ZM409.725 2158.43C410.338 2158.43 410.812 2158.31 411.145 2158.08C411.485 2157.85 411.655 2157.5 411.655 2157.05C411.655 2156.6 411.485 2156.26 411.145 2156.03C410.812 2155.8 410.338 2155.68 409.725 2155.68C409.112 2155.68 408.638 2155.8 408.305 2156.03C407.972 2156.26 407.805 2156.6 407.805 2157.05C407.805 2157.5 407.972 2157.85 408.305 2158.08C408.638 2158.31 409.112 2158.43 409.725 2158.43ZM409.725 2155.01C410.292 2155.01 410.718 2154.9 411.005 2154.69C411.298 2154.48 411.445 2154.18 411.445 2153.79C411.445 2153.4 411.302 2153.1 411.015 2152.89C410.728 2152.68 410.298 2152.57 409.725 2152.57C409.152 2152.57 408.722 2152.68 408.435 2152.89C408.148 2153.1 408.005 2153.4 408.005 2153.79C408.005 2154.18 408.152 2154.48 408.445 2154.69C408.738 2154.9 409.165 2155.01 409.725 2155.01ZM413.259 2159V2158.12L416.149 2155.89C416.462 2155.64 416.709 2155.41 416.889 2155.22C417.075 2155.02 417.209 2154.82 417.289 2154.63C417.375 2154.43 417.419 2154.22 417.419 2153.99C417.419 2153.56 417.275 2153.21 416.989 2152.96C416.709 2152.7 416.335 2152.57 415.869 2152.57C415.335 2152.57 414.919 2152.71 414.619 2153C414.325 2153.29 414.159 2153.66 414.119 2154.11H413.399C413.412 2153.71 413.509 2153.34 413.689 2153.01C413.875 2152.68 414.149 2152.41 414.509 2152.2C414.875 2151.99 415.329 2151.89 415.869 2151.89C416.329 2151.89 416.729 2151.98 417.069 2152.16C417.409 2152.33 417.672 2152.58 417.859 2152.89C418.045 2153.2 418.139 2153.56 418.139 2153.96C418.139 2154.27 418.085 2154.56 417.979 2154.81C417.879 2155.06 417.715 2155.32 417.489 2155.58C417.262 2155.83 416.949 2156.11 416.549 2156.41L414.169 2158.27V2158.32H418.309V2159H413.259Z" fill="#8D8B84"/>
<path d="M832.75 2159V2154.01H833.38V2154.86H833.43C833.577 2154.57 833.78 2154.34 834.04 2154.19C834.307 2154.04 834.613 2153.96 834.96 2153.96H835.66V2154.59H834.96C834.487 2154.59 834.11 2154.75 833.83 2155.07C833.55 2155.39 833.41 2155.81 833.41 2156.33V2159H832.75ZM838.327 2157.44V2156.71L840.797 2152H841.577L839.107 2156.71V2156.76H843.977V2157.44H838.327ZM842.277 2159V2154.41H842.977V2159H842.277ZM844.489 2157.44V2156.71L846.959 2152H847.739L845.269 2156.71V2156.76H850.139V2157.44H844.489ZM848.439 2159V2154.41H849.139V2159H848.439ZM851.918 2159V2152.55L852.178 2152.66L850.418 2154.04V2153.23L851.968 2152H852.618V2159H851.918Z" fill="#8D8B84"/>
</g>
<g clip-path="url(#clip2_2003_3780)">
<rect width="1440" height="961" transform="translate(0 2165)" fill="#21201C"/>
<line x1="1440" y1="2740.25" y2="2740.25" stroke="#8D8B84" stroke-width="0.5"/>
<line x1="1268.25" y1="2165" x2="1268.25" y2="3126" stroke="#8D8B84" stroke-width="0.5"/>
<line x1="104.25" y1="2740" x2="104.25" y2="3126" stroke="#8D8B84" stroke-width="0.5"/>
<line x1="887.25" y1="2740" x2="887.25" y2="3126" stroke="#8D8B84" stroke-width="0.5"/>
<line x1="495.25" y1="2359" x2="495.25" y2="2740" stroke="#8D8B84" stroke-width="0.5"/>
<line x1="386.25" y1="2165" x2="386.25" y2="3126" stroke="#8D8B84" stroke-width="0.5" stroke-dasharray="8 8"/>
<line x1="1440" y1="3065.25" x2="887" y2="3065.25" stroke="#8D8B84" stroke-width="0.5" stroke-dasharray="8 8"/>
<line x1="827.25" y1="2165" x2="827.25" y2="2740" stroke="#8D8B84" stroke-width="0.5" stroke-dasharray="8 8"/>
<path d="M887 3126C887 3023.63 845.753 2925.45 772.332 2853.06C698.912 2780.67 599.332 2740 495.5 2740C391.668 2740 292.088 2780.67 218.668 2853.06C145.247 2925.45 104 3023.63 104 3126" stroke="#8D8B84" stroke-width="0.5"/>
<path d="M834.96 2353.1C834.48 2353.1 834.047 2352.99 833.66 2352.76C833.28 2352.53 832.98 2352.22 832.76 2351.83C832.54 2351.44 832.43 2350.99 832.43 2350.5C832.43 2350.01 832.54 2349.57 832.76 2349.18C832.98 2348.78 833.28 2348.47 833.66 2348.25C834.047 2348.02 834.48 2347.91 834.96 2347.91C835.333 2347.91 835.68 2347.98 836 2348.13C836.327 2348.28 836.603 2348.49 836.83 2348.76C837.063 2349.03 837.223 2349.35 837.31 2349.7H836.64C836.513 2349.33 836.297 2349.04 835.99 2348.83C835.69 2348.62 835.347 2348.51 834.96 2348.51C834.6 2348.51 834.277 2348.6 833.99 2348.77C833.71 2348.94 833.49 2349.17 833.33 2349.47C833.177 2349.77 833.1 2350.11 833.1 2350.5C833.1 2350.89 833.177 2351.23 833.33 2351.54C833.49 2351.84 833.71 2352.07 833.99 2352.24C834.277 2352.41 834.6 2352.49 834.96 2352.49C835.347 2352.49 835.69 2352.38 835.99 2352.17C836.297 2351.96 836.513 2351.67 836.64 2351.3H837.31C837.223 2351.66 837.063 2351.98 836.83 2352.25C836.603 2352.52 836.327 2352.73 836 2352.88C835.68 2353.03 835.333 2353.1 834.96 2353.1ZM840.427 2351.44V2350.71L842.897 2346H843.677L841.207 2350.71V2350.76H846.077V2351.44H840.427ZM844.377 2353V2348.41H845.077V2353H844.377Z" fill="#8D8B84"/>
<path d="M1272.8 2753V2746H1273.46V2748.85H1273.51C1273.68 2748.56 1273.91 2748.34 1274.21 2748.17C1274.52 2748 1274.87 2747.91 1275.26 2747.91C1275.66 2747.91 1276 2747.99 1276.29 2748.16C1276.58 2748.32 1276.81 2748.56 1276.96 2748.88C1277.11 2749.2 1277.19 2749.58 1277.19 2750.03V2753H1276.53V2750.14C1276.53 2749.62 1276.41 2749.22 1276.17 2748.94C1275.93 2748.65 1275.58 2748.51 1275.12 2748.51C1274.81 2748.51 1274.52 2748.58 1274.27 2748.73C1274.02 2748.88 1273.82 2749.08 1273.67 2749.35C1273.53 2749.61 1273.46 2749.91 1273.46 2750.26V2753H1272.8ZM1283.29 2753.11C1282.75 2753.11 1282.27 2753.02 1281.87 2752.85C1281.48 2752.68 1281.17 2752.44 1280.95 2752.13C1280.73 2751.82 1280.61 2751.46 1280.57 2751.05H1281.32C1281.37 2751.5 1281.56 2751.84 1281.9 2752.08C1282.24 2752.31 1282.71 2752.43 1283.29 2752.43C1283.69 2752.43 1284.02 2752.37 1284.29 2752.24C1284.57 2752.11 1284.78 2751.93 1284.92 2751.7C1285.07 2751.47 1285.14 2751.22 1285.14 2750.93C1285.14 2750.63 1285.07 2750.37 1284.92 2750.15C1284.78 2749.92 1284.56 2749.75 1284.28 2749.64C1284.01 2749.53 1283.68 2749.47 1283.3 2749.47H1282.06V2748.85L1284.58 2746.73V2746.68H1281.11V2746H1285.43V2746.81L1283.07 2748.81V2749.07L1282.89 2748.86H1283.42C1283.91 2748.86 1284.34 2748.94 1284.7 2749.11C1285.08 2749.28 1285.36 2749.52 1285.56 2749.83C1285.77 2750.14 1285.87 2750.51 1285.87 2750.93C1285.87 2751.32 1285.77 2751.69 1285.57 2752.02C1285.37 2752.35 1285.08 2752.62 1284.68 2752.82C1284.3 2753.01 1283.83 2753.11 1283.29 2753.11ZM1286.68 2753V2752.12L1289.57 2749.89C1289.88 2749.64 1290.13 2749.41 1290.31 2749.22C1290.5 2749.02 1290.63 2748.82 1290.71 2748.63C1290.8 2748.43 1290.84 2748.22 1290.84 2747.99C1290.84 2747.56 1290.7 2747.21 1290.41 2746.96C1290.13 2746.7 1289.76 2746.57 1289.29 2746.57C1288.76 2746.57 1288.34 2746.71 1288.04 2747C1287.75 2747.29 1287.58 2747.66 1287.54 2748.11H1286.82C1286.83 2747.71 1286.93 2747.34 1287.11 2747.01C1287.3 2746.68 1287.57 2746.41 1287.93 2746.2C1288.3 2745.99 1288.75 2745.89 1289.29 2745.89C1289.75 2745.89 1290.15 2745.98 1290.49 2746.16C1290.83 2746.33 1291.09 2746.58 1291.28 2746.89C1291.47 2747.2 1291.56 2747.56 1291.56 2747.96C1291.56 2748.27 1291.51 2748.56 1291.4 2748.81C1291.3 2749.06 1291.14 2749.32 1290.91 2749.58C1290.68 2749.83 1290.37 2750.11 1289.97 2750.41L1287.59 2752.27V2752.32H1291.73V2753H1286.68ZM1295.1 2753.11C1294.57 2753.11 1294.11 2753.02 1293.72 2752.84C1293.33 2752.66 1293.02 2752.41 1292.8 2752.1C1292.58 2751.79 1292.45 2751.44 1292.42 2751.05H1293.17C1293.21 2751.33 1293.31 2751.57 1293.47 2751.78C1293.64 2751.99 1293.86 2752.15 1294.13 2752.26C1294.41 2752.37 1294.73 2752.43 1295.1 2752.43C1295.49 2752.43 1295.82 2752.36 1296.11 2752.21C1296.4 2752.06 1296.62 2751.85 1296.77 2751.58C1296.92 2751.31 1297 2751.01 1297 2750.68C1297 2750.37 1296.92 2750.09 1296.77 2749.84C1296.62 2749.58 1296.41 2749.38 1296.13 2749.23C1295.86 2749.08 1295.54 2749.01 1295.17 2749.01C1294.82 2749.01 1294.49 2749.07 1294.2 2749.2C1293.91 2749.32 1293.68 2749.49 1293.52 2749.72H1292.84L1293.38 2746H1297.26V2746.68H1293.92L1293.59 2748.9H1293.64C1293.84 2748.73 1294.08 2748.59 1294.35 2748.5C1294.63 2748.41 1294.93 2748.36 1295.26 2748.36C1295.75 2748.36 1296.18 2748.46 1296.55 2748.67C1296.92 2748.88 1297.21 2749.16 1297.41 2749.51C1297.62 2749.86 1297.72 2750.25 1297.72 2750.68C1297.72 2751.15 1297.61 2751.57 1297.4 2751.94C1297.19 2752.31 1296.89 2752.59 1296.5 2752.8C1296.11 2753.01 1295.64 2753.11 1295.1 2753.11Z" fill="#8D8B84"/>
<path d="M891.8 3122V3115H892.46V3117.85H892.51C892.677 3117.56 892.91 3117.34 893.21 3117.17C893.517 3117 893.867 3116.91 894.26 3116.91C894.66 3116.91 895.003 3116.99 895.29 3117.16C895.583 3117.32 895.807 3117.56 895.96 3117.88C896.113 3118.2 896.19 3118.58 896.19 3119.03V3122H895.53V3119.14C895.53 3118.62 895.41 3118.22 895.17 3117.94C894.93 3117.65 894.58 3117.51 894.12 3117.51C893.807 3117.51 893.523 3117.58 893.27 3117.73C893.017 3117.88 892.817 3118.08 892.67 3118.35C892.53 3118.61 892.46 3118.91 892.46 3119.26V3122H891.8ZM902.392 3122.11C901.852 3122.11 901.379 3122 900.972 3121.79C900.566 3121.57 900.249 3121.28 900.022 3120.91C899.802 3120.54 899.692 3120.12 899.692 3119.67C899.692 3119.36 899.756 3119.05 899.882 3118.73C900.009 3118.41 900.199 3118.09 900.452 3117.76L902.572 3115H903.432L901.332 3117.68L901.112 3117.5C901.292 3117.42 901.489 3117.36 901.702 3117.31C901.922 3117.26 902.152 3117.24 902.392 3117.24C902.932 3117.24 903.406 3117.35 903.812 3117.56C904.226 3117.77 904.542 3118.07 904.762 3118.44C904.982 3118.81 905.092 3119.22 905.092 3119.67C905.092 3120.12 904.982 3120.54 904.762 3120.91C904.542 3121.28 904.226 3121.57 903.812 3121.79C903.406 3122 902.932 3122.11 902.392 3122.11ZM902.392 3121.46C902.799 3121.46 903.149 3121.38 903.442 3121.23C903.742 3121.07 903.972 3120.86 904.132 3120.59C904.292 3120.32 904.372 3120.01 904.372 3119.67C904.372 3119.33 904.292 3119.03 904.132 3118.76C903.972 3118.49 903.742 3118.27 903.442 3118.12C903.149 3117.97 902.799 3117.89 902.392 3117.89C901.986 3117.89 901.632 3117.97 901.332 3118.12C901.039 3118.27 900.812 3118.49 900.652 3118.76C900.499 3119.03 900.422 3119.33 900.422 3119.67C900.422 3120.01 900.499 3120.32 900.652 3120.59C900.812 3120.86 901.039 3121.07 901.332 3121.23C901.632 3121.38 901.986 3121.46 902.392 3121.46ZM909.045 3122.11C908.471 3122.11 907.945 3121.96 907.465 3121.67C906.985 3121.38 906.601 3120.96 906.315 3120.41C906.035 3119.86 905.895 3119.23 905.895 3118.5C905.895 3117.77 906.035 3117.14 906.315 3116.59C906.601 3116.04 906.985 3115.62 907.465 3115.33C907.945 3115.04 908.471 3114.89 909.045 3114.89C909.618 3114.89 910.141 3115.04 910.615 3115.33C911.095 3115.62 911.475 3116.04 911.755 3116.59C912.041 3117.14 912.185 3117.77 912.185 3118.5C912.185 3119.23 912.041 3119.86 911.755 3120.41C911.475 3120.96 911.095 3121.38 910.615 3121.67C910.141 3121.96 909.618 3122.11 909.045 3122.11ZM909.045 3121.43C909.485 3121.43 909.888 3121.32 910.255 3121.1C910.621 3120.88 910.915 3120.55 911.135 3120.11C911.355 3119.66 911.465 3119.13 911.465 3118.5C911.465 3117.87 911.355 3117.34 911.135 3116.9C910.915 3116.45 910.621 3116.12 910.255 3115.9C909.888 3115.68 909.485 3115.57 909.045 3115.57C908.598 3115.57 908.191 3115.68 907.825 3115.9C907.458 3116.12 907.165 3116.45 906.945 3116.9C906.731 3117.34 906.625 3117.87 906.625 3118.5C906.625 3119.13 906.731 3119.66 906.945 3120.11C907.165 3120.55 907.458 3120.88 907.825 3121.1C908.191 3121.32 908.598 3121.43 909.045 3121.43Z" fill="#8D8B84"/>
<path d="M1273.76 3122L1272.3 3117.01H1272.98L1274.19 3121.28H1274.24L1275.42 3117.01H1276.25L1277.43 3121.28H1277.48L1278.7 3117.01H1279.37L1277.9 3122H1277.04L1275.85 3117.73H1275.8L1274.62 3122H1273.76ZM1283.75 3122V3115.55L1284.01 3115.66L1282.25 3117.04V3116.23L1283.8 3115H1284.45V3122H1283.75ZM1286.38 3122L1289.58 3115.75V3115.7H1285.62V3115H1290.36V3115.78L1287.21 3122H1286.38ZM1291.07 3122V3121.12L1293.96 3118.89C1294.27 3118.64 1294.52 3118.41 1294.7 3118.22C1294.88 3118.02 1295.02 3117.82 1295.1 3117.63C1295.18 3117.43 1295.23 3117.22 1295.23 3116.99C1295.23 3116.56 1295.08 3116.21 1294.8 3115.96C1294.52 3115.7 1294.14 3115.57 1293.68 3115.57C1293.14 3115.57 1292.73 3115.71 1292.43 3116C1292.13 3116.29 1291.97 3116.66 1291.93 3117.11H1291.21C1291.22 3116.71 1291.32 3116.34 1291.5 3116.01C1291.68 3115.68 1291.96 3115.41 1292.32 3115.2C1292.68 3114.99 1293.14 3114.89 1293.68 3114.89C1294.14 3114.89 1294.54 3114.98 1294.88 3115.16C1295.22 3115.33 1295.48 3115.58 1295.67 3115.89C1295.85 3116.2 1295.95 3116.56 1295.95 3116.96C1295.95 3117.27 1295.89 3117.56 1295.79 3117.81C1295.69 3118.06 1295.52 3118.32 1295.3 3118.58C1295.07 3118.83 1294.76 3119.11 1294.36 3119.41L1291.98 3121.27V3121.32H1296.12V3122H1291.07Z" fill="#8D8B84"/>
<path d="M390.96 3122V3115H391.66V3121.32H395.42V3122H390.96ZM400.885 3122.11C400.358 3122.11 399.898 3122.02 399.505 3121.84C399.111 3121.66 398.805 3121.41 398.585 3121.1C398.365 3120.79 398.238 3120.44 398.205 3120.05H398.955C398.995 3120.33 399.095 3120.57 399.255 3120.78C399.421 3120.99 399.641 3121.15 399.915 3121.26C400.195 3121.37 400.518 3121.43 400.885 3121.43C401.271 3121.43 401.608 3121.36 401.895 3121.21C402.181 3121.06 402.401 3120.85 402.555 3120.58C402.708 3120.31 402.785 3120.01 402.785 3119.68C402.785 3119.37 402.708 3119.09 402.555 3118.84C402.408 3118.58 402.195 3118.38 401.915 3118.23C401.641 3118.08 401.321 3118.01 400.955 3118.01C400.601 3118.01 400.278 3118.07 399.985 3118.2C399.691 3118.32 399.465 3118.49 399.305 3118.72H398.625L399.165 3115H403.045V3115.68H399.705L399.375 3117.9H399.425C399.625 3117.73 399.861 3117.59 400.135 3117.5C400.415 3117.41 400.718 3117.36 401.045 3117.36C401.531 3117.36 401.961 3117.46 402.335 3117.67C402.708 3117.88 402.995 3118.16 403.195 3118.51C403.401 3118.86 403.505 3119.25 403.505 3119.68C403.505 3120.15 403.398 3120.57 403.185 3120.94C402.978 3121.31 402.678 3121.59 402.285 3121.8C401.891 3122.01 401.425 3122.11 400.885 3122.11ZM407.517 3122.11C406.944 3122.11 406.417 3121.96 405.937 3121.67C405.457 3121.38 405.074 3120.96 404.787 3120.41C404.507 3119.86 404.367 3119.23 404.367 3118.5C404.367 3117.77 404.507 3117.14 404.787 3116.59C405.074 3116.04 405.457 3115.62 405.937 3115.33C406.417 3115.04 406.944 3114.89 407.517 3114.89C408.091 3114.89 408.614 3115.04 409.087 3115.33C409.567 3115.62 409.947 3116.04 410.227 3116.59C410.514 3117.14 410.657 3117.77 410.657 3118.5C410.657 3119.23 410.514 3119.86 410.227 3120.41C409.947 3120.96 409.567 3121.38 409.087 3121.67C408.614 3121.96 408.091 3122.11 407.517 3122.11ZM407.517 3121.43C407.957 3121.43 408.361 3121.32 408.727 3121.1C409.094 3120.88 409.387 3120.55 409.607 3120.11C409.827 3119.66 409.937 3119.13 409.937 3118.5C409.937 3117.87 409.827 3117.34 409.607 3116.9C409.387 3116.45 409.094 3116.12 408.727 3115.9C408.361 3115.68 407.957 3115.57 407.517 3115.57C407.071 3115.57 406.664 3115.68 406.297 3115.9C405.931 3116.12 405.637 3116.45 405.417 3116.9C405.204 3117.34 405.097 3117.87 405.097 3118.5C405.097 3119.13 405.204 3119.66 405.417 3120.11C405.637 3120.55 405.931 3120.88 406.297 3121.1C406.664 3121.32 407.071 3121.43 407.517 3121.43ZM412.897 3122V3115.55L413.157 3115.66L411.397 3117.04V3116.23L412.947 3115H413.597V3122H412.897Z" fill="#8D8B84"/>
<path d="M108.8 3122V3115H109.46V3117.85H109.51C109.677 3117.56 109.91 3117.34 110.21 3117.17C110.517 3117 110.867 3116.91 111.26 3116.91C111.66 3116.91 112.003 3116.99 112.29 3117.16C112.583 3117.32 112.807 3117.56 112.96 3117.88C113.113 3118.2 113.19 3118.58 113.19 3119.03V3122H112.53V3119.14C112.53 3118.62 112.41 3118.22 112.17 3117.94C111.93 3117.65 111.58 3117.51 111.12 3117.51C110.807 3117.51 110.523 3117.58 110.27 3117.73C110.017 3117.88 109.817 3118.08 109.67 3118.35C109.53 3118.61 109.46 3118.91 109.46 3119.26V3122H108.8ZM119.292 3122.11C118.746 3122.11 118.272 3122.02 117.872 3121.85C117.479 3121.68 117.172 3121.44 116.952 3121.13C116.732 3120.82 116.606 3120.46 116.572 3120.05H117.322C117.369 3120.5 117.562 3120.84 117.902 3121.08C118.242 3121.31 118.706 3121.43 119.292 3121.43C119.686 3121.43 120.019 3121.37 120.292 3121.24C120.572 3121.11 120.782 3120.93 120.922 3120.7C121.069 3120.47 121.142 3120.22 121.142 3119.93C121.142 3119.63 121.069 3119.37 120.922 3119.15C120.776 3118.92 120.562 3118.75 120.282 3118.64C120.009 3118.53 119.682 3118.47 119.302 3118.47H118.062V3117.85L120.582 3115.73V3115.68H117.112V3115H121.432V3115.81L119.072 3117.81V3118.07L118.892 3117.86H119.422C119.909 3117.86 120.336 3117.94 120.702 3118.11C121.076 3118.28 121.362 3118.52 121.562 3118.83C121.769 3119.14 121.872 3119.51 121.872 3119.93C121.872 3120.32 121.772 3120.69 121.572 3121.02C121.372 3121.35 121.076 3121.62 120.682 3121.82C120.296 3122.01 119.832 3122.11 119.292 3122.11ZM125.446 3122.11C124.912 3122.11 124.446 3122.03 124.046 3121.87C123.652 3121.71 123.346 3121.48 123.126 3121.18C122.906 3120.87 122.796 3120.51 122.796 3120.1C122.796 3119.67 122.919 3119.31 123.166 3119C123.412 3118.69 123.756 3118.47 124.196 3118.35V3118.3C123.796 3118.16 123.496 3117.96 123.296 3117.7C123.102 3117.43 123.006 3117.12 123.006 3116.76C123.006 3116.39 123.099 3116.07 123.286 3115.79C123.479 3115.5 123.759 3115.28 124.126 3115.13C124.492 3114.97 124.932 3114.89 125.446 3114.89C125.959 3114.89 126.399 3114.97 126.766 3115.13C127.132 3115.28 127.412 3115.5 127.606 3115.79C127.799 3116.07 127.896 3116.39 127.896 3116.76C127.896 3117.12 127.796 3117.43 127.596 3117.7C127.402 3117.96 127.102 3118.16 126.696 3118.3V3118.35C127.136 3118.47 127.479 3118.69 127.726 3119C127.972 3119.31 128.096 3119.67 128.096 3120.1C128.096 3120.51 127.986 3120.87 127.766 3121.18C127.552 3121.48 127.246 3121.71 126.846 3121.87C126.446 3122.03 125.979 3122.11 125.446 3122.11ZM125.446 3121.43C126.059 3121.43 126.532 3121.31 126.866 3121.08C127.206 3120.85 127.376 3120.5 127.376 3120.05C127.376 3119.6 127.206 3119.26 126.866 3119.03C126.532 3118.8 126.059 3118.68 125.446 3118.68C124.832 3118.68 124.359 3118.8 124.026 3119.03C123.692 3119.26 123.526 3119.6 123.526 3120.05C123.526 3120.5 123.692 3120.85 124.026 3121.08C124.359 3121.31 124.832 3121.43 125.446 3121.43ZM125.446 3118.01C126.012 3118.01 126.439 3117.9 126.726 3117.69C127.019 3117.48 127.166 3117.18 127.166 3116.79C127.166 3116.4 127.022 3116.1 126.736 3115.89C126.449 3115.68 126.019 3115.57 125.446 3115.57C124.872 3115.57 124.442 3115.68 124.156 3115.89C123.869 3116.1 123.726 3116.4 123.726 3116.79C123.726 3117.18 123.872 3117.48 124.166 3117.69C124.459 3117.9 124.886 3118.01 125.446 3118.01ZM131.697 3122.11C131.157 3122.11 130.684 3122 130.277 3121.79C129.87 3121.57 129.554 3121.28 129.327 3120.91C129.107 3120.54 128.997 3120.12 128.997 3119.67C128.997 3119.36 129.06 3119.05 129.187 3118.73C129.314 3118.41 129.504 3118.09 129.757 3117.76L131.877 3115H132.737L130.637 3117.68L130.417 3117.5C130.597 3117.42 130.794 3117.36 131.007 3117.31C131.227 3117.26 131.457 3117.24 131.697 3117.24C132.237 3117.24 132.71 3117.35 133.117 3117.56C133.53 3117.77 133.847 3118.07 134.067 3118.44C134.287 3118.81 134.397 3119.22 134.397 3119.67C134.397 3120.12 134.287 3120.54 134.067 3120.91C133.847 3121.28 133.53 3121.57 133.117 3121.79C132.71 3122 132.237 3122.11 131.697 3122.11ZM131.697 3121.46C132.104 3121.46 132.454 3121.38 132.747 3121.23C133.047 3121.07 133.277 3120.86 133.437 3120.59C133.597 3120.32 133.677 3120.01 133.677 3119.67C133.677 3119.33 133.597 3119.03 133.437 3118.76C133.277 3118.49 133.047 3118.27 132.747 3118.12C132.454 3117.97 132.104 3117.89 131.697 3117.89C131.29 3117.89 130.937 3117.97 130.637 3118.12C130.344 3118.27 130.117 3118.49 129.957 3118.76C129.804 3119.03 129.727 3119.33 129.727 3119.67C129.727 3120.01 129.804 3120.32 129.957 3120.59C130.117 3120.86 130.344 3121.07 130.637 3121.23C130.937 3121.38 131.29 3121.46 131.697 3121.46Z" fill="#8D8B84"/>
<path d="M501.76 2735L500.3 2730.01H500.98L502.19 2734.28H502.24L503.42 2730.01H504.25L505.43 2734.28H505.48L506.7 2730.01H507.37L505.9 2735H505.04L503.85 2730.73H503.8L502.62 2735H501.76ZM512.874 2735.11C512.328 2735.11 511.854 2735.02 511.454 2734.85C511.061 2734.68 510.754 2734.44 510.534 2734.13C510.314 2733.82 510.188 2733.46 510.154 2733.05H510.904C510.951 2733.5 511.144 2733.84 511.484 2734.08C511.824 2734.31 512.288 2734.43 512.874 2734.43C513.268 2734.43 513.601 2734.37 513.874 2734.24C514.154 2734.11 514.364 2733.93 514.504 2733.7C514.651 2733.47 514.724 2733.22 514.724 2732.93C514.724 2732.63 514.651 2732.37 514.504 2732.15C514.358 2731.92 514.144 2731.75 513.864 2731.64C513.591 2731.53 513.264 2731.47 512.884 2731.47H511.644V2730.85L514.164 2728.73V2728.68H510.694V2728H515.014V2728.81L512.654 2730.81V2731.07L512.474 2730.86H513.004C513.491 2730.86 513.918 2730.94 514.284 2731.11C514.658 2731.28 514.944 2731.52 515.144 2731.83C515.351 2732.14 515.454 2732.51 515.454 2732.93C515.454 2733.32 515.354 2733.69 515.154 2734.02C514.954 2734.35 514.658 2734.62 514.264 2734.82C513.878 2735.01 513.414 2735.11 512.874 2735.11ZM517.9 2735L519.99 2732.32L520.22 2732.5C520.033 2732.58 519.83 2732.64 519.61 2732.69C519.397 2732.74 519.17 2732.76 518.93 2732.76C518.39 2732.76 517.917 2732.65 517.51 2732.44C517.103 2732.23 516.787 2731.94 516.56 2731.57C516.34 2731.2 516.23 2730.78 516.23 2730.33C516.23 2729.88 516.34 2729.47 516.56 2729.1C516.787 2728.73 517.103 2728.43 517.51 2728.22C517.917 2728 518.39 2727.89 518.93 2727.89C519.47 2727.89 519.943 2728 520.35 2728.22C520.763 2728.43 521.08 2728.73 521.3 2729.1C521.52 2729.47 521.63 2729.88 521.63 2730.33C521.63 2730.64 521.567 2730.95 521.44 2731.27C521.313 2731.59 521.127 2731.91 520.88 2732.24L518.76 2735H517.9ZM518.93 2732.11C519.337 2732.11 519.687 2732.03 519.98 2731.88C520.28 2731.73 520.51 2731.52 520.67 2731.25C520.83 2730.98 520.91 2730.67 520.91 2730.33C520.91 2729.99 520.83 2729.69 520.67 2729.42C520.51 2729.15 520.28 2728.93 519.98 2728.78C519.687 2728.62 519.337 2728.54 518.93 2728.54C518.523 2728.54 518.17 2728.62 517.87 2728.78C517.577 2728.93 517.35 2729.15 517.19 2729.42C517.037 2729.69 516.96 2729.99 516.96 2730.33C516.96 2730.67 517.037 2730.98 517.19 2731.25C517.35 2731.52 517.577 2731.73 517.87 2731.88C518.17 2732.03 518.523 2732.11 518.93 2732.11ZM522.415 2735V2734.12L525.305 2731.89C525.618 2731.64 525.865 2731.41 526.045 2731.22C526.231 2731.02 526.365 2730.82 526.445 2730.63C526.531 2730.43 526.575 2730.22 526.575 2729.99C526.575 2729.56 526.431 2729.21 526.145 2728.96C525.865 2728.7 525.491 2728.57 525.025 2728.57C524.491 2728.57 524.075 2728.71 523.775 2729C523.481 2729.29 523.315 2729.66 523.275 2730.11H522.555C522.568 2729.71 522.665 2729.34 522.845 2729.01C523.031 2728.68 523.305 2728.41 523.665 2728.2C524.031 2727.99 524.485 2727.89 525.025 2727.89C525.485 2727.89 525.885 2727.98 526.225 2728.16C526.565 2728.33 526.828 2728.58 527.015 2728.89C527.201 2729.2 527.295 2729.56 527.295 2729.96C527.295 2730.27 527.241 2730.56 527.135 2730.81C527.035 2731.06 526.871 2731.32 526.645 2731.58C526.418 2731.83 526.105 2732.11 525.705 2732.41L523.325 2734.27V2734.32H527.465V2735H522.415Z" fill="#8D8B84"/>
</g>
<defs>
<clipPath id="clip0_2003_3780">
<rect width="1440" height="1678" fill="white"/>
</clipPath>
<clipPath id="clip1_2003_3780">
<rect width="1440" height="1075" fill="white" transform="translate(0 1090)"/>
</clipPath>
<clipPath id="clip2_2003_3780">
<rect width="1440" height="961" fill="white" transform="translate(0 2165)"/>
</clipPath>
</defs>
</svg>
