<svg width="1376" height="28" viewBox="0 0 1376 28" fill="none" xmlns="http://www.w3.org/2000/svg">
<g clip-path="url(#clip0_8_3464)">
<path d="M2.91546 14.5643V24.9904H0.257812V5.51758H0.79629L9.04715 19.7773L17.2806 5.51758H17.8191V24.9904H15.1615V14.5643L9.04715 25.2591L2.93283 14.5643H2.91546Z" fill="#21201C" stroke="#21201C" stroke-width="0.3" stroke-miterlimit="10"/>
<path d="M117.172 5.78613H128.08V8.52702H119.847V14.0088H126.5V16.7497H119.847V22.2314H128.358V24.9723H117.189V5.78613H117.172Z" fill="#21201C" stroke="#21201C" stroke-width="0.3" stroke-miterlimit="10"/>
<path d="M175.281 5.78613H187.51V19.2218H177.939V24.9723H175.281V5.78613ZM184.852 16.4809V8.52702H177.939V16.4809H184.852Z" fill="#21201C" stroke="#21201C" stroke-width="0.3" stroke-miterlimit="10"/>
<path d="M299.63 5.51758H300.168L307.62 24.9904H304.702L303.364 21.1567H296.451L295.113 24.9904H292.195L299.647 5.51758H299.63ZM302.305 18.3979L299.908 12.0921L297.511 18.3979H302.287H302.305Z" fill="#21201C" stroke="#21201C" stroke-width="0.3" stroke-miterlimit="10"/>
<path d="M642.406 5.78613H654.895L653.158 13.7401H654.895V24.9723H642.406V5.78613ZM650.379 13.7401L651.578 8.52702H645.064V13.7401H650.379ZM652.255 22.2493V16.4989H645.081V22.2493H652.255Z" fill="#21201C" stroke="#21201C" stroke-width="0.3" stroke-miterlimit="10"/>
<path d="M817.328 5.78613H828.237V8.52702H820.003V14.0088H826.656V16.7497H820.003V22.2314H828.515V24.9723H817.346V5.78613H817.328Z" fill="#21201C" stroke="#21201C" stroke-width="0.3" stroke-miterlimit="10"/>
<path d="M951.93 24.9902H933.188V5.78613H935.845V22.2314H941.699V5.78613H944.357V22.2314H950.21V5.78613H952.868V22.2314H954.605V27.7132H951.947V24.9723L951.93 24.9902Z" fill="#21201C" stroke="#21201C" stroke-width="0.3" stroke-miterlimit="10"/>
<path d="M1167.41 5.78613H1178.32V8.52702H1170.07V14.0088H1176.72V16.7497H1170.07V22.2314H1178.58V24.9723H1167.41V5.78613Z" fill="#21201C" stroke="#21201C" stroke-width="0.3" stroke-miterlimit="10"/>
<path d="M1363.51 5.78663H1366.17V17.8429L1375.2 5.5H1375.74V24.9728H1373.08V12.9165L1364.05 25.2594H1363.51V5.78663Z" fill="#21201C" stroke="#21201C" stroke-width="0.3" stroke-miterlimit="10"/>
<path d="M167.283 13.7402H136.359V17.0185H167.283V13.7402Z" fill="#21201C"/>
<path d="M809.335 13.7402H662.895V17.0185H809.335V13.7402Z" fill="#21201C"/>
<path d="M109.17 13.7402H25.8203V17.0185H109.17V13.7402Z" fill="#21201C"/>
<path d="M284.188 13.7402H195.508V17.0185H284.188V13.7402Z" fill="#21201C"/>
<path d="M925.186 13.7402H836.516V17.0185H925.186V13.7402Z" fill="#21201C"/>
<path d="M1355.51 13.7402H1186.58V17.0185H1355.51V13.7402Z" fill="#21201C"/>
<path d="M1159.41 13.7402H962.609V17.0185H1159.41V13.7402Z" fill="#21201C"/>
<path d="M634.407 13.7402H315.617V17.0185H634.407V13.7402Z" fill="#21201C"/>
<path d="M1373.34 0H1365.89V2.7588H1373.34V0Z" fill="#21201C"/>
</g>
<defs>
<clipPath id="clip0_8_3464">
<rect width="1376" height="28" fill="white"/>
</clipPath>
</defs>
</svg>
