<svg width="22" height="24" viewBox="0 0 22 24" fill="none" xmlns="http://www.w3.org/2000/svg">
<path fill-rule="evenodd" clip-rule="evenodd" d="M1.51239 10.8488C7.41795 8.27585 11.3559 6.57959 13.3263 5.76003C18.9521 3.42005 20.1211 3.01357 20.883 3.00014C21.0506 2.99719 21.4253 3.03872 21.668 3.23567C21.873 3.40197 21.9294 3.62661 21.9563 3.78428C21.9833 3.94195 22.0169 4.30112 21.9902 4.58177C21.6854 7.78504 20.3662 15.5585 19.6951 19.1462C19.4111 20.6643 18.852 21.1733 18.3107 21.2231C17.1343 21.3314 16.2409 20.4457 15.1015 19.6988C13.3186 18.53 12.3113 17.8025 10.5807 16.662C8.58058 15.3439 9.87715 14.6195 11.017 13.4356C11.3153 13.1258 16.4986 8.41117 16.5989 7.98348C16.6115 7.92999 16.6231 7.7306 16.5046 7.62532C16.3862 7.52004 16.2114 7.55604 16.0852 7.58467C15.9064 7.62526 13.0581 9.50789 7.54035 13.2326C6.73187 13.7877 5.99958 14.0582 5.34347 14.044C4.62016 14.0284 3.2288 13.6351 2.19447 13.2988C0.925826 12.8865 -0.0824703 12.6684 0.00532971 11.9681C0.0510613 11.6033 0.553413 11.2302 1.51239 10.8488Z" fill="#21201C"/>
</svg>
